<svg xmlns="http://www.w3.org/2000/svg" xmlns:xlink="http://www.w3.org/1999/xlink" width="167.254" height="52.817" viewBox="0 0 167.254 52.817">
  <defs>
    <linearGradient id="linear-gradient" x1="0.597" y1="0.049" x2="0.294" y2="0.719" gradientUnits="objectBoundingBox">
      <stop offset="0" stop-color="#00a0ff"/>
      <stop offset="0.007" stop-color="#00a1ff"/>
      <stop offset="0.26" stop-color="#00beff"/>
      <stop offset="0.512" stop-color="#00d2ff"/>
      <stop offset="0.76" stop-color="#00dfff"/>
      <stop offset="1" stop-color="#00e3ff"/>
    </linearGradient>
    <linearGradient id="linear-gradient-2" x1="1.076" y1="0.5" x2="-1.305" y2="0.5" gradientUnits="objectBoundingBox">
      <stop offset="0" stop-color="#ffe000"/>
      <stop offset="0.409" stop-color="#ffbd00"/>
      <stop offset="0.775" stop-color="orange"/>
      <stop offset="1" stop-color="#ff9c00"/>
    </linearGradient>
    <linearGradient id="linear-gradient-3" x1="0.863" y1="0.282" x2="-0.502" y2="1.482" gradientUnits="objectBoundingBox">
      <stop offset="0" stop-color="#ff3a44"/>
      <stop offset="1" stop-color="#c31162"/>
    </linearGradient>
    <linearGradient id="linear-gradient-4" x1="-0.188" y1="-0.205" x2="0.421" y2="0.33" gradientUnits="objectBoundingBox">
      <stop offset="0" stop-color="#32a071"/>
      <stop offset="0.068" stop-color="#2da771"/>
      <stop offset="0.476" stop-color="#15cf74"/>
      <stop offset="0.801" stop-color="#06e775"/>
      <stop offset="1" stop-color="#00f076"/>
    </linearGradient>
  </defs>
  <g id="Group_7447" data-name="Group 7447" transform="translate(-139 -7627.001)">
    <g id="Google_play" data-name="Google play" transform="translate(0 -111.999)">
      <path id="Path_179" data-name="Path 179" d="M161.059,52.815H6.2a6.426,6.426,0,0,1-6.2-6.6V6.6A6.426,6.426,0,0,1,6.2,0H161.057a6.426,6.426,0,0,1,6.2,6.6V46.214A6.427,6.427,0,0,1,161.059,52.815Z" transform="translate(139 7739.001)"/>
      <path id="Path_180" data-name="Path 180" d="M161.059,1.057a5.383,5.383,0,0,1,5.2,5.547V46.215a5.382,5.382,0,0,1-5.2,5.545H6.2a5.382,5.382,0,0,1-5.2-5.545V6.6A5.382,5.382,0,0,1,6.2,1.055H161.057m0-1.056H6.2A6.429,6.429,0,0,0,0,6.6V46.215a6.427,6.427,0,0,0,6.2,6.6H161.057a6.425,6.425,0,0,0,6.2-6.6V6.6A6.423,6.423,0,0,0,161.059,0Z" transform="translate(139 7739.001)" fill="#a6a6a6"/>
      <path id="Path_182" data-name="Path 182" d="M62.454,19.031a5.378,5.378,0,0,0-5.289,5.623,5.3,5.3,0,1,0,10.579,0A5.377,5.377,0,0,0,62.454,19.031Zm0,9.037a3.168,3.168,0,0,1-2.974-3.414,3,3,0,1,1,5.947,0A3.175,3.175,0,0,1,62.454,28.068ZM50.908,19.031a5.378,5.378,0,0,0-5.291,5.623,5.3,5.3,0,1,0,10.581,0A5.378,5.378,0,0,0,50.908,19.031Zm0,9.037a3.167,3.167,0,0,1-2.974-3.414,3,3,0,1,1,5.947,0,3.167,3.167,0,0,1-2.975,3.414Zm-13.727-7.3v2.38h5.352a5.177,5.177,0,0,1-1.215,3A5.3,5.3,0,0,1,37.193,27.9a6.084,6.084,0,0,1-5.873-6.35,6.084,6.084,0,0,1,5.873-6.35A5.475,5.475,0,0,1,41.22,16.9l1.574-1.681a7.559,7.559,0,0,0-5.613-2.408,8.582,8.582,0,0,0-8.3,8.747,8.589,8.589,0,0,0,8.3,8.745,7.238,7.238,0,0,0,5.711-2.447,8.229,8.229,0,0,0,1.933-5.585,7.744,7.744,0,0,0-.123-1.495H37.181v-.012Zm56.136,1.852c-.435-1.257-1.773-3.586-4.511-3.586-2.713,0-4.968,2.276-4.968,5.623a5.34,5.34,0,0,0,5.229,5.623,5.161,5.161,0,0,0,4.386-2.488l-1.8-1.283a2.966,2.966,0,0,1-2.59,1.562,2.67,2.67,0,0,1-2.553-1.708l7.049-3.109-.246-.634ZM86.13,24.5a3,3,0,0,1,2.75-3.282,2.032,2.032,0,0,1,1.958,1.19Zm-5.724,5.451h2.317V13.408H80.407Zm-3.791-9.658h-.088a3.538,3.538,0,0,0-2.775-1.257c-2.639,0-5.055,2.474-5.055,5.651a5.422,5.422,0,0,0,5.055,5.607,3.5,3.5,0,0,0,2.775-1.283H76.6v.808c0,2.157-1.079,3.308-2.813,3.308a2.944,2.944,0,0,1-2.651-2l-2.019.9a5.047,5.047,0,0,0,4.671,3.322c2.713,0,5.005-1.708,5.005-5.861V19.376H76.6v.912h.012Zm-2.664,7.78a3.147,3.147,0,0,1-2.937-3.387,3.168,3.168,0,0,1,2.937-3.426c1.572,0,2.812,1.454,2.812,3.426S75.537,28.068,73.952,28.068Zm30.217-14.66H98.634V29.947h2.315V23.676h3.234a5.134,5.134,0,0,0-.012-10.268Zm.049,7.965h-3.283V15.7h3.283a2.841,2.841,0,0,1,0,5.676ZM118.516,19a4.317,4.317,0,0,0-4.125,2.526l2.056.914a2.153,2.153,0,0,1,2.106-1.217,2.264,2.264,0,0,1,2.43,2.13v.171a4.929,4.929,0,0,0-2.417-.634c-2.218,0-4.46,1.3-4.46,3.717a3.671,3.671,0,0,0,3.84,3.639,3.212,3.212,0,0,0,2.949-1.614h.074V29.92H123.2V23.582A4.356,4.356,0,0,0,118.516,19Zm-.285,9.063c-.757,0-1.808-.41-1.808-1.4,0-1.269,1.313-1.761,2.452-1.761a3.879,3.879,0,0,1,2.106.556,2.863,2.863,0,0,1-2.75,2.606Zm13.107-8.706-2.651,7.171h-.074l-2.75-7.171H123.37L127.5,29.391l-2.354,5.57h2.416l6.356-15.6h-2.577ZM110.525,29.947h2.317V13.408h-2.317Z" transform="translate(160.965 7748.639)" fill="#fff"/>
      <path id="Path_183" data-name="Path 183" d="M1.259.446A2.786,2.786,0,0,0,.69,2.3V31.563a2.737,2.737,0,0,0,.569,1.852l.088.093L16.694,17.129v-.4L1.347.353Z" transform="translate(150.674 7748.478)" fill="url(#linear-gradient)"/>
      <path id="Path_184" data-name="Path 184" d="M14.9,17.879,9.78,12.414v-.4L14.9,6.553l.111.067L21.067,10.3c1.734,1.046,1.734,2.764,0,3.824L15.011,17.8l-.113.079Z" transform="translate(157.588 7753.193)" fill="url(#linear-gradient-2)"/>
      <path id="Path_185" data-name="Path 185" d="M21.679,15.365,16.45,9.77,1.013,26.254c.57.648,1.512.729,2.577.079L21.679,15.365" transform="translate(150.921 7755.64)" fill="url(#linear-gradient-3)"/>
      <path id="Path_186" data-name="Path 186" d="M21.684,11.536,3.583.555C2.518-.095,1.576-.014,1.006.634L16.455,17.12Z" transform="translate(150.916 7748.289)" fill="url(#linear-gradient-4)"/>
      <path id="Path_187" data-name="Path 187" d="M21.568.1,3.578,11.014a1.954,1.954,0,0,1-2.477.012l-.088.093.088.092A1.956,1.956,0,0,0,3.578,11.2L21.679.216,21.568.1Z" transform="translate(150.921 7770.777)" opacity="0.2"/>
      <path id="Path_188" data-name="Path 188" d="M1.259,7.052A2.78,2.78,0,0,1,.69,5.2v.2a2.737,2.737,0,0,0,.569,1.852l.088-.092-.088-.106Z" transform="translate(150.674 7774.657)" opacity="0.12"/>
      <path id="Path_189" data-name="Path 189" d="M18.862,11.488l-6.181,3.745.111.12,6.058-3.68a2.323,2.323,0,0,0,1.3-1.9,2.391,2.391,0,0,1-1.29,1.718Z" transform="translate(159.794 7755.64)" opacity="0.12"/>
      <path id="Path_190" data-name="Path 190" d="M3.829.737,27.988,15.4a2.454,2.454,0,0,1,1.3,1.72,2.312,2.312,0,0,0-1.3-1.907L3.829.552C2.095-.494.683.379.683,2.5v.2c0-2.13,1.424-3,3.146-1.958Z" transform="translate(150.67 7748.292)" fill="#fff" opacity="0.25"/>
    </g>
    <text id="Baixe_na" data-name="Baixe na" transform="translate(190 7645)" fill="#fff" font-size="14" font-family="Roboto-Regular, Roboto"><tspan x="0" y="0">BAIXE na</tspan></text>
  </g>
</svg>
