<svg xmlns="http://www.w3.org/2000/svg" xmlns:xlink="http://www.w3.org/1999/xlink" width="132.36" height="41.801" viewBox="0 0 132.36 41.801">
  <defs>
    <linearGradient id="linear-gradient" x1="0.597" y1="0.049" x2="0.294" y2="0.719" gradientUnits="objectBoundingBox">
      <stop offset="0" stop-color="#00a0ff"/>
      <stop offset="0.007" stop-color="#00a1ff"/>
      <stop offset="0.26" stop-color="#00beff"/>
      <stop offset="0.512" stop-color="#00d2ff"/>
      <stop offset="0.76" stop-color="#00dfff"/>
      <stop offset="1" stop-color="#00e3ff"/>
    </linearGradient>
    <linearGradient id="linear-gradient-2" x1="1.076" y1="0.5" x2="-1.305" y2="0.5" gradientUnits="objectBoundingBox">
      <stop offset="0" stop-color="#ffe000"/>
      <stop offset="0.409" stop-color="#ffbd00"/>
      <stop offset="0.775" stop-color="orange"/>
      <stop offset="1" stop-color="#ff9c00"/>
    </linearGradient>
    <linearGradient id="linear-gradient-3" x1="0.863" y1="0.282" x2="-0.502" y2="1.482" gradientUnits="objectBoundingBox">
      <stop offset="0" stop-color="#ff3a44"/>
      <stop offset="1" stop-color="#c31162"/>
    </linearGradient>
    <linearGradient id="linear-gradient-4" x1="-0.188" y1="-0.205" x2="0.421" y2="0.33" gradientUnits="objectBoundingBox">
      <stop offset="0" stop-color="#32a071"/>
      <stop offset="0.068" stop-color="#2da771"/>
      <stop offset="0.476" stop-color="#15cf74"/>
      <stop offset="0.801" stop-color="#06e775"/>
      <stop offset="1" stop-color="#00f076"/>
    </linearGradient>
  </defs>
  <g id="Group_7458" data-name="Group 7458" transform="translate(-288 -7851)">
    <g id="Group_3139" data-name="Group 3139" transform="translate(187.002 -2089)">
      <g id="Group_3138" data-name="Group 3138">
        <g id="Group_3137" data-name="Group 3137">
          <path id="Path_179" data-name="Path 179" d="M127.457,41.8H4.9A5.085,5.085,0,0,1,0,36.573V5.225A5.085,5.085,0,0,1,4.9,0H127.456a5.085,5.085,0,0,1,4.9,5.225V36.573a5.086,5.086,0,0,1-4.9,5.227Z" transform="translate(101 9940.001)"/>
          <path id="Path_180" data-name="Path 180" d="M127.457.836a4.26,4.26,0,0,1,4.118,4.39V36.573a4.259,4.259,0,0,1-4.118,4.388H4.9A4.259,4.259,0,0,1,.786,36.573V5.226A4.259,4.259,0,0,1,4.9.835H127.456m0-.836H4.9A5.088,5.088,0,0,0,0,5.226V36.573A5.086,5.086,0,0,0,4.9,41.8H127.456a5.085,5.085,0,0,0,4.9-5.224V5.226A5.083,5.083,0,0,0,127.457,0Z" transform="translate(101 9940.001)" fill="#a6a6a6"/>
          <path id="Path_182" data-name="Path 182" d="M55.45,17.734a4.256,4.256,0,0,0-4.185,4.45,4.194,4.194,0,1,0,8.372,0,4.255,4.255,0,0,0-4.187-4.45Zm0,7.152a2.507,2.507,0,0,1-2.353-2.7,2.376,2.376,0,1,1,4.706,0,2.512,2.512,0,0,1-2.353,2.7Zm-9.137-7.152a4.256,4.256,0,0,0-4.187,4.45,4.2,4.2,0,1,0,8.374,0,4.256,4.256,0,0,0-4.187-4.45Zm0,7.152a2.506,2.506,0,0,1-2.353-2.7,2.376,2.376,0,1,1,4.706,0,2.506,2.506,0,0,1-2.355,2.7Zm-10.864-5.78V20.99h4.236a4.1,4.1,0,0,1-.961,2.377,4.192,4.192,0,0,1-3.264,1.382,4.815,4.815,0,0,1-4.648-5.026A4.815,4.815,0,0,1,35.459,14.7a4.333,4.333,0,0,1,3.186,1.351l1.246-1.331a5.982,5.982,0,0,0-4.442-1.906,6.791,6.791,0,0,0-6.569,6.922,6.8,6.8,0,0,0,6.569,6.92,5.728,5.728,0,0,0,4.52-1.937A6.512,6.512,0,0,0,41.5,20.3a6.128,6.128,0,0,0-.1-1.183H35.449v-.01Zm44.424,1.466a3.93,3.93,0,0,0-3.57-2.838c-2.147,0-3.932,1.8-3.932,4.45a4.226,4.226,0,0,0,4.138,4.45,4.084,4.084,0,0,0,3.471-1.969L78.56,23.65a2.347,2.347,0,0,1-2.049,1.236,2.113,2.113,0,0,1-2.02-1.351l5.579-2.461-.2-.5Zm-5.687,1.487a2.378,2.378,0,0,1,2.176-2.6,1.608,1.608,0,0,1,1.549.942Zm-4.53,4.314H71.49V13.284H69.657Zm-3-7.643h-.07a2.8,2.8,0,0,0-2.2-.995,4.308,4.308,0,0,0-4,4.472,4.291,4.291,0,0,0,4,4.438,2.767,2.767,0,0,0,2.2-1.016h.06v.64c0,1.707-.854,2.618-2.226,2.618a2.329,2.329,0,0,1-2.1-1.581l-1.6.711a3.994,3.994,0,0,0,3.7,2.629c2.147,0,3.961-1.351,3.961-4.638v-8H66.647v.722h.01Zm-2.108,6.157a2.491,2.491,0,0,1-2.324-2.681A2.507,2.507,0,0,1,64.548,19.5a2.455,2.455,0,0,1,2.225,2.711,2.42,2.42,0,0,1-2.224,2.68Zm23.913-11.6h-4.38V26.372h1.832V21.409h2.559a4.063,4.063,0,1,0-.01-8.126Zm.039,6.3H85.9V15.1h2.6a2.248,2.248,0,0,1,0,4.492Zm11.315-1.874a3.417,3.417,0,0,0-3.264,2l1.627.723a1.7,1.7,0,0,1,1.666-.963,1.792,1.792,0,0,1,1.923,1.686v.135a3.9,3.9,0,0,0-1.913-.5c-1.756,0-3.529,1.025-3.529,2.941a2.9,2.9,0,0,0,3.039,2.88,2.542,2.542,0,0,0,2.334-1.278h.059v1.016h1.765V21.336a3.448,3.448,0,0,0-3.706-3.622Zm-.226,7.173c-.6,0-1.431-.325-1.431-1.11,0-1,1.039-1.393,1.941-1.393a3.07,3.07,0,0,1,1.666.44,2.266,2.266,0,0,1-2.176,2.062ZM109.963,18l-2.1,5.675H107.8L105.63,18h-1.973l3.266,7.936-1.863,4.4h1.912L112,18h-2.04ZM93.491,26.372h1.834V13.284H93.491Z" transform="translate(112.357 9944.955)" fill="#fff"/>
          <path id="Path_183" data-name="Path 183" d="M1.14.427A2.2,2.2,0,0,0,.69,1.893V25.051a2.166,2.166,0,0,0,.45,1.466l.07.074L13.355,13.629v-.313L1.21.353Z" transform="translate(110.095 9947.427)" fill="url(#linear-gradient)"/>
          <path id="Path_184" data-name="Path 184" d="M13.832,15.516,9.78,11.191v-.313l4.05-4.325.088.053,4.794,2.911a1.627,1.627,0,0,1,0,3.026l-4.793,2.911-.089.063Z" transform="translate(113.67 9949.865)" fill="url(#linear-gradient-2)"/>
          <path id="Path_185" data-name="Path 185" d="M17.367,14.2,13.229,9.77,1.013,22.815a1.514,1.514,0,0,0,2.04.063L17.367,14.2" transform="translate(110.223 9951.13)" fill="url(#linear-gradient-3)"/>
          <path id="Path_186" data-name="Path 186" d="M17.37,9.151,3.046.461a1.514,1.514,0,0,0-2.04.063L13.232,13.571Z" transform="translate(110.22 9947.329)" fill="url(#linear-gradient-4)"/>
          <path id="Path_187" data-name="Path 187" d="M17.279.1,3.043,8.736a1.547,1.547,0,0,1-1.96.01l-.07.074.07.072a1.548,1.548,0,0,0,1.96-.01L17.367.191Z" transform="translate(110.223 9965.127)" opacity="0.2"/>
          <path id="Path_188" data-name="Path 188" d="M1.14,6.666A2.2,2.2,0,0,1,.69,5.2v.157a2.166,2.166,0,0,0,.45,1.466l.07-.072-.07-.084Z" transform="translate(110.095 9967.133)" opacity="0.12"/>
          <path id="Path_189" data-name="Path 189" d="M17.573,11.13l-4.892,2.963.088.1,4.794-2.912A1.839,1.839,0,0,0,18.594,9.77,1.892,1.892,0,0,1,17.573,11.13Z" transform="translate(114.811 9951.13)" opacity="0.12"/>
          <path id="Path_190" data-name="Path 190" d="M3.173.606l19.118,11.6a1.942,1.942,0,0,1,1.031,1.361,1.83,1.83,0,0,0-1.031-1.509L3.173.46C1.8-.368.683.323.683,2v.157C.683.47,1.81-.222,3.173.606Z" transform="translate(110.093 9947.331)" fill="#fff" opacity="0.25"/>
        </g>
      </g>
    </g>
    <text id="Baixe_na" data-name="Baixe na" transform="translate(329 7865)" fill="#fff" font-size="9" font-family="Roboto-Regular, Roboto"><tspan x="0" y="0">BAIXE NA</tspan></text>
  </g>
</svg>
