<svg xmlns="http://www.w3.org/2000/svg" xmlns:xlink="http://www.w3.org/1999/xlink" width="461" height="470" viewBox="0 0 461 470">
  <defs>
    <linearGradient id="linear-gradient" x1="0.5" x2="0.5" y2="1" gradientUnits="objectBoundingBox">
      <stop offset="0" stop-color="#0667eb"/>
      <stop offset="1" stop-color="#fff"/>
    </linearGradient>
  </defs>
  <g id="Group_1" data-name="Group 1" transform="translate(-723 -1576)">
    <rect id="Rectangle_522" data-name="Rectangle 522" width="444" height="470" rx="10" transform="translate(723 1576)" fill="#fff"/>
    <text id="Deposit" transform="translate(771 1626)" fill="#040404" font-size="16" font-family="Roboto-Regular, Roboto"><tspan x="0" y="0">Deposit</tspan></text>
    <text id="Investment" transform="translate(883 1670)" fill="#040404" font-size="16" font-family="Roboto-Regular, Roboto"><tspan x="0" y="0">Investment</tspan></text>
    <text id="_10" data-name="10" transform="translate(790 2003)" fill="#9ea0a5" font-size="16" font-family="Roboto-Regular, Roboto"><tspan x="0" y="0">10</tspan></text>
    <text id="_11" data-name="11" transform="translate(845 2003)" fill="#9ea0a5" font-size="16" font-family="Roboto-Regular, Roboto"><tspan x="0" y="0">11</tspan></text>
    <text id="_12" data-name="12" transform="translate(900 2003)" fill="#9ea0a5" font-size="16" font-family="Roboto-Regular, Roboto"><tspan x="0" y="0">12</tspan></text>
    <text id="_13" data-name="13" transform="translate(955 2003)" fill="#9ea0a5" font-size="16" font-family="Roboto-Regular, Roboto"><tspan x="0" y="0">13</tspan></text>
    <text id="_14" data-name="14" transform="translate(1010 2003)" fill="#9ea0a5" font-size="16" font-family="Roboto-Regular, Roboto"><tspan x="0" y="0">14</tspan></text>
    <text id="_15" data-name="15" transform="translate(1065 2003)" fill="#9ea0a5" font-size="16" font-family="Roboto-Regular, Roboto"><tspan x="0" y="0">15</tspan></text>
    <text id="_16" data-name="16" transform="translate(1119 2003)" fill="#9ea0a5" font-size="16" font-family="Roboto-Regular, Roboto"><tspan x="0" y="0">16</tspan></text>
    <text id="_1000" data-name="$1000" transform="translate(771 1671)" fill="#040404" font-size="36" font-family="Roboto-Medium, Roboto" font-weight="500"><tspan x="0" y="0">$1000</tspan></text>
    <g id="Group_3715" data-name="Group 3715" transform="translate(772 1755.5)">
      <g id="Group_3714" data-name="Group 3714">
        <g id="Group_3713" data-name="Group 3713">
          <line id="Line_105" data-name="Line 105" y1="212.985" fill="none" stroke="#e4e4e4" stroke-width="2" stroke-dasharray="3"/>
          <line id="Line_116" data-name="Line 116" y1="212.985" transform="translate(54.5)" fill="none" stroke="#e4e4e4" stroke-width="2" stroke-dasharray="3"/>
        </g>
      </g>
    </g>
    <line id="Line_117" data-name="Line 117" y1="212.985" transform="translate(881.5 1755.5)" fill="none" stroke="#e4e4e4" stroke-width="2" stroke-dasharray="3"/>
    <line id="Line_118" data-name="Line 118" y1="212.985" transform="translate(936.5 1755.5)" fill="none" stroke="#e4e4e4" stroke-width="2" stroke-dasharray="3"/>
    <line id="Line_119" data-name="Line 119" y1="212.985" transform="translate(991.5 1755.5)" fill="none" stroke="#e4e4e4" stroke-width="2" stroke-dasharray="3"/>
    <line id="Line_120" data-name="Line 120" y1="212.985" transform="translate(1046.5 1755.5)" fill="none" stroke="#e4e4e4" stroke-width="2" stroke-dasharray="3"/>
    <line id="Line_121" data-name="Line 121" y1="212.985" transform="translate(1101.5 1755.5)" fill="none" stroke="#e4e4e4" stroke-width="2" stroke-dasharray="3"/>
    <line id="Line_122" data-name="Line 122" y1="212.985" transform="translate(1156 1755.5)" fill="none" stroke="#e4e4e4" stroke-width="2" stroke-dasharray="3"/>
    <g id="Group_3716" data-name="Group 3716" transform="translate(-9924 3088)">
      <rect id="Rectangle_313" data-name="Rectangle 313" width="62.074" height="24.423" rx="12.211" transform="translate(10766.742 -1387)" fill="#eeeeed"/>
      <rect id="Rectangle_314" data-name="Rectangle 314" width="62.074" height="24.423" rx="12.211" transform="translate(10838.992 -1387)" fill="#eeeeed"/>
      <rect id="Rectangle_315" data-name="Rectangle 315" width="62.074" height="24.423" rx="12.211" transform="translate(10911.243 -1387)" fill="#eeeeed"/>
      <rect id="Rectangle_293" data-name="Rectangle 293" width="62.074" height="24.423" rx="12.211" transform="translate(10695 -1387)" fill="#eeeeed"/>
      <text id="_1_Hour" data-name="1 Hour" transform="translate(10707.72 -1371)" fill="#181818" font-size="12" font-family="Roboto-Regular, Roboto"><tspan x="0" y="0">1 Hour</tspan></text>
      <text id="_1_Day" data-name="1 Day" transform="translate(10782.515 -1371)" fill="#181818" font-size="12" font-family="Roboto-Regular, Roboto"><tspan x="0" y="0">1 Day</tspan></text>
      <text id="_1_Week" data-name="1 Week" transform="translate(10850.187 -1371)" fill="#181818" font-size="12" font-family="Roboto-Regular, Roboto"><tspan x="0" y="0">1 Week</tspan></text>
      <text id="_30_Days" data-name="30 Days" transform="translate(10920.401 -1371)" fill="#181818" font-size="12" font-family="Roboto-Regular, Roboto"><tspan x="0" y="0">30 Days</tspan></text>
    </g>
    <g id="Group_4186" data-name="Group 4186" transform="translate(0.467)">
      <path id="Path_2207" data-name="Path 2207" d="M-2627.776,1335.756l-386.713-.129.008-92.461v-.013l.016-.192,6.125-1.9a46.117,46.117,0,0,1,7.2.672c14.568,2.426,28.218,10.767,43.664,7.458,12.58-2.695,22.254-10.646,32.629-16.458a60.543,60.543,0,0,1,17.048-6.849c7.4-1.562,14.849-.711,22.166.755,7.606,1.53,15.775,4.02,23.735,2.932,7.1-.979,11.912-4.993,16.315-9.212,4.137-3.956,8.21-8.341,14.117-10.729,7.719-3.124,16.017-1.357,24.227-1.389a23.513,23.513,0,0,0,11.156-2.509,37.288,37.288,0,0,0,7.421-5.62c4.781-4.359,9.337-8.815,16.194-11.151,14.149-4.827,30.247-.794,44.5-5.1,12.025-3.623,17.377-13.872,23.7-21.95,3.034-3.885,6.479-7.675,11.2-10.383a25.733,25.733,0,0,1,7.525-2.823c4.25-.871,8.588-.557,12.918-.467,4.54.1,8.668-.352,12.58-2.3a44.024,44.024,0,0,0,9.135-6.523c5.521-4.769,10.962-9.6,16.379-14.441l6.809-2.113.025.249Z" transform="translate(3784.49 650.643)" opacity="0.3" fill="url(#linear-gradient)"/>
      <g id="Group_4183" data-name="Group 4183" transform="translate(771.007 1772)">
        <path id="Path_2208" data-name="Path 2208" d="M-2627.694,1122.272a1.429,1.429,0,0,1-.531,1.034q-4.962,4.469-9.973,8.905c-3.268,2.9-6.543,5.81-9.859,8.687a51.775,51.775,0,0,1-8.951,6.517,27.014,27.014,0,0,1-11.453,3.223c-4.676.289-9.4-.475-14.052.077-12.153,1.432-17.973,11.711-23.567,19.2-3.123,4.18-6.5,8.4-11.075,11.672-5.336,3.82-11.928,5.695-18.955,6.44-7.67.809-15.429.469-23.116,1.053-7.573.578-14.431,2.427-19.92,6.754-5.1,4.013-9.039,9.008-15.124,12.186-7.389,3.859-15.719,2.6-24.009,2.324-3.992-.129-8,.109-11.582,1.65a28.347,28.347,0,0,0-7.373,4.886c-4.475,3.91-8.185,8.417-13.522,11.66-14.077,8.558-30.247.308-45.419-.764-13.924-.989-25.023,6.067-35.406,12.475-10.206,6.292-21.457,13.034-35.06,12.462-15.92-.661-29.708-10.356-45.926-8.757-1.207.115-1.843-.527-1.916-1.271v-.013a1.9,1.9,0,0,1,1.916-1.926,37.2,37.2,0,0,1,4.225-.173,46,46,0,0,1,7.2.674c14.568,2.433,28.219,10.8,43.664,7.48,12.58-2.7,22.254-10.677,32.629-16.507a60.437,60.437,0,0,1,17.047-6.87c7.4-1.567,14.85-.713,22.166.758,7.606,1.534,15.775,4.032,23.736,2.94,7.1-.982,11.912-5.008,16.314-9.239,4.137-3.968,8.21-8.366,14.117-10.761,7.719-3.133,16.017-1.361,24.227-1.393a23.453,23.453,0,0,0,11.155-2.517,37.286,37.286,0,0,0,7.421-5.637c4.781-4.372,9.337-8.841,16.194-11.184,14.15-4.841,30.247-.8,44.5-5.117,12.025-3.634,17.377-13.913,23.7-22.016,3.034-3.9,6.479-7.7,11.2-10.414a25.685,25.685,0,0,1,7.525-2.831c4.25-.873,8.588-.559,12.918-.469,4.54.1,8.669-.353,12.58-2.3a44.023,44.023,0,0,0,9.136-6.543c5.521-4.783,10.962-9.624,16.379-14.484l3.453-3.1a2.075,2.075,0,0,1,3.356.982Z" transform="translate(3014.487 -1120.519)" fill="#0667eb"/>
      </g>
    </g>
    <g id="Group_4184" data-name="Group 4184" transform="translate(4 -54)">
      <circle id="Ellipse_49" data-name="Ellipse 49" cx="13" cy="13" r="13" transform="translate(1139 1811)" fill="#0667eb" opacity="0.2"/>
      <circle id="Ellipse_50" data-name="Ellipse 50" cx="9" cy="9" r="9" transform="translate(1143 1815)" fill="#0667eb"/>
      <circle id="Ellipse_48" data-name="Ellipse 48" cx="11" cy="11" r="11" transform="translate(1140 1813)" fill="#0667eb" opacity="0.5"/>
    </g>
    <g id="Group_4185" data-name="Group 4185" transform="translate(3 -53)">
      <rect id="Rectangle_316" data-name="Rectangle 316" width="55" height="21.639" rx="10.82" transform="translate(1126 1783)" fill="#0667eb"/>
      <text id="_1050" data-name="$1050" transform="translate(1134 1799)" fill="#fff" font-size="14" font-family="Roboto-Regular, Roboto"><tspan x="0" y="0">$1050</tspan></text>
    </g>
  </g>
</svg>
