<svg xmlns="http://www.w3.org/2000/svg" width="100" height="100" viewBox="0 0 100 100"><defs><mask id="den9b" width="2" height="2" x="-1" y="-1"><path fill="#fff" d="M5 2h90v90H5z"/><path d="M5 47C5 22.147 25.147 2 50 2s45 20.147 45 45-20.147 45-45 45S5 71.853 5 47z"/></mask><filter id="den9a" width="122" height="125" x="-11" y="-14" filterUnits="userSpaceOnUse"><feOffset dy="3" in="SourceGraphic" result="FeOffset1117Out"/><feGaussianBlur in="FeOffset1117Out" result="FeGaussianBlur1118Out" stdDeviation="2.4 2.4"/></filter></defs><g><g><g filter="url(#den9a)"><path fill="none" d="M5 47C5 22.147 25.147 2 50 2s45 20.147 45 45-20.147 45-45 45S5 71.853 5 47z" mask="url(&quot;#den9b&quot;)"/><path fill-opacity=".16" d="M5 47C5 22.147 25.147 2 50 2s45 20.147 45 45-20.147 45-45 45S5 71.853 5 47z"/></g><path fill="#fff" d="M5 47C5 22.147 25.147 2 50 2s45 20.147 45 45-20.147 45-45 45S5 71.853 5 47z"/></g><g><path d="M62 39H38v-4h24zm-8 12H38v-4h16zM38 41h24v4H38zm28-14H34c-2.2 0-3.98 1.8-3.98 4L30 67l8-8h28c2.2 0 4-1.8 4-4V31c0-2.2-1.8-4-4-4z"/></g></g></svg>