<svg xmlns="http://www.w3.org/2000/svg" viewBox="0 0 20 20" width="20" height="20">
	<style>
		tspan { white-space:pre }
		.shp0 { fill: #000000 } 
	</style>
	<g id="Layer">
		<g id="Layer">
			<path id="Layer" fill-rule="evenodd" class="shp0" d="M20 10C20 15.52 15.52 20 9.99 20C4.47 20 0 15.52 0 10C0 4.48 4.47 0 9.99 0C15.52 0 20 4.48 20 10ZM18 10C18 5.58 14.42 2 10 2C5.58 2 2 5.58 2 10C2 14.42 5.58 18 10 18C14.42 18 18 14.42 18 10Z" />
		</g>
		<g id="Layer">
			<path id="Layer" class="shp0" d="M10.5 5L9 5L9 11L14.25 14.15L15 12.92L10.5 10.25L10.5 5Z" />
		</g>
	</g>
</svg>