<svg xmlns="http://www.w3.org/2000/svg" width="405.657" height="391.966" viewBox="0 0 405.657 391.966">
  <g id="Group_3844" data-name="Group 3844" transform="translate(0 -0.315)">
    <g id="Group_3634" data-name="Group 3634" transform="translate(0 158.474)">
      <g id="Group_3629" data-name="Group 3629" transform="translate(171.849)">
        <g id="Group_3628" data-name="Group 3628">
          <g id="Group_3627" data-name="Group 3627">
            <circle id="Ellipse_150" data-name="Ellipse 150" cx="116.904" cy="116.904" r="116.904" fill="#ffea9b"/>
            <circle id="Ellipse_151" data-name="Ellipse 151" cx="99.341" cy="99.341" r="99.341" transform="translate(17.563 17.563)" fill="#ffcb1f"/>
            <path id="Path_1375" data-name="Path 1375" d="M50.233,50.278q0-5.648-3.134-8.989T36.458,35.125a125.547,125.547,0,0,1-12.949-5.614,41.253,41.253,0,0,1-9.333-6.406A25.736,25.736,0,0,1,8.114,14.6a28.548,28.548,0,0,1-2.17-11.64q0-11.64,7.439-19.079T33.151-24.8v-14.74h11.02v14.947q12.191,1.722,19.079,10.16T70.139,7.436H50.233q0-8.265-3.409-12.364a11.265,11.265,0,0,0-9.126-4.1q-5.648,0-8.748,3.2t-3.1,8.851a11.65,11.65,0,0,0,3.031,8.4q3.031,3.168,11.262,6.475a125.076,125.076,0,0,1,13.535,6.233,39.065,39.065,0,0,1,8.954,6.612,25.609,25.609,0,0,1,5.579,8.4A28.89,28.89,0,0,1,70.139,50.14q0,11.709-7.3,19.01T42.725,77.76V91.467H31.774V77.829Q17.654,76.314,9.905,67.807T2.156,45.181H22.062q0,8.2,3.892,12.57t11.193,4.374q6.061,0,9.574-3.2A11.121,11.121,0,0,0,50.233,50.278Z" transform="translate(82.366 94.424)" fill="#eeae13"/>
            <path id="Path_1374" data-name="Path 1374" d="M50.233,50.278q0-5.648-3.134-8.989T36.458,35.125a125.547,125.547,0,0,1-12.949-5.614,41.253,41.253,0,0,1-9.333-6.406A25.736,25.736,0,0,1,8.114,14.6a28.548,28.548,0,0,1-2.17-11.64q0-11.64,7.439-19.079T33.151-24.8v-14.74h11.02v14.947q12.191,1.722,19.079,10.16T70.139,7.436H50.233q0-8.265-3.409-12.364a11.265,11.265,0,0,0-9.126-4.1q-5.648,0-8.748,3.2t-3.1,8.851a11.65,11.65,0,0,0,3.031,8.4q3.031,3.168,11.262,6.475a125.076,125.076,0,0,1,13.535,6.233,39.065,39.065,0,0,1,8.954,6.612,25.609,25.609,0,0,1,5.579,8.4A28.89,28.89,0,0,1,70.139,50.14q0,11.709-7.3,19.01T42.725,77.76V91.467H31.774V77.829Q17.654,76.314,9.905,67.807T2.156,45.181H22.062q0,8.2,3.892,12.57t11.193,4.374q6.061,0,9.574-3.2A11.121,11.121,0,0,0,50.233,50.278Z" transform="translate(81.268 91.13)" fill="#ffea9b"/>
          </g>
        </g>
      </g>
      <g id="Group_3632" data-name="Group 3632" transform="translate(57.283 58.452)">
        <g id="Group_3628-2" data-name="Group 3628" transform="translate(0 0)">
          <g id="Group_3627-2" data-name="Group 3627">
            <circle id="Ellipse_150-2" data-name="Ellipse 150" cx="87.678" cy="87.678" r="87.678" fill="#ffea9b"/>
            <circle id="Ellipse_151-2" data-name="Ellipse 151" cx="74.506" cy="74.506" r="74.506" transform="translate(13.172 13.172)" fill="#ffcb1f"/>
            <path id="Path_1375-2" data-name="Path 1375" d="M38.214,27.824a9.455,9.455,0,0,0-2.35-6.741q-2.35-2.505-7.981-4.623a94.16,94.16,0,0,1-9.712-4.21,30.94,30.94,0,0,1-7-4.8,19.3,19.3,0,0,1-4.546-6.38A21.411,21.411,0,0,1,5-7.666a19.373,19.373,0,0,1,5.579-14.309q5.579-5.579,14.826-6.509V-39.539h8.265v11.21q9.144,1.291,14.309,7.62t5.166,16.4H38.214q0-6.2-2.557-9.273a8.449,8.449,0,0,0-6.845-3.074,8.706,8.706,0,0,0-6.561,2.4,9.145,9.145,0,0,0-2.325,6.638,8.737,8.737,0,0,0,2.273,6.3q2.273,2.376,8.446,4.856A93.808,93.808,0,0,1,40.8,8.219a29.3,29.3,0,0,1,6.716,4.959,19.206,19.206,0,0,1,4.184,6.3,21.668,21.668,0,0,1,1.446,8.24q0,8.782-5.476,14.258T32.583,48.436v10.28H24.369V48.487q-10.59-1.137-16.4-7.516T2.156,24H17.086q0,6.147,2.919,9.428t8.395,3.28a10.254,10.254,0,0,0,7.181-2.4A8.341,8.341,0,0,0,38.214,27.824Z" transform="translate(61.235 80.702)" fill="#eeae13"/>
            <path id="Path_1374-2" data-name="Path 1374" d="M38.214,27.824a9.455,9.455,0,0,0-2.35-6.741q-2.35-2.505-7.981-4.623a94.16,94.16,0,0,1-9.712-4.21,30.94,30.94,0,0,1-7-4.8,19.3,19.3,0,0,1-4.546-6.38A21.411,21.411,0,0,1,5-7.666a19.373,19.373,0,0,1,5.579-14.309q5.579-5.579,14.826-6.509V-39.539h8.265v11.21q9.144,1.291,14.309,7.62t5.166,16.4H38.214q0-6.2-2.557-9.273a8.449,8.449,0,0,0-6.845-3.074,8.706,8.706,0,0,0-6.561,2.4,9.145,9.145,0,0,0-2.325,6.638,8.737,8.737,0,0,0,2.273,6.3q2.273,2.376,8.446,4.856A93.808,93.808,0,0,1,40.8,8.219a29.3,29.3,0,0,1,6.716,4.959,19.206,19.206,0,0,1,4.184,6.3,21.668,21.668,0,0,1,1.446,8.24q0,8.782-5.476,14.258T32.583,48.436v10.28H24.369V48.487q-10.59-1.137-16.4-7.516T2.156,24H17.086q0,6.147,2.919,9.428t8.395,3.28a10.254,10.254,0,0,0,7.181-2.4A8.341,8.341,0,0,0,38.214,27.824Z" transform="translate(60.412 78.233)" fill="#ffea9b"/>
          </g>
        </g>
      </g>
      <g id="Group_3633" data-name="Group 3633" transform="translate(0 116.904)">
        <g id="Group_3628-3" data-name="Group 3628">
          <g id="Group_3627-3" data-name="Group 3627">
            <circle id="Ellipse_150-3" data-name="Ellipse 150" cx="58.452" cy="58.452" r="58.452" fill="#ffea9b"/>
            <circle id="Ellipse_151-3" data-name="Ellipse 151" cx="49.67" cy="49.67" r="49.67" transform="translate(8.782 8.782)" fill="#ffcb1f"/>
            <path id="Path_1375-3" data-name="Path 1375" d="M26.195,5.369A6.3,6.3,0,0,0,24.628.875a14.2,14.2,0,0,0-5.321-3.082,62.773,62.773,0,0,1-6.475-2.807,20.626,20.626,0,0,1-4.666-3.2A12.868,12.868,0,0,1,5.135-12.47,14.274,14.274,0,0,1,4.05-18.29,12.915,12.915,0,0,1,7.77-27.83a15.7,15.7,0,0,1,9.884-4.339v-7.37h5.51v7.473a14.382,14.382,0,0,1,9.54,5.08q3.444,4.219,3.444,10.934H26.195q0-4.133-1.7-6.182a5.633,5.633,0,0,0-4.563-2.049,5.8,5.8,0,0,0-4.374,1.6A6.1,6.1,0,0,0,14-18.256a5.825,5.825,0,0,0,1.515,4.2,16.7,16.7,0,0,0,5.631,3.237A62.538,62.538,0,0,1,27.917-7.7a19.533,19.533,0,0,1,4.477,3.306,12.8,12.8,0,0,1,2.79,4.2A14.445,14.445,0,0,1,36.148,5.3,12.857,12.857,0,0,1,32.5,14.806q-3.651,3.651-10.056,4.3v6.853H16.965V19.145q-7.06-.758-10.934-5.011T2.156,2.821h9.953a9.157,9.157,0,0,0,1.946,6.285,7.1,7.1,0,0,0,5.6,2.187,6.836,6.836,0,0,0,4.787-1.6A5.561,5.561,0,0,0,26.195,5.369Z" transform="translate(40.105 66.981)" fill="#eeae13"/>
            <path id="Path_1374-3" data-name="Path 1374" d="M26.195,5.369A6.3,6.3,0,0,0,24.628.875a14.2,14.2,0,0,0-5.321-3.082,62.773,62.773,0,0,1-6.475-2.807,20.626,20.626,0,0,1-4.666-3.2A12.868,12.868,0,0,1,5.135-12.47,14.274,14.274,0,0,1,4.05-18.29,12.915,12.915,0,0,1,7.77-27.83a15.7,15.7,0,0,1,9.884-4.339v-7.37h5.51v7.473a14.382,14.382,0,0,1,9.54,5.08q3.444,4.219,3.444,10.934H26.195q0-4.133-1.7-6.182a5.633,5.633,0,0,0-4.563-2.049,5.8,5.8,0,0,0-4.374,1.6A6.1,6.1,0,0,0,14-18.256a5.825,5.825,0,0,0,1.515,4.2,16.7,16.7,0,0,0,5.631,3.237A62.538,62.538,0,0,1,27.917-7.7a19.533,19.533,0,0,1,4.477,3.306,12.8,12.8,0,0,1,2.79,4.2A14.445,14.445,0,0,1,36.148,5.3,12.857,12.857,0,0,1,32.5,14.806q-3.651,3.651-10.056,4.3v6.853H16.965V19.145q-7.06-.758-10.934-5.011T2.156,2.821h9.953a9.157,9.157,0,0,0,1.946,6.285,7.1,7.1,0,0,0,5.6,2.187,6.836,6.836,0,0,0,4.787-1.6A5.561,5.561,0,0,0,26.195,5.369Z" transform="translate(39.556 65.335)" fill="#ffea9b"/>
          </g>
        </g>
      </g>
    </g>
    <g id="Group_3635" data-name="Group 3635">
      <path id="Rectangle_675" data-name="Rectangle 675" d="M23,0H246.02a10,10,0,0,1,10,10V97.552a10,10,0,0,1-10,10H0a0,0,0,0,1,0,0V23A23,23,0,0,1,23,0Z" transform="translate(0 89.501)" fill="#e4e4e4"/>
      <path id="Path_1376" data-name="Path 1376" d="M32.039,0V29.422H0Z" transform="translate(0 229.092) rotate(-90)" fill="#d4caca"/>
      <path id="Rectangle_676" data-name="Rectangle 676" d="M7,0H24.564a7,7,0,0,1,7,7V24.55a0,0,0,0,1,0,0H0a0,0,0,0,1,0,0V7A7,7,0,0,1,7,0Z" transform="translate(42.086 158.474)" fill="#9ea0a5"/>
      <path id="Path_1377" data-name="Path 1377" d="M8.183-25h15.2a8.183,8.183,0,0,1,8.183,8.183V28.776H0V-16.817A8.183,8.183,0,0,1,8.183-25Z" transform="translate(88.848 154.248)" fill="#9ea0a5"/>
      <path id="Path_1378" data-name="Path 1378" d="M8.183-46h15.2a8.183,8.183,0,0,1,8.183,8.183V32.326H0V-37.817A8.183,8.183,0,0,1,8.183-46Z" transform="translate(134.44 150.698)" fill="#9ea0a5"/>
      <path id="Union_1" data-name="Union 1" d="M26.7,183.024V59.106H3.479a3,3,0,0,1-2.4-4.8L40.671,1.516a3,3,0,0,1,4.8,0l39.593,52.79a3,3,0,0,1-2.4,4.8H58.269V183.024Z" transform="translate(154.497 0)" fill="#0667eb"/>
    </g>
  </g>
</svg>
