<svg xmlns="http://www.w3.org/2000/svg" width="50.852" height="63.66" viewBox="0 0 150.852 63.66">
  <g id="Group_4149" data-name="Group 4149" transform="translate(-626 -1741.5)">
    <g id="Group_4147" data-name="Group 4147">
      <g id="Group_4031" data-name="Group 4031" transform="translate(0 0)">
        <g id="Group_4028" data-name="Group 4028" transform="translate(180 119)">
          <g id="Group_4025" data-name="Group 4025" transform="translate(446 1623)">
            <g id="Group_4019" data-name="Group 4019" transform="translate(0 0)">
              <path id="Path_1188" data-name="Path 1188" d="M30.83,0A30.83,30.83,0,1,0,61.66,30.83,30.83,30.83,0,0,0,30.83,0Z" fill="#c9e0ed"/>
              <path id="Path_2115" data-name="Path 2115" d="M30.961,26.543a9.053,9.053,0,0,0-2.34-1.3,24.511,24.511,0,0,0-2.452-.883v-6.7a2.494,2.494,0,0,1,2.158.855,3.868,3.868,0,0,1,.813,2.48h3.517a6.5,6.5,0,0,0-.533-2.733,5.465,5.465,0,0,0-1.4-1.934,6.11,6.11,0,0,0-2.144-1.149,7.189,7.189,0,0,0-2.354-.378V12.74H24.318v2.088a6.923,6.923,0,0,0-2.382.406,7.007,7.007,0,0,0-2.242,1.191,5.605,5.605,0,0,0-1.541,1.92,6,6,0,0,0-.575,2.677,6.236,6.236,0,0,0,.617,2.929A5.928,5.928,0,0,0,19.75,25.9a9.081,9.081,0,0,0,2.256,1.275,20.641,20.641,0,0,0,2.256.841v7.679a3.223,3.223,0,0,1-2.8-1.275,5.171,5.171,0,0,1-.9-3.307H17.115a8.128,8.128,0,0,0,.5,3.139,6.334,6.334,0,0,0,1.542,2.312,6.769,6.769,0,0,0,2.368,1.4,7.848,7.848,0,0,0,2.8.547v2.256h1.85V38.553a8.24,8.24,0,0,0,2.593-.589,6.811,6.811,0,0,0,2.312-1.4,6.124,6.124,0,0,0,1.556-2.186,7.75,7.75,0,0,0,.575-3.1,6.166,6.166,0,0,0-.617-2.887,6.012,6.012,0,0,0-1.64-1.85Zm-6.642-2.593a7.4,7.4,0,0,1-1.023-.392,4.078,4.078,0,0,1-1.107-.617,3.181,3.181,0,0,1-.785-.925,2.579,2.579,0,0,1-.308-1.3,2.873,2.873,0,0,1,.911-2.368,3.321,3.321,0,0,1,2.312-.715Zm4.316,10.692a3.952,3.952,0,0,1-2.466.995V28.295a10.665,10.665,0,0,1,1.121.448,4.764,4.764,0,0,1,1.219.673A2.943,2.943,0,0,1,29.7,31.924a3.391,3.391,0,0,1-1.065,2.761Z" transform="translate(5.33 4.42)" fill="#0667eb"/>
            </g>
          </g>
        </g>
        <g id="Group_4030" data-name="Group 4030" transform="translate(180 119)">
          <g id="Group_4027" data-name="Group 4027" transform="translate(535.192 1623)">
            <g id="Group_3926" data-name="Group 3926">
              <path id="Path_2075" data-name="Path 2075" d="M30.83,0A30.83,30.83,0,1,0,61.66,30.83,30.83,30.83,0,0,0,30.83,0Z" transform="translate(0 0)" fill="#fff"/>
              <path id="Path_1188-2" data-name="Path 1188" d="M30.83,0A30.83,30.83,0,1,0,61.66,30.83,30.83,30.83,0,0,0,30.83,0Z" transform="translate(0 0)" fill="#c9e0ed"/>
              <path id="Path_2077" data-name="Path 2077" d="M24.3,25.586a14.25,14.25,0,0,0,3.453-3.311,6.586,6.586,0,0,0,1.308-3.936,4.914,4.914,0,0,0-.249-1.422c-.1-.342-.269-.809-.511-1.4h-4.19V13.542h2.979a7.047,7.047,0,0,1-.635-1.186,18.68,18.68,0,0,1-.845-1.867,8.734,8.734,0,0,1-.322-1.281,8.837,8.837,0,0,1-.132-1.566,7.218,7.218,0,0,1,2.409-5.3Q29.964,0,34.46,0q4.23,0,6.4,2.313a9.415,9.415,0,0,1,2.229,6.544H39.585A6.325,6.325,0,0,0,38.245,4.5a5.2,5.2,0,0,0-4.07-1.488A5.386,5.386,0,0,0,30.156,4.41,4.661,4.661,0,0,0,28.79,7.8a5.32,5.32,0,0,0,.428,2.029q.429,1.043,1.809,3.719h6.223v1.972H31.881c.125.58.219,1.036.276,1.364a6.122,6.122,0,0,1,.084,1.026A7.086,7.086,0,0,1,31.1,21.652a13.911,13.911,0,0,1-3.565,3.67,16.208,16.208,0,0,1,2.58-1.052,8.5,8.5,0,0,1,2.484-.388,13.307,13.307,0,0,1,3.613.674,13.708,13.708,0,0,0,2.947.671,3.831,3.831,0,0,0,1.631-.342,9.932,9.932,0,0,0,1.385-.874l1.574,2.561a10.994,10.994,0,0,1-1.9,1.272,6.73,6.73,0,0,1-2.938.662,14.525,14.525,0,0,1-3.823-.873,14.7,14.7,0,0,0-4.237-.873,7.551,7.551,0,0,0-2.731.493,13.98,13.98,0,0,0-1.952,1.024Z" transform="translate(-4.02 14.934)" fill="#0667eb"/>
            </g>
          </g>
        </g>
        <path id="Path_2116" data-name="Path 2116" d="M30.83,0A30.83,30.83,0,1,0,61.66,30.83,30.83,30.83,0,0,0,30.83,0Z" transform="translate(672 1742.5)" fill="#c9e0ed" stroke="#fff" stroke-width="2"/>
      </g>
      <path id="_-euro-symbol_90430_1_" data-name="-euro-symbol_90430 (1)" d="M22.008,27.552a10.264,10.264,0,0,1-9.124-5.544h9.124V18.84H11.839a9.963,9.963,0,0,1,0-3.168H22.008V12.5H12.884A10.276,10.276,0,0,1,28.708,9.447l2.8-2.8A14.235,14.235,0,0,0,8.576,12.5H3v3.168H7.847a13.247,13.247,0,0,0,0,3.168H3v3.168H8.576a14.235,14.235,0,0,0,22.936,5.861l-2.82-2.8A10.146,10.146,0,0,1,22.008,27.552Z" transform="translate(683.52 1756.16)" fill="#0667eb"/>
    </g>
  </g>
</svg>
