<svg xmlns="http://www.w3.org/2000/svg" width="78" height="78" viewBox="0 0 78 78"><defs><style>.a{fill:#fff;stroke:#d8dce6;stroke-width:6px;}.b{fill:#0667eb;}.c{stroke:none;}.d{fill:none;}</style></defs><g transform="translate(-266 -1020)"><g class="a" transform="translate(266 1020)"><circle class="c" cx="39" cy="39" r="39"/><circle class="d" cx="39" cy="39" r="36"/></g><path class="b" d="M31.4,49.278v5.6H23.58V49.219c-5.01-1.055-9.258-4.277-9.58-9.961h5.742c.293,3.076,2.4,5.478,7.763,5.478,5.742,0,7.031-2.871,7.031-4.658,0-2.432-1.289-4.717-7.822-6.269-7.265-1.758-12.246-4.746-12.246-10.752,0-5.039,4.072-8.32,9.111-9.4V8H31.4v5.713a10.354,10.354,0,0,1,8.349,9.931H34.009c-.146-3.252-1.875-5.478-6.5-5.478-4.394,0-7.031,1.992-7.031,4.8,0,2.461,1.9,4.072,7.822,5.6S40.542,32.638,40.542,40.02C40.513,45.382,36.5,48.311,31.4,49.278Z" transform="translate(277.729 1027.563)"/></g></svg>