<svg xmlns="http://www.w3.org/2000/svg" width="40" height="42" viewBox="0 0 40 42"><g><g><path fill="#0667eb" d="M39.94 36.587l-3.19 2.963-5.575-5.18c-1.582 1.33-3.741 2.193-6.152 2.613V42h-7.534v-5.063C12.667 35.98 8.549 33.11 8.247 28h5.525c.276 2.753 2.31 4.9 7.484 4.9 3.44 0 5.223-1.003 6.077-2.123l-8.815-8.19c-5.901-1.634-9.819-4.27-9.819-9.124L.06 5.437l3.19-2.964zM21.256 9.1c-1.507 0-2.763.233-3.792.63L13.772 6.3c1.13-.56 2.386-.98 3.717-1.26V0h7.534v5.11C30.27 6.3 32.908 9.987 33.084 14h-5.55c-.15-2.917-1.808-4.9-6.278-4.9z"/></g></g></svg>