<svg xmlns="http://www.w3.org/2000/svg" width="50" height="42" viewBox="0 0 50 42">
  <g id="Group_4151" data-name="Group 4151" transform="translate(-1035 1467)">
    <g id="Group_4150" data-name="Group 4150">
      <g id="Group_4007" data-name="Group 4007" transform="translate(1013 -2310)">
        <g id="Group_4006" data-name="Group 4006">
          <g id="Group_4005" data-name="Group 4005">
            <rect id="Rectangle_734" data-name="Rectangle 734" width="50" height="21" rx="2" transform="translate(22 864)" fill="#c9e0ed"/>
            <rect id="Rectangle_735" data-name="Rectangle 735" width="33" height="5" rx="2.5" transform="translate(31 872)" fill="#fff"/>
            <path id="Path_2111" data-name="Path 2111" d="M18,2A16,16,0,1,0,34,18,16.006,16.006,0,0,0,18,2Z" transform="translate(29 841)" fill="#0667eb"/>
            <path id="Path_2110" data-name="Path 2110" d="M17.861,22.063v2.286h-3.2v-2.31c-2.046-.431-3.782-1.747-3.913-4.069H13.1c.12,1.257.981,2.238,3.171,2.238,2.346,0,2.872-1.173,2.872-1.9,0-.993-.527-1.927-3.2-2.561-2.968-.718-5-1.939-5-4.392,0-2.058,1.664-3.4,3.722-3.842V5.2h3.2V7.534a4.231,4.231,0,0,1,3.411,4.057H18.926c-.06-1.328-.766-2.238-2.657-2.238-1.8,0-2.872.814-2.872,1.963,0,1.005.778,1.664,3.2,2.286s5,1.664,5,4.679C21.583,20.471,19.943,21.668,17.861,22.063Z" transform="translate(31.248 844.026)" fill="#fff"/>
          </g>
        </g>
      </g>
    </g>
  </g>
</svg>
