<svg xmlns="http://www.w3.org/2000/svg" width="79.92" height="144" viewBox="0 0 79.92 144">
  <g id="Group_7437" data-name="Group 7437" transform="translate(-1027 -2187)">
    <g id="Group_3280" data-name="Group 3280" transform="translate(-30 -3077)">
      <g id="Group_3279" data-name="Group 3279" transform="translate(1057 5264)">
        <g id="Group_3278" data-name="Group 3278">
          <g id="Rectangle_590" data-name="Rectangle 590" fill="#fff" stroke="#f4f4f4" stroke-width="2">
            <rect width="79.92" height="144" rx="10" stroke="none"/>
            <rect x="1" y="1" width="77.92" height="142" rx="9" fill="none"/>
          </g>
          <line id="Line_82" data-name="Line 82" x2="26.64" transform="translate(27 10.44)" fill="none" stroke="#f4f4f4" stroke-width="5"/>
          <g id="E-Commerce" transform="translate(23.04 34.56)">
            <g id="Dollar_Coin_2x.png" data-name="Dollar Coin@2x.png">
              <path id="Path_1188" data-name="Path 1188" d="M16.945,0A16.945,16.945,0,1,0,33.89,16.945,16.945,16.945,0,0,0,16.945,0Zm0,32.349a15.4,15.4,0,1,1,15.4-15.4A15.4,15.4,0,0,1,16.945,32.349Zm3.081-15.52a4.976,4.976,0,0,0-1.286-.716,13.47,13.47,0,0,0-1.348-.485V11.946a1.371,1.371,0,0,1,1.186.47,2.126,2.126,0,0,1,.447,1.363h1.933a3.574,3.574,0,0,0-.293-1.5,3,3,0,0,0-.77-1.063,3.358,3.358,0,0,0-1.178-.632,3.951,3.951,0,0,0-1.294-.208V9.243H16.375V10.39a3.8,3.8,0,0,0-1.309.223,3.851,3.851,0,0,0-1.232.655,3.081,3.081,0,0,0-.847,1.055,3.3,3.3,0,0,0-.316,1.471,3.427,3.427,0,0,0,.339,1.61,3.258,3.258,0,0,0,.855,1.071,4.991,4.991,0,0,0,1.24.7,11.345,11.345,0,0,0,1.24.462v4.221a1.772,1.772,0,0,1-1.54-.7,2.842,2.842,0,0,1-.493-1.818h-1.9a4.467,4.467,0,0,0,.277,1.725,3.481,3.481,0,0,0,.847,1.271,3.72,3.72,0,0,0,1.3.77,4.313,4.313,0,0,0,1.54.3v1.24H17.4V23.43a4.529,4.529,0,0,0,1.425-.323,3.743,3.743,0,0,0,1.271-.77,3.366,3.366,0,0,0,.855-1.2,4.259,4.259,0,0,0,.316-1.7,3.389,3.389,0,0,0-.339-1.587,3.3,3.3,0,0,0-.9-1.017ZM16.375,15.4a4.067,4.067,0,0,1-.562-.216,2.241,2.241,0,0,1-.608-.339,1.748,1.748,0,0,1-.431-.508,1.417,1.417,0,0,1-.169-.716,1.579,1.579,0,0,1,.5-1.3,1.825,1.825,0,0,1,1.271-.393Zm2.372,5.877a2.172,2.172,0,0,1-1.356.547V17.792a5.861,5.861,0,0,1,.616.246,2.619,2.619,0,0,1,.67.37,1.617,1.617,0,0,1,.655,1.379,1.864,1.864,0,0,1-.585,1.517Z" fill="#3f4556"/>
            </g>
          </g>
          <g id="Group" transform="translate(4.657)">
            <text id="Você_recebeu_50" data-name="Você recebeu $50" transform="translate(13.343 84.2)" fill="#cecece" font-size="5" font-family="Roboto-Regular, Roboto"><tspan x="0" y="0">Você recebeu $50</tspan></text>
            <text id="De_Olive_Wood" data-name="De Olive Wood" transform="translate(17.187 90.2)" fill="#cecece" font-size="5" font-family="Roboto-Regular, Roboto"><tspan x="0" y="0">De Olive Wood</tspan></text>
          </g>
          <rect id="Rectangle_591" data-name="Rectangle 591" width="56.88" height="13.68" rx="6.84" transform="translate(11.52 116.64)" fill="#0667eb"/>
          <text id="Done" transform="translate(33.55 124.52)" fill="#fff" font-size="5" font-family="Roboto-Regular, Roboto"><tspan x="0" y="0">Feito</tspan></text>
        </g>
      </g>
    </g>
  </g>
</svg>
