<svg xmlns="http://www.w3.org/2000/svg" width="34" height="26" viewBox="0 0 34 26"><g><g><g/><g><g><path fill="#ced5db" d="M30.5 8c-2.175 0-3.39 2.16-2.895 3.765l-5.325 5.34a3.055 3.055 0 0 0-1.56 0l-3.825-3.825c.51-1.605-.705-3.78-2.895-3.78-2.175 0-3.405 2.16-2.895 3.78l-6.84 6.825C2.66 19.61.5 20.825.5 23c0 1.65 1.35 3 3 3 2.175 0 3.39-2.16 2.895-3.765l6.825-6.84c.45.135 1.11.135 1.56 0l3.825 3.825c-.51 1.605.705 3.78 2.895 3.78 2.175 0 3.405-2.16 2.895-3.78l5.34-5.325c1.605.495 3.765-.72 3.765-2.895 0-1.65-1.35-3-3-3z"/></g><g><path fill="#ced5db" d="M21.5 9.5l1.41-3.105L26 5l-3.09-1.395L21.5.5l-1.38 3.105L17 5l3.12 1.395z"/></g><g><path fill="#ced5db" d="M4.25 12.5l.75-3 3-.75L5 8l-.75-3-.75 3-3 .75 3 .75z"/></g></g></g></g></svg>