<svg xmlns="http://www.w3.org/2000/svg" width="160" height="27" viewBox="0 0 160 27">
  <g id="Group_3437" data-name="Group 3437" transform="translate(-235 -1105)">
    <g id="Rectangle_654" data-name="Rectangle 654" transform="translate(235 1105)" fill="#fff" stroke="#eeeeec" stroke-width="1">
      <rect width="160" height="27" rx="13.5" stroke="none"/>
      <rect x="0.5" y="0.5" width="159" height="26" rx="13" fill="none"/>
    </g>
    <path id="Path_1357" data-name="Path 1357" d="M6.3-4.272H2.292V-1H6.944V0H1.073V-9.242H6.881v1H2.292v2.977H6.3ZM12.518,0a2.467,2.467,0,0,1-.165-.724A2.62,2.62,0,0,1,10.4.127,2.424,2.424,0,0,1,8.731-.448,1.859,1.859,0,0,1,8.081-1.9,1.942,1.942,0,0,1,8.9-3.571a3.846,3.846,0,0,1,2.295-.594h1.143V-4.7a1.319,1.319,0,0,0-.368-.981,1.48,1.48,0,0,0-1.085-.365,1.712,1.712,0,0,0-1.054.317.935.935,0,0,0-.425.768H8.22a1.621,1.621,0,0,1,.365-.993,2.491,2.491,0,0,1,.99-.759A3.331,3.331,0,0,1,10.95-7a2.715,2.715,0,0,1,1.86.594,2.141,2.141,0,0,1,.7,1.635v3.161a3.865,3.865,0,0,0,.241,1.5V0ZM10.569-.9a2.064,2.064,0,0,0,1.047-.286,1.728,1.728,0,0,0,.717-.743V-3.333h-.92q-2.158,0-2.158,1.263a1.069,1.069,0,0,0,.368.863A1.415,1.415,0,0,0,10.569-.9Zm8.1-4.919a3.519,3.519,0,0,0-.578-.044,1.547,1.547,0,0,0-1.568.984V0H15.349V-6.868h1.143l.019.793A1.829,1.829,0,0,1,18.148-7a1.2,1.2,0,0,1,.521.089Zm2.19-1.054L20.9-6A2.5,2.5,0,0,1,22.953-7q2.177,0,2.2,2.457V0H23.975V-4.545a1.581,1.581,0,0,0-.34-1.1A1.361,1.361,0,0,0,22.6-6a1.7,1.7,0,0,0-1,.3,2.069,2.069,0,0,0-.673.8V0H19.748V-6.868ZM28.2,0H27.022V-6.868H28.2Zm-1.27-8.69a.7.7,0,0,1,.175-.482.655.655,0,0,1,.517-.2.666.666,0,0,1,.521.2.694.694,0,0,1,.178.482.671.671,0,0,1-.178.476.678.678,0,0,1-.521.19.667.667,0,0,1-.517-.19A.678.678,0,0,1,26.927-8.69Zm4.259,1.822L31.224-6A2.5,2.5,0,0,1,33.281-7q2.177,0,2.2,2.457V0H34.3V-4.545a1.581,1.581,0,0,0-.34-1.1A1.361,1.361,0,0,0,32.925-6a1.7,1.7,0,0,0-1,.3,2.069,2.069,0,0,0-.673.8V0H30.075V-6.868Zm5.783,3.377a4.037,4.037,0,0,1,.743-2.555A2.375,2.375,0,0,1,39.679-7a2.363,2.363,0,0,1,1.961.889l.057-.762h1.073v6.7a2.794,2.794,0,0,1-.79,2.1,2.916,2.916,0,0,1-2.123.768A3.532,3.532,0,0,1,38.4,2.387a2.5,2.5,0,0,1-1.085-.87l.609-.7a2.3,2.3,0,0,0,1.847.933,1.8,1.8,0,0,0,1.336-.482A1.844,1.844,0,0,0,41.59-.1v-.59a2.414,2.414,0,0,1-1.923.813,2.346,2.346,0,0,1-1.952-.971A4.244,4.244,0,0,1,36.969-3.491Zm1.181.133a3.08,3.08,0,0,0,.476,1.825,1.547,1.547,0,0,0,1.333.663A1.72,1.72,0,0,0,41.59-1.879V-5.015A1.74,1.74,0,0,0,39.971-6a1.561,1.561,0,0,0-1.339.667A3.354,3.354,0,0,0,38.149-3.358ZM48.179-4.634l.47-4.608h4.735v1.085H49.645l-.279,2.52a2.983,2.983,0,0,1,1.542-.4,2.55,2.55,0,0,1,2.006.835,3.271,3.271,0,0,1,.743,2.257A3.158,3.158,0,0,1,52.885-.7,2.811,2.811,0,0,1,50.73.127a2.921,2.921,0,0,1-2-.679,2.711,2.711,0,0,1-.882-1.879h1.111a1.865,1.865,0,0,0,.565,1.2,1.757,1.757,0,0,0,1.206.4,1.585,1.585,0,0,0,1.285-.559,2.335,2.335,0,0,0,.467-1.542,2.143,2.143,0,0,0-.5-1.489,1.717,1.717,0,0,0-1.343-.562,1.936,1.936,0,0,0-1.206.336l-.311.254Zm6.659-2.831a1.875,1.875,0,0,1,.53-1.371,1.826,1.826,0,0,1,1.362-.54,1.815,1.815,0,0,1,1.368.543,1.94,1.94,0,0,1,.524,1.406v.451a1.851,1.851,0,0,1-.53,1.368,1.827,1.827,0,0,1-1.349.53,1.867,1.867,0,0,1-1.365-.53,1.89,1.89,0,0,1-.54-1.412Zm.876.486a1.2,1.2,0,0,0,.279.818.942.942,0,0,0,.749.321.924.924,0,0,0,.727-.312A1.24,1.24,0,0,0,57.745-7v-.464a1.231,1.231,0,0,0-.273-.821.919.919,0,0,0-.743-.324.919.919,0,0,0-.743.324,1.27,1.27,0,0,0-.273.846Zm3.625,4.713a1.865,1.865,0,0,1,.53-1.368,1.832,1.832,0,0,1,1.362-.536,1.848,1.848,0,0,1,1.365.533,1.913,1.913,0,0,1,.533,1.416v.451A1.865,1.865,0,0,1,62.6-.4a1.824,1.824,0,0,1-1.355.536A1.867,1.867,0,0,1,59.877-.4a1.89,1.89,0,0,1-.54-1.412Zm.876.493a1.21,1.21,0,0,0,.279.824.942.942,0,0,0,.749.321.917.917,0,0,0,.73-.315,1.262,1.262,0,0,0,.273-.856V-2.27a1.207,1.207,0,0,0-.276-.821.93.93,0,0,0-.74-.318.939.939,0,0,0-.733.315,1.225,1.225,0,0,0-.282.849ZM57.008-.7l-.667-.419,4.513-7.224.667.419Zm16.079-1.72H69.215L68.345,0H67.088l3.529-9.242h1.066L75.22,0h-1.25Zm-3.5-1h3.142L71.151-7.738Zm8.1-.2V0H76.464V-9.242h3.409a3.425,3.425,0,0,1,2.377.774,2.625,2.625,0,0,1,.86,2.05,2.591,2.591,0,0,1-.841,2.073,3.578,3.578,0,0,1-2.409.727Zm0-1h2.19a2.19,2.19,0,0,0,1.5-.461,1.686,1.686,0,0,0,.521-1.332,1.742,1.742,0,0,0-.521-1.323,2.051,2.051,0,0,0-1.428-.515h-2.26Zm9.8.013L89.9-9.242h1.384l-3.187,5.8V0H86.874V-3.447l-3.187-5.8h1.4Z" transform="translate(270 1123)" fill="#0667eb"/>
  </g>
</svg>
