<svg xmlns="http://www.w3.org/2000/svg" width="388.242" height="353.243" viewBox="0 0 388.242 353.243">
  <g id="Group_3875" data-name="Group 3875" transform="translate(-212.879 -1042.879)">
    <g id="Group_3674" data-name="Group 3674" transform="translate(240.481 1117.259)">
      <path id="Union_3" data-name="Union 3" d="M202.516,30.768H0v72.239H202.516v32.108l67.706-67.557L202.516,0Z" transform="translate(270.222 207.411) rotate(180)" fill="#fff" stroke="#e4e4e4" stroke-linecap="round" stroke-width="10"/>
      <path id="Union_2" data-name="Union 2" d="M202.516,104.347H0V32.108H202.516V0l67.707,67.557-67.707,67.557Z" transform="translate(67.556 0)" fill="#fff" stroke="#d8dce6" stroke-linecap="round" stroke-width="10"/>
    </g>
    <g id="Group_3629" data-name="Group 3629" transform="translate(345.963 1157.555)">
      <g id="Group_3628" data-name="Group 3628">
        <g id="Group_3627" data-name="Group 3627">
          <circle id="Ellipse_150" data-name="Ellipse 150" cx="63.503" cy="63.503" r="63.503" fill="#ffea9b"/>
          <circle id="Ellipse_151" data-name="Ellipse 151" cx="53.963" cy="53.963" r="53.963" transform="translate(9.54 9.54)" fill="#ffcb1f"/>
          <path id="Path_1375" data-name="Path 1375" d="M28.272,9.25a6.848,6.848,0,0,0-1.7-4.883,15.431,15.431,0,0,0-5.781-3.349A68.2,68.2,0,0,1,13.755-2.03a22.409,22.409,0,0,1-5.07-3.48,13.98,13.98,0,0,1-3.293-4.621,15.507,15.507,0,0,1-1.179-6.323A14.031,14.031,0,0,1,8.255-26.818a17.051,17.051,0,0,1,10.738-4.714v-8.007H24.98v8.119A15.625,15.625,0,0,1,35.344-25.9q3.742,4.583,3.742,11.879H28.272q0-4.49-1.852-6.716a6.119,6.119,0,0,0-4.958-2.226,6.306,6.306,0,0,0-4.752,1.74,6.624,6.624,0,0,0-1.684,4.808,6.328,6.328,0,0,0,1.646,4.565,18.14,18.14,0,0,0,6.117,3.517,67.942,67.942,0,0,1,7.352,3.386,21.221,21.221,0,0,1,4.864,3.592,13.911,13.911,0,0,1,3.031,4.565,15.693,15.693,0,0,1,1.048,5.968A13.969,13.969,0,0,1,35.119,19.5q-3.966,3.966-10.925,4.677v7.446H18.245V24.217q-7.67-.823-11.879-5.444T2.156,6.482H12.969q0,4.452,2.114,6.828a7.712,7.712,0,0,0,6.08,2.376,7.427,7.427,0,0,0,5.2-1.74A6.041,6.041,0,0,0,28.272,9.25Z" transform="translate(43.757 69.353)" fill="#eeae13"/>
          <path id="Path_1374" data-name="Path 1374" d="M28.272,9.25a6.848,6.848,0,0,0-1.7-4.883,15.431,15.431,0,0,0-5.781-3.349A68.2,68.2,0,0,1,13.755-2.03a22.409,22.409,0,0,1-5.07-3.48,13.98,13.98,0,0,1-3.293-4.621,15.507,15.507,0,0,1-1.179-6.323A14.031,14.031,0,0,1,8.255-26.818a17.051,17.051,0,0,1,10.738-4.714v-8.007H24.98v8.119A15.625,15.625,0,0,1,35.344-25.9q3.742,4.583,3.742,11.879H28.272q0-4.49-1.852-6.716a6.119,6.119,0,0,0-4.958-2.226,6.306,6.306,0,0,0-4.752,1.74,6.624,6.624,0,0,0-1.684,4.808,6.328,6.328,0,0,0,1.646,4.565,18.14,18.14,0,0,0,6.117,3.517,67.942,67.942,0,0,1,7.352,3.386,21.221,21.221,0,0,1,4.864,3.592,13.911,13.911,0,0,1,3.031,4.565,15.693,15.693,0,0,1,1.048,5.968A13.969,13.969,0,0,1,35.119,19.5q-3.966,3.966-10.925,4.677v7.446H18.245V24.217q-7.67-.823-11.879-5.444T2.156,6.482H12.969q0,4.452,2.114,6.828a7.712,7.712,0,0,0,6.08,2.376,7.427,7.427,0,0,0,5.2-1.74A6.041,6.041,0,0,0,28.272,9.25Z" transform="translate(43.161 67.564)" fill="#ffea9b"/>
        </g>
      </g>
    </g>
    <line id="Line_108" data-name="Line 108" x2="23" y2="23" transform="translate(275 1060)" fill="none" stroke="#e4e4e4" stroke-linecap="round" stroke-width="3"/>
    <line id="Line_112" data-name="Line 112" x2="43" y2="42" transform="translate(224 1059)" fill="none" stroke="#e4e4e4" stroke-linecap="round" stroke-width="3"/>
    <line id="Line_110" data-name="Line 110" x1="22" y1="23" transform="translate(215 1115)" fill="none" stroke="#e4e4e4" stroke-linecap="round" stroke-width="3"/>
    <line id="Line_109" data-name="Line 109" x2="6" y2="6" transform="translate(261 1045)" fill="none" stroke="#e4e4e4" stroke-linecap="round" stroke-width="3"/>
    <line id="Line_111" data-name="Line 111" x1="7" y1="6" transform="translate(246 1147)" fill="none" stroke="#e4e4e4" stroke-linecap="round" stroke-width="3"/>
    <circle id="Ellipse_158" data-name="Ellipse 158" cx="4.148" cy="4.148" r="4.148" transform="translate(266.556 1113.703)" fill="#0667eb"/>
    <g id="Ellipse_159" data-name="Ellipse 159" transform="translate(263 1132.666)" fill="#fff" stroke="#0667eb" stroke-width="3">
      <circle cx="11.852" cy="11.852" r="11.852" stroke="none"/>
      <circle cx="11.852" cy="11.852" r="10.352" fill="none"/>
    </g>
    <line id="Line_112-2" data-name="Line 112" x2="19" y2="19" transform="translate(579 1299)" fill="none" stroke="#e4e4e4" stroke-linecap="round" stroke-width="3"/>
    <line id="Line_110-2" data-name="Line 110" x1="24" y1="24" transform="translate(520 1355)" fill="none" stroke="#e4e4e4" stroke-linecap="round" stroke-width="3"/>
    <g id="Group_3676" data-name="Group 3676" transform="translate(545.894 1300.319)">
      <line id="Line_108-2" data-name="Line 108" x2="38" y2="37" transform="translate(15.106 15.681)" fill="none" stroke="#e4e4e4" stroke-linecap="round" stroke-width="3"/>
      <line id="Line_109-2" data-name="Line 109" x2="6" y2="7" transform="translate(0.106 -0.319)" fill="none" stroke="#e4e4e4" stroke-linecap="round" stroke-width="3"/>
    </g>
    <line id="Line_111-2" data-name="Line 111" x1="8" y1="8" transform="translate(551 1386)" fill="none" stroke="#e4e4e4" stroke-linecap="round" stroke-width="3"/>
    <circle id="Ellipse_158-2" data-name="Ellipse 158" cx="4.148" cy="4.148" r="4.148" transform="translate(505.963 1337.703)" fill="#0667eb"/>
    <g id="Ellipse_159-2" data-name="Ellipse 159" transform="translate(540.333 1337.703)" fill="#fff" stroke="#0667eb" stroke-width="3">
      <circle cx="11.852" cy="11.852" r="11.852" stroke="none"/>
      <circle cx="11.852" cy="11.852" r="10.352" fill="none"/>
    </g>
    <path id="Path_1473" data-name="Path 1473" d="M1580.823,754.512a5,5,0,0,1-.4-.64c-.527-1.3-.966-2.638-1.577-3.893a8.5,8.5,0,0,0-4.794-4.212c-.939-.365-1.894-.692-2.83-1.065a.777.777,0,0,1-.37-.421c-.022-.058.2-.266.343-.324,1.005-.4,2.022-.777,3.028-1.179a8.991,8.991,0,0,0,5.328-5.756c.272-.795.572-1.581.881-2.362a1.706,1.706,0,0,1,.341-.408c.13.116.321.207.377.351.341.869.648,1.751.973,2.626a9.131,9.131,0,0,0,5.667,5.711q1.317.475,2.616,1c.157.063.266.244.4.37-.137.136-.249.334-.414.4-1.092.436-2.2.825-3.3,1.265a8.015,8.015,0,0,0-4.265,3.907c-.646,1.28-1.084,2.664-1.624,4A5.626,5.626,0,0,1,1580.823,754.512Z" transform="translate(-1022.029 540.174)" fill="#0667eb"/>
  </g>
</svg>
