<svg xmlns="http://www.w3.org/2000/svg" xmlns:xlink="http://www.w3.org/1999/xlink" width="384" height="449.957" viewBox="0 0 384 449.957">
  <defs>
    <filter id="Path_1414" x="0" y="0" width="384" height="449.957" filterUnits="userSpaceOnUse">
      <feOffset input="SourceAlpha"/>
      <feGaussianBlur stdDeviation="10" result="blur"/>
      <feFlood flood-opacity="0.161"/>
      <feComposite operator="in" in2="blur"/>
      <feComposite in="SourceGraphic"/>
    </filter>
    <filter id="Path_1416" x="67.629" y="326.043" width="248.743" height="52.029" filterUnits="userSpaceOnUse">
      <feOffset dy="5" input="SourceAlpha"/>
      <feGaussianBlur stdDeviation="2.5" result="blur-2"/>
      <feFlood flood-color="#c9defb"/>
      <feComposite operator="in" in2="blur-2"/>
      <feComposite in="SourceGraphic"/>
    </filter>
    <filter id="Path_1420" x="96.018" y="192.943" width="191.355" height="48.197" filterUnits="userSpaceOnUse">
      <feOffset dy="3" input="SourceAlpha"/>
      <feGaussianBlur stdDeviation="3" result="blur-3"/>
      <feFlood flood-opacity="0.161"/>
      <feComposite operator="in" in2="blur-3"/>
      <feComposite in="SourceGraphic"/>
    </filter>
  </defs>
  <g id="Image" transform="translate(-169 -3241)">
    <circle id="Ellipse_54" data-name="Ellipse 54" cx="184.837" cy="184.837" r="184.837" transform="translate(176 3281)" fill="#0667eb"/>
    <g id="Group_4077" data-name="Group 4077" transform="translate(-3759 1015)">
      <g id="Group_3498" data-name="Group 3498" transform="translate(3958 2256)">
        <g id="Group_3497" data-name="Group 3497">
          <g transform="matrix(1, 0, 0, 1, -30, -30)" filter="url(#Path_1414)">
            <g id="Path_1414-2" data-name="Path 1414" transform="translate(30 30)" fill="#fff">
              <path d="M 318.2142944335938 389.4571838378906 L 5.785749912261963 389.4571838378906 C 2.871200084686279 389.4571838378906 0.5 387.0860290527344 0.5 384.1714782714844 L 0.5 5.785726547241211 C 0.5 2.871176719665527 2.871200084686279 0.5000266432762146 5.785749912261963 0.5000266432762146 L 318.2142944335938 0.5000266432762146 C 321.1288452148438 0.5000266432762146 323.5 2.871176719665527 323.5 5.785726547241211 L 323.5 384.1714782714844 C 323.5 387.0860290527344 321.1288452148438 389.4571838378906 318.2142944335938 389.4571838378906 Z" stroke="none"/>
              <path d="M 5.78570556640625 0.999969482421875 C 3.1468505859375 0.999969482421875 1 3.146820068359375 1 5.785675048828125 L 1 384.1714172363281 C 1 386.8102722167969 3.1468505859375 388.9571228027344 5.78570556640625 388.9571228027344 L 318.2142944335938 388.9571228027344 C 320.8531494140625 388.9571228027344 323 386.8102722167969 323 384.1714172363281 L 323 5.785675048828125 C 323 3.146820068359375 320.8531494140625 0.999969482421875 318.2142944335938 0.999969482421875 L 5.78570556640625 0.999969482421875 M 5.78570556640625 -3.0517578125e-05 L 318.2142944335938 -3.0517578125e-05 C 321.4096374511719 -3.0517578125e-05 324 2.590362548828125 324 5.785675048828125 L 324 384.1714172363281 C 324 387.3667907714844 321.4096374511719 389.9571228027344 318.2142944335938 389.9571228027344 L 5.78570556640625 389.9571228027344 C 2.590362548828125 389.9571228027344 0 387.3667907714844 0 384.1714172363281 L 0 5.785675048828125 C 0 2.590362548828125 2.590362548828125 -3.0517578125e-05 5.78570556640625 -3.0517578125e-05 Z" stroke="none" fill="#e4e4e4"/>
            </g>
          </g>
          <path id="Path_1415" data-name="Path 1415" d="M0,0H324V206.1H0Z" transform="translate(0 184)" fill="#f6f6f6"/>
          <g transform="matrix(1, 0, 0, 1, -30, -30)" filter="url(#Path_1416)">
            <path id="Path_1416-2" data-name="Path 1416" d="M18.514,0H215.229a18.514,18.514,0,0,1,0,37.029H18.514A18.514,18.514,0,0,1,18.514,0Z" transform="translate(75.13 328.54)" fill="#0667eb"/>
          </g>
          <path id="Path_1419" data-name="Path 1419" d="M6.023-2.886H2.1V.321H6.657V1.3H.908V-7.753H6.595v.976H2.1v2.915H6.023Zm4.2-.087L11.71-5.428h1.342L10.852-2.1,13.12,1.3H11.79L10.237-1.221,8.683,1.3H7.347L9.615-2.1l-2.2-3.325h1.33ZM16.843.482A1.656,1.656,0,0,0,17.919.109a1.312,1.312,0,0,0,.51-.932h1.088a2.085,2.085,0,0,1-.4,1.1,2.62,2.62,0,0,1-.979.833,2.825,2.825,0,0,1-1.3.311A2.77,2.77,0,0,1,14.659.5,3.651,3.651,0,0,1,13.848-2V-2.2a4.049,4.049,0,0,1,.36-1.746A2.746,2.746,0,0,1,15.243-5.13a2.94,2.94,0,0,1,1.594-.423,2.7,2.7,0,0,1,1.88.677,2.421,2.421,0,0,1,.8,1.759H18.428a1.585,1.585,0,0,0-.494-1.072,1.537,1.537,0,0,0-1.1-.42,1.609,1.609,0,0,0-1.358.631A2.963,2.963,0,0,0,15-2.153v.218a2.9,2.9,0,0,0,.479,1.79A1.617,1.617,0,0,0,16.843.482Zm5.115-5.1a2.445,2.445,0,0,1,1.989-.938q2.132,0,2.15,2.405V1.3h-1.15v-4.45a1.548,1.548,0,0,0-.333-1.075A1.333,1.333,0,0,0,23.6-4.577a1.659,1.659,0,0,0-.982.3,2.026,2.026,0,0,0-.659.783V1.3h-1.15V-8.25h1.15ZM31.971,1.3a2.415,2.415,0,0,1-.162-.709,2.565,2.565,0,0,1-1.914.833A2.374,2.374,0,0,1,28.264.858a1.82,1.82,0,0,1-.637-1.426,1.9,1.9,0,0,1,.8-1.631,3.765,3.765,0,0,1,2.247-.581h1.119v-.528a1.291,1.291,0,0,0-.36-.96,1.449,1.449,0,0,0-1.063-.357,1.677,1.677,0,0,0-1.032.311.916.916,0,0,0-.416.752H27.763a1.587,1.587,0,0,1,.357-.973,2.439,2.439,0,0,1,.97-.743,3.262,3.262,0,0,1,1.346-.273,2.659,2.659,0,0,1,1.821.581,2.1,2.1,0,0,1,.684,1.6v3.1A3.784,3.784,0,0,0,33.177,1.2v.1ZM30.063.42A2.021,2.021,0,0,0,31.088.14a1.692,1.692,0,0,0,.7-.727v-1.38h-.9q-2.113,0-2.113,1.237a1.047,1.047,0,0,0,.36.845A1.386,1.386,0,0,0,30.063.42ZM35.83-5.428l.037.845a2.451,2.451,0,0,1,2.014-.97q2.132,0,2.15,2.405V1.3h-1.15v-4.45a1.548,1.548,0,0,0-.333-1.075,1.333,1.333,0,0,0-1.016-.348,1.659,1.659,0,0,0-.982.3,2.026,2.026,0,0,0-.659.783V1.3h-1.15V-5.428Zm5.662,3.306a3.952,3.952,0,0,1,.727-2.5,2.326,2.326,0,0,1,1.927-.929,2.313,2.313,0,0,1,1.92.87l.056-.746h1.05V1.135A2.736,2.736,0,0,1,46.4,3.192a2.855,2.855,0,0,1-2.079.752A3.459,3.459,0,0,1,42.9,3.633a2.45,2.45,0,0,1-1.063-.851l.6-.69a2.248,2.248,0,0,0,1.809.914,1.762,1.762,0,0,0,1.308-.472,1.805,1.805,0,0,0,.469-1.33V.625a2.363,2.363,0,0,1-1.883.8A2.3,2.3,0,0,1,42.223.47,4.156,4.156,0,0,1,41.492-2.122Zm1.156.131A3.015,3.015,0,0,0,43.115-.2,1.515,1.515,0,0,0,44.42.445a1.684,1.684,0,0,0,1.6-.988v-3.07a1.7,1.7,0,0,0-1.585-.963,1.528,1.528,0,0,0-1.311.653A3.284,3.284,0,0,0,42.648-1.991ZM51.7,1.421a2.938,2.938,0,0,1-2.225-.9,3.333,3.333,0,0,1-.858-2.4v-.211A4.035,4.035,0,0,1,49-3.878a2.982,2.982,0,0,1,1.069-1.231,2.688,2.688,0,0,1,1.489-.444,2.519,2.519,0,0,1,2.039.864,3.74,3.74,0,0,1,.727,2.474v.479H49.765A2.39,2.39,0,0,0,50.346-.13,1.827,1.827,0,0,0,51.76.482,2,2,0,0,0,52.792.234a2.592,2.592,0,0,0,.74-.659l.7.547A2.824,2.824,0,0,1,51.7,1.421Zm-.143-6.029a1.534,1.534,0,0,0-1.168.507,2.462,2.462,0,0,0-.584,1.42h3.369v-.087A2.19,2.19,0,0,0,52.7-4.126,1.444,1.444,0,0,0,51.555-4.608Z" transform="translate(134.477 319.521)" fill="#fff"/>
          <path id="Path_1427" data-name="Path 1427" d="M10.509-4.739H4.089V.071h7.5V2.239H1.373v-15.63H11.518v2.19H4.089v4.316h6.42Zm7.214-.816,2.211-3.822h2.9L19.279-3.654l3.671,5.894H20.074L17.755-1.733,15.447,2.239h-2.9L16.22-3.654,12.677-9.376h2.877ZM29.167.371A2.359,2.359,0,0,0,30.788-.2,1.944,1.944,0,0,0,31.475-1.6h2.458A3.832,3.832,0,0,1,33.257.42a4.436,4.436,0,0,1-1.718,1.487,5.119,5.119,0,0,1-2.34.547A4.952,4.952,0,0,1,25.334.876a6.259,6.259,0,0,1-1.428-4.358v-.268A6.155,6.155,0,0,1,25.323-8a4.907,4.907,0,0,1,3.865-1.594,4.772,4.772,0,0,1,3.376,1.208,4.326,4.326,0,0,1,1.369,3.172H31.475a2.389,2.389,0,0,0-.682-1.642A2.193,2.193,0,0,0,29.167-7.5a2.3,2.3,0,0,0-1.954.918,4.684,4.684,0,0,0-.7,2.786v.419A4.761,4.761,0,0,0,27.2-.557,2.294,2.294,0,0,0,29.167.371Zm9.307-8.481a4.083,4.083,0,0,1,3.231-1.481q3.714,0,3.768,4.24v7.59H42.865V-5.254a2.294,2.294,0,0,0-.521-1.7,2.128,2.128,0,0,0-1.53-.5,2.513,2.513,0,0,0-2.34,1.4v8.3H35.865V-14.25h2.609ZM55.049,2.239a4.026,4.026,0,0,1-.3-1.084,4.061,4.061,0,0,1-3.049,1.3,4.1,4.1,0,0,1-2.856-1,3.194,3.194,0,0,1-1.106-2.469,3.3,3.3,0,0,1,1.379-2.85,6.685,6.685,0,0,1,3.945-.993h1.6v-.762a2.035,2.035,0,0,0-.5-1.444A2,2,0,0,0,52.623-7.6a2.3,2.3,0,0,0-1.46.446,1.379,1.379,0,0,0-.569,1.133H47.985a2.9,2.9,0,0,1,.633-1.787,4.22,4.22,0,0,1,1.723-1.3,6.052,6.052,0,0,1,2.432-.472,4.874,4.874,0,0,1,3.253,1.025,3.656,3.656,0,0,1,1.245,2.882V-.445a5.937,5.937,0,0,0,.44,2.5v.182ZM52.183.361a2.967,2.967,0,0,0,1.455-.376,2.51,2.51,0,0,0,1.025-1.009v-2.19H53.256a3.845,3.845,0,0,0-2.179.5,1.634,1.634,0,0,0-.73,1.428,1.524,1.524,0,0,0,.5,1.2A1.933,1.933,0,0,0,52.183.361ZM62.424-9.376,62.5-8.034a4.176,4.176,0,0,1,3.382-1.557q3.628,0,3.693,4.155V2.239H66.965V-5.286a2.392,2.392,0,0,0-.478-1.637,2.01,2.01,0,0,0-1.562-.531,2.514,2.514,0,0,0-2.351,1.428V2.239H59.966V-9.376Zm9.35,5.722a6.793,6.793,0,0,1,1.272-4.321,4.083,4.083,0,0,1,3.376-1.616,3.825,3.825,0,0,1,3.124,1.385l.118-1.17h2.351V1.885a4.681,4.681,0,0,1-1.422,3.607,5.418,5.418,0,0,1-3.838,1.32,6.186,6.186,0,0,1-2.5-.531,4.435,4.435,0,0,1-1.852-1.39l1.235-1.567a3.729,3.729,0,0,0,2.963,1.428,2.882,2.882,0,0,0,2.05-.7,2.7,2.7,0,0,0,.751-2.067V1.2A3.841,3.841,0,0,1,76.4,2.454,4.073,4.073,0,0,1,73.068.833,7.014,7.014,0,0,1,71.775-3.654Zm2.6.225a4.676,4.676,0,0,0,.714,2.754,2.3,2.3,0,0,0,1.981,1,2.51,2.51,0,0,0,2.34-1.353v-5.11a2.474,2.474,0,0,0-2.319-1.32,2.3,2.3,0,0,0-2,1.02A5.236,5.236,0,0,0,74.372-3.429ZM89.81,2.454A5.4,5.4,0,0,1,85.789.892a5.666,5.666,0,0,1-1.54-4.16V-3.59A6.97,6.97,0,0,1,84.92-6.7,5.107,5.107,0,0,1,86.8-8.829a4.981,4.981,0,0,1,2.705-.762,4.559,4.559,0,0,1,3.666,1.514,6.4,6.4,0,0,1,1.294,4.283v1.052h-7.59A3.488,3.488,0,0,0,87.84-.466a2.885,2.885,0,0,0,2.12.837,3.532,3.532,0,0,0,2.92-1.449L94.286.264A4.7,4.7,0,0,1,92.424,1.88,5.831,5.831,0,0,1,89.81,2.454ZM89.5-7.5a2.2,2.2,0,0,0-1.734.751,3.9,3.9,0,0,0-.843,2.093h4.97v-.193a3.171,3.171,0,0,0-.7-1.981A2.18,2.18,0,0,0,89.5-7.5Z" transform="translate(32.254 68.001)" fill="#181818"/>
          <path id="Path_1422" data-name="Path 1422" d="M.66.943V-5.638H2.812A2.5,2.5,0,0,1,4.423-5.2a1.6,1.6,0,0,1,.54,1.311,1.337,1.337,0,0,1-.262.816,1.7,1.7,0,0,1-.714.549,1.526,1.526,0,0,1,.843.567,1.628,1.628,0,0,1,.31,1A1.76,1.76,0,0,1,4.566.437,2.374,2.374,0,0,1,2.943.943Zm.868-3.078V.233H2.961a1.38,1.38,0,0,0,.956-.314,1.1,1.1,0,0,0,.35-.866q0-1.189-1.293-1.189Zm0-.7H2.839a1.374,1.374,0,0,0,.911-.285.957.957,0,0,0,.341-.775.941.941,0,0,0-.316-.79,1.554,1.554,0,0,0-.963-.247H1.528ZM9.312.943A1.757,1.757,0,0,1,9.194.428,1.866,1.866,0,0,1,7.8,1.033,1.726,1.726,0,0,1,6.615.624,1.323,1.323,0,0,1,6.152-.413,1.383,1.383,0,0,1,6.733-1.6a2.738,2.738,0,0,1,1.634-.423h.814v-.384a.939.939,0,0,0-.262-.7,1.054,1.054,0,0,0-.773-.26,1.219,1.219,0,0,0-.75.226.666.666,0,0,0-.3.547H6.252a1.154,1.154,0,0,1,.26-.707,1.774,1.774,0,0,1,.705-.54,2.372,2.372,0,0,1,.979-.2,1.933,1.933,0,0,1,1.324.423,1.525,1.525,0,0,1,.5,1.164V-.2A2.752,2.752,0,0,0,10.189.871V.943ZM7.924.306A1.47,1.47,0,0,0,8.67.1a1.23,1.23,0,0,0,.511-.529v-1H8.525q-1.537,0-1.537.9A.761.761,0,0,0,7.25.084,1.008,1.008,0,0,0,7.924.306Zm4.312.637H11.4V-6h.836Zm4.357,0a1.757,1.757,0,0,1-.118-.515,1.866,1.866,0,0,1-1.392.606A1.726,1.726,0,0,1,13.9.624a1.323,1.323,0,0,1-.463-1.037A1.383,1.383,0,0,1,14.015-1.6a2.738,2.738,0,0,1,1.634-.423h.814v-.384a.939.939,0,0,0-.262-.7,1.054,1.054,0,0,0-.773-.26,1.219,1.219,0,0,0-.75.226.666.666,0,0,0-.3.547h-.841a1.154,1.154,0,0,1,.26-.707,1.774,1.774,0,0,1,.705-.54,2.372,2.372,0,0,1,.979-.2,1.933,1.933,0,0,1,1.324.423,1.525,1.525,0,0,1,.5,1.164V-.2A2.752,2.752,0,0,0,17.47.871V.943ZM15.206.306a1.47,1.47,0,0,0,.746-.2,1.23,1.23,0,0,0,.511-.529v-1h-.655q-1.537,0-1.537.9a.761.761,0,0,0,.262.615A1.008,1.008,0,0,0,15.206.306ZM19.4-3.948l.027.615a1.782,1.782,0,0,1,1.465-.705q1.55,0,1.564,1.749V.943H21.62V-2.294a1.126,1.126,0,0,0-.242-.782.969.969,0,0,0-.739-.253,1.207,1.207,0,0,0-.714.217,1.473,1.473,0,0,0-.479.57V.943h-.836V-3.948Zm6.278,4.3A1.2,1.2,0,0,0,26.461.08.954.954,0,0,0,26.831-.6h.791a1.516,1.516,0,0,1-.289.8,1.905,1.905,0,0,1-.712.606,2.054,2.054,0,0,1-.942.226A2.015,2.015,0,0,1,24.09.367a2.655,2.655,0,0,1-.59-1.824V-1.6a2.944,2.944,0,0,1,.262-1.27,2,2,0,0,1,.753-.863,2.138,2.138,0,0,1,1.159-.307,1.961,1.961,0,0,1,1.367.493,1.761,1.761,0,0,1,.581,1.279h-.791a1.152,1.152,0,0,0-.359-.78,1.118,1.118,0,0,0-.8-.305,1.17,1.17,0,0,0-.988.459,2.155,2.155,0,0,0-.35,1.327v.158a2.112,2.112,0,0,0,.348,1.3A1.176,1.176,0,0,0,25.679.351Zm4.913.683A2.137,2.137,0,0,1,28.974.38a2.424,2.424,0,0,1-.624-1.747v-.154a2.935,2.935,0,0,1,.278-1.3,2.169,2.169,0,0,1,.777-.895,1.955,1.955,0,0,1,1.083-.323,1.832,1.832,0,0,1,1.483.628,2.72,2.72,0,0,1,.529,1.8v.348H29.186a1.738,1.738,0,0,0,.423,1.168,1.328,1.328,0,0,0,1.028.445,1.456,1.456,0,0,0,.75-.181,1.885,1.885,0,0,0,.538-.479l.511.4A2.054,2.054,0,0,1,30.592,1.033Zm-.1-4.384a1.115,1.115,0,0,0-.85.368,1.791,1.791,0,0,0-.425,1.033h2.45v-.063A1.593,1.593,0,0,0,31.32-3,1.05,1.05,0,0,0,30.488-3.351ZM33.44.5a.524.524,0,0,1,.129-.362A.491.491,0,0,1,33.955,0a.506.506,0,0,1,.391.145A.513.513,0,0,1,34.479.5a.485.485,0,0,1-.133.348.515.515,0,0,1-.391.14.5.5,0,0,1-.386-.14A.5.5,0,0,1,33.44.5Zm0-3.991a.524.524,0,0,1,.129-.362.491.491,0,0,1,.386-.145.506.506,0,0,1,.391.145.513.513,0,0,1,.133.362.485.485,0,0,1-.133.348A.515.515,0,0,1,33.96-3a.5.5,0,0,1-.386-.14A.5.5,0,0,1,33.444-3.487ZM47.538.943H46.7V-4.63l-1.686.619v-.759l2.4-.9h.131Zm6.577-2.807a3.825,3.825,0,0,1-.5,2.183,1.784,1.784,0,0,1-1.568.714,1.8,1.8,0,0,1-1.559-.7,3.63,3.63,0,0,1-.524-2.086V-2.868a3.739,3.739,0,0,1,.5-2.156,1.8,1.8,0,0,1,1.573-.705,1.815,1.815,0,0,1,1.564.68,3.609,3.609,0,0,1,.515,2.1Zm-.836-1.144a3.064,3.064,0,0,0-.3-1.548,1.027,1.027,0,0,0-.945-.486,1.013,1.013,0,0,0-.936.484,2.992,2.992,0,0,0-.3,1.487v1.338a3.113,3.113,0,0,0,.31,1.575,1.025,1.025,0,0,0,.938.509,1.011,1.011,0,0,0,.92-.479,3,3,0,0,0,.314-1.51Z" transform="translate(32.504 112.457)" fill="#8e8e8f"/>
          <path id="Path_1424" data-name="Path 1424" d="M8.213-4.028H2.865V.345H9.077V1.676H1.238v-12.34H8.993v1.331H2.865v3.975H8.213ZM19.79-10.664v8.39a3.936,3.936,0,0,1-1.1,2.856,4.423,4.423,0,0,1-2.954,1.246l-.432.017A4.619,4.619,0,0,1,12.078.752a3.91,3.91,0,0,1-1.22-3.009v-8.407h1.61v8.357A2.822,2.822,0,0,0,13.2-.227a2.834,2.834,0,0,0,2.1.742,2.853,2.853,0,0,0,2.115-.737A2.817,2.817,0,0,0,18.154-2.3v-8.365Zm7.094,7.348h-2.9V1.676H22.349v-12.34h4.085a4.835,4.835,0,0,1,3.208.949,3.415,3.415,0,0,1,1.123,2.763,3.322,3.322,0,0,1-.623,2.009,3.719,3.719,0,0,1-1.733,1.28l2.9,5.238v.1H29.562Zm-2.9-1.331h2.5a2.82,2.82,0,0,0,1.928-.628,2.125,2.125,0,0,0,.716-1.681,2.237,2.237,0,0,0-.682-1.757,2.889,2.889,0,0,0-1.97-.62H23.985Z" transform="translate(32.193 135.312)" fill="#181818"/>
          <path id="Path_1412" data-name="Path 1412" d="M4.7-3.113H.289V-4.478H4.7ZM11.653,1.8H9.971V-9.35L6.6-8.112V-9.631l4.791-1.8h.262ZM16.76.919A1.047,1.047,0,0,1,17.018.2a.982.982,0,0,1,.773-.289A1.011,1.011,0,0,1,18.573.2a1.026,1.026,0,0,1,.267.723.971.971,0,0,1-.267.7,1.029,1.029,0,0,1-.782.28,1,1,0,0,1-.773-.28A.99.99,0,0,1,16.76.919ZM26.921,1.8H25.24V-9.35L21.868-8.112V-9.631l4.791-1.8h.262Zm10.4,0H35.636V-9.35L32.264-8.112V-9.631l4.791-1.8h.262Z" transform="translate(250.811 136.401)" fill="#181818"/>
          <path id="Path_202" data-name="Path 202" d="M0,0H18.249V18.249H0Z" transform="translate(67.505 122.835)" fill="none"/>
          <path id="Path_203" data-name="Path 203" d="M7.072,8.59l3.49,3.483,3.49-3.483,1.072,1.072-4.562,4.562L6,9.662Z" transform="translate(66.068 120.777)" fill="#8e8e8f"/>
          <path id="Path_1425" data-name="Path 1425" d="M.66,1.039V-5.543H2.812A2.5,2.5,0,0,1,4.423-5.1a1.6,1.6,0,0,1,.54,1.311,1.337,1.337,0,0,1-.262.816,1.7,1.7,0,0,1-.714.549,1.526,1.526,0,0,1,.843.567,1.628,1.628,0,0,1,.31,1A1.76,1.76,0,0,1,4.566.532a2.374,2.374,0,0,1-1.623.506ZM1.528-2.04V.329H2.961A1.38,1.38,0,0,0,3.917.015a1.1,1.1,0,0,0,.35-.866q0-1.189-1.293-1.189Zm0-.7H2.839a1.374,1.374,0,0,0,.911-.285A.957.957,0,0,0,4.091-3.8a.941.941,0,0,0-.316-.79,1.554,1.554,0,0,0-.963-.247H1.528ZM9.312,1.039A1.757,1.757,0,0,1,9.194.523,1.866,1.866,0,0,1,7.8,1.129,1.726,1.726,0,0,1,6.615.72,1.323,1.323,0,0,1,6.152-.317,1.383,1.383,0,0,1,6.733-1.5a2.738,2.738,0,0,1,1.634-.423h.814v-.384a.939.939,0,0,0-.262-.7,1.054,1.054,0,0,0-.773-.26,1.219,1.219,0,0,0-.75.226.666.666,0,0,0-.3.547H6.252a1.154,1.154,0,0,1,.26-.707,1.774,1.774,0,0,1,.705-.54,2.372,2.372,0,0,1,.979-.2A1.933,1.933,0,0,1,9.52-3.52a1.525,1.525,0,0,1,.5,1.164V-.1A2.752,2.752,0,0,0,10.189.966v.072ZM7.924.4A1.47,1.47,0,0,0,8.67.2a1.23,1.23,0,0,0,.511-.529v-1H8.525q-1.537,0-1.537.9A.761.761,0,0,0,7.25.18,1.008,1.008,0,0,0,7.924.4Zm4.312.637H11.4V-5.9h.836Zm4.357,0a1.757,1.757,0,0,1-.118-.515,1.866,1.866,0,0,1-1.392.606A1.726,1.726,0,0,1,13.9.72a1.323,1.323,0,0,1-.463-1.037A1.383,1.383,0,0,1,14.015-1.5a2.738,2.738,0,0,1,1.634-.423h.814v-.384a.939.939,0,0,0-.262-.7,1.054,1.054,0,0,0-.773-.26,1.219,1.219,0,0,0-.75.226.666.666,0,0,0-.3.547h-.841a1.154,1.154,0,0,1,.26-.707,1.774,1.774,0,0,1,.705-.54,2.372,2.372,0,0,1,.979-.2A1.933,1.933,0,0,1,16.8-3.52a1.525,1.525,0,0,1,.5,1.164V-.1A2.752,2.752,0,0,0,17.47.966v.072ZM15.206.4a1.47,1.47,0,0,0,.746-.2,1.23,1.23,0,0,0,.511-.529v-1h-.655q-1.537,0-1.537.9a.761.761,0,0,0,.262.615A1.008,1.008,0,0,0,15.206.4ZM19.4-3.852l.027.615a1.782,1.782,0,0,1,1.465-.705q1.55,0,1.564,1.749V1.039H21.62V-2.2a1.126,1.126,0,0,0-.242-.782.969.969,0,0,0-.739-.253,1.207,1.207,0,0,0-.714.217,1.473,1.473,0,0,0-.479.57V1.039h-.836V-3.852Zm6.278,4.3a1.2,1.2,0,0,0,.782-.271A.954.954,0,0,0,26.831-.5h.791a1.516,1.516,0,0,1-.289.8A1.905,1.905,0,0,1,26.621.9a2.054,2.054,0,0,1-.942.226A2.015,2.015,0,0,1,24.09.462a2.655,2.655,0,0,1-.59-1.824V-1.5a2.944,2.944,0,0,1,.262-1.27,2,2,0,0,1,.753-.863,2.138,2.138,0,0,1,1.159-.307,1.961,1.961,0,0,1,1.367.493,1.761,1.761,0,0,1,.581,1.279h-.791a1.152,1.152,0,0,0-.359-.78,1.118,1.118,0,0,0-.8-.305,1.17,1.17,0,0,0-.988.459,2.155,2.155,0,0,0-.35,1.327v.158a2.112,2.112,0,0,0,.348,1.3A1.176,1.176,0,0,0,25.679.446Zm4.913.683A2.137,2.137,0,0,1,28.974.476a2.424,2.424,0,0,1-.624-1.747v-.154a2.935,2.935,0,0,1,.278-1.3,2.169,2.169,0,0,1,.777-.895,1.955,1.955,0,0,1,1.083-.323,1.832,1.832,0,0,1,1.483.628,2.72,2.72,0,0,1,.529,1.8v.348H29.186A1.738,1.738,0,0,0,29.609,0a1.328,1.328,0,0,0,1.028.445,1.456,1.456,0,0,0,.75-.181,1.885,1.885,0,0,0,.538-.479l.511.4A2.054,2.054,0,0,1,30.592,1.129Zm-.1-4.384a1.115,1.115,0,0,0-.85.368,1.791,1.791,0,0,0-.425,1.033h2.45v-.063a1.593,1.593,0,0,0-.344-.988A1.05,1.05,0,0,0,30.488-3.255ZM33.44.6a.524.524,0,0,1,.129-.362.491.491,0,0,1,.386-.145.506.506,0,0,1,.391.145A.513.513,0,0,1,34.479.6a.485.485,0,0,1-.133.348.515.515,0,0,1-.391.14.5.5,0,0,1-.386-.14A.5.5,0,0,1,33.44.6Zm0-3.991a.524.524,0,0,1,.129-.362A.491.491,0,0,1,33.96-3.9a.506.506,0,0,1,.391.145.513.513,0,0,1,.133.362.485.485,0,0,1-.133.348.515.515,0,0,1-.391.14.5.5,0,0,1-.386-.14A.5.5,0,0,1,33.444-3.391ZM41.237-.656a.941.941,0,0,0-.292-.7,2.608,2.608,0,0,0-.983-.515,3.152,3.152,0,0,1-1.4-.766,1.69,1.69,0,0,1-.441-1.2,1.737,1.737,0,0,1,.432-1.216,1.834,1.834,0,0,1,1.187-.565v-.99h.673v.994a1.742,1.742,0,0,1,1.182.637,2.29,2.29,0,0,1,.423,1.46h-.832a1.574,1.574,0,0,0-.3-1.016,1,1,0,0,0-.818-.376,1.129,1.129,0,0,0-.823.278,1.036,1.036,0,0,0-.285.777.947.947,0,0,0,.3.736,2.769,2.769,0,0,0,.99.5,4.167,4.167,0,0,1,1.076.493,1.731,1.731,0,0,1,.57.626,1.81,1.81,0,0,1,.183.836A1.676,1.676,0,0,1,41.614.564a2.034,2.034,0,0,1-1.286.551v.863h-.669V1.115a1.949,1.949,0,0,1-1.318-.6A2.021,2.021,0,0,1,37.865-.9H38.7a1.33,1.33,0,0,0,.33.967,1.246,1.246,0,0,0,.936.339A1.4,1.4,0,0,0,40.9.121.962.962,0,0,0,41.237-.656Zm4.624,1.7H45.02V-4.535l-1.686.619v-.759l2.4-.9h.131Zm6.577-2.807a3.824,3.824,0,0,1-.5,2.183,1.784,1.784,0,0,1-1.568.714,1.8,1.8,0,0,1-1.559-.7,3.63,3.63,0,0,1-.524-2.086V-2.772a3.739,3.739,0,0,1,.5-2.156,1.8,1.8,0,0,1,1.573-.705,1.815,1.815,0,0,1,1.564.68,3.609,3.609,0,0,1,.515,2.1ZM51.6-2.912a3.064,3.064,0,0,0-.3-1.548,1.027,1.027,0,0,0-.945-.486,1.013,1.013,0,0,0-.936.484,2.992,2.992,0,0,0-.3,1.487v1.338a3.113,3.113,0,0,0,.31,1.575,1.025,1.025,0,0,0,.938.509,1.011,1.011,0,0,0,.92-.479,3,3,0,0,0,.314-1.51Z" transform="translate(32.504 238.038)" fill="#8e8e8f"/>
          <path id="Path_1426" data-name="Path 1426" d="M9.958-10.641v8.39A3.936,3.936,0,0,1,8.861.606,4.423,4.423,0,0,1,5.907,1.851l-.432.017A4.619,4.619,0,0,1,2.246.775a3.91,3.91,0,0,1-1.22-3.009v-8.407h1.61v8.357A2.822,2.822,0,0,0,3.373-.2a2.834,2.834,0,0,0,2.1.742A2.853,2.853,0,0,0,7.589-.2a2.817,2.817,0,0,0,.733-2.076v-8.365Zm6.2,6.839a7.652,7.652,0,0,1-3.047-1.479,2.826,2.826,0,0,1-.953-2.165,2.985,2.985,0,0,1,1.165-2.411,4.631,4.631,0,0,1,3.03-.953,5.055,5.055,0,0,1,2.267.492,3.728,3.728,0,0,1,1.542,1.356,3.467,3.467,0,0,1,.547,1.89H19.077a2.256,2.256,0,0,0-.712-1.765,2.9,2.9,0,0,0-2.009-.642,2.964,2.964,0,0,0-1.877.531,1.77,1.77,0,0,0-.674,1.473,1.593,1.593,0,0,0,.64,1.278,6.276,6.276,0,0,0,2.178.955,10.106,10.106,0,0,1,2.407.954,3.653,3.653,0,0,1,1.288,1.216,3.1,3.1,0,0,1,.42,1.636,2.883,2.883,0,0,1-1.17,2.4,4.987,4.987,0,0,1-3.127.9,5.8,5.8,0,0,1-2.373-.487,3.994,3.994,0,0,1-1.7-1.335,3.258,3.258,0,0,1-.6-1.924h1.636a2.125,2.125,0,0,0,.826,1.767,3.479,3.479,0,0,0,2.208.648A3.2,3.2,0,0,0,18.416.012,1.707,1.707,0,0,0,19.1-1.42a1.676,1.676,0,0,0-.636-1.4A7.328,7.328,0,0,0,16.162-3.8Zm6.661,5.5v-12.34h3.483a5.607,5.607,0,0,1,2.848.712A4.815,4.815,0,0,1,31.066-7.9a6.593,6.593,0,0,1,.682,3.017V-4.1a6.616,6.616,0,0,1-.674,3.06A4.739,4.739,0,0,1,29.15.978a5.965,5.965,0,0,1-2.911.72ZM24.451-9.31V.368h1.712A3.725,3.725,0,0,0,29.091-.8a4.836,4.836,0,0,0,1.047-3.334v-.721a4.913,4.913,0,0,0-.987-3.27,3.514,3.514,0,0,0-2.8-1.183Z" transform="translate(32.16 263.068)" fill="#181818"/>
          <path id="Path_202-2" data-name="Path 202" d="M0,0H18.249V18.249H0Z" transform="translate(64.033 248.786)" fill="none"/>
          <path id="Path_203-2" data-name="Path 203" d="M7.072,8.59l3.49,3.483,3.49-3.483,1.072,1.072-4.562,4.562L6,9.662Z" transform="translate(62.595 246.727)" fill="#8e8e8f"/>
          <g transform="matrix(1, 0, 0, 1, -30, -30)" filter="url(#Path_1420)">
            <g id="Path_1420-2" data-name="Path 1420" transform="translate(105.02 198.94)" fill="#fff">
              <path d="M 158.2566833496094 29.6973876953125 L 15.0987024307251 29.6973876953125 C 11.19924640655518 29.6973876953125 7.533202648162842 28.17886734008789 4.77585506439209 25.42154121398926 C 2.018528699874878 22.66419219970703 0.5000070333480835 18.99814987182617 0.5000070333480835 15.09869289398193 C 0.5000070333480835 11.1992359161377 2.018528699874878 7.533193111419678 4.77585506439209 4.775845050811768 C 7.533202648162842 2.018518924713135 11.19924640655518 0.4999972283840179 15.0987024307251 0.4999972283840179 L 158.2566833496094 0.4999972283840179 C 162.1561126708984 0.4999972283840179 165.8221740722656 2.018518924713135 168.5795135498047 4.775845050811768 C 171.3368377685547 7.533193111419678 172.8553619384766 11.1992359161377 172.8553619384766 15.09869289398193 C 172.8553619384766 18.99814987182617 171.3368377685547 22.66419219970703 168.5795135498047 25.42154121398926 C 165.8221740722656 28.17886734008789 162.1561126708984 29.6973876953125 158.2566833496094 29.6973876953125 Z" stroke="none"/>
              <path d="M 15.09867858886719 0.9999885559082031 C 11.33279418945312 0.9999885559082031 7.79229736328125 2.466510772705078 5.129409790039062 5.129398345947266 C 2.466522216796875 7.792306900024414 1 11.33280563354492 1 15.09869289398193 C 1 18.86457824707031 2.466522216796875 22.40507888793945 5.129409790039062 25.06796646118164 C 7.79229736328125 27.7308521270752 11.33279418945312 29.19737434387207 15.09867858886719 29.19737434387207 L 158.2566833496094 29.19737434387207 C 162.0225677490234 29.19737434387207 165.5630493164062 27.7308521270752 168.2259521484375 25.06796646118164 C 170.8888397216797 22.40507888793945 172.3553619384766 18.86457824707031 172.3553619384766 15.09869289398193 C 172.3553619384766 11.33280563354492 170.8888397216797 7.792306900024414 168.2259521484375 5.129398345947266 C 165.5630493164062 2.466510772705078 162.0225677490234 0.9999885559082031 158.2566833496094 0.9999885559082031 L 15.09867858886719 0.9999885559082031 M 15.09867858886719 -1.1444091796875e-05 L 158.2566833496094 -1.1444091796875e-05 C 166.5954284667969 -1.1444091796875e-05 173.3553619384766 6.759920120239258 173.3553619384766 15.09869289398193 C 173.3553619384766 23.43746566772461 166.5954284667969 30.19737434387207 158.2566833496094 30.19737434387207 L 15.09867858886719 30.19737434387207 C 6.759902954101562 30.19737434387207 0 23.43746566772461 0 15.09869289398193 C 0 6.759920120239258 6.759902954101562 -1.1444091796875e-05 15.09867858886719 -1.1444091796875e-05 Z" stroke="none" fill="#f3f4f5"/>
            </g>
          </g>
          <path id="Path_259" data-name="Path 259" d="M0,0H30.416V30.416H0Z" transform="translate(75.018 168.778)" fill="none"/>
          <path id="Path_260" data-name="Path 260" d="M16.447,2A14.447,14.447,0,1,0,30.895,16.447,14.453,14.453,0,0,0,16.447,2ZM8.5,12.113l5.057-5.057,5.057,5.057H15v5.779H12.113V12.113Zm15.892,8.668-5.057,5.057L14.28,20.782h3.612V15h2.889v5.779Z" transform="translate(73.778 167.538)" fill="#0667eb"/>
          <path id="Path_1359" data-name="Path 1359" d="M0,0H18.249V18.249H0Z" transform="translate(115.286 174.009)" fill="none"/>
          <path id="Path_1360" data-name="Path 1360" d="M12.645,6l1.741,1.741-3.711,3.711L7.634,8.41,2,14.053l1.072,1.072,4.562-4.562L10.676,13.6l4.79-4.783,1.741,1.741V6Z" transform="translate(122.023 173.357)" fill="#0667eb"/>
          <path id="Path_1429" data-name="Path 1429" d="M7.47,8.774a2.414,2.414,0,0,1-2.146-1.3H7.47V6.725H5.079a2.343,2.343,0,0,1,0-.745H7.47V5.235H5.324a2.416,2.416,0,0,1,3.721-.719L9.7,3.857A3.348,3.348,0,0,0,4.311,5.235H3V5.98H4.14a3.115,3.115,0,0,0,0,.745H3V7.47H4.311A3.348,3.348,0,0,0,9.7,8.848l-.663-.659A2.386,2.386,0,0,1,7.47,8.774Z" transform="translate(66.103 103.457)" fill="#8e8e8f"/>
          <path id="Path_1430" data-name="Path 1430" d="M12.035,14.67A4.879,4.879,0,0,1,7.7,12.035h4.337V10.529H7.2a4.736,4.736,0,0,1,0-1.506h4.833V7.517H7.7a4.884,4.884,0,0,1,7.521-1.453l1.333-1.333A6.766,6.766,0,0,0,5.65,7.517H3V9.023H5.3a6.3,6.3,0,0,0,0,1.506H3v1.506H5.65a6.766,6.766,0,0,0,10.9,2.786l-1.34-1.333A4.823,4.823,0,0,1,12.035,14.67Z" transform="translate(231.67 122.067)" fill="#181818"/>
          <path id="Path_1428" data-name="Path 1428" d="M9.384,11.246A3.447,3.447,0,0,1,6.32,9.384H9.384V8.32H5.968a3.346,3.346,0,0,1,0-1.064H9.384V6.192H6.32a3.451,3.451,0,0,1,5.315-1.027l.942-.942a4.781,4.781,0,0,0-7.7,1.968H3V7.256H4.628a4.449,4.449,0,0,0,0,1.064H3V9.384H4.873a4.781,4.781,0,0,0,7.7,1.968l-.947-.942A3.408,3.408,0,0,1,9.384,11.246Z" transform="translate(141.038 176.357)" fill="#0667eb"/>
          <path id="Path_1431" data-name="Path 1431" d="M4.387,1.428H3.231V-6.235L.913-5.384V-6.428L4.207-7.665h.18Zm11.9-5.059H11.1v-1h5.183Zm0,2.579H11.1v-.994h5.183ZM25.612-.9a1.294,1.294,0,0,0-.4-.963,3.586,3.586,0,0,0-1.352-.709,4.333,4.333,0,0,1-1.93-1.053,2.323,2.323,0,0,1-.606-1.65,2.389,2.389,0,0,1,.594-1.672,2.522,2.522,0,0,1,1.631-.777V-9.088h.926v1.367a2.4,2.4,0,0,1,1.625.876,3.149,3.149,0,0,1,.581,2.007H25.537a2.165,2.165,0,0,0-.416-1.4A1.368,1.368,0,0,0,24-6.751a1.552,1.552,0,0,0-1.131.383A1.425,1.425,0,0,0,22.473-5.3a1.3,1.3,0,0,0,.413,1.012,3.807,3.807,0,0,0,1.361.685,5.73,5.73,0,0,1,1.479.678,2.38,2.38,0,0,1,.783.861,2.488,2.488,0,0,1,.252,1.15A2.3,2.3,0,0,1,26.131.776a2.8,2.8,0,0,1-1.768.758V2.721h-.92V1.534A2.68,2.68,0,0,1,21.631.71a2.779,2.779,0,0,1-.656-1.948h1.15a1.829,1.829,0,0,0,.454,1.33,1.713,1.713,0,0,0,1.287.466,1.93,1.93,0,0,0,1.28-.392A1.322,1.322,0,0,0,25.612-.9Zm9.509,2.331H33.965V-6.235l-2.318.851V-6.428l3.294-1.237h.18Zm3.512-.6a.72.72,0,0,1,.177-.5.675.675,0,0,1,.531-.2.7.7,0,0,1,.538.2.706.706,0,0,1,.183.5.667.667,0,0,1-.183.479.708.708,0,0,1-.538.193A.687.687,0,0,1,38.81,1.3.68.68,0,0,1,38.633.825Zm9.136.6H41.84V.6l3.132-3.48a7.442,7.442,0,0,0,.96-1.283A2.142,2.142,0,0,0,46.2-5.185a1.624,1.624,0,0,0-.429-1.162A1.5,1.5,0,0,0,44.624-6.8a1.776,1.776,0,0,0-1.333.488,1.864,1.864,0,0,0-.475,1.358h-1.15a2.669,2.669,0,0,1,.8-2.02,2.984,2.984,0,0,1,2.154-.771,2.867,2.867,0,0,1,2,.662,2.258,2.258,0,0,1,.733,1.762,5.177,5.177,0,0,1-1.7,3.182L43.226.49h4.543Zm6.893-3.86a5.259,5.259,0,0,1-.69,3,2.453,2.453,0,0,1-2.157.982,2.471,2.471,0,0,1-2.144-.96,4.991,4.991,0,0,1-.721-2.868V-3.811a5.142,5.142,0,0,1,.69-2.965,2.472,2.472,0,0,1,2.163-.97,2.5,2.5,0,0,1,2.15.935,4.962,4.962,0,0,1,.709,2.887ZM53.512-4a4.213,4.213,0,0,0-.41-2.129A1.412,1.412,0,0,0,51.8-6.8a1.393,1.393,0,0,0-1.287.665A4.114,4.114,0,0,0,50.1-4.091v1.84a4.281,4.281,0,0,0,.426,2.166,1.409,1.409,0,0,0,1.29.7A1.39,1.39,0,0,0,53.08-.045a4.126,4.126,0,0,0,.432-2.076Z" transform="translate(155.036 187.186)" fill="#0667eb"/>
          <path id="Path_1432" data-name="Path 1432" d="M7.6-1.313a1.882,1.882,0,0,0-.583-1.4A5.216,5.216,0,0,0,5.054-3.745,6.3,6.3,0,0,1,2.247-5.277a3.379,3.379,0,0,1-.881-2.4,3.475,3.475,0,0,1,.863-2.432A3.669,3.669,0,0,1,4.6-11.239v-1.98H5.949v1.989A3.484,3.484,0,0,1,8.313-9.955a4.581,4.581,0,0,1,.845,2.92H7.495a3.149,3.149,0,0,0-.606-2.032A1.99,1.99,0,0,0,5.253-9.82a2.258,2.258,0,0,0-1.645.557,2.073,2.073,0,0,0-.57,1.553,1.894,1.894,0,0,0,.6,1.472,5.538,5.538,0,0,0,1.98,1,8.334,8.334,0,0,1,2.152.986A3.461,3.461,0,0,1,8.91-3a3.619,3.619,0,0,1,.366,1.672,3.351,3.351,0,0,1-.918,2.459,4.069,4.069,0,0,1-2.572,1.1V3.958H4.448V2.231a3.9,3.9,0,0,1-2.635-1.2A4.042,4.042,0,0,1,.859-1.8H2.532A2.66,2.66,0,0,0,3.192.134,2.492,2.492,0,0,0,5.063.812,2.807,2.807,0,0,0,6.925.242,1.923,1.923,0,0,0,7.6-1.313Zm8.715-3.67h3.67V-3.4h-3.67V.757H14.637V-3.4h-3.67V-4.983h3.67V-8.825h1.681Zm11.029,7.06H25.666V-9.069L22.294-7.831V-9.35l4.791-1.8h.262ZM32.455,1.2a1.047,1.047,0,0,1,.258-.723.982.982,0,0,1,.773-.289,1.011,1.011,0,0,1,.782.289,1.026,1.026,0,0,1,.267.723.971.971,0,0,1-.267.7,1.029,1.029,0,0,1-.782.28,1,1,0,0,1-.773-.28A.99.99,0,0,1,32.455,1.2Zm7.1-6.518h1.257a2.762,2.762,0,0,0,1.862-.624,2.084,2.084,0,0,0,.678-1.636,2.042,2.042,0,0,0-2.305-2.314,2.4,2.4,0,0,0-1.731.619,2.167,2.167,0,0,0-.646,1.641H36.993a3.358,3.358,0,0,1,1.144-2.6,4.166,4.166,0,0,1,2.906-1.035,4.117,4.117,0,0,1,2.92.985,3.56,3.56,0,0,1,1.058,2.739,2.889,2.889,0,0,1-.556,1.663,3.357,3.357,0,0,1-1.514,1.2,3.235,3.235,0,0,1,1.677,1.139,3.163,3.163,0,0,1,.592,1.944,3.591,3.591,0,0,1-1.157,2.811,4.333,4.333,0,0,1-3.01,1.04,4.448,4.448,0,0,1-3.015-1,3.329,3.329,0,0,1-1.162-2.649h1.681A2.151,2.151,0,0,0,39.235.269a2.579,2.579,0,0,0,1.817.624A2.531,2.531,0,0,0,42.905.26a2.439,2.439,0,0,0,.642-1.817,2.213,2.213,0,0,0-.705-1.763,3.072,3.072,0,0,0-2.034-.633H39.551Zm10.4,0H51.2a2.762,2.762,0,0,0,1.862-.624,2.084,2.084,0,0,0,.678-1.636,2.042,2.042,0,0,0-2.305-2.314,2.4,2.4,0,0,0-1.731.619,2.167,2.167,0,0,0-.646,1.641H47.389a3.358,3.358,0,0,1,1.144-2.6,4.166,4.166,0,0,1,2.906-1.035,4.117,4.117,0,0,1,2.92.985,3.56,3.56,0,0,1,1.058,2.739,2.889,2.889,0,0,1-.556,1.663,3.357,3.357,0,0,1-1.514,1.2,3.235,3.235,0,0,1,1.677,1.139,3.164,3.164,0,0,1,.592,1.944,3.591,3.591,0,0,1-1.157,2.811,4.333,4.333,0,0,1-3.01,1.04,4.448,4.448,0,0,1-3.015-1,3.329,3.329,0,0,1-1.162-2.649h1.681A2.151,2.151,0,0,0,49.631.269a2.579,2.579,0,0,0,1.817.624A2.531,2.531,0,0,0,53.3.26a2.439,2.439,0,0,0,.642-1.817,2.213,2.213,0,0,0-.705-1.763A3.072,3.072,0,0,0,51.2-3.953H49.948Z" transform="translate(232.883 262.908)" fill="#181818"/>
          <path id="Path_1434" data-name="Path 1434" d="M5.548.043a2,2,0,0,1-.933.716A3.77,3.77,0,0,1,3.22,1,2.7,2.7,0,0,1,1.792.619,2.515,2.515,0,0,1,.827-.455a3.708,3.708,0,0,1-.35-1.614v-.574A3.461,3.461,0,0,1,1.17-4.947a2.418,2.418,0,0,1,1.95-.818,2.5,2.5,0,0,1,1.659.527,2.294,2.294,0,0,1,.768,1.494H4.68A1.435,1.435,0,0,0,3.125-5.056,1.536,1.536,0,0,0,1.8-4.443a2.993,2.993,0,0,0-.454,1.776v.538A2.805,2.805,0,0,0,1.855-.367a1.641,1.641,0,0,0,1.37.654A3.025,3.025,0,0,0,4.079.179a1.321,1.321,0,0,0,.606-.365V-1.661H3.161v-.71H5.548ZM6.995.906V-5.675H9.146a2.5,2.5,0,0,1,1.611.443,1.6,1.6,0,0,1,.54,1.311,1.337,1.337,0,0,1-.262.816,1.7,1.7,0,0,1-.714.549,1.526,1.526,0,0,1,.843.567,1.628,1.628,0,0,1,.31,1A1.76,1.76,0,0,1,10.9.4,2.374,2.374,0,0,1,9.277.906Zm.868-3.078V.2H9.3a1.38,1.38,0,0,0,.956-.314,1.1,1.1,0,0,0,.35-.866q0-1.189-1.293-1.189Zm0-.7H9.173a1.374,1.374,0,0,0,.911-.285.957.957,0,0,0,.341-.775.941.941,0,0,0-.316-.79,1.554,1.554,0,0,0-.963-.247H7.862Zm5.763,1.2V.906h-.868V-5.675h2.427a2.439,2.439,0,0,1,1.693.551,1.87,1.87,0,0,1,.612,1.46,1.845,1.845,0,0,1-.6,1.476,2.548,2.548,0,0,1-1.715.518Zm0-.71h1.559a1.559,1.559,0,0,0,1.067-.328,1.2,1.2,0,0,0,.371-.949,1.24,1.24,0,0,0-.371-.942,1.461,1.461,0,0,0-1.017-.367H13.626ZM18.439.468a.524.524,0,0,1,.129-.362.491.491,0,0,1,.386-.145.506.506,0,0,1,.391.145.513.513,0,0,1,.133.362.485.485,0,0,1-.133.348.515.515,0,0,1-.391.14.5.5,0,0,1-.386-.14A.5.5,0,0,1,18.439.468Zm0-3.991a.524.524,0,0,1,.129-.362.491.491,0,0,1,.386-.145.506.506,0,0,1,.391.145.513.513,0,0,1,.133.362.485.485,0,0,1-.133.348.515.515,0,0,1-.391.14.5.5,0,0,1-.386-.14A.5.5,0,0,1,18.444-3.524ZM25.663.906h-.841V-4.667l-1.686.619v-.759l2.4-.9h.131ZM28.216.468a.524.524,0,0,1,.129-.362.491.491,0,0,1,.386-.145.506.506,0,0,1,.391.145.513.513,0,0,1,.133.362.485.485,0,0,1-.133.348.515.515,0,0,1-.391.14.5.5,0,0,1-.386-.14A.5.5,0,0,1,28.216.468ZM34.676-1.9a3.825,3.825,0,0,1-.5,2.183A1.784,1.784,0,0,1,32.605,1,1.8,1.8,0,0,1,31.046.3a3.63,3.63,0,0,1-.524-2.086V-2.9a3.739,3.739,0,0,1,.5-2.156A1.8,1.8,0,0,1,32.6-5.766a1.815,1.815,0,0,1,1.564.68,3.609,3.609,0,0,1,.515,2.1Zm-.836-1.144a3.064,3.064,0,0,0-.3-1.548,1.027,1.027,0,0,0-.945-.486,1.013,1.013,0,0,0-.936.484,2.992,2.992,0,0,0-.3,1.487V-1.77a3.113,3.113,0,0,0,.31,1.575,1.025,1.025,0,0,0,.938.509,1.011,1.011,0,0,0,.92-.479,3,3,0,0,0,.314-1.51Z" transform="translate(253.489 112.494)" fill="#8e8e8f"/>
          <path id="Path_1435" data-name="Path 1435" d="M5.548.043a2,2,0,0,1-.933.716A3.77,3.77,0,0,1,3.22,1,2.7,2.7,0,0,1,1.792.619,2.515,2.515,0,0,1,.827-.455a3.708,3.708,0,0,1-.35-1.614v-.574A3.461,3.461,0,0,1,1.17-4.947a2.418,2.418,0,0,1,1.95-.818,2.5,2.5,0,0,1,1.659.527,2.294,2.294,0,0,1,.768,1.494H4.68A1.435,1.435,0,0,0,3.125-5.056,1.536,1.536,0,0,0,1.8-4.443a2.993,2.993,0,0,0-.454,1.776v.538A2.805,2.805,0,0,0,1.855-.367a1.641,1.641,0,0,0,1.37.654A3.025,3.025,0,0,0,4.079.179a1.321,1.321,0,0,0,.606-.365V-1.661H3.161v-.71H5.548ZM6.995.906V-5.675H9.146a2.5,2.5,0,0,1,1.611.443,1.6,1.6,0,0,1,.54,1.311,1.337,1.337,0,0,1-.262.816,1.7,1.7,0,0,1-.714.549,1.526,1.526,0,0,1,.843.567,1.628,1.628,0,0,1,.31,1A1.76,1.76,0,0,1,10.9.4,2.374,2.374,0,0,1,9.277.906Zm.868-3.078V.2H9.3a1.38,1.38,0,0,0,.956-.314,1.1,1.1,0,0,0,.35-.866q0-1.189-1.293-1.189Zm0-.7H9.173a1.374,1.374,0,0,0,.911-.285.957.957,0,0,0,.341-.775.941.941,0,0,0-.316-.79,1.554,1.554,0,0,0-.963-.247H7.862Zm5.763,1.2V.906h-.868V-5.675h2.427a2.439,2.439,0,0,1,1.693.551,1.87,1.87,0,0,1,.612,1.46,1.845,1.845,0,0,1-.6,1.476,2.548,2.548,0,0,1-1.715.518Zm0-.71h1.559a1.559,1.559,0,0,0,1.067-.328,1.2,1.2,0,0,0,.371-.949,1.24,1.24,0,0,0-.371-.942,1.461,1.461,0,0,0-1.017-.367H13.626ZM18.439.468a.524.524,0,0,1,.129-.362.491.491,0,0,1,.386-.145.506.506,0,0,1,.391.145.513.513,0,0,1,.133.362.485.485,0,0,1-.133.348.515.515,0,0,1-.391.14.5.5,0,0,1-.386-.14A.5.5,0,0,1,18.439.468Zm0-3.991a.524.524,0,0,1,.129-.362.491.491,0,0,1,.386-.145.506.506,0,0,1,.391.145.513.513,0,0,1,.133.362.485.485,0,0,1-.133.348.515.515,0,0,1-.391.14.5.5,0,0,1-.386-.14A.5.5,0,0,1,18.444-3.524ZM25.663.906h-.841V-4.667l-1.686.619v-.759l2.4-.9h.131ZM28.216.468a.524.524,0,0,1,.129-.362.491.491,0,0,1,.386-.145.506.506,0,0,1,.391.145.513.513,0,0,1,.133.362.485.485,0,0,1-.133.348.515.515,0,0,1-.391.14.5.5,0,0,1-.386-.14A.5.5,0,0,1,28.216.468ZM34.676-1.9a3.825,3.825,0,0,1-.5,2.183A1.784,1.784,0,0,1,32.605,1,1.8,1.8,0,0,1,31.046.3a3.63,3.63,0,0,1-.524-2.086V-2.9a3.739,3.739,0,0,1,.5-2.156A1.8,1.8,0,0,1,32.6-5.766a1.815,1.815,0,0,1,1.564.68,3.609,3.609,0,0,1,.515,2.1Zm-.836-1.144a3.064,3.064,0,0,0-.3-1.548,1.027,1.027,0,0,0-.945-.486,1.013,1.013,0,0,0-.936.484,2.992,2.992,0,0,0-.3,1.487V-1.77a3.113,3.113,0,0,0,.31,1.575,1.025,1.025,0,0,0,.938.509,1.011,1.011,0,0,0,.92-.479,3,3,0,0,0,.314-1.51Z" transform="translate(253.489 238.623)" fill="#8e8e8f"/>
        </g>
      </g>
    </g>
  </g>
</svg>
