<svg xmlns="http://www.w3.org/2000/svg" xmlns:xlink="http://www.w3.org/1999/xlink" width="340" height="397" viewBox="0 0 340 397">
  <defs>
    <filter id="Path_1414" x="0" y="0" width="340" height="397" filterUnits="userSpaceOnUse">
      <feOffset dx="-10" dy="30" input="SourceAlpha"/>
      <feGaussianBlur stdDeviation="10" result="blur"/>
      <feFlood flood-opacity="0.161"/>
      <feComposite operator="in" in2="blur"/>
      <feComposite in="SourceGraphic"/>
    </filter>
    <filter id="Path_1416" x="71.5" y="255.5" width="217" height="47" filterUnits="userSpaceOnUse">
      <feOffset dy="5" input="SourceAlpha"/>
      <feGaussianBlur stdDeviation="2.5" result="blur-2"/>
      <feFlood flood-color="#c9defb"/>
      <feComposite operator="in" in2="blur-2"/>
      <feComposite in="SourceGraphic"/>
    </filter>
    <filter id="Path_1420" x="95.83" y="140" width="167.813" height="44.096" filterUnits="userSpaceOnUse">
      <feOffset dy="3" input="SourceAlpha"/>
      <feGaussianBlur stdDeviation="3" result="blur-3"/>
      <feFlood flood-opacity="0.161"/>
      <feComposite operator="in" in2="blur-3"/>
      <feComposite in="SourceGraphic"/>
    </filter>
  </defs>
  <g id="Group_3498" data-name="Group 3498" transform="translate(-3918 -2256)">
    <g id="Group_3497" data-name="Group 3497">
      <g transform="matrix(1, 0, 0, 1, 3918, 2256)" filter="url(#Path_1414)">
        <g id="Path_1414-2" data-name="Path 1414" transform="translate(40)" fill="#fff">
          <path d="M 275 336.5 L 5 336.5 C 2.518708229064941 336.5 0.5 334.4812927246094 0.5 332 L 0.5 5 C 0.5 2.518708229064941 2.518708229064941 0.5 5 0.5 L 275 0.5 C 277.4812927246094 0.5 279.5 2.518708229064941 279.5 5 L 279.5 332 C 279.5 334.4812927246094 277.4812927246094 336.5 275 336.5 Z" stroke="none"/>
          <path d="M 5 1 C 2.79437255859375 1 1 2.79437255859375 1 5 L 1 332 C 1 334.2056274414063 2.79437255859375 336 5 336 L 275 336 C 277.2056274414063 336 279 334.2056274414063 279 332 L 279 5 C 279 2.79437255859375 277.2056274414063 1 275 1 L 5 1 M 5 0 L 275 0 C 277.7614135742188 0 280 2.23858642578125 280 5 L 280 332 C 280 334.7614135742188 277.7614135742188 337 275 337 L 5 337 C 2.23858642578125 337 0 334.7614135742188 0 332 L 0 5 C 0 2.23858642578125 2.23858642578125 0 5 0 Z" stroke="none" fill="#e4e4e4"/>
        </g>
      </g>
      <path id="Path_1415" data-name="Path 1415" d="M0,0H277.685V178.108H0Z" transform="translate(3959.157 2414.33)" fill="#f6f6f6"/>
      <g transform="matrix(1, 0, 0, 1, 3918, 2256)" filter="url(#Path_1416)">
        <path id="Path_1416-2" data-name="Path 1416" d="M16,0H186a16,16,0,0,1,0,32H16A16,16,0,0,1,16,0Z" transform="translate(79 258)" fill="#0667eb"/>
      </g>
      <path id="Path_1419" data-name="Path 1419" d="M5.328-3.615H1.939V-.843H5.876V0H.908V-7.82H5.822v.843H1.939v2.519H5.328ZM8.954-3.69l1.289-2.122H11.4L9.5-2.938,11.462,0H10.313L8.97-2.175,7.627,0H6.472l1.96-2.938-1.9-2.874H7.681ZM14.679-.7a1.431,1.431,0,0,0,.929-.322,1.134,1.134,0,0,0,.44-.806h.94a1.8,1.8,0,0,1-.344.951,2.264,2.264,0,0,1-.846.72,2.441,2.441,0,0,1-1.12.269,2.394,2.394,0,0,1-1.888-.792,3.155,3.155,0,0,1-.7-2.167v-.167A3.5,3.5,0,0,1,12.4-4.528,2.373,2.373,0,0,1,13.3-5.554a2.54,2.54,0,0,1,1.378-.365,2.331,2.331,0,0,1,1.625.585,2.092,2.092,0,0,1,.69,1.52h-.94a1.369,1.369,0,0,0-.427-.927,1.328,1.328,0,0,0-.948-.363,1.391,1.391,0,0,0-1.174.545,2.56,2.56,0,0,0-.416,1.576v.188A2.509,2.509,0,0,0,13.5-1.246,1.4,1.4,0,0,0,14.679-.7Zm4.42-4.4a2.113,2.113,0,0,1,1.719-.811q1.842,0,1.858,2.079V0h-.994V-3.846a1.338,1.338,0,0,0-.287-.929,1.152,1.152,0,0,0-.878-.3,1.434,1.434,0,0,0-.849.258,1.751,1.751,0,0,0-.569.677V0h-.994V-8.25H19.1ZM27.752,0a2.087,2.087,0,0,1-.14-.612,2.217,2.217,0,0,1-1.654.72,2.051,2.051,0,0,1-1.41-.486A1.573,1.573,0,0,1,24-1.611a1.643,1.643,0,0,1,.69-1.41,3.254,3.254,0,0,1,1.942-.5H27.6V-3.98a1.116,1.116,0,0,0-.312-.83,1.252,1.252,0,0,0-.918-.309,1.449,1.449,0,0,0-.892.269.791.791,0,0,0-.36.65h-1a1.371,1.371,0,0,1,.309-.841,2.108,2.108,0,0,1,.838-.642,2.819,2.819,0,0,1,1.163-.236,2.3,2.3,0,0,1,1.574.5,1.812,1.812,0,0,1,.591,1.383v2.675a3.27,3.27,0,0,0,.2,1.273V0ZM26.1-.757A1.746,1.746,0,0,0,26.99-1a1.462,1.462,0,0,0,.607-.628V-2.82h-.779q-1.826,0-1.826,1.069a.9.9,0,0,0,.312.73A1.2,1.2,0,0,0,26.1-.757Zm4.984-5.054.032.73a2.118,2.118,0,0,1,1.74-.838q1.842,0,1.858,2.079V0h-.994V-3.846a1.338,1.338,0,0,0-.287-.929,1.152,1.152,0,0,0-.878-.3,1.434,1.434,0,0,0-.849.258,1.751,1.751,0,0,0-.569.677V0h-.994V-5.812Zm4.893,2.857a3.416,3.416,0,0,1,.628-2.162,2.01,2.01,0,0,1,1.665-.8,2,2,0,0,1,1.66.752l.048-.645h.908V-.14a2.364,2.364,0,0,1-.669,1.778,2.468,2.468,0,0,1-1.8.65,2.989,2.989,0,0,1-1.23-.269,2.117,2.117,0,0,1-.918-.736l.516-.6a1.943,1.943,0,0,0,1.563.79,1.522,1.522,0,0,0,1.131-.408,1.56,1.56,0,0,0,.406-1.149v-.5a2.042,2.042,0,0,1-1.627.688,1.985,1.985,0,0,1-1.652-.822A3.591,3.591,0,0,1,35.981-2.954Zm1,.113a2.606,2.606,0,0,0,.4,1.544,1.309,1.309,0,0,0,1.128.561,1.456,1.456,0,0,0,1.38-.854V-4.243a1.473,1.473,0,0,0-1.37-.833,1.321,1.321,0,0,0-1.133.564A2.838,2.838,0,0,0,36.98-2.841ZM44.8.107a2.539,2.539,0,0,1-1.923-.776,2.881,2.881,0,0,1-.741-2.076v-.183a3.487,3.487,0,0,1,.33-1.544,2.577,2.577,0,0,1,.924-1.063,2.323,2.323,0,0,1,1.286-.384,2.177,2.177,0,0,1,1.762.747,3.232,3.232,0,0,1,.628,2.138v.414H43.13a2.066,2.066,0,0,0,.5,1.388A1.579,1.579,0,0,0,44.854-.7a1.731,1.731,0,0,0,.892-.215,2.24,2.24,0,0,0,.639-.569l.607.473A2.44,2.44,0,0,1,44.8.107ZM44.677-5.1a1.325,1.325,0,0,0-1.01.438,2.128,2.128,0,0,0-.5,1.227h2.911v-.075a1.893,1.893,0,0,0-.408-1.174A1.248,1.248,0,0,0,44.677-5.1Z" transform="translate(4074.092 2533.25)" fill="#fff"/>
      <path id="Path_1427" data-name="Path 1427" d="M9.268-6.03H3.72v4.156h6.485V0H1.373V-13.508H10.14v1.893H3.72v3.729H9.268ZM15.5-6.735l1.911-3.3h2.5L16.848-5.093,20.021,0H17.534l-2-3.433L13.536,0h-2.5L14.2-5.093l-3.062-4.945h2.486Zm9.89,5.121a2.038,2.038,0,0,0,1.4-.492,1.68,1.68,0,0,0,.594-1.215h2.125a3.311,3.311,0,0,1-.584,1.749A3.834,3.834,0,0,1,27.442-.288,4.424,4.424,0,0,1,25.42.186a4.28,4.28,0,0,1-3.34-1.364,5.409,5.409,0,0,1-1.234-3.767v-.232a5.319,5.319,0,0,1,1.225-3.669,4.241,4.241,0,0,1,3.34-1.378A4.124,4.124,0,0,1,28.328-9.18a3.739,3.739,0,0,1,1.183,2.741H27.387A2.064,2.064,0,0,0,26.8-7.858a1.9,1.9,0,0,0-1.406-.557,1.984,1.984,0,0,0-1.688.793,4.047,4.047,0,0,0-.6,2.407v.362a4.115,4.115,0,0,0,.589,2.435A1.982,1.982,0,0,0,25.392-1.614Zm8.043-7.329a3.529,3.529,0,0,1,2.792-1.28q3.21,0,3.256,3.665V0H37.23V-6.476a1.982,1.982,0,0,0-.45-1.47,1.839,1.839,0,0,0-1.322-.431,2.172,2.172,0,0,0-2.022,1.206V0H31.181V-14.25h2.254ZM47.76,0a3.479,3.479,0,0,1-.26-.937A3.509,3.509,0,0,1,44.865.186,3.541,3.541,0,0,1,42.4-.677a2.76,2.76,0,0,1-.956-2.134,2.85,2.85,0,0,1,1.192-2.463,5.777,5.777,0,0,1,3.409-.858h1.382v-.659a1.758,1.758,0,0,0-.436-1.248,1.729,1.729,0,0,0-1.327-.469,1.986,1.986,0,0,0-1.262.385,1.192,1.192,0,0,0-.492.979H41.655A2.5,2.5,0,0,1,42.2-8.688a3.647,3.647,0,0,1,1.489-1.127,5.23,5.23,0,0,1,2.1-.408,4.212,4.212,0,0,1,2.811.886A3.16,3.16,0,0,1,49.68-6.847v4.527a5.131,5.131,0,0,0,.38,2.162V0ZM45.283-1.624a2.564,2.564,0,0,0,1.257-.325,2.169,2.169,0,0,0,.886-.872V-4.713H46.21a3.323,3.323,0,0,0-1.883.436A1.412,1.412,0,0,0,43.7-3.043a1.317,1.317,0,0,0,.431,1.034A1.67,1.67,0,0,0,45.283-1.624Zm8.851-8.415.065,1.16a3.609,3.609,0,0,1,2.922-1.345q3.136,0,3.191,3.59V0H58.058V-6.5a2.067,2.067,0,0,0-.413-1.415,1.737,1.737,0,0,0-1.35-.459,2.172,2.172,0,0,0-2.032,1.234V0H52.009V-10.038Zm8.081,4.945a5.871,5.871,0,0,1,1.1-3.734,3.529,3.529,0,0,1,2.918-1.4,3.306,3.306,0,0,1,2.7,1.2l.1-1.011h2.032V-.306a4.045,4.045,0,0,1-1.229,3.117,4.682,4.682,0,0,1-3.317,1.141,5.346,5.346,0,0,1-2.157-.459,3.833,3.833,0,0,1-1.6-1.2L63.828.937a3.222,3.222,0,0,0,2.561,1.234,2.49,2.49,0,0,0,1.772-.608A2.329,2.329,0,0,0,68.81-.223V-.9a3.319,3.319,0,0,1-2.6,1.085,3.52,3.52,0,0,1-2.881-1.4A6.061,6.061,0,0,1,62.214-5.093Zm2.245.195a4.041,4.041,0,0,0,.617,2.38,1.984,1.984,0,0,0,1.712.867A2.17,2.17,0,0,0,68.81-2.82V-7.236a2.138,2.138,0,0,0-2-1.141,1.992,1.992,0,0,0-1.73.881A4.525,4.525,0,0,0,64.459-4.9ZM77.8.186a4.664,4.664,0,0,1-3.474-1.35,4.9,4.9,0,0,1-1.331-3.595v-.278a6.023,6.023,0,0,1,.58-2.686A4.413,4.413,0,0,1,75.2-9.565a4.3,4.3,0,0,1,2.338-.659,3.94,3.94,0,0,1,3.168,1.308,5.531,5.531,0,0,1,1.118,3.7V-4.3H75.267a3.015,3.015,0,0,0,.83,1.967,2.493,2.493,0,0,0,1.832.724,3.053,3.053,0,0,0,2.523-1.252l1.215,1.16a4.059,4.059,0,0,1-1.61,1.4A5.039,5.039,0,0,1,77.8.186Zm-.269-8.6a1.9,1.9,0,0,0-1.5.649A3.366,3.366,0,0,0,75.3-5.956h4.3v-.167A2.74,2.74,0,0,0,79-7.835,1.884,1.884,0,0,0,77.531-8.415Z" transform="translate(3985.688 2316.702)" fill="#181818"/>
      <path id="Path_1422" data-name="Path 1422" d="M.66,0V-5.687H2.52A2.158,2.158,0,0,1,3.912-5.3a1.38,1.38,0,0,1,.467,1.133,1.155,1.155,0,0,1-.227.705,1.469,1.469,0,0,1-.617.475,1.319,1.319,0,0,1,.729.49,1.407,1.407,0,0,1,.268.861,1.521,1.521,0,0,1-.5,1.2A2.052,2.052,0,0,1,2.633,0Zm.75-2.66V-.613H2.648a1.192,1.192,0,0,0,.826-.271.953.953,0,0,0,.3-.748q0-1.027-1.117-1.027Zm0-.6H2.543a1.187,1.187,0,0,0,.787-.247.827.827,0,0,0,.295-.669.813.813,0,0,0-.273-.683,1.343,1.343,0,0,0-.832-.213H1.41ZM8.137,0a1.518,1.518,0,0,1-.1-.445,1.612,1.612,0,0,1-1.2.523A1.492,1.492,0,0,1,5.807-.275a1.144,1.144,0,0,1-.4-.9,1.2,1.2,0,0,1,.5-1.025A2.367,2.367,0,0,1,7.32-2.562h.7v-.332A.812.812,0,0,0,7.8-3.5a.911.911,0,0,0-.668-.225,1.054,1.054,0,0,0-.648.2.576.576,0,0,0-.262.473H5.492a1,1,0,0,1,.225-.611,1.533,1.533,0,0,1,.609-.467A2.05,2.05,0,0,1,7.172-4.3a1.671,1.671,0,0,1,1.145.365,1.318,1.318,0,0,1,.43,1.006V-.988a2.378,2.378,0,0,0,.148.926V0Zm-1.2-.551a1.27,1.27,0,0,0,.645-.176,1.063,1.063,0,0,0,.441-.457v-.867H7.457q-1.328,0-1.328.777a.658.658,0,0,0,.227.531A.871.871,0,0,0,6.938-.551ZM10.664,0H9.941V-6h.723ZM14.43,0a1.518,1.518,0,0,1-.1-.445,1.612,1.612,0,0,1-1.2.523A1.492,1.492,0,0,1,12.1-.275a1.144,1.144,0,0,1-.4-.9A1.2,1.2,0,0,1,12.2-2.2a2.367,2.367,0,0,1,1.412-.365h.7v-.332a.812.812,0,0,0-.227-.6.911.911,0,0,0-.668-.225,1.054,1.054,0,0,0-.648.2.576.576,0,0,0-.262.473h-.727a1,1,0,0,1,.225-.611,1.533,1.533,0,0,1,.609-.467,2.05,2.05,0,0,1,.846-.172,1.671,1.671,0,0,1,1.145.365,1.318,1.318,0,0,1,.43,1.006V-.988a2.378,2.378,0,0,0,.148.926V0Zm-1.2-.551a1.27,1.27,0,0,0,.645-.176,1.063,1.063,0,0,0,.441-.457v-.867H13.75q-1.328,0-1.328.777a.658.658,0,0,0,.227.531A.871.871,0,0,0,13.23-.551Zm3.625-3.676.023.531A1.54,1.54,0,0,1,18.145-4.3q1.34,0,1.352,1.512V0h-.723V-2.8a.973.973,0,0,0-.209-.676.837.837,0,0,0-.639-.219,1.043,1.043,0,0,0-.617.188,1.273,1.273,0,0,0-.414.492V0h-.723V-4.227ZM22.281-.512a1.041,1.041,0,0,0,.676-.234.825.825,0,0,0,.32-.586h.684a1.31,1.31,0,0,1-.25.691,1.647,1.647,0,0,1-.615.523,1.775,1.775,0,0,1-.814.2A1.741,1.741,0,0,1,20.908-.5a2.3,2.3,0,0,1-.51-1.576V-2.2a2.545,2.545,0,0,1,.227-1.1,1.726,1.726,0,0,1,.65-.746,1.848,1.848,0,0,1,1-.266,1.7,1.7,0,0,1,1.182.426,1.522,1.522,0,0,1,.5,1.105h-.684a1,1,0,0,0-.311-.674.966.966,0,0,0-.689-.264,1.011,1.011,0,0,0-.854.4,1.862,1.862,0,0,0-.3,1.146v.137a1.825,1.825,0,0,0,.3,1.125A1.016,1.016,0,0,0,22.281-.512Zm4.246.59a1.847,1.847,0,0,1-1.4-.564A2.1,2.1,0,0,1,24.59-2v-.133a2.536,2.536,0,0,1,.24-1.123,1.874,1.874,0,0,1,.672-.773,1.689,1.689,0,0,1,.936-.279,1.583,1.583,0,0,1,1.281.543,2.351,2.351,0,0,1,.457,1.555v.3H25.313A1.5,1.5,0,0,0,25.678-.9a1.148,1.148,0,0,0,.889.385,1.259,1.259,0,0,0,.648-.156,1.629,1.629,0,0,0,.465-.414l.441.344A1.775,1.775,0,0,1,26.527.078Zm-.09-3.789a.964.964,0,0,0-.734.318,1.547,1.547,0,0,0-.367.893h2.117v-.055a1.376,1.376,0,0,0-.3-.854A.908.908,0,0,0,26.438-3.711ZM28.988-.379A.453.453,0,0,1,29.1-.691a.424.424,0,0,1,.334-.125.437.437,0,0,1,.338.125.443.443,0,0,1,.115.313.419.419,0,0,1-.115.3.445.445,0,0,1-.338.121A.432.432,0,0,1,29.1-.078.428.428,0,0,1,28.988-.379Zm0-3.449a.453.453,0,0,1,.111-.312.424.424,0,0,1,.334-.125.437.437,0,0,1,.338.125.443.443,0,0,1,.115.313.419.419,0,0,1-.115.3.445.445,0,0,1-.338.121.432.432,0,0,1-.334-.121A.428.428,0,0,1,28.992-3.828ZM41.172,0h-.727V-4.816l-1.457.535v-.656l2.07-.777h.113Zm5.684-2.426a3.305,3.305,0,0,1-.434,1.887,1.542,1.542,0,0,1-1.355.617,1.553,1.553,0,0,1-1.348-.6,3.137,3.137,0,0,1-.453-1.8v-.965A3.232,3.232,0,0,1,43.7-5.156a1.554,1.554,0,0,1,1.359-.609,1.568,1.568,0,0,1,1.352.588,3.119,3.119,0,0,1,.445,1.814Zm-.723-.988a2.648,2.648,0,0,0-.258-1.338.887.887,0,0,0-.816-.42.876.876,0,0,0-.809.418,2.585,2.585,0,0,0-.262,1.285v1.156a2.69,2.69,0,0,0,.268,1.361.886.886,0,0,0,.811.439.874.874,0,0,0,.795-.414,2.593,2.593,0,0,0,.271-1.3Z" transform="translate(3986 2354)" fill="#8e8e8f"/>
      <path id="Path_1424" data-name="Path 1424" d="M7.266-4.929H2.644V-1.15H8.013V0H1.238V-10.664h6.7v1.15h-5.3v3.435H7.266Zm10-5.735v7.251a3.4,3.4,0,0,1-.948,2.468A3.822,3.822,0,0,1,13.77.132L13.4.146A3.992,3.992,0,0,1,10.605-.8,3.379,3.379,0,0,1,9.551-3.4v-7.266h1.392v7.222a2.439,2.439,0,0,0,.637,1.8A2.449,2.449,0,0,0,13.4-1a2.465,2.465,0,0,0,1.827-.637,2.435,2.435,0,0,0,.634-1.794v-7.229Zm6.13,6.35H20.9V0H19.482V-10.664h3.53a4.178,4.178,0,0,1,2.772.82,2.951,2.951,0,0,1,.97,2.388,2.871,2.871,0,0,1-.538,1.736,3.214,3.214,0,0,1-1.5,1.106l2.5,4.526V0H25.715Zm-2.5-1.15h2.161a2.437,2.437,0,0,0,1.666-.543,1.836,1.836,0,0,0,.619-1.453,1.933,1.933,0,0,0-.59-1.519,2.5,2.5,0,0,0-1.7-.536H20.9Z" transform="translate(3985.653 2374.385)" fill="#181818"/>
      <path id="Path_1412" data-name="Path 1412" d="M4.1-4.242H.289v-1.18H4.1ZM10.109,0H8.656V-9.633L5.742-8.562V-9.875L9.883-11.43h.227Zm4.414-.758a.905.905,0,0,1,.223-.625.848.848,0,0,1,.668-.25.874.874,0,0,1,.676.25.887.887,0,0,1,.23.625.839.839,0,0,1-.23.6.89.89,0,0,1-.676.242.863.863,0,0,1-.668-.242A.855.855,0,0,1,14.523-.758ZM23.3,0H21.852V-9.633l-2.914,1.07V-9.875l4.141-1.555H23.3Zm8.984,0H30.836V-9.633l-2.914,1.07V-9.875l4.141-1.555h.227Z" transform="translate(4174.711 2375.43)" fill="#181818"/>
      <path id="Path_202" data-name="Path 202" d="M0,0H15.771V15.771H0Z" transform="translate(4016.338 2362.154)" fill="none"/>
      <path id="Path_203" data-name="Path 203" d="M6.927,8.59,9.943,11.6l3.016-3.01.927.927L9.943,13.459,6,9.517Z" transform="translate(4014.281 2359.208)" fill="#8e8e8f"/>
      <path id="Path_1425" data-name="Path 1425" d="M.66,0V-5.687H2.52A2.158,2.158,0,0,1,3.912-5.3a1.38,1.38,0,0,1,.467,1.133,1.155,1.155,0,0,1-.227.705,1.469,1.469,0,0,1-.617.475,1.319,1.319,0,0,1,.729.49,1.407,1.407,0,0,1,.268.861,1.521,1.521,0,0,1-.5,1.2A2.052,2.052,0,0,1,2.633,0Zm.75-2.66V-.613H2.648a1.192,1.192,0,0,0,.826-.271.953.953,0,0,0,.3-.748q0-1.027-1.117-1.027Zm0-.6H2.543a1.187,1.187,0,0,0,.787-.247.827.827,0,0,0,.295-.669.813.813,0,0,0-.273-.683,1.343,1.343,0,0,0-.832-.213H1.41ZM8.137,0a1.518,1.518,0,0,1-.1-.445,1.612,1.612,0,0,1-1.2.523A1.492,1.492,0,0,1,5.807-.275a1.144,1.144,0,0,1-.4-.9,1.2,1.2,0,0,1,.5-1.025A2.367,2.367,0,0,1,7.32-2.562h.7v-.332A.812.812,0,0,0,7.8-3.5a.911.911,0,0,0-.668-.225,1.054,1.054,0,0,0-.648.2.576.576,0,0,0-.262.473H5.492a1,1,0,0,1,.225-.611,1.533,1.533,0,0,1,.609-.467A2.05,2.05,0,0,1,7.172-4.3a1.671,1.671,0,0,1,1.145.365,1.318,1.318,0,0,1,.43,1.006V-.988a2.378,2.378,0,0,0,.148.926V0Zm-1.2-.551a1.27,1.27,0,0,0,.645-.176,1.063,1.063,0,0,0,.441-.457v-.867H7.457q-1.328,0-1.328.777a.658.658,0,0,0,.227.531A.871.871,0,0,0,6.938-.551ZM10.664,0H9.941V-6h.723ZM14.43,0a1.518,1.518,0,0,1-.1-.445,1.612,1.612,0,0,1-1.2.523A1.492,1.492,0,0,1,12.1-.275a1.144,1.144,0,0,1-.4-.9A1.2,1.2,0,0,1,12.2-2.2a2.367,2.367,0,0,1,1.412-.365h.7v-.332a.812.812,0,0,0-.227-.6.911.911,0,0,0-.668-.225,1.054,1.054,0,0,0-.648.2.576.576,0,0,0-.262.473h-.727a1,1,0,0,1,.225-.611,1.533,1.533,0,0,1,.609-.467,2.05,2.05,0,0,1,.846-.172,1.671,1.671,0,0,1,1.145.365,1.318,1.318,0,0,1,.43,1.006V-.988a2.378,2.378,0,0,0,.148.926V0Zm-1.2-.551a1.27,1.27,0,0,0,.645-.176,1.063,1.063,0,0,0,.441-.457v-.867H13.75q-1.328,0-1.328.777a.658.658,0,0,0,.227.531A.871.871,0,0,0,13.23-.551Zm3.625-3.676.023.531A1.54,1.54,0,0,1,18.145-4.3q1.34,0,1.352,1.512V0h-.723V-2.8a.973.973,0,0,0-.209-.676.837.837,0,0,0-.639-.219,1.043,1.043,0,0,0-.617.188,1.273,1.273,0,0,0-.414.492V0h-.723V-4.227ZM22.281-.512a1.041,1.041,0,0,0,.676-.234.825.825,0,0,0,.32-.586h.684a1.31,1.31,0,0,1-.25.691,1.647,1.647,0,0,1-.615.523,1.775,1.775,0,0,1-.814.2A1.741,1.741,0,0,1,20.908-.5a2.3,2.3,0,0,1-.51-1.576V-2.2a2.545,2.545,0,0,1,.227-1.1,1.726,1.726,0,0,1,.65-.746,1.848,1.848,0,0,1,1-.266,1.7,1.7,0,0,1,1.182.426,1.522,1.522,0,0,1,.5,1.105h-.684a1,1,0,0,0-.311-.674.966.966,0,0,0-.689-.264,1.011,1.011,0,0,0-.854.4,1.862,1.862,0,0,0-.3,1.146v.137a1.825,1.825,0,0,0,.3,1.125A1.016,1.016,0,0,0,22.281-.512Zm4.246.59a1.847,1.847,0,0,1-1.4-.564A2.1,2.1,0,0,1,24.59-2v-.133a2.536,2.536,0,0,1,.24-1.123,1.874,1.874,0,0,1,.672-.773,1.689,1.689,0,0,1,.936-.279,1.583,1.583,0,0,1,1.281.543,2.351,2.351,0,0,1,.457,1.555v.3H25.313A1.5,1.5,0,0,0,25.678-.9a1.148,1.148,0,0,0,.889.385,1.259,1.259,0,0,0,.648-.156,1.629,1.629,0,0,0,.465-.414l.441.344A1.775,1.775,0,0,1,26.527.078Zm-.09-3.789a.964.964,0,0,0-.734.318,1.547,1.547,0,0,0-.367.893h2.117v-.055a1.376,1.376,0,0,0-.3-.854A.908.908,0,0,0,26.438-3.711ZM28.988-.379A.453.453,0,0,1,29.1-.691a.424.424,0,0,1,.334-.125.437.437,0,0,1,.338.125.443.443,0,0,1,.115.313.419.419,0,0,1-.115.3.445.445,0,0,1-.338.121A.432.432,0,0,1,29.1-.078.428.428,0,0,1,28.988-.379Zm0-3.449a.453.453,0,0,1,.111-.312.424.424,0,0,1,.334-.125.437.437,0,0,1,.338.125.443.443,0,0,1,.115.313.419.419,0,0,1-.115.3.445.445,0,0,1-.338.121.432.432,0,0,1-.334-.121A.428.428,0,0,1,28.992-3.828Zm6.734,2.363a.813.813,0,0,0-.252-.605,2.254,2.254,0,0,0-.85-.445,2.724,2.724,0,0,1-1.213-.662,1.46,1.46,0,0,1-.381-1.037A1.5,1.5,0,0,1,33.4-5.266a1.585,1.585,0,0,1,1.025-.488v-.855h.582v.859a1.505,1.505,0,0,1,1.021.551A1.979,1.979,0,0,1,36.4-3.937H35.68a1.361,1.361,0,0,0-.262-.878.86.86,0,0,0-.707-.325A.976.976,0,0,0,34-4.9a.9.9,0,0,0-.246.671.818.818,0,0,0,.26.636,2.393,2.393,0,0,0,.855.43,3.6,3.6,0,0,1,.93.426,1.5,1.5,0,0,1,.492.541,1.564,1.564,0,0,1,.158.723,1.448,1.448,0,0,1-.4,1.063,1.758,1.758,0,0,1-1.111.477V.813h-.578V.066a1.684,1.684,0,0,1-1.139-.518,1.746,1.746,0,0,1-.412-1.225h.723a1.149,1.149,0,0,0,.285.836,1.077,1.077,0,0,0,.809.293,1.213,1.213,0,0,0,.8-.246A.831.831,0,0,0,35.727-1.465Zm4,1.465H39V-4.816l-1.457.535v-.656l2.07-.777h.113Zm5.684-2.426a3.305,3.305,0,0,1-.434,1.887,1.542,1.542,0,0,1-1.355.617,1.553,1.553,0,0,1-1.348-.6,3.137,3.137,0,0,1-.453-1.8v-.965a3.232,3.232,0,0,1,.434-1.863,1.554,1.554,0,0,1,1.359-.609,1.568,1.568,0,0,1,1.352.588,3.119,3.119,0,0,1,.445,1.814Zm-.723-.988a2.648,2.648,0,0,0-.258-1.338.887.887,0,0,0-.816-.42.876.876,0,0,0-.809.418,2.585,2.585,0,0,0-.262,1.285v1.156a2.69,2.69,0,0,0,.268,1.361.886.886,0,0,0,.811.439.874.874,0,0,0,.795-.414,2.593,2.593,0,0,0,.271-1.3Z" transform="translate(3986 2462.609)" fill="#8e8e8f"/>
      <path id="Path_1426" data-name="Path 1426" d="M8.745-10.664v7.251A3.4,3.4,0,0,1,7.8-.945,3.822,3.822,0,0,1,5.244.132L4.871.146A3.992,3.992,0,0,1,2.08-.8,3.379,3.379,0,0,1,1.025-3.4v-7.266H2.417v7.222a2.439,2.439,0,0,0,.637,1.8A2.449,2.449,0,0,0,4.871-1,2.465,2.465,0,0,0,6.7-1.641a2.435,2.435,0,0,0,.634-1.794v-7.229Zm5.361,5.911a6.612,6.612,0,0,1-2.633-1.278A2.442,2.442,0,0,1,10.649-7.9a2.58,2.58,0,0,1,1.007-2.084,4,4,0,0,1,2.618-.824,4.369,4.369,0,0,1,1.959.425,3.222,3.222,0,0,1,1.333,1.172,3,3,0,0,1,.472,1.633H16.626a1.95,1.95,0,0,0-.615-1.525,2.5,2.5,0,0,0-1.736-.555,2.561,2.561,0,0,0-1.622.459,1.53,1.53,0,0,0-.582,1.273,1.376,1.376,0,0,0,.553,1.1A5.424,5.424,0,0,0,14.506-6a8.734,8.734,0,0,1,2.08.825A3.157,3.157,0,0,1,17.7-4.124a2.683,2.683,0,0,1,.363,1.414A2.492,2.492,0,0,1,17.051-.634a4.31,4.31,0,0,1-2.7.78A5.013,5.013,0,0,1,12.3-.275a3.451,3.451,0,0,1-1.469-1.154,2.815,2.815,0,0,1-.516-1.663h1.414a1.837,1.837,0,0,0,.714,1.527A3.007,3.007,0,0,0,14.348-1a2.764,2.764,0,0,0,1.707-.454A1.475,1.475,0,0,0,16.648-2.7,1.448,1.448,0,0,0,16.1-3.907,6.333,6.333,0,0,0,14.106-4.753ZM19.863,0V-10.664h3.01a4.846,4.846,0,0,1,2.461.615A4.161,4.161,0,0,1,26.986-8.3a5.7,5.7,0,0,1,.59,2.607v.681a5.718,5.718,0,0,1-.582,2.644A4.1,4.1,0,0,1,25.331-.623,5.155,5.155,0,0,1,22.815,0ZM21.27-9.514V-1.15h1.479A3.219,3.219,0,0,0,25.28-2.162a4.18,4.18,0,0,0,.9-2.881v-.623a4.246,4.246,0,0,0-.853-2.826A3.036,3.036,0,0,0,22.91-9.514Z" transform="translate(3985.653 2484.811)" fill="#181818"/>
      <path id="Path_202-2" data-name="Path 202" d="M0,0H15.771V15.771H0Z" transform="translate(4013.337 2471)" fill="none"/>
      <path id="Path_203-2" data-name="Path 203" d="M6.927,8.59,9.943,11.6l3.016-3.01.927.927L9.943,13.459,6,9.517Z" transform="translate(4011.28 2468.055)" fill="#8e8e8f"/>
      <g transform="matrix(1, 0, 0, 1, 3918, 2256)" filter="url(#Path_1420)">
        <g id="Path_1420-2" data-name="Path 1420" transform="translate(104.83 146)" fill="#fff">
          <path d="M 136.7650451660156 25.59651374816895 L 13.04825878143311 25.59651374816895 C 9.696498870849609 25.59651374816895 6.545359134674072 24.29127311706543 4.175299167633057 21.92121315002441 C 1.805239081382751 19.5511531829834 0.4999991059303284 16.4000129699707 0.4999991059303284 13.04825305938721 C 0.4999991059303284 9.696493148803711 1.805239081382751 6.545352935791016 4.175299167633057 4.17529296875 C 6.545359134674072 1.805233001708984 9.696498870849609 0.4999930560588837 13.04825878143311 0.4999930560588837 L 136.7650451660156 0.4999930560588837 C 140.1168060302734 0.4999930560588837 143.2679443359375 1.805233001708984 145.6379852294922 4.17529296875 C 148.0080413818359 6.545352935791016 149.3132781982422 9.696493148803711 149.3132781982422 13.04825305938721 C 149.3132781982422 16.4000129699707 148.0080413818359 19.5511531829834 145.6379852294922 21.92121315002441 C 143.2679443359375 24.29127311706543 140.1168060302734 25.59651374816895 136.7650451660156 25.59651374816895 Z" stroke="none"/>
          <path d="M 13.04823303222656 0.9999923706054688 C 9.830032348632813 0.9999923706054688 6.804458618164063 2.253232955932617 4.528839111328125 4.528852462768555 C 2.25323486328125 6.804452896118164 1 9.830053329467773 1 13.04825305938721 C 1 16.26645278930664 2.25323486328125 19.29205322265625 4.528839111328125 21.56765365600586 C 6.804458618164063 23.8432731628418 9.830032348632813 25.09651374816895 13.04823303222656 25.09651374816895 L 136.7650146484375 25.09651374816895 C 139.9832153320313 25.09651374816895 143.0088195800781 23.8432731628418 145.284423828125 21.56765365600586 C 147.5600433349609 19.29205322265625 148.8132781982422 16.26645278930664 148.8132781982422 13.04825305938721 C 148.8132781982422 9.830053329467773 147.5600433349609 6.804452896118164 145.284423828125 4.528852462768555 C 143.0088195800781 2.253232955932617 139.9832153320313 0.9999923706054688 136.7650146484375 0.9999923706054688 L 13.04823303222656 0.9999923706054688 M 13.04823303222656 -7.62939453125e-06 L 136.7650146484375 -7.62939453125e-06 C 143.9713745117188 -7.62939453125e-06 149.8132781982422 5.841892242431641 149.8132781982422 13.04825305938721 C 149.8132781982422 20.25461196899414 143.9713745117188 26.09651374816895 136.7650146484375 26.09651374816895 L 13.04823303222656 26.09651374816895 C 5.841903686523438 26.09651374816895 0 20.25461196899414 0 13.04825305938721 C 0 5.841892242431641 5.841903686523438 -7.62939453125e-06 13.04823303222656 -7.62939453125e-06 Z" stroke="none" fill="#f3f4f5"/>
        </g>
      </g>
      <path id="Path_259" data-name="Path 259" d="M0,0H26.285V26.285H0Z" transform="translate(4022.83 2401.857)" fill="none"/>
      <path id="Path_260" data-name="Path 260" d="M14.485,2A12.485,12.485,0,1,0,26.971,14.485,12.49,12.49,0,0,0,14.485,2ZM7.618,10.74l4.37-4.37,4.37,4.37H13.237v4.994h-2.5V10.74Zm13.734,7.491-4.37,4.37-4.37-4.37h3.121V13.237h2.5v4.994Z" transform="translate(4021.487 2400.515)" fill="#0667eb"/>
      <path id="Path_1359" data-name="Path 1359" d="M0,0H15.771V15.771H0Z" transform="translate(4057.63 2406.378)" fill="none"/>
      <path id="Path_1360" data-name="Path 1360" d="M11.2,6l1.5,1.5L9.5,10.712,6.869,8.083,2,12.959l.927.927L6.869,9.943,9.5,12.571l4.14-4.133,1.5,1.5V6Z" transform="translate(4063.181 2405)" fill="#0667eb"/>
      <path id="Path_1429" data-name="Path 1429" d="M6.863,7.99A2.086,2.086,0,0,1,5.009,6.863H6.863V6.219H4.8a2.025,2.025,0,0,1,0-.644H6.863V4.931H5.009A2.088,2.088,0,0,1,8.225,4.31l.57-.57A2.893,2.893,0,0,0,4.133,4.931H3v.644h.985a2.692,2.692,0,0,0,0,.644H3v.644H4.133A2.893,2.893,0,0,0,8.794,8.054l-.573-.57A2.062,2.062,0,0,1,6.863,7.99Z" transform="translate(4014.718 2345)" fill="#8e8e8f"/>
      <path id="Path_1430" data-name="Path 1430" d="M10.808,13.085A4.216,4.216,0,0,1,7.06,10.808h3.748v-1.3H6.631a4.092,4.092,0,0,1,0-1.3h4.177V6.9H7.06a4.221,4.221,0,0,1,6.5-1.256L14.711,4.5A5.847,5.847,0,0,0,5.29,6.9H3v1.3H4.991a5.441,5.441,0,0,0,0,1.3H3v1.3H5.29a5.847,5.847,0,0,0,9.421,2.407l-1.158-1.152A4.168,4.168,0,0,1,10.808,13.085Z" transform="translate(4157.801 2361.083)" fill="#181818"/>
      <path id="Path_1428" data-name="Path 1428" d="M8.517,10.126A2.979,2.979,0,0,1,5.869,8.517H8.517V7.6H5.565a2.892,2.892,0,0,1,0-.919H8.517V5.758H5.869a2.982,2.982,0,0,1,4.593-.887l.814-.814a4.132,4.132,0,0,0-6.657,1.7H3v.919H4.407a3.845,3.845,0,0,0,0,.919H3v.919H4.618a4.132,4.132,0,0,0,6.657,1.7L10.457,9.4A2.945,2.945,0,0,1,8.517,10.126Z" transform="translate(4079.478 2408)" fill="#0667eb"/>
      <path id="Path_1431" data-name="Path 1431" d="M3.916,0h-1V-6.623l-2,.736v-.9L3.76-7.858h.156ZM14.2-4.372H9.716v-.865H14.2Zm0,2.229H9.716V-3H14.2Zm8.062.129a1.118,1.118,0,0,0-.346-.833,3.1,3.1,0,0,0-1.168-.612,3.745,3.745,0,0,1-1.668-.91A2.008,2.008,0,0,1,18.552-5.8a2.065,2.065,0,0,1,.513-1.445,2.18,2.18,0,0,1,1.41-.671V-9.088h.8v1.182a2.07,2.07,0,0,1,1.4.757,2.722,2.722,0,0,1,.5,1.735h-.988a1.871,1.871,0,0,0-.36-1.207,1.182,1.182,0,0,0-.972-.447,1.341,1.341,0,0,0-.978.331,1.232,1.232,0,0,0-.338.923,1.125,1.125,0,0,0,.357.874,3.29,3.29,0,0,0,1.176.592,4.951,4.951,0,0,1,1.278.586,2.056,2.056,0,0,1,.677.744,2.15,2.15,0,0,1,.218.994,1.991,1.991,0,0,1-.545,1.461,2.417,2.417,0,0,1-1.528.655V1.117h-.795V.091A2.316,2.316,0,0,1,18.818-.62,2.4,2.4,0,0,1,18.251-2.3h.994a1.581,1.581,0,0,0,.392,1.149,1.48,1.48,0,0,0,1.112.4,1.668,1.668,0,0,0,1.106-.338A1.143,1.143,0,0,0,22.258-2.014ZM30.476,0h-1V-6.623l-2,.736v-.9L30.32-7.858h.156ZM33.51-.521a.622.622,0,0,1,.153-.43.583.583,0,0,1,.459-.172.6.6,0,0,1,.465.172.61.61,0,0,1,.158.43.577.577,0,0,1-.158.414.612.612,0,0,1-.465.167.594.594,0,0,1-.459-.167A.588.588,0,0,1,33.51-.521Zm7.9.521H36.282V-.714l2.707-3.008a6.431,6.431,0,0,0,.83-1.109,1.851,1.851,0,0,0,.228-.884,1.4,1.4,0,0,0-.371-1,1.3,1.3,0,0,0-.988-.392,1.535,1.535,0,0,0-1.152.422,1.611,1.611,0,0,0-.411,1.174h-.994a2.307,2.307,0,0,1,.7-1.746,2.579,2.579,0,0,1,1.861-.666,2.478,2.478,0,0,1,1.724.572,1.951,1.951,0,0,1,.634,1.523,4.474,4.474,0,0,1-1.472,2.75L37.479-.811h3.926Zm5.957-3.335a4.545,4.545,0,0,1-.6,2.594A2.12,2.12,0,0,1,44.9.107a2.136,2.136,0,0,1-1.853-.83A4.313,4.313,0,0,1,42.426-3.2V-4.528a4.443,4.443,0,0,1,.6-2.562,2.137,2.137,0,0,1,1.869-.838,2.156,2.156,0,0,1,1.858.808,4.288,4.288,0,0,1,.612,2.495Zm-.994-1.359a3.641,3.641,0,0,0-.354-1.84,1.22,1.22,0,0,0-1.123-.577,1.2,1.2,0,0,0-1.112.575,3.555,3.555,0,0,0-.36,1.767v1.59a3.7,3.7,0,0,0,.368,1.872A1.218,1.218,0,0,0,44.9-.7,1.2,1.2,0,0,0,46-1.273a3.566,3.566,0,0,0,.373-1.794Z" transform="translate(4091.858 2419)" fill="#0667eb"/>
      <path id="Path_1432" data-name="Path 1432" d="M6.688-2.93a1.626,1.626,0,0,0-.5-1.211,4.508,4.508,0,0,0-1.7-.891A5.447,5.447,0,0,1,2.059-6.355,2.921,2.921,0,0,1,1.3-8.43a3,3,0,0,1,.746-2.1,3.17,3.17,0,0,1,2.051-.977v-1.711H5.258V-11.5A3.011,3.011,0,0,1,7.3-10.4a3.959,3.959,0,0,1,.73,2.523H6.594A2.721,2.721,0,0,0,6.07-9.631a1.72,1.72,0,0,0-1.414-.651A1.951,1.951,0,0,0,3.234-9.8a1.791,1.791,0,0,0-.492,1.342,1.636,1.636,0,0,0,.52,1.272,4.786,4.786,0,0,0,1.711.861,7.2,7.2,0,0,1,1.859.852,2.991,2.991,0,0,1,.984,1.082,3.128,3.128,0,0,1,.316,1.445A2.9,2.9,0,0,1,7.34-.82,3.516,3.516,0,0,1,5.117.133V1.625H3.961V.133A3.369,3.369,0,0,1,1.684-.9,3.493,3.493,0,0,1,.859-3.352H2.3a2.3,2.3,0,0,0,.57,1.672,2.153,2.153,0,0,0,1.617.586A2.426,2.426,0,0,0,6.1-1.586,1.662,1.662,0,0,0,6.688-2.93ZM14.219-6.1h3.172v1.367H14.219v3.594H12.766V-4.734H9.594V-6.1h3.172v-3.32h1.453ZM23.75,0H22.3V-9.633l-2.914,1.07V-9.875l4.141-1.555h.227Zm4.414-.758a.905.905,0,0,1,.223-.625.848.848,0,0,1,.668-.25.874.874,0,0,1,.676.25.887.887,0,0,1,.23.625.839.839,0,0,1-.23.6.89.89,0,0,1-.676.242.863.863,0,0,1-.668-.242A.855.855,0,0,1,28.164-.758ZM34.3-6.391h1.086a2.387,2.387,0,0,0,1.609-.539,1.8,1.8,0,0,0,.586-1.414,1.764,1.764,0,0,0-1.992-2,2.072,2.072,0,0,0-1.5.535,1.873,1.873,0,0,0-.559,1.418H32.086a2.9,2.9,0,0,1,.988-2.246,3.6,3.6,0,0,1,2.512-.895,3.558,3.558,0,0,1,2.523.852,3.076,3.076,0,0,1,.914,2.367,2.5,2.5,0,0,1-.48,1.438,2.9,2.9,0,0,1-1.309,1.039,2.8,2.8,0,0,1,1.449.984,2.734,2.734,0,0,1,.512,1.68,3.1,3.1,0,0,1-1,2.43,3.745,3.745,0,0,1-2.6.9,3.844,3.844,0,0,1-2.605-.867,2.877,2.877,0,0,1-1-2.289h1.453a1.859,1.859,0,0,0,.586,1.438,2.229,2.229,0,0,0,1.57.539,2.187,2.187,0,0,0,1.6-.547,2.108,2.108,0,0,0,.555-1.57,1.912,1.912,0,0,0-.609-1.523,2.655,2.655,0,0,0-1.758-.547H34.3Zm8.984,0h1.086a2.387,2.387,0,0,0,1.609-.539,1.8,1.8,0,0,0,.586-1.414,1.764,1.764,0,0,0-1.992-2,2.072,2.072,0,0,0-1.5.535,1.873,1.873,0,0,0-.559,1.418H41.07a2.9,2.9,0,0,1,.988-2.246,3.6,3.6,0,0,1,2.512-.895,3.558,3.558,0,0,1,2.523.852,3.076,3.076,0,0,1,.914,2.367,2.5,2.5,0,0,1-.48,1.438,2.9,2.9,0,0,1-1.309,1.039,2.8,2.8,0,0,1,1.449.984,2.734,2.734,0,0,1,.512,1.68,3.1,3.1,0,0,1-1,2.43,3.745,3.745,0,0,1-2.6.9,3.844,3.844,0,0,1-2.605-.867,2.877,2.877,0,0,1-1-2.289h1.453a1.859,1.859,0,0,0,.586,1.438,2.229,2.229,0,0,0,1.57.539,2.187,2.187,0,0,0,1.6-.547,2.108,2.108,0,0,0,.555-1.57,1.912,1.912,0,0,0-.609-1.523,2.655,2.655,0,0,0-1.758-.547H43.281Z" transform="translate(4159.141 2485)" fill="#181818"/>
      <path id="Path_1434" data-name="Path 1434" d="M4.859-.746a1.733,1.733,0,0,1-.807.619A3.258,3.258,0,0,1,2.848.078,2.337,2.337,0,0,1,1.613-.248a2.173,2.173,0,0,1-.834-.928,3.2,3.2,0,0,1-.3-1.395v-.5a2.991,2.991,0,0,1,.6-1.992,2.089,2.089,0,0,1,1.686-.707A2.158,2.158,0,0,1,4.2-5.311,1.982,1.982,0,0,1,4.859-4.02h-.75A1.24,1.24,0,0,0,2.766-5.152a1.328,1.328,0,0,0-1.143.53A2.586,2.586,0,0,0,1.23-3.088v.465A2.424,2.424,0,0,0,1.668-1.1a1.418,1.418,0,0,0,1.184.565A2.614,2.614,0,0,0,3.59-.629a1.142,1.142,0,0,0,.523-.316V-2.219H2.8v-.613H4.859ZM6.109,0V-5.687H7.969A2.158,2.158,0,0,1,9.361-5.3a1.38,1.38,0,0,1,.467,1.133,1.155,1.155,0,0,1-.227.705,1.469,1.469,0,0,1-.617.475,1.319,1.319,0,0,1,.729.49,1.407,1.407,0,0,1,.268.861,1.521,1.521,0,0,1-.5,1.2A2.052,2.052,0,0,1,8.082,0Zm.75-2.66V-.613H8.1a1.192,1.192,0,0,0,.826-.271.953.953,0,0,0,.3-.748q0-1.027-1.117-1.027Zm0-.6H7.992a1.187,1.187,0,0,0,.787-.247.827.827,0,0,0,.295-.669A.813.813,0,0,0,8.8-4.861a1.343,1.343,0,0,0-.832-.213H6.859Zm4.98,1.035V0h-.75V-5.687h2.1a2.107,2.107,0,0,1,1.463.477,1.616,1.616,0,0,1,.529,1.262,1.594,1.594,0,0,1-.518,1.275,2.2,2.2,0,0,1-1.482.447Zm0-.613h1.348a1.347,1.347,0,0,0,.922-.284,1.037,1.037,0,0,0,.32-.82,1.072,1.072,0,0,0-.32-.814,1.262,1.262,0,0,0-.879-.317H11.84ZM16-.379a.453.453,0,0,1,.111-.312.424.424,0,0,1,.334-.125.437.437,0,0,1,.338.125.443.443,0,0,1,.115.313.419.419,0,0,1-.115.3.445.445,0,0,1-.338.121.432.432,0,0,1-.334-.121A.428.428,0,0,1,16-.379Zm0-3.449a.453.453,0,0,1,.111-.312.424.424,0,0,1,.334-.125.437.437,0,0,1,.338.125.443.443,0,0,1,.115.313.419.419,0,0,1-.115.3.445.445,0,0,1-.338.121.432.432,0,0,1-.334-.121A.428.428,0,0,1,16-3.828ZM22.242,0h-.727V-4.816l-1.457.535v-.656l2.07-.777h.113Zm2.207-.379a.453.453,0,0,1,.111-.312.424.424,0,0,1,.334-.125.437.437,0,0,1,.338.125.443.443,0,0,1,.115.313.419.419,0,0,1-.115.3.445.445,0,0,1-.338.121.432.432,0,0,1-.334-.121A.428.428,0,0,1,24.449-.379Zm5.582-2.047A3.305,3.305,0,0,1,29.6-.539a1.542,1.542,0,0,1-1.355.617,1.553,1.553,0,0,1-1.348-.6,3.137,3.137,0,0,1-.453-1.8v-.965a3.232,3.232,0,0,1,.434-1.863,1.554,1.554,0,0,1,1.359-.609,1.568,1.568,0,0,1,1.352.588,3.119,3.119,0,0,1,.445,1.814Zm-.723-.988a2.648,2.648,0,0,0-.258-1.338.887.887,0,0,0-.816-.42.876.876,0,0,0-.809.418,2.585,2.585,0,0,0-.262,1.285v1.156a2.69,2.69,0,0,0,.268,1.361.886.886,0,0,0,.811.439.874.874,0,0,0,.795-.414,2.593,2.593,0,0,0,.271-1.3Z" transform="translate(4177 2354)" fill="#8e8e8f"/>
      <path id="Path_1435" data-name="Path 1435" d="M4.859-.746a1.733,1.733,0,0,1-.807.619A3.258,3.258,0,0,1,2.848.078,2.337,2.337,0,0,1,1.613-.248a2.173,2.173,0,0,1-.834-.928,3.2,3.2,0,0,1-.3-1.395v-.5a2.991,2.991,0,0,1,.6-1.992,2.089,2.089,0,0,1,1.686-.707A2.158,2.158,0,0,1,4.2-5.311,1.982,1.982,0,0,1,4.859-4.02h-.75A1.24,1.24,0,0,0,2.766-5.152a1.328,1.328,0,0,0-1.143.53A2.586,2.586,0,0,0,1.23-3.088v.465A2.424,2.424,0,0,0,1.668-1.1a1.418,1.418,0,0,0,1.184.565A2.614,2.614,0,0,0,3.59-.629a1.142,1.142,0,0,0,.523-.316V-2.219H2.8v-.613H4.859ZM6.109,0V-5.687H7.969A2.158,2.158,0,0,1,9.361-5.3a1.38,1.38,0,0,1,.467,1.133,1.155,1.155,0,0,1-.227.705,1.469,1.469,0,0,1-.617.475,1.319,1.319,0,0,1,.729.49,1.407,1.407,0,0,1,.268.861,1.521,1.521,0,0,1-.5,1.2A2.052,2.052,0,0,1,8.082,0Zm.75-2.66V-.613H8.1a1.192,1.192,0,0,0,.826-.271.953.953,0,0,0,.3-.748q0-1.027-1.117-1.027Zm0-.6H7.992a1.187,1.187,0,0,0,.787-.247.827.827,0,0,0,.295-.669A.813.813,0,0,0,8.8-4.861a1.343,1.343,0,0,0-.832-.213H6.859Zm4.98,1.035V0h-.75V-5.687h2.1a2.107,2.107,0,0,1,1.463.477,1.616,1.616,0,0,1,.529,1.262,1.594,1.594,0,0,1-.518,1.275,2.2,2.2,0,0,1-1.482.447Zm0-.613h1.348a1.347,1.347,0,0,0,.922-.284,1.037,1.037,0,0,0,.32-.82,1.072,1.072,0,0,0-.32-.814,1.262,1.262,0,0,0-.879-.317H11.84ZM16-.379a.453.453,0,0,1,.111-.312.424.424,0,0,1,.334-.125.437.437,0,0,1,.338.125.443.443,0,0,1,.115.313.419.419,0,0,1-.115.3.445.445,0,0,1-.338.121.432.432,0,0,1-.334-.121A.428.428,0,0,1,16-.379Zm0-3.449a.453.453,0,0,1,.111-.312.424.424,0,0,1,.334-.125.437.437,0,0,1,.338.125.443.443,0,0,1,.115.313.419.419,0,0,1-.115.3.445.445,0,0,1-.338.121.432.432,0,0,1-.334-.121A.428.428,0,0,1,16-3.828ZM22.242,0h-.727V-4.816l-1.457.535v-.656l2.07-.777h.113Zm2.207-.379a.453.453,0,0,1,.111-.312.424.424,0,0,1,.334-.125.437.437,0,0,1,.338.125.443.443,0,0,1,.115.313.419.419,0,0,1-.115.3.445.445,0,0,1-.338.121.432.432,0,0,1-.334-.121A.428.428,0,0,1,24.449-.379Zm5.582-2.047A3.305,3.305,0,0,1,29.6-.539a1.542,1.542,0,0,1-1.355.617,1.553,1.553,0,0,1-1.348-.6,3.137,3.137,0,0,1-.453-1.8v-.965a3.232,3.232,0,0,1,.434-1.863,1.554,1.554,0,0,1,1.359-.609,1.568,1.568,0,0,1,1.352.588,3.119,3.119,0,0,1,.445,1.814Zm-.723-.988a2.648,2.648,0,0,0-.258-1.338.887.887,0,0,0-.816-.42.876.876,0,0,0-.809.418,2.585,2.585,0,0,0-.262,1.285v1.156a2.69,2.69,0,0,0,.268,1.361.886.886,0,0,0,.811.439.874.874,0,0,0,.795-.414,2.593,2.593,0,0,0,.271-1.3Z" transform="translate(4177 2463)" fill="#8e8e8f"/>
    </g>
  </g>
</svg>
