<svg xmlns="http://www.w3.org/2000/svg" xmlns:xlink="http://www.w3.org/1999/xlink" width="391.056" height="407" viewBox="0 0 391.056 407">
  <defs>
    <filter id="Rectangle_791" x="43" y="0" width="295.717" height="406.325" filterUnits="userSpaceOnUse">
      <feOffset dy="3" input="SourceAlpha"/>
      <feGaussianBlur stdDeviation="3" result="blur"/>
      <feFlood flood-opacity="0.161"/>
      <feComposite operator="in" in2="blur"/>
      <feComposite in="SourceGraphic"/>
    </filter>
    <filter id="Rectangle_792" x="0" y="43.937" width="381.717" height="273" filterUnits="userSpaceOnUse">
      <feOffset dy="5" input="SourceAlpha"/>
      <feGaussianBlur stdDeviation="10" result="blur-2"/>
      <feFlood flood-opacity="0.161"/>
      <feComposite operator="in" in2="blur-2"/>
      <feComposite in="SourceGraphic"/>
    </filter>
    <filter id="Path_1420" x="103.818" y="158.611" width="174.078" height="44.947" filterUnits="userSpaceOnUse">
      <feOffset dy="3" input="SourceAlpha"/>
      <feGaussianBlur stdDeviation="3" result="blur-3"/>
      <feFlood flood-opacity="0.161"/>
      <feComposite operator="in" in2="blur-3"/>
      <feComposite in="SourceGraphic"/>
    </filter>
    <filter id="Path_1416" x="84.083" y="321.316" width="212.763" height="53.968" filterUnits="userSpaceOnUse">
      <feOffset dy="5" input="SourceAlpha"/>
      <feGaussianBlur stdDeviation="2.5" result="blur-4"/>
      <feFlood flood-color="#c9defb"/>
      <feComposite operator="in" in2="blur-4"/>
      <feComposite in="SourceGraphic"/>
    </filter>
  </defs>
  <g id="Group_7438" data-name="Group 7438" transform="translate(-771.336 -1575)">
    <g id="Image" transform="translate(774 1581)">
      <circle id="Ellipse_54" data-name="Ellipse 54" cx="194.196" cy="194.196" r="194.196" transform="translate(0 12.608)" fill="#0667eb"/>
      <g id="Group_6904" data-name="Group 6904" transform="translate(27.336)">
        <g id="Group_6903" data-name="Group 6903" transform="translate(0)">
          <g transform="matrix(1, 0, 0, 1, -30, -6)" filter="url(#Rectangle_791)">
            <rect id="Rectangle_791-2" data-name="Rectangle 791" width="277.717" height="388.325" rx="5" transform="translate(52 6)" fill="#fff"/>
          </g>
          <g transform="matrix(1, 0, 0, 1, -30, -6)" filter="url(#Rectangle_792)">
            <rect id="Rectangle_792-2" data-name="Rectangle 792" width="321.717" height="213" rx="5" transform="translate(30 68.94)" fill="#fff"/>
          </g>
          <path id="Rectangle_793" data-name="Rectangle 793" d="M0,0H321.717a0,0,0,0,1,0,0V104a5,5,0,0,1-5,5H5a5,5,0,0,1-5-5V0A0,0,0,0,1,0,0Z" transform="translate(0 175.115)" fill="#f6f6f6"/>
          <path id="Path_1422" data-name="Path 1422" d="M41.611,2.534a.685.685,0,0,1,.171-.475.654.654,0,0,1,.513-.19.674.674,0,0,1,.519.19.671.671,0,0,1,.177.475.635.635,0,0,1-.177.458.686.686,0,0,1-.519.184.666.666,0,0,1-.513-.184A.647.647,0,0,1,41.611,2.534Zm.006-5.247a.685.685,0,0,1,.171-.475.654.654,0,0,1,.513-.19.674.674,0,0,1,.519.19A.671.671,0,0,1,43-2.714a.635.635,0,0,1-.177.458.686.686,0,0,1-.519.184.666.666,0,0,1-.513-.184A.647.647,0,0,1,41.617-2.714ZM60.311,3.11H59.2V-4.217L56.959-3.4v-1l3.178-1.183h.174ZM69.034-.58a4.993,4.993,0,0,1-.666,2.87,2.375,2.375,0,0,1-2.08.939,2.393,2.393,0,0,1-2.068-.918,4.74,4.74,0,0,1-.7-2.742V-1.9a4.882,4.882,0,0,1,.666-2.835,2.394,2.394,0,0,1,2.086-.927,2.416,2.416,0,0,1,2.074.894,4.712,4.712,0,0,1,.683,2.76Zm-1.109-1.5a4,4,0,0,0-.4-2.035,1.365,1.365,0,0,0-1.253-.639,1.347,1.347,0,0,0-1.241.636,3.9,3.9,0,0,0-.4,1.955V-.408a4.062,4.062,0,0,0,.411,2.071,1.362,1.362,0,0,0,1.244.669,1.344,1.344,0,0,0,1.22-.63,3.916,3.916,0,0,0,.417-1.985Z" transform="translate(31.599 96.522)" fill="#8e8e8f"/>
          <path id="Path_1424" data-name="Path 1424" d="M10.49-1.94H3.4V3.81h8.24V5.559H1.238V-10.664H11.524v1.749H3.4v5.226H10.49Zm15.356-8.724V.367A5.149,5.149,0,0,1,24.39,4.122,5.892,5.892,0,0,1,20.472,5.76l-.573.022a6.161,6.161,0,0,1-4.283-1.437A5.118,5.118,0,0,1,14,.389V-10.664h2.136V.322a3.691,3.691,0,0,0,.978,2.735,3.779,3.779,0,0,0,2.788.975,3.8,3.8,0,0,0,2.8-.969,3.684,3.684,0,0,0,.972-2.73v-11ZM35.255-1H31.411V5.559h-2.17V-10.664H34.66a6.453,6.453,0,0,1,4.255,1.248A4.471,4.471,0,0,1,40.4-5.784a4.341,4.341,0,0,1-.826,2.641,4.929,4.929,0,0,1-2.3,1.682l3.845,6.886v.134H38.808ZM31.411-2.753h3.316a3.762,3.762,0,0,0,2.557-.826,2.782,2.782,0,0,0,.95-2.21,2.928,2.928,0,0,0-.9-2.311,3.855,3.855,0,0,0-2.614-.815H31.411Z" transform="translate(38.402 121.163)" fill="#181818"/>
          <path id="Path_1412" data-name="Path 1412" d="M6.141-.5H.289V-2.29H6.141Zm9.221,6.454h-2.23V-8.7L8.659-7.068v-2l6.355-2.365h.348Zm6.775-1.153a1.37,1.37,0,0,1,.342-.951,1.309,1.309,0,0,1,1.025-.38,1.348,1.348,0,0,1,1.037.38,1.342,1.342,0,0,1,.354.951,1.27,1.27,0,0,1-.354.915,1.372,1.372,0,0,1-1.037.368,1.332,1.332,0,0,1-1.025-.368A1.3,1.3,0,0,1,22.137,4.805ZM35.615,5.958h-2.23V-8.7L28.912-7.068v-2l6.355-2.365h.348Zm13.79,0h-2.23V-8.7L42.7-7.068v-2l6.355-2.365H49.4Z" transform="translate(232.515 120.876)" fill="#181818"/>
          <path id="Path_202" data-name="Path 202" d="M0,0H24.207V23.992H0Z" transform="translate(84.837 106.289)" fill="none"/>
          <path id="Path_203" data-name="Path 203" d="M7.422,8.59l4.63,4.579,4.63-4.579L18.1,10l-6.052,6L6,10Z" transform="translate(84.889 106.119)" fill="#8e8e8f"/>
          <path id="Path_1429" data-name="Path 1429" d="M8.929,10.591A3.205,3.205,0,0,1,6.083,8.877H8.929V7.9H5.757a3.053,3.053,0,0,1,0-.979H8.929V5.938H6.083a3.222,3.222,0,0,1,4.936-.945l.875-.867A4.459,4.459,0,0,0,4.739,5.938H3v.979H4.512a4.06,4.06,0,0,0,0,.979H3v.979H4.739a4.459,4.459,0,0,0,7.154,1.812l-.879-.867A3.181,3.181,0,0,1,8.929,10.591Z" transform="translate(74.4 87.504)" fill="#8e8e8f"/>
          <path id="Path_1430" data-name="Path 1430" d="M14.984,18.342a6.478,6.478,0,0,1-5.752-3.464h5.752V12.9H8.572a6.171,6.171,0,0,1,0-1.98h6.411V8.939H9.232a6.512,6.512,0,0,1,9.976-1.91l1.768-1.752A9.013,9.013,0,0,0,6.515,8.939H3v1.98H6.056a8.205,8.205,0,0,0,0,1.98H3v1.98H6.515a9.013,9.013,0,0,0,14.46,3.662L19.2,16.788A6.43,6.43,0,0,1,14.984,18.342Z" transform="translate(208.01 106.447)" fill="#181818"/>
          <path id="Path_1434" data-name="Path 1434" d="M7.2,1.87a2.656,2.656,0,0,1-1.238.942,5.041,5.041,0,0,1-1.85.312,3.612,3.612,0,0,1-1.895-.5A3.316,3.316,0,0,1,.941,1.217,4.838,4.838,0,0,1,.477-.9v-.755A4.523,4.523,0,0,1,1.4-4.69,3.22,3.22,0,0,1,3.984-5.766a3.332,3.332,0,0,1,2.2.692A3.008,3.008,0,0,1,7.2-3.109H6.052A1.9,1.9,0,0,0,3.99-4.833a2.045,2.045,0,0,0-1.754.806,3.908,3.908,0,0,0-.6,2.334v.708a3.665,3.665,0,0,0,.672,2.317,2.184,2.184,0,0,0,1.817.859,4.046,4.046,0,0,0,1.133-.142,1.755,1.755,0,0,0,.8-.48V-.37H4.038V-1.3H7.2ZM9.122,3.006V-5.647h2.854a3.334,3.334,0,0,1,2.137.582,2.09,2.09,0,0,1,.716,1.723,1.747,1.747,0,0,1-.348,1.073,2.252,2.252,0,0,1-.947.722A2.025,2.025,0,0,1,14.653-.8,2.127,2.127,0,0,1,15.064.51,2.3,2.3,0,0,1,14.3,2.34a3.168,3.168,0,0,1-2.152.666Zm1.151-4.047V2.073h1.9a1.84,1.84,0,0,0,1.268-.413A1.444,1.444,0,0,0,13.907.522q0-1.563-1.715-1.563Zm0-.915h1.739a1.833,1.833,0,0,0,1.208-.375,1.253,1.253,0,0,0,.453-1.018,1.232,1.232,0,0,0-.42-1.039,2.075,2.075,0,0,0-1.277-.325h-1.7ZM17.918-.382V3.006H16.767V-5.647h3.22a3.253,3.253,0,0,1,2.245.725A2.448,2.448,0,0,1,23.044-3a2.415,2.415,0,0,1-.794,1.94,3.4,3.4,0,0,1-2.275.68Zm0-.933h2.068A2.08,2.08,0,0,0,21.4-1.746a1.571,1.571,0,0,0,.492-1.247A1.623,1.623,0,0,0,21.4-4.232a1.948,1.948,0,0,0-1.349-.482H17.918ZM24.3,2.429a.685.685,0,0,1,.171-.475.654.654,0,0,1,.513-.19.674.674,0,0,1,.519.19.671.671,0,0,1,.177.475.635.635,0,0,1-.177.458.686.686,0,0,1-.519.184.666.666,0,0,1-.513-.184A.647.647,0,0,1,24.3,2.429Zm.006-5.247a.685.685,0,0,1,.171-.475.654.654,0,0,1,.513-.19.674.674,0,0,1,.519.19.671.671,0,0,1,.177.475.635.635,0,0,1-.177.458.686.686,0,0,1-.519.184.666.666,0,0,1-.513-.184A.647.647,0,0,1,24.309-2.818Zm9.575,5.824H32.769V-4.322l-2.236.814v-1L33.71-5.688h.174Zm3.388-.576a.685.685,0,0,1,.171-.475.654.654,0,0,1,.513-.19.674.674,0,0,1,.519.19.671.671,0,0,1,.177.475.635.635,0,0,1-.177.458.686.686,0,0,1-.519.184.666.666,0,0,1-.513-.184A.647.647,0,0,1,37.272,2.429ZM45.839-.685a4.993,4.993,0,0,1-.666,2.87,2.375,2.375,0,0,1-2.08.939,2.393,2.393,0,0,1-2.068-.918,4.74,4.74,0,0,1-.7-2.742V-2a4.882,4.882,0,0,1,.666-2.835,2.394,2.394,0,0,1,2.086-.927,2.416,2.416,0,0,1,2.074.894,4.712,4.712,0,0,1,.683,2.76Zm-1.109-1.5a4,4,0,0,0-.4-2.035,1.365,1.365,0,0,0-1.253-.639,1.347,1.347,0,0,0-1.241.636,3.9,3.9,0,0,0-.4,1.955V-.512a4.062,4.062,0,0,0,.411,2.071,1.362,1.362,0,0,0,1.244.669,1.344,1.344,0,0,0,1.22-.63A3.916,3.916,0,0,0,44.73-.388Z" transform="translate(236.128 96.27)" fill="#8e8e8f"/>
          <g transform="matrix(1, 0, 0, 1, -30, -6)" filter="url(#Path_1420)">
            <path id="Path_1420-2" data-name="Path 1420" d="M13.594,0h128.89a13.474,13.474,0,1,1,0,26.947H13.594A13.474,13.474,0,1,1,13.594,0Z" transform="translate(112.82 164.61)" fill="#fff"/>
          </g>
          <path id="Path_259" data-name="Path 259" d="M0,0H27.384V27.142H0Z" transform="translate(82.818 158.464)" fill="none"/>
          <path id="Path_260" data-name="Path 260" d="M15.007,2A12.893,12.893,0,1,0,28.015,14.892,12.955,12.955,0,0,0,15.007,2ZM7.853,11.025l4.553-4.512,4.553,4.512H13.707v5.157h-2.6V11.025ZM22.162,18.76l-4.553,4.512L13.056,18.76h3.252V13.6h2.6V18.76Z" transform="translate(81.503 157.143)" fill="#0667eb"/>
          <path id="Path_1359" data-name="Path 1359" d="M0,0H16.431V16.285H0Z" transform="translate(119.073 163.132)" fill="none"/>
          <path id="Path_1360" data-name="Path 1360" d="M11.584,6l1.568,1.554L9.811,10.865,7.073,8.151,2,13.186l.965.957,4.108-4.071,2.738,2.714,4.313-4.268,1.568,1.554V6Z" transform="translate(124.94 161.904)" fill="#0667eb"/>
          <path id="Path_1428" data-name="Path 1428" d="M8.748,10.358A3.107,3.107,0,0,1,5.989,8.7H8.748V7.747H5.673a2.96,2.96,0,0,1,0-.949H8.748V5.848H5.989a3.123,3.123,0,0,1,4.785-.916l.848-.84A4.323,4.323,0,0,0,4.686,5.848H3V6.8H4.466a3.936,3.936,0,0,0,0,.949H3V8.7H4.686a4.323,4.323,0,0,0,6.935,1.756l-.853-.84A3.084,3.084,0,0,1,8.748,10.358Z" transform="translate(141.96 164.904)" fill="#0667eb"/>
          <path id="Path_1431" data-name="Path 1431" d="M4.041.3H3V-6.542l-2.087.76v-.932l2.966-1.1h.162Zm10.71-4.515H10.084v-.893h4.667Zm0,2.3H10.084V-2.8h4.667Zm8.4.133a1.15,1.15,0,0,0-.361-.86,3.238,3.238,0,0,0-1.217-.632,3.911,3.911,0,0,1-1.737-.94,2.063,2.063,0,0,1-.546-1.472,2.121,2.121,0,0,1,.534-1.492,2.279,2.279,0,0,1,1.469-.693V-9.088h.834v1.22a2.162,2.162,0,0,1,1.463.782,2.793,2.793,0,0,1,.523,1.791h-1.03a1.92,1.92,0,0,0-.375-1.246A1.236,1.236,0,0,0,21.7-7a1.405,1.405,0,0,0-1.018.342,1.265,1.265,0,0,0-.353.953,1.157,1.157,0,0,0,.372.9,3.439,3.439,0,0,0,1.225.611,5.18,5.18,0,0,1,1.332.605,2.13,2.13,0,0,1,.705.768,2.2,2.2,0,0,1,.227,1.026,2.046,2.046,0,0,1-.568,1.509A2.529,2.529,0,0,1,22.026.39V1.45H21.2V.39a2.422,2.422,0,0,1-1.631-.735,2.466,2.466,0,0,1-.59-1.739h1.035A1.623,1.623,0,0,0,20.42-.9a1.55,1.55,0,0,0,1.158.416A1.748,1.748,0,0,0,22.731-.83,1.175,1.175,0,0,0,23.15-1.784ZM31.712.3H30.671V-6.542l-2.087.76v-.932l2.966-1.1h.162Zm3.162-.538a.639.639,0,0,1,.159-.444.611.611,0,0,1,.478-.177A.629.629,0,0,1,36-.686a.626.626,0,0,1,.165.444A.593.593,0,0,1,36,.185a.64.64,0,0,1-.484.172.621.621,0,0,1-.478-.172A.6.6,0,0,1,34.873-.242ZM43.1.3H37.761V-.441l2.82-3.106a6.645,6.645,0,0,0,.865-1.145,1.9,1.9,0,0,0,.238-.912A1.442,1.442,0,0,0,41.3-6.642a1.356,1.356,0,0,0-1.03-.4,1.607,1.607,0,0,0-1.2.435A1.654,1.654,0,0,0,38.639-5.4H37.6a2.371,2.371,0,0,1,.725-1.8,2.7,2.7,0,0,1,1.939-.688,2.6,2.6,0,0,1,1.8.591,2.006,2.006,0,0,1,.66,1.572,4.605,4.605,0,0,1-1.533,2.84L39.008-.541H43.1ZM49.3-3.148a4.66,4.66,0,0,1-.621,2.679,2.217,2.217,0,0,1-1.942.876A2.233,2.233,0,0,1,44.811-.45a4.424,4.424,0,0,1-.649-2.56v-1.37a4.556,4.556,0,0,1,.621-2.646,2.234,2.234,0,0,1,1.947-.865,2.255,2.255,0,0,1,1.936.835A4.4,4.4,0,0,1,49.3-4.479Zm-1.035-1.4a3.731,3.731,0,0,0-.369-1.9,1.274,1.274,0,0,0-1.17-.6,1.257,1.257,0,0,0-1.158.593A3.644,3.644,0,0,0,45.2-4.629v1.642a3.791,3.791,0,0,0,.383,1.933,1.271,1.271,0,0,0,1.161.624,1.254,1.254,0,0,0,1.139-.588,3.655,3.655,0,0,0,.389-1.852Z" transform="translate(154.771 175.869)" fill="#0667eb"/>
          <path id="Path_1425" data-name="Path 1425" d="M41.611,2.869a.685.685,0,0,1,.171-.475.654.654,0,0,1,.513-.19.633.633,0,0,1,.7.666.635.635,0,0,1-.177.458.686.686,0,0,1-.519.184.666.666,0,0,1-.513-.184A.647.647,0,0,1,41.611,2.869Zm.006-5.247a.685.685,0,0,1,.171-.475.654.654,0,0,1,.513-.19.674.674,0,0,1,.519.19A.671.671,0,0,1,43-2.378a.635.635,0,0,1-.177.458.686.686,0,0,1-.519.184.666.666,0,0,1-.513-.184A.647.647,0,0,1,41.617-2.378Zm10.336,3.6A1.232,1.232,0,0,0,51.566.3a3.469,3.469,0,0,0-1.3-.677A4.191,4.191,0,0,1,48.4-1.389a2.21,2.21,0,0,1-.585-1.578,2.272,2.272,0,0,1,.573-1.6,2.442,2.442,0,0,1,1.574-.743v-1.3h.893V-5.3a2.316,2.316,0,0,1,1.568.838,2.992,2.992,0,0,1,.561,1.919h-1.1a2.057,2.057,0,0,0-.4-1.335,1.324,1.324,0,0,0-1.085-.495,1.506,1.506,0,0,0-1.091.366,1.356,1.356,0,0,0-.378,1.021,1.239,1.239,0,0,0,.4.967,3.685,3.685,0,0,0,1.313.655,5.55,5.55,0,0,1,1.427.648,2.282,2.282,0,0,1,.755.823,2.362,2.362,0,0,1,.243,1.1,2.192,2.192,0,0,1-.609,1.616,2.71,2.71,0,0,1-1.706.725V4.681h-.887V3.546a2.6,2.6,0,0,1-1.748-.787A2.642,2.642,0,0,1,47.48.9h1.109a1.739,1.739,0,0,0,.438,1.272,1.661,1.661,0,0,0,1.241.446A1.873,1.873,0,0,0,51.5,2.239,1.259,1.259,0,0,0,51.953,1.217Zm6.133,2.228H56.971V-3.882l-2.236.814v-1l3.178-1.183h.174ZM66.81-.245a4.993,4.993,0,0,1-.666,2.87,2.375,2.375,0,0,1-2.08.939A2.393,2.393,0,0,1,62,2.646,4.74,4.74,0,0,1,61.3-.1V-1.564A4.882,4.882,0,0,1,61.966-4.4a2.394,2.394,0,0,1,2.086-.927,2.416,2.416,0,0,1,2.074.894,4.712,4.712,0,0,1,.683,2.76ZM65.7-1.748a4,4,0,0,0-.4-2.035,1.365,1.365,0,0,0-1.253-.639,1.347,1.347,0,0,0-1.241.636,3.9,3.9,0,0,0-.4,1.955V-.073A4.062,4.062,0,0,0,62.82,2a1.362,1.362,0,0,0,1.244.669,1.344,1.344,0,0,0,1.22-.63A3.916,3.916,0,0,0,65.7.052Z" transform="translate(31.599 224.329)" fill="#8e8e8f"/>
          <path id="Path_1426" data-name="Path 1426" d="M12.874-10.588V.443A5.149,5.149,0,0,1,11.418,4.2,5.892,5.892,0,0,1,7.5,5.836l-.573.022A6.161,6.161,0,0,1,2.644,4.421,5.118,5.118,0,0,1,1.025.465V-10.588H3.161V.4a3.691,3.691,0,0,0,.978,2.735,3.779,3.779,0,0,0,2.788.975,3.8,3.8,0,0,0,2.8-.969A3.684,3.684,0,0,0,10.7.41v-11ZM21.1-1.6A10.185,10.185,0,0,1,17.062-3.54,3.7,3.7,0,0,1,15.8-6.387a3.911,3.911,0,0,1,1.546-3.17,6.18,6.18,0,0,1,4.019-1.253,6.756,6.756,0,0,1,3.007.646,4.931,4.931,0,0,1,2.046,1.783A4.529,4.529,0,0,1,27.14-5.9H24.97a2.953,2.953,0,0,0-.944-2.32,3.862,3.862,0,0,0-2.664-.844,3.957,3.957,0,0,0-2.49.7,2.319,2.319,0,0,0-.894,1.937,2.087,2.087,0,0,0,.849,1.68,8.361,8.361,0,0,0,2.889,1.256,13.475,13.475,0,0,1,3.193,1.255,4.827,4.827,0,0,1,1.709,1.6,4.053,4.053,0,0,1,.556,2.15,3.779,3.779,0,0,1-1.551,3.159,6.657,6.657,0,0,1-4.148,1.187,7.753,7.753,0,0,1-3.148-.641,5.29,5.29,0,0,1-2.254-1.755A4.256,4.256,0,0,1,15.28.933h2.17a2.785,2.785,0,0,0,1.1,2.323,4.644,4.644,0,0,0,2.928.852,4.271,4.271,0,0,0,2.619-.691A2.237,2.237,0,0,0,25,1.535a2.2,2.2,0,0,0-.843-1.844A9.765,9.765,0,0,0,21.1-1.6Zm8.836,7.231V-10.588h4.62a7.49,7.49,0,0,1,3.777.936,6.354,6.354,0,0,1,2.535,2.663,8.6,8.6,0,0,1,.9,3.967v1.036a8.634,8.634,0,0,1-.894,4.022,6.255,6.255,0,0,1-2.552,2.652,7.968,7.968,0,0,1-3.862.947ZM32.1-8.838V3.886h2.271a4.963,4.963,0,0,0,3.884-1.539,6.321,6.321,0,0,0,1.388-4.383v-.948a6.42,6.42,0,0,0-1.31-4.3,4.68,4.68,0,0,0-3.715-1.556Z" transform="translate(38.289 248.525)" fill="#181818"/>
          <path id="Path_202-2" data-name="Path 202" d="M0,0H24.207V23.992H0Z" transform="translate(80.231 233.505)" fill="none"/>
          <path id="Path_203-2" data-name="Path 203" d="M7.422,8.59l4.63,4.579,4.63-4.579L18.1,10l-6.052,6L6,10Z" transform="translate(80.283 233.334)" fill="#8e8e8f"/>
          <path id="Path_1432" data-name="Path 1432" d="M9.8,2.434A2.463,2.463,0,0,0,9.031.592,6.938,6.938,0,0,0,6.423-.763,8.381,8.381,0,0,1,2.7-2.778,4.42,4.42,0,0,1,1.531-5.933a4.544,4.544,0,0,1,1.145-3.2,4.883,4.883,0,0,1,3.148-1.486v-2.6H7.61V-10.6a4.633,4.633,0,0,1,3.136,1.676,5.985,5.985,0,0,1,1.121,3.839H9.661a4.114,4.114,0,0,0-.8-2.671,2.649,2.649,0,0,0-2.17-.99A3.011,3.011,0,0,0,4.5-8.018a2.712,2.712,0,0,0-.755,2.042,2.479,2.479,0,0,0,.8,1.935,7.37,7.37,0,0,0,2.626,1.31,11.1,11.1,0,0,1,2.854,1.3A4.565,4.565,0,0,1,11.538.211a4.723,4.723,0,0,1,.486,2.2,4.384,4.384,0,0,1-1.217,3.233,5.42,5.42,0,0,1-3.411,1.45v2.27H5.62V7.093a5.191,5.191,0,0,1-3.5-1.575A5.284,5.284,0,0,1,.859,1.792H3.078a3.479,3.479,0,0,0,.875,2.543,3.322,3.322,0,0,0,2.482.891,3.746,3.746,0,0,0,2.47-.749A2.519,2.519,0,0,0,9.8,2.434Zm11.56-4.825h4.868v2.08H21.364V5.155h-2.23V-.312H14.266v-2.08h4.868V-7.443h2.23ZM35.994,6.891h-2.23V-7.764L29.29-6.135v-2L35.646-10.5h.348Zm6.775-1.153a1.37,1.37,0,0,1,.342-.951,1.309,1.309,0,0,1,1.025-.38,1.267,1.267,0,0,1,1.391,1.331,1.27,1.27,0,0,1-.354.915,1.372,1.372,0,0,1-1.037.368,1.332,1.332,0,0,1-1.025-.368A1.3,1.3,0,0,1,42.769,5.738Zm9.413-8.569h1.667a3.684,3.684,0,0,0,2.47-.82,2.728,2.728,0,0,0,.9-2.151q0-3.043-3.058-3.043a3.2,3.2,0,0,0-2.3.814,2.836,2.836,0,0,0-.857,2.157H48.788a4.4,4.4,0,0,1,1.517-3.417,5.556,5.556,0,0,1,3.855-1.361,5.491,5.491,0,0,1,3.873,1.3,4.658,4.658,0,0,1,1.4,3.6A3.776,3.776,0,0,1,58.7-3.568,4.446,4.446,0,0,1,56.69-1.987a4.292,4.292,0,0,1,2.224,1.5A4.133,4.133,0,0,1,59.7,2.065a4.7,4.7,0,0,1-1.535,3.7,5.779,5.779,0,0,1-3.993,1.367,5.933,5.933,0,0,1-4-1.319,4.359,4.359,0,0,1-1.541-3.482h2.23a2.816,2.816,0,0,0,.9,2.187,3.439,3.439,0,0,0,2.41.82A3.375,3.375,0,0,0,56.63,4.5a3.19,3.19,0,0,0,.851-2.389A2.9,2.9,0,0,0,56.546-.2a4.1,4.1,0,0,0-2.7-.832H52.182Zm13.79,0h1.667a3.684,3.684,0,0,0,2.47-.82,2.728,2.728,0,0,0,.9-2.151q0-3.043-3.058-3.043a3.2,3.2,0,0,0-2.3.814A2.836,2.836,0,0,0,64.8-5.874H62.578a4.4,4.4,0,0,1,1.517-3.417,5.556,5.556,0,0,1,3.855-1.361,5.491,5.491,0,0,1,3.873,1.3,4.658,4.658,0,0,1,1.4,3.6,3.776,3.776,0,0,1-.737,2.187A4.446,4.446,0,0,1,70.48-1.987,4.292,4.292,0,0,1,72.7-.49a4.134,4.134,0,0,1,.785,2.555,4.7,4.7,0,0,1-1.535,3.7,5.779,5.779,0,0,1-3.993,1.367,5.933,5.933,0,0,1-4-1.319,4.359,4.359,0,0,1-1.541-3.482h2.23a2.816,2.816,0,0,0,.9,2.187,3.439,3.439,0,0,0,2.41.82A3.375,3.375,0,0,0,70.42,4.5a3.19,3.19,0,0,0,.851-2.389A2.9,2.9,0,0,0,70.336-.2a4.1,4.1,0,0,0-2.7-.832H65.972Z" transform="translate(208.31 246.724)" fill="#181818"/>
          <path id="Path_1435" data-name="Path 1435" d="M7.2,1.87a2.656,2.656,0,0,1-1.238.942,5.041,5.041,0,0,1-1.85.312,3.612,3.612,0,0,1-1.895-.5A3.316,3.316,0,0,1,.941,1.217,4.838,4.838,0,0,1,.477-.9v-.755A4.523,4.523,0,0,1,1.4-4.69,3.22,3.22,0,0,1,3.984-5.766a3.332,3.332,0,0,1,2.2.692A3.008,3.008,0,0,1,7.2-3.109H6.052A1.9,1.9,0,0,0,3.99-4.833a2.045,2.045,0,0,0-1.754.806,3.908,3.908,0,0,0-.6,2.334v.708a3.665,3.665,0,0,0,.672,2.317,2.184,2.184,0,0,0,1.817.859,4.046,4.046,0,0,0,1.133-.142,1.755,1.755,0,0,0,.8-.48V-.37H4.038V-1.3H7.2ZM9.122,3.006V-5.647h2.854a3.334,3.334,0,0,1,2.137.582,2.09,2.09,0,0,1,.716,1.723,1.747,1.747,0,0,1-.348,1.073,2.252,2.252,0,0,1-.947.722A2.025,2.025,0,0,1,14.653-.8,2.127,2.127,0,0,1,15.064.51,2.3,2.3,0,0,1,14.3,2.34a3.168,3.168,0,0,1-2.152.666Zm1.151-4.047V2.073h1.9a1.84,1.84,0,0,0,1.268-.413A1.444,1.444,0,0,0,13.907.522q0-1.563-1.715-1.563Zm0-.915h1.739a1.833,1.833,0,0,0,1.208-.375,1.253,1.253,0,0,0,.453-1.018,1.232,1.232,0,0,0-.42-1.039,2.075,2.075,0,0,0-1.277-.325h-1.7ZM17.918-.382V3.006H16.767V-5.647h3.22a3.253,3.253,0,0,1,2.245.725A2.448,2.448,0,0,1,23.044-3a2.415,2.415,0,0,1-.794,1.94,3.4,3.4,0,0,1-2.275.68Zm0-.933h2.068A2.08,2.08,0,0,0,21.4-1.746a1.571,1.571,0,0,0,.492-1.247A1.623,1.623,0,0,0,21.4-4.232a1.948,1.948,0,0,0-1.349-.482H17.918ZM24.3,2.429a.685.685,0,0,1,.171-.475.654.654,0,0,1,.513-.19.674.674,0,0,1,.519.19.671.671,0,0,1,.177.475.635.635,0,0,1-.177.458.686.686,0,0,1-.519.184.666.666,0,0,1-.513-.184A.647.647,0,0,1,24.3,2.429Zm.006-5.247a.685.685,0,0,1,.171-.475.654.654,0,0,1,.513-.19.674.674,0,0,1,.519.19.671.671,0,0,1,.177.475.635.635,0,0,1-.177.458.686.686,0,0,1-.519.184.666.666,0,0,1-.513-.184A.647.647,0,0,1,24.309-2.818Zm9.575,5.824H32.769V-4.322l-2.236.814v-1L33.71-5.688h.174Zm3.388-.576a.685.685,0,0,1,.171-.475.654.654,0,0,1,.513-.19.674.674,0,0,1,.519.19.671.671,0,0,1,.177.475.635.635,0,0,1-.177.458.686.686,0,0,1-.519.184.666.666,0,0,1-.513-.184A.647.647,0,0,1,37.272,2.429ZM45.839-.685a4.993,4.993,0,0,1-.666,2.87,2.375,2.375,0,0,1-2.08.939,2.393,2.393,0,0,1-2.068-.918,4.74,4.74,0,0,1-.7-2.742V-2a4.882,4.882,0,0,1,.666-2.835,2.394,2.394,0,0,1,2.086-.927,2.416,2.416,0,0,1,2.074.894,4.712,4.712,0,0,1,.683,2.76Zm-1.109-1.5a4,4,0,0,0-.4-2.035,1.365,1.365,0,0,0-1.253-.639,1.347,1.347,0,0,0-1.241.636,3.9,3.9,0,0,0-.4,1.955V-.512a4.062,4.062,0,0,0,.411,2.071,1.362,1.362,0,0,0,1.244.669,1.344,1.344,0,0,0,1.22-.63A3.916,3.916,0,0,0,44.73-.388Z" transform="translate(235.517 222.433)" fill="#8e8e8f"/>
          <g transform="matrix(1, 0, 0, 1, -30, -6)" filter="url(#Path_1416)">
            <path id="Path_1416-2" data-name="Path 1416" d="M15.664,0H182.1c8.651,0,15.664,8.723,15.664,19.484S190.75,38.968,182.1,38.968H15.664C7.013,38.968,0,30.245,0,19.484S7.013,0,15.664,0Z" transform="translate(91.58 323.82)" fill="#0667eb"/>
          </g>
        </g>
      </g>
      <text id="Câmbio" transform="translate(166.051 343.325)" fill="#fff" font-size="13" font-family="Roboto-Regular, Roboto"><tspan x="0" y="0">Câmbio</tspan></text>
    </g>
    <text id="Câmbio-2" data-name="Câmbio" transform="translate(912.286 1616)" fill="#181818" font-size="22" font-family="Roboto-Medium, Roboto" font-weight="500"><tspan x="0" y="0">Câmbio</tspan></text>
    <text id="Saldo" transform="translate(840.472 1680.415)" fill="#8e8e8f" font-size="12" font-family="Roboto-Regular, Roboto"><tspan x="0" y="0">Saldo</tspan></text>
    <text id="Saldo-2" data-name="Saldo" transform="translate(840.472 1807.775)" fill="#8e8e8f" font-size="12" font-family="Roboto-Regular, Roboto"><tspan x="0" y="0">Saldo</tspan></text>
  </g>
</svg>
