<svg xmlns="http://www.w3.org/2000/svg" xmlns:xlink="http://www.w3.org/1999/xlink" width="372.339" height="400.675" viewBox="0 0 372.339 400.675">
  <defs>
    <filter id="Rectangle_791" x="43" y="0" width="277" height="387" filterUnits="userSpaceOnUse">
      <feOffset dy="3" input="SourceAlpha"/>
      <feGaussianBlur stdDeviation="3" result="blur"/>
      <feFlood flood-opacity="0.161"/>
      <feComposite operator="in" in2="blur"/>
      <feComposite in="SourceGraphic"/>
    </filter>
    <filter id="Rectangle_792" x="0" y="37" width="363" height="273" filterUnits="userSpaceOnUse">
      <feOffset dy="5" input="SourceAlpha"/>
      <feGaussianBlur stdDeviation="10" result="blur-2"/>
      <feFlood flood-opacity="0.161"/>
      <feComposite operator="in" in2="blur-2"/>
      <feComposite in="SourceGraphic"/>
    </filter>
    <filter id="Path_1420" x="99" y="150.718" width="164.997" height="43.606" filterUnits="userSpaceOnUse">
      <feOffset dy="3" input="SourceAlpha"/>
      <feGaussianBlur stdDeviation="3" result="blur-3"/>
      <feFlood flood-opacity="0.161"/>
      <feComposite operator="in" in2="blur-3"/>
      <feComposite in="SourceGraphic"/>
    </filter>
    <filter id="Path_1416" x="80.5" y="305.5" width="201.257" height="52.029" filterUnits="userSpaceOnUse">
      <feOffset dy="5" input="SourceAlpha"/>
      <feGaussianBlur stdDeviation="2.5" result="blur-4"/>
      <feFlood flood-color="#c9defb"/>
      <feComposite operator="in" in2="blur-4"/>
      <feComposite in="SourceGraphic"/>
    </filter>
  </defs>
  <g id="Group_6906" data-name="Group 6906" transform="translate(-811 -1603)">
    <g id="Group_6905" data-name="Group 6905">
      <circle id="Ellipse_54" data-name="Ellipse 54" cx="184.837" cy="184.837" r="184.837" transform="translate(813.664 1634)" fill="#0667eb"/>
      <g id="Group_6904" data-name="Group 6904" transform="translate(0 -36)">
        <g id="Group_6903" data-name="Group 6903">
          <g transform="matrix(1, 0, 0, 1, 811, 1639)" filter="url(#Rectangle_791)">
            <rect id="Rectangle_791-2" data-name="Rectangle 791" width="259" height="369" rx="5" transform="translate(52 6)" fill="#fff"/>
          </g>
          <g transform="matrix(1, 0, 0, 1, 811, 1639)" filter="url(#Rectangle_792)">
            <rect id="Rectangle_792-2" data-name="Rectangle 792" width="303" height="213" rx="5" transform="translate(30 62)" fill="#fff"/>
          </g>
          <path id="Rectangle_793" data-name="Rectangle 793" d="M0,0H303a0,0,0,0,1,0,0V104a5,5,0,0,1-5,5H5a5,5,0,0,1-5-5V0A0,0,0,0,1,0,0Z" transform="translate(841 1808)" fill="#f6f6f6"/>
          <path id="Path_1427" data-name="Path 1427" d="M10.509-4.739H4.089V.071h7.5V2.239H1.373v-15.63H11.518v2.19H4.089v4.316h6.42Zm7.214-.816,2.211-3.822h2.9L19.279-3.654l3.671,5.894H20.074L17.755-1.733,15.447,2.239h-2.9L16.22-3.654,12.677-9.376h2.877ZM29.167.371A2.359,2.359,0,0,0,30.788-.2,1.944,1.944,0,0,0,31.475-1.6h2.458A3.832,3.832,0,0,1,33.257.42a4.436,4.436,0,0,1-1.718,1.487,5.119,5.119,0,0,1-2.34.547A4.952,4.952,0,0,1,25.334.876a6.259,6.259,0,0,1-1.428-4.358v-.268A6.155,6.155,0,0,1,25.323-8a4.907,4.907,0,0,1,3.865-1.594,4.772,4.772,0,0,1,3.376,1.208,4.326,4.326,0,0,1,1.369,3.172H31.475a2.389,2.389,0,0,0-.682-1.642A2.193,2.193,0,0,0,29.167-7.5a2.3,2.3,0,0,0-1.954.918,4.684,4.684,0,0,0-.7,2.786v.419A4.761,4.761,0,0,0,27.2-.557,2.294,2.294,0,0,0,29.167.371Zm9.307-8.481a4.083,4.083,0,0,1,3.231-1.481q3.714,0,3.768,4.24v7.59H42.865V-5.254a2.294,2.294,0,0,0-.521-1.7,2.128,2.128,0,0,0-1.53-.5,2.513,2.513,0,0,0-2.34,1.4v8.3H35.865V-14.25h2.609ZM55.049,2.239a4.026,4.026,0,0,1-.3-1.084,4.061,4.061,0,0,1-3.049,1.3,4.1,4.1,0,0,1-2.856-1,3.194,3.194,0,0,1-1.106-2.469,3.3,3.3,0,0,1,1.379-2.85,6.685,6.685,0,0,1,3.945-.993h1.6v-.762a2.035,2.035,0,0,0-.5-1.444A2,2,0,0,0,52.623-7.6a2.3,2.3,0,0,0-1.46.446,1.379,1.379,0,0,0-.569,1.133H47.985a2.9,2.9,0,0,1,.633-1.787,4.22,4.22,0,0,1,1.723-1.3,6.052,6.052,0,0,1,2.432-.472,4.874,4.874,0,0,1,3.253,1.025,3.656,3.656,0,0,1,1.245,2.882V-.445a5.937,5.937,0,0,0,.44,2.5v.182ZM52.183.361a2.967,2.967,0,0,0,1.455-.376,2.51,2.51,0,0,0,1.025-1.009v-2.19H53.256a3.845,3.845,0,0,0-2.179.5,1.634,1.634,0,0,0-.73,1.428,1.524,1.524,0,0,0,.5,1.2A1.933,1.933,0,0,0,52.183.361ZM62.424-9.376,62.5-8.034a4.176,4.176,0,0,1,3.382-1.557q3.628,0,3.693,4.155V2.239H66.965V-5.286a2.392,2.392,0,0,0-.478-1.637,2.01,2.01,0,0,0-1.562-.531,2.514,2.514,0,0,0-2.351,1.428V2.239H59.966V-9.376Zm9.35,5.722a6.793,6.793,0,0,1,1.272-4.321,4.083,4.083,0,0,1,3.376-1.616,3.825,3.825,0,0,1,3.124,1.385l.118-1.17h2.351V1.885a4.681,4.681,0,0,1-1.422,3.607,5.418,5.418,0,0,1-3.838,1.32,6.186,6.186,0,0,1-2.5-.531,4.435,4.435,0,0,1-1.852-1.39l1.235-1.567a3.729,3.729,0,0,0,2.963,1.428,2.882,2.882,0,0,0,2.05-.7,2.7,2.7,0,0,0,.751-2.067V1.2A3.841,3.841,0,0,1,76.4,2.454,4.073,4.073,0,0,1,73.068.833,7.014,7.014,0,0,1,71.775-3.654Zm2.6.225a4.676,4.676,0,0,0,.714,2.754,2.3,2.3,0,0,0,1.981,1,2.51,2.51,0,0,0,2.34-1.353v-5.11a2.474,2.474,0,0,0-2.319-1.32,2.3,2.3,0,0,0-2,1.02A5.236,5.236,0,0,0,74.372-3.429ZM89.81,2.454A5.4,5.4,0,0,1,85.789.892a5.666,5.666,0,0,1-1.54-4.16V-3.59A6.97,6.97,0,0,1,84.92-6.7,5.107,5.107,0,0,1,86.8-8.829a4.981,4.981,0,0,1,2.705-.762,4.559,4.559,0,0,1,3.666,1.514,6.4,6.4,0,0,1,1.294,4.283v1.052h-7.59A3.488,3.488,0,0,0,87.84-.466a2.885,2.885,0,0,0,2.12.837,3.532,3.532,0,0,0,2.92-1.449L94.286.264A4.7,4.7,0,0,1,92.424,1.88,5.831,5.831,0,0,1,89.81,2.454ZM89.5-7.5a2.2,2.2,0,0,0-1.734.751,3.9,3.9,0,0,0-.843,2.093h4.97v-.193a3.171,3.171,0,0,0-.7-1.981A2.18,2.18,0,0,0,89.5-7.5Z" transform="translate(944.627 1678.25)" fill="#181818"/>
          <path id="Path_1422" data-name="Path 1422" d="M.66,2.673V-5.548H3.348a3.12,3.12,0,0,1,2.013.553,1.994,1.994,0,0,1,.675,1.638,1.67,1.67,0,0,1-.328,1.019,2.123,2.123,0,0,1-.892.686,1.907,1.907,0,0,1,1.053.709A2.034,2.034,0,0,1,6.256.3a2.2,2.2,0,0,1-.717,1.739,2.966,2.966,0,0,1-2.027.632ZM1.744-1.172V1.787h1.79a1.724,1.724,0,0,0,1.194-.392A1.378,1.378,0,0,0,5.166.313q0-1.485-1.615-1.485Zm0-.87H3.382A1.716,1.716,0,0,0,4.52-2.4a1.2,1.2,0,0,0,.426-.968,1.175,1.175,0,0,0-.4-.988,1.941,1.941,0,0,0-1.2-.308h-1.6Zm9.724,4.715a2.194,2.194,0,0,1-.147-.644,2.331,2.331,0,0,1-1.739.757A2.157,2.157,0,0,1,8.1,2.275a1.653,1.653,0,0,1-.579-1.3A1.727,1.727,0,0,1,8.247-.5a3.421,3.421,0,0,1,2.041-.528H11.3v-.48a1.173,1.173,0,0,0-.328-.872,1.316,1.316,0,0,0-.966-.325,1.523,1.523,0,0,0-.937.282.832.832,0,0,0-.378.683H7.645a1.442,1.442,0,0,1,.325-.884A2.216,2.216,0,0,1,8.851-3.3a2.964,2.964,0,0,1,1.223-.248,2.415,2.415,0,0,1,1.655.528,1.9,1.9,0,0,1,.621,1.454V1.245a3.438,3.438,0,0,0,.215,1.338v.09Zm-1.734-.8a1.836,1.836,0,0,0,.932-.254A1.537,1.537,0,0,0,11.3.962V-.291h-.819q-1.92,0-1.92,1.124a.951.951,0,0,0,.328.768A1.259,1.259,0,0,0,9.735,1.877Zm5.387.8H14.077V-6h1.045Zm5.443,0a2.194,2.194,0,0,1-.147-.644,2.331,2.331,0,0,1-1.739.757A2.157,2.157,0,0,1,17.2,2.275a1.653,1.653,0,0,1-.579-1.3A1.727,1.727,0,0,1,17.344-.5a3.421,3.421,0,0,1,2.041-.528H20.4v-.48a1.173,1.173,0,0,0-.328-.872,1.316,1.316,0,0,0-.966-.325,1.523,1.523,0,0,0-.937.282.832.832,0,0,0-.378.683h-1.05a1.442,1.442,0,0,1,.325-.884,2.216,2.216,0,0,1,.881-.675,2.964,2.964,0,0,1,1.223-.248,2.415,2.415,0,0,1,1.655.528,1.9,1.9,0,0,1,.621,1.454V1.245a3.438,3.438,0,0,0,.215,1.338v.09Zm-1.734-.8a1.836,1.836,0,0,0,.932-.254A1.537,1.537,0,0,0,20.4.962V-.291h-.819q-1.92,0-1.92,1.124a.951.951,0,0,0,.328.768A1.259,1.259,0,0,0,18.831,1.877Zm5.24-5.314.034.768a2.226,2.226,0,0,1,1.83-.881q1.937,0,1.954,2.185V2.673H26.844V-1.37a1.407,1.407,0,0,0-.3-.977,1.211,1.211,0,0,0-.923-.316,1.508,1.508,0,0,0-.892.271,1.841,1.841,0,0,0-.6.711V2.673H23.084v-6.11Zm7.843,5.37a1.5,1.5,0,0,0,.977-.339,1.192,1.192,0,0,0,.463-.847h.988a1.894,1.894,0,0,1-.361,1,2.38,2.38,0,0,1-.889.757,2.566,2.566,0,0,1-1.177.282,2.517,2.517,0,0,1-1.985-.833,3.317,3.317,0,0,1-.737-2.278V-.5a3.678,3.678,0,0,1,.328-1.587,2.5,2.5,0,0,1,.94-1.079,2.671,2.671,0,0,1,1.448-.384,2.45,2.45,0,0,1,1.708.615,2.2,2.2,0,0,1,.726,1.6h-.988a1.44,1.44,0,0,0-.449-.974,1.4,1.4,0,0,0-1-.381,1.462,1.462,0,0,0-1.234.573,2.692,2.692,0,0,0-.438,1.657v.2a2.638,2.638,0,0,0,.435,1.626A1.469,1.469,0,0,0,31.915,1.934Zm6.138.853a2.67,2.67,0,0,1-2.022-.816,3.028,3.028,0,0,1-.779-2.182V-.4A3.666,3.666,0,0,1,35.6-2.027a2.709,2.709,0,0,1,.971-1.118,2.442,2.442,0,0,1,1.352-.4,2.288,2.288,0,0,1,1.852.785,3.4,3.4,0,0,1,.661,2.247v.435H36.3a2.172,2.172,0,0,0,.528,1.46,1.66,1.66,0,0,0,1.285.556,1.819,1.819,0,0,0,.937-.226,2.355,2.355,0,0,0,.672-.6l.638.5A2.566,2.566,0,0,1,38.053,2.786Zm-.13-5.477a1.393,1.393,0,0,0-1.062.46,2.237,2.237,0,0,0-.531,1.29h3.061V-1.02a1.99,1.99,0,0,0-.429-1.234A1.312,1.312,0,0,0,37.923-2.691Zm3.687,4.817a.654.654,0,0,1,.161-.452.613.613,0,0,1,.483-.181.632.632,0,0,1,.488.181.641.641,0,0,1,.167.452.606.606,0,0,1-.167.435.643.643,0,0,1-.488.175.624.624,0,0,1-.483-.175A.618.618,0,0,1,41.611,2.126Zm.006-4.986a.654.654,0,0,1,.161-.452.613.613,0,0,1,.483-.181.632.632,0,0,1,.488.181.641.641,0,0,1,.167.452.606.606,0,0,1-.167.435.643.643,0,0,1-.488.175.624.624,0,0,1-.483-.175A.618.618,0,0,1,41.616-2.86ZM59.223,2.673h-1.05V-4.289l-2.106.774v-.949l2.993-1.124h.164ZM67.439-.833a4.778,4.778,0,0,1-.627,2.727,2.229,2.229,0,0,1-1.959.892A2.245,2.245,0,0,1,62.9,1.914,4.535,4.535,0,0,1,62.25-.692V-2.087a4.671,4.671,0,0,1,.627-2.694,2.246,2.246,0,0,1,1.965-.881,2.267,2.267,0,0,1,1.954.85,4.508,4.508,0,0,1,.644,2.623ZM66.394-2.262A3.828,3.828,0,0,0,66.022-4.2a1.283,1.283,0,0,0-1.18-.607,1.266,1.266,0,0,0-1.169.6,3.737,3.737,0,0,0-.378,1.858V-.669A3.889,3.889,0,0,0,63.681,1.3a1.28,1.28,0,0,0,1.172.635A1.263,1.263,0,0,0,66,1.335a3.748,3.748,0,0,0,.392-1.886Z" transform="translate(877.34 1737)" fill="#8e8e8f"/>
          <path id="Path_1424" data-name="Path 1424" d="M9.951-2.374H3.271V3.089h7.761V4.752H1.238V-10.664h9.688V-9H3.271v4.966H9.951Zm14.463-8.29V-.182a4.917,4.917,0,0,1-1.371,3.568,5.525,5.525,0,0,1-3.69,1.556l-.54.021A5.77,5.77,0,0,1,14.779,3.6,4.885,4.885,0,0,1,13.255-.161v-10.5h2.012V-.225a3.526,3.526,0,0,0,.921,2.6,3.54,3.54,0,0,0,2.626.926,3.564,3.564,0,0,0,2.642-.921,3.519,3.519,0,0,0,.916-2.594v-10.45Zm8.862,9.18H29.655V4.752H27.612V-10.664h5.1a6.04,6.04,0,0,1,4.007,1.186,4.266,4.266,0,0,1,1.4,3.452,4.15,4.15,0,0,1-.778,2.509,4.645,4.645,0,0,1-2.165,1.6L38.8,4.625v.127H36.622ZM29.655-3.147h3.123a3.523,3.523,0,0,0,2.409-.785,2.654,2.654,0,0,0,.895-2.1,2.8,2.8,0,0,0-.852-2.2A3.609,3.609,0,0,0,32.768-9H29.655Z" transform="translate(877.096 1760.664)" fill="#181818"/>
          <path id="Path_1412" data-name="Path 1412" d="M5.8-1.04H.289V-2.745H5.8Zm8.685,6.132h-2.1V-8.832L8.172-7.285v-1.9l5.986-2.247h.328ZM20.866,4a1.308,1.308,0,0,1,.322-.9,1.226,1.226,0,0,1,.966-.361,1.263,1.263,0,0,1,.977.361,1.282,1.282,0,0,1,.333.9,1.212,1.212,0,0,1-.333.87,1.286,1.286,0,0,1-.977.35,1.248,1.248,0,0,1-.966-.35A1.236,1.236,0,0,1,20.866,4Zm12.694,1.1h-2.1V-8.832L27.247-7.285v-1.9l5.986-2.247h.328Zm12.988,0h-2.1V-8.832L40.234-7.285v-1.9L46.22-11.43h.328Z" transform="translate(1059.97 1760.43)" fill="#181818"/>
          <path id="Path_202" data-name="Path 202" d="M0,0H22.8V22.8H0Z" transform="translate(920.901 1746)" fill="none"/>
          <path id="Path_203" data-name="Path 203" d="M7.339,8.59l4.36,4.351L16.06,8.59,17.4,9.929l-5.7,5.7L6,9.929Z" transform="translate(920.601 1745.41)" fill="#8e8e8f"/>
          <path id="Path_1429" data-name="Path 1429" d="M8.584,10.213A3.015,3.015,0,0,1,5.9,8.584h2.68V7.653H5.6a2.927,2.927,0,0,1,0-.931H8.584V5.792H5.9a3.019,3.019,0,0,1,4.649-.9l.824-.824A4.182,4.182,0,0,0,4.638,5.792H3v.931H4.424a3.892,3.892,0,0,0,0,.931H3v.931H4.638a4.182,4.182,0,0,0,6.738,1.722l-.828-.824A2.981,2.981,0,0,1,8.584,10.213Z" transform="translate(919.897 1728)" fill="#8e8e8f"/>
          <path id="Path_1430" data-name="Path 1430" d="M14.286,17.578a6.1,6.1,0,0,1-5.418-3.292h5.418V12.405H8.248a5.916,5.916,0,0,1,0-1.881h6.038V8.643H8.869a6.1,6.1,0,0,1,9.4-1.815L19.93,5.163A8.452,8.452,0,0,0,6.311,8.643H3v1.881H5.878a7.866,7.866,0,0,0,0,1.881H3v1.881H6.311a8.452,8.452,0,0,0,13.619,3.48L18.256,16.1A6.025,6.025,0,0,1,14.286,17.578Z" transform="translate(1036.734 1746)" fill="#181818"/>
          <path id="Path_1434" data-name="Path 1434" d="M6.812,1.49a2.5,2.5,0,0,1-1.166.9,4.71,4.71,0,0,1-1.742.3A3.378,3.378,0,0,1,2.12,2.21,3.141,3.141,0,0,1,.914.869,4.632,4.632,0,0,1,.477-1.147v-.717a4.324,4.324,0,0,1,.867-2.88A3.02,3.02,0,0,1,3.78-5.766a3.12,3.12,0,0,1,2.072.658,2.866,2.866,0,0,1,.96,1.866H5.728A1.793,1.793,0,0,0,3.786-4.879a1.919,1.919,0,0,0-1.652.766A3.739,3.739,0,0,0,1.566-1.9v.672A3.5,3.5,0,0,0,2.2.979,2.05,2.05,0,0,0,3.91,1.8,3.779,3.779,0,0,0,4.977,1.66,1.65,1.65,0,0,0,5.734,1.2V-.638h-1.9v-.887H6.812ZM8.619,2.569V-5.653h2.688A3.12,3.12,0,0,1,13.32-5.1a1.994,1.994,0,0,1,.675,1.638,1.67,1.67,0,0,1-.328,1.019,2.123,2.123,0,0,1-.892.686,1.907,1.907,0,0,1,1.053.709A2.034,2.034,0,0,1,14.215.2,2.2,2.2,0,0,1,13.5,1.937a2.966,2.966,0,0,1-2.027.632ZM9.7-1.276V1.682h1.79a1.724,1.724,0,0,0,1.194-.392A1.378,1.378,0,0,0,13.125.209q0-1.485-1.615-1.485Zm0-.87h1.638A1.717,1.717,0,0,0,12.479-2.5a1.2,1.2,0,0,0,.426-.968,1.175,1.175,0,0,0-.4-.988,1.941,1.941,0,0,0-1.2-.308H9.7Zm7.2,1.5V2.569H15.819V-5.653h3.032a3.046,3.046,0,0,1,2.115.689,2.336,2.336,0,0,1,.765,1.824A2.3,2.3,0,0,1,20.983-1.3,3.183,3.183,0,0,1,18.84-.65Zm0-.887h1.948a1.948,1.948,0,0,0,1.333-.41,1.5,1.5,0,0,0,.463-1.185,1.549,1.549,0,0,0-.463-1.177,1.825,1.825,0,0,0-1.271-.458H16.9Zm6.014,3.557a.654.654,0,0,1,.161-.452.613.613,0,0,1,.483-.181.632.632,0,0,1,.488.181.641.641,0,0,1,.167.452.606.606,0,0,1-.167.435.643.643,0,0,1-.488.175.624.624,0,0,1-.483-.175A.618.618,0,0,1,22.917,2.021Zm.006-4.986a.654.654,0,0,1,.161-.452.613.613,0,0,1,.483-.181.632.632,0,0,1,.488.181.641.641,0,0,1,.167.452.606.606,0,0,1-.167.435.643.643,0,0,1-.488.175.624.624,0,0,1-.483-.175A.618.618,0,0,1,22.922-2.965ZM31.94,2.569H30.89V-4.393l-2.106.774v-.949l2.993-1.124h.164Zm3.19-.548a.654.654,0,0,1,.161-.452.613.613,0,0,1,.483-.181.632.632,0,0,1,.488.181.641.641,0,0,1,.167.452.606.606,0,0,1-.167.435.643.643,0,0,1-.488.175.624.624,0,0,1-.483-.175A.618.618,0,0,1,35.131,2.021ZM43.2-.938a4.778,4.778,0,0,1-.627,2.727,2.229,2.229,0,0,1-1.959.892,2.245,2.245,0,0,1-1.948-.872A4.535,4.535,0,0,1,38.011-.8V-2.191a4.671,4.671,0,0,1,.627-2.694A2.246,2.246,0,0,1,40.6-5.766a2.267,2.267,0,0,1,1.954.85A4.508,4.508,0,0,1,43.2-2.293ZM42.155-2.366A3.828,3.828,0,0,0,41.783-4.3a1.283,1.283,0,0,0-1.18-.607,1.266,1.266,0,0,0-1.169.6,3.737,3.737,0,0,0-.378,1.858V-.774a3.889,3.889,0,0,0,.387,1.968,1.28,1.28,0,0,0,1.172.635,1.263,1.263,0,0,0,1.149-.6,3.749,3.749,0,0,0,.392-1.886Z" transform="translate(1063.363 1736.766)" fill="#8e8e8f"/>
          <g transform="matrix(1, 0, 0, 1, 811, 1639)" filter="url(#Path_1420)">
            <path id="Path_1420-2" data-name="Path 1420" d="M12.8,0H134.194a12.8,12.8,0,0,1,0,25.606H12.8A12.8,12.8,0,0,1,12.8,0Z" transform="translate(108 156.72)" fill="#fff"/>
          </g>
          <path id="Path_259" data-name="Path 259" d="M0,0H25.791V25.791H0Z" transform="translate(919 1795.578)" fill="none"/>
          <path id="Path_260" data-name="Path 260" d="M14.251,2A12.251,12.251,0,1,0,26.5,14.251,12.255,12.255,0,0,0,14.251,2ZM7.513,10.576,11.8,6.288l4.288,4.288H13.026v4.9h-2.45v-4.9Zm13.476,7.35L16.7,22.214l-4.288-4.288h3.063v-4.9h2.45v4.9Z" transform="translate(917.645 1794.223)" fill="#0667eb"/>
          <path id="Path_1359" data-name="Path 1359" d="M0,0H15.475V15.475H0Z" transform="translate(953.146 1800.014)" fill="none"/>
          <path id="Path_1360" data-name="Path 1360" d="M11.027,6,12.5,7.477,9.357,10.623,6.778,8.044,2,12.828l.909.909L6.778,9.869l2.579,2.579,4.062-4.056L14.9,9.869V6Z" transform="translate(958.554 1798.549)" fill="#0667eb"/>
          <path id="Path_1428" data-name="Path 1428" d="M8.413,9.992a2.923,2.923,0,0,1-2.6-1.579h2.6v-.9h-2.9a2.837,2.837,0,0,1,0-.9h2.9v-.9h-2.6a2.926,2.926,0,0,1,4.506-.871l.8-.8A4.054,4.054,0,0,0,4.588,5.707H3v.9H4.38a3.773,3.773,0,0,0,0,.9H3v.9H4.588a4.054,4.054,0,0,0,6.532,1.669l-.8-.8A2.89,2.89,0,0,1,8.413,9.992Z" transform="translate(974.526 1801.549)" fill="#0667eb"/>
          <path id="Path_1431" data-name="Path 1431" d="M3.859-.171h-.98v-6.5L.913-5.947v-.885L3.706-7.881h.153Zm10.087-4.29h-4.4v-.848h4.4Zm0,2.187h-4.4v-.843h4.4Zm7.91.126a1.1,1.1,0,0,0-.34-.817,3.041,3.041,0,0,0-1.146-.6,3.675,3.675,0,0,1-1.636-.893,1.97,1.97,0,0,1-.514-1.4,2.026,2.026,0,0,1,.5-1.418,2.139,2.139,0,0,1,1.383-.659V-9.088h.785v1.159a2.031,2.031,0,0,1,1.378.743,2.671,2.671,0,0,1,.493,1.7h-.97a1.836,1.836,0,0,0-.353-1.184,1.16,1.16,0,0,0-.954-.439,1.316,1.316,0,0,0-.959.325,1.208,1.208,0,0,0-.332.905,1.1,1.1,0,0,0,.35.858,3.229,3.229,0,0,0,1.154.581,4.858,4.858,0,0,1,1.254.575,2.018,2.018,0,0,1,.664.73,2.11,2.11,0,0,1,.213.975A1.954,1.954,0,0,1,22.3-.724a2.372,2.372,0,0,1-1.5.643V.925h-.78V-.081a2.273,2.273,0,0,1-1.536-.7,2.356,2.356,0,0,1-.556-1.652H18.9A1.551,1.551,0,0,0,19.285-1.3a1.453,1.453,0,0,0,1.091.4,1.636,1.636,0,0,0,1.086-.332A1.121,1.121,0,0,0,21.857-2.147ZM29.92-.171h-.98v-6.5l-1.966.722v-.885l2.793-1.049h.153ZM32.9-.682a.611.611,0,0,1,.15-.422.572.572,0,0,1,.451-.169.589.589,0,0,1,.456.169.6.6,0,0,1,.155.422.566.566,0,0,1-.155.406.6.6,0,0,1-.456.163.582.582,0,0,1-.451-.163A.577.577,0,0,1,32.9-.682Zm7.747.511H35.617v-.7l2.656-2.951a6.311,6.311,0,0,0,.814-1.088,1.816,1.816,0,0,0,.224-.867,1.377,1.377,0,0,0-.364-.986,1.271,1.271,0,0,0-.97-.385,1.506,1.506,0,0,0-1.13.414,1.58,1.58,0,0,0-.4,1.152h-.975A2.263,2.263,0,0,1,36.152-7.3a2.53,2.53,0,0,1,1.826-.653,2.431,2.431,0,0,1,1.692.561,1.914,1.914,0,0,1,.622,1.494,4.389,4.389,0,0,1-1.444,2.7L36.792-.967h3.852Zm5.845-3.273A4.459,4.459,0,0,1,45.9-.9a2.08,2.08,0,0,1-1.829.833A2.1,2.1,0,0,1,42.257-.88a4.232,4.232,0,0,1-.611-2.432v-1.3a4.36,4.36,0,0,1,.585-2.514,2.1,2.1,0,0,1,1.834-.822,2.116,2.116,0,0,1,1.823.793,4.207,4.207,0,0,1,.6,2.448Zm-.975-1.333a3.572,3.572,0,0,0-.348-1.805,1.2,1.2,0,0,0-1.1-.567,1.181,1.181,0,0,0-1.091.564,3.488,3.488,0,0,0-.353,1.734v1.56a3.63,3.63,0,0,0,.361,1.837,1.2,1.2,0,0,0,1.094.593,1.179,1.179,0,0,0,1.072-.559,3.5,3.5,0,0,0,.366-1.76Z" transform="translate(986.713 1812.569)" fill="#0667eb"/>
          <path id="Path_1425" data-name="Path 1425" d="M.66,2.945V-5.277H3.348a3.12,3.12,0,0,1,2.013.553,1.994,1.994,0,0,1,.675,1.638,1.67,1.67,0,0,1-.328,1.019,2.123,2.123,0,0,1-.892.686,1.907,1.907,0,0,1,1.053.709A2.034,2.034,0,0,1,6.256.573a2.2,2.2,0,0,1-.717,1.739,2.966,2.966,0,0,1-2.027.632ZM1.744-.9V2.058h1.79a1.724,1.724,0,0,0,1.194-.392A1.378,1.378,0,0,0,5.166.585Q5.166-.9,3.551-.9Zm0-.87H3.382A1.717,1.717,0,0,0,4.52-2.127a1.2,1.2,0,0,0,.426-.968,1.175,1.175,0,0,0-.4-.988,1.941,1.941,0,0,0-1.2-.308h-1.6Zm9.724,4.715a2.194,2.194,0,0,1-.147-.644,2.331,2.331,0,0,1-1.739.757A2.157,2.157,0,0,1,8.1,2.547a1.653,1.653,0,0,1-.579-1.3A1.727,1.727,0,0,1,8.247-.231a3.421,3.421,0,0,1,2.041-.528H11.3v-.48a1.173,1.173,0,0,0-.328-.872,1.316,1.316,0,0,0-.966-.325,1.523,1.523,0,0,0-.937.282.832.832,0,0,0-.378.683H7.645a1.442,1.442,0,0,1,.325-.884,2.216,2.216,0,0,1,.881-.675,2.964,2.964,0,0,1,1.223-.248,2.415,2.415,0,0,1,1.655.528A1.9,1.9,0,0,1,12.349-1.3V1.516a3.438,3.438,0,0,0,.215,1.338v.09Zm-1.734-.8a1.836,1.836,0,0,0,.932-.254,1.537,1.537,0,0,0,.638-.661V-.02h-.819q-1.92,0-1.92,1.124a.951.951,0,0,0,.328.768A1.259,1.259,0,0,0,9.735,2.149Zm5.387.8H14.077V-5.728h1.045Zm5.443,0a2.194,2.194,0,0,1-.147-.644,2.331,2.331,0,0,1-1.739.757A2.157,2.157,0,0,1,17.2,2.547a1.653,1.653,0,0,1-.579-1.3,1.727,1.727,0,0,1,.726-1.482,3.421,3.421,0,0,1,2.041-.528H20.4v-.48a1.173,1.173,0,0,0-.328-.872,1.316,1.316,0,0,0-.966-.325,1.523,1.523,0,0,0-.937.282.832.832,0,0,0-.378.683h-1.05a1.442,1.442,0,0,1,.325-.884,2.216,2.216,0,0,1,.881-.675,2.964,2.964,0,0,1,1.223-.248,2.415,2.415,0,0,1,1.655.528A1.9,1.9,0,0,1,21.446-1.3V1.516a3.438,3.438,0,0,0,.215,1.338v.09Zm-1.734-.8a1.836,1.836,0,0,0,.932-.254,1.537,1.537,0,0,0,.638-.661V-.02h-.819q-1.92,0-1.92,1.124a.951.951,0,0,0,.328.768A1.259,1.259,0,0,0,18.831,2.149Zm5.24-5.314.034.768a2.226,2.226,0,0,1,1.83-.881q1.937,0,1.954,2.185V2.945H26.844V-1.1a1.407,1.407,0,0,0-.3-.977,1.211,1.211,0,0,0-.923-.316,1.508,1.508,0,0,0-.892.271,1.841,1.841,0,0,0-.6.711V2.945H23.084v-6.11Zm7.843,5.37a1.5,1.5,0,0,0,.977-.339,1.192,1.192,0,0,0,.463-.847h.988a1.894,1.894,0,0,1-.361,1,2.38,2.38,0,0,1-.889.757,2.566,2.566,0,0,1-1.177.282,2.517,2.517,0,0,1-1.985-.833,3.317,3.317,0,0,1-.737-2.278V-.229a3.678,3.678,0,0,1,.328-1.587,2.5,2.5,0,0,1,.94-1.079,2.671,2.671,0,0,1,1.448-.384,2.45,2.45,0,0,1,1.708.615,2.2,2.2,0,0,1,.726,1.6h-.988a1.44,1.44,0,0,0-.449-.974,1.4,1.4,0,0,0-1-.381,1.462,1.462,0,0,0-1.234.573,2.692,2.692,0,0,0-.438,1.657v.2a2.638,2.638,0,0,0,.435,1.626A1.469,1.469,0,0,0,31.915,2.205Zm6.138.853a2.67,2.67,0,0,1-2.022-.816A3.028,3.028,0,0,1,35.252.059V-.133A3.666,3.666,0,0,1,35.6-1.756a2.709,2.709,0,0,1,.971-1.118,2.442,2.442,0,0,1,1.352-.4,2.288,2.288,0,0,1,1.852.785,3.4,3.4,0,0,1,.661,2.247V.189H36.3a2.172,2.172,0,0,0,.528,1.46,1.66,1.66,0,0,0,1.285.556,1.819,1.819,0,0,0,.937-.226,2.355,2.355,0,0,0,.672-.6l.638.5A2.566,2.566,0,0,1,38.053,3.058Zm-.13-5.477a1.393,1.393,0,0,0-1.062.46,2.237,2.237,0,0,0-.531,1.29h3.061V-.748a1.99,1.99,0,0,0-.429-1.234A1.312,1.312,0,0,0,37.923-2.419ZM41.611,2.4a.654.654,0,0,1,.161-.452.613.613,0,0,1,.483-.181.632.632,0,0,1,.488.181.641.641,0,0,1,.167.452.606.606,0,0,1-.167.435.643.643,0,0,1-.488.175.624.624,0,0,1-.483-.175A.618.618,0,0,1,41.611,2.4Zm.006-4.986a.654.654,0,0,1,.161-.452.613.613,0,0,1,.483-.181.632.632,0,0,1,.488.181.641.641,0,0,1,.167.452.606.606,0,0,1-.167.435.643.643,0,0,1-.488.175.624.624,0,0,1-.483-.175A.618.618,0,0,1,41.616-2.589ZM51.351.827a1.176,1.176,0,0,0-.364-.875,3.258,3.258,0,0,0-1.228-.644,3.937,3.937,0,0,1-1.753-.957,2.111,2.111,0,0,1-.551-1.5,2.171,2.171,0,0,1,.539-1.519,2.292,2.292,0,0,1,1.482-.706V-6.609h.841v1.242a2.176,2.176,0,0,1,1.477.8,2.861,2.861,0,0,1,.528,1.824H51.283a1.967,1.967,0,0,0-.378-1.269,1.243,1.243,0,0,0-1.022-.47,1.41,1.41,0,0,0-1.028.348,1.3,1.3,0,0,0-.356.97,1.183,1.183,0,0,0,.376.919,3.459,3.459,0,0,0,1.237.622,5.206,5.206,0,0,1,1.344.616,2.162,2.162,0,0,1,.711.782A2.261,2.261,0,0,1,52.4.816a2.093,2.093,0,0,1-.573,1.536,2.541,2.541,0,0,1-1.607.689V4.119h-.836V3.041a2.435,2.435,0,0,1-1.646-.748,2.525,2.525,0,0,1-.6-1.77h1.045A1.662,1.662,0,0,0,48.6,1.731a1.556,1.556,0,0,0,1.169.424A1.753,1.753,0,0,0,50.928,1.8,1.2,1.2,0,0,0,51.351.827Zm5.777,2.118h-1.05V-4.018l-2.106.774v-.949l2.993-1.124h.164ZM65.344-.562a4.778,4.778,0,0,1-.627,2.727,2.229,2.229,0,0,1-1.959.892,2.245,2.245,0,0,1-1.948-.872,4.535,4.535,0,0,1-.655-2.606V-1.815a4.671,4.671,0,0,1,.627-2.694,2.246,2.246,0,0,1,1.965-.881,2.267,2.267,0,0,1,1.954.85,4.508,4.508,0,0,1,.644,2.623ZM64.3-1.99a3.828,3.828,0,0,0-.373-1.934,1.283,1.283,0,0,0-1.18-.607,1.266,1.266,0,0,0-1.169.6A3.737,3.737,0,0,0,61.2-2.069V-.4a3.889,3.889,0,0,0,.387,1.968,1.28,1.28,0,0,0,1.172.635,1.263,1.263,0,0,0,1.149-.6A3.749,3.749,0,0,0,64.3-.279Z" transform="translate(877.34 1857.494)" fill="#8e8e8f"/>
          <path id="Path_1426" data-name="Path 1426" d="M12.185-10.6V-.117a4.917,4.917,0,0,1-1.371,3.568,5.525,5.525,0,0,1-3.69,1.556l-.54.021A5.77,5.77,0,0,1,2.55,3.663,4.885,4.885,0,0,1,1.025-.1V-10.6H3.037V-.159a3.526,3.526,0,0,0,.921,2.6,3.54,3.54,0,0,0,2.626.926,3.564,3.564,0,0,0,2.642-.921,3.519,3.519,0,0,0,.916-2.594V-10.6Zm7.75,8.544A9.559,9.559,0,0,1,16.129-3.9a3.53,3.53,0,0,1-1.191-2.705,3.729,3.729,0,0,1,1.456-3.012,5.786,5.786,0,0,1,3.785-1.191,6.316,6.316,0,0,1,2.832.614A4.657,4.657,0,0,1,24.938-8.5a4.332,4.332,0,0,1,.683,2.361H23.577a2.819,2.819,0,0,0-.889-2.2,3.617,3.617,0,0,0-2.509-.8,3.7,3.7,0,0,0-2.345.663,2.211,2.211,0,0,0-.842,1.84,1.99,1.99,0,0,0,.8,1.6,7.841,7.841,0,0,0,2.721,1.193,12.625,12.625,0,0,1,3.007,1.192,4.563,4.563,0,0,1,1.609,1.519A3.878,3.878,0,0,1,25.652.9a3.6,3.6,0,0,1-1.461,3,6.23,6.23,0,0,1-3.907,1.128A7.246,7.246,0,0,1,17.32,4.42,4.989,4.989,0,0,1,15.2,2.752a4.07,4.07,0,0,1-.746-2.4h2.043a2.655,2.655,0,0,0,1.032,2.208,4.347,4.347,0,0,0,2.758.81,4,4,0,0,0,2.467-.656A2.132,2.132,0,0,0,23.609.921a2.093,2.093,0,0,0-.794-1.752A9.155,9.155,0,0,0,19.935-2.055Zm8.322,6.871V-10.6h4.352a7.005,7.005,0,0,1,3.557.889,6.015,6.015,0,0,1,2.388,2.53,8.236,8.236,0,0,1,.852,3.769v.985A8.265,8.265,0,0,1,38.564,1.4a5.921,5.921,0,0,1-2.4,2.52,7.451,7.451,0,0,1-3.637.9ZM30.29-8.937V3.155h2.139a4.653,4.653,0,0,0,3.658-1.462,6.042,6.042,0,0,0,1.308-4.165v-.9a6.138,6.138,0,0,0-1.233-4.085,4.389,4.389,0,0,0-3.5-1.478Z" transform="translate(877.001 1881.695)" fill="#181818"/>
          <path id="Path_202-2" data-name="Path 202" d="M0,0H22.8V22.8H0Z" transform="translate(916.563 1866.885)" fill="none"/>
          <path id="Path_203-2" data-name="Path 203" d="M7.339,8.59l4.36,4.351L16.06,8.59,17.4,9.929l-5.7,5.7L6,9.929Z" transform="translate(916.263 1866.295)" fill="#8e8e8f"/>
          <path id="Path_1432" data-name="Path 1432" d="M9.284,1.655A2.351,2.351,0,0,0,8.556-.1,6.516,6.516,0,0,0,6.1-1.383,7.874,7.874,0,0,1,2.593-3.3a4.222,4.222,0,0,1-1.1-3A4.341,4.341,0,0,1,2.57-9.334a4.583,4.583,0,0,1,2.965-1.412v-2.473H7.218v2.485a4.352,4.352,0,0,1,2.953,1.592,5.723,5.723,0,0,1,1.056,3.648H9.149a3.934,3.934,0,0,0-.757-2.538,2.486,2.486,0,0,0-2.044-.94,2.821,2.821,0,0,0-2.055.7,2.59,2.59,0,0,0-.711,1.94A2.366,2.366,0,0,0,4.332-4.5,6.919,6.919,0,0,0,6.805-3.253,10.411,10.411,0,0,1,9.493-2.021,4.324,4.324,0,0,1,10.916-.457a4.522,4.522,0,0,1,.457,2.089A4.187,4.187,0,0,1,10.227,4.7,5.083,5.083,0,0,1,7.014,6.082V8.239H5.343V6.082a4.87,4.87,0,0,1-3.292-1.5A5.049,5.049,0,0,1,.859,1.045H2.949a3.323,3.323,0,0,0,.824,2.417,3.113,3.113,0,0,0,2.338.847A3.507,3.507,0,0,0,8.437,3.6,2.4,2.4,0,0,0,9.284,1.655ZM20.171-2.93h4.585V-.954H20.171v5.2h-2.1v-5.2H13.486V-2.93h4.585v-4.8h2.1ZM33.949,5.89h-2.1V-8.035L27.636-6.488v-1.9l5.986-2.247h.328Zm6.381-1.1a1.308,1.308,0,0,1,.322-.9,1.226,1.226,0,0,1,.966-.361,1.263,1.263,0,0,1,.977.361,1.282,1.282,0,0,1,.333.9,1.212,1.212,0,0,1-.333.87,1.286,1.286,0,0,1-.977.35,1.248,1.248,0,0,1-.966-.35A1.236,1.236,0,0,1,40.33,4.794ZM49.2-3.348h1.57a3.45,3.45,0,0,0,2.326-.779,2.6,2.6,0,0,0,.847-2.044,2.55,2.55,0,0,0-2.88-2.891,3,3,0,0,0-2.163.774,2.708,2.708,0,0,0-.807,2.05H46a4.2,4.2,0,0,1,1.429-3.247,5.2,5.2,0,0,1,3.631-1.293,5.143,5.143,0,0,1,3.648,1.231,4.447,4.447,0,0,1,1.321,3.422,3.609,3.609,0,0,1-.695,2.078,4.194,4.194,0,0,1-1.892,1.5,4.041,4.041,0,0,1,2.095,1.423,3.952,3.952,0,0,1,.74,2.428,4.486,4.486,0,0,1-1.446,3.512,5.413,5.413,0,0,1-3.761,1.3A5.556,5.556,0,0,1,47.3,4.862a4.158,4.158,0,0,1-1.451-3.309h2.1A2.688,2.688,0,0,0,48.8,3.631a3.222,3.222,0,0,0,2.27.779,3.161,3.161,0,0,0,2.315-.791,3.047,3.047,0,0,0,.8-2.27,2.765,2.765,0,0,0-.881-2.2,3.838,3.838,0,0,0-2.541-.791H49.2Zm12.988,0h1.57a3.45,3.45,0,0,0,2.326-.779,2.6,2.6,0,0,0,.847-2.044,2.55,2.55,0,0,0-2.88-2.891,3,3,0,0,0-2.163.774,2.708,2.708,0,0,0-.807,2.05H58.987a4.2,4.2,0,0,1,1.429-3.247,5.2,5.2,0,0,1,3.631-1.293,5.143,5.143,0,0,1,3.648,1.231,4.447,4.447,0,0,1,1.321,3.422,3.609,3.609,0,0,1-.695,2.078,4.194,4.194,0,0,1-1.892,1.5,4.041,4.041,0,0,1,2.095,1.423,3.952,3.952,0,0,1,.74,2.428,4.486,4.486,0,0,1-1.446,3.512,5.413,5.413,0,0,1-3.761,1.3,5.556,5.556,0,0,1-3.766-1.254A4.158,4.158,0,0,1,58.84,1.553h2.1a2.688,2.688,0,0,0,.847,2.078,3.222,3.222,0,0,0,2.27.779,3.161,3.161,0,0,0,2.315-.791,3.047,3.047,0,0,0,.8-2.27,2.765,2.765,0,0,0-.881-2.2,3.838,3.838,0,0,0-2.541-.791h-1.57Z" transform="translate(1037.141 1880.104)" fill="#181818"/>
          <path id="Path_1435" data-name="Path 1435" d="M6.812,1.49a2.5,2.5,0,0,1-1.166.9,4.71,4.71,0,0,1-1.742.3A3.378,3.378,0,0,1,2.12,2.21,3.141,3.141,0,0,1,.914.869,4.632,4.632,0,0,1,.477-1.147v-.717a4.324,4.324,0,0,1,.867-2.88A3.02,3.02,0,0,1,3.78-5.766a3.12,3.12,0,0,1,2.072.658,2.866,2.866,0,0,1,.96,1.866H5.728A1.793,1.793,0,0,0,3.786-4.879a1.919,1.919,0,0,0-1.652.766A3.739,3.739,0,0,0,1.566-1.9v.672A3.5,3.5,0,0,0,2.2.979,2.05,2.05,0,0,0,3.91,1.8,3.779,3.779,0,0,0,4.977,1.66,1.65,1.65,0,0,0,5.734,1.2V-.638h-1.9v-.887H6.812ZM8.619,2.569V-5.653h2.688A3.12,3.12,0,0,1,13.32-5.1a1.994,1.994,0,0,1,.675,1.638,1.67,1.67,0,0,1-.328,1.019,2.123,2.123,0,0,1-.892.686,1.907,1.907,0,0,1,1.053.709A2.034,2.034,0,0,1,14.215.2,2.2,2.2,0,0,1,13.5,1.937a2.966,2.966,0,0,1-2.027.632ZM9.7-1.276V1.682h1.79a1.724,1.724,0,0,0,1.194-.392A1.378,1.378,0,0,0,13.125.209q0-1.485-1.615-1.485Zm0-.87h1.638A1.717,1.717,0,0,0,12.479-2.5a1.2,1.2,0,0,0,.426-.968,1.175,1.175,0,0,0-.4-.988,1.941,1.941,0,0,0-1.2-.308H9.7Zm7.2,1.5V2.569H15.819V-5.653h3.032a3.046,3.046,0,0,1,2.115.689,2.336,2.336,0,0,1,.765,1.824A2.3,2.3,0,0,1,20.983-1.3,3.183,3.183,0,0,1,18.84-.65Zm0-.887h1.948a1.948,1.948,0,0,0,1.333-.41,1.5,1.5,0,0,0,.463-1.185,1.549,1.549,0,0,0-.463-1.177,1.825,1.825,0,0,0-1.271-.458H16.9Zm6.014,3.557a.654.654,0,0,1,.161-.452.613.613,0,0,1,.483-.181.632.632,0,0,1,.488.181.641.641,0,0,1,.167.452.606.606,0,0,1-.167.435.643.643,0,0,1-.488.175.624.624,0,0,1-.483-.175A.618.618,0,0,1,22.917,2.021Zm.006-4.986a.654.654,0,0,1,.161-.452.613.613,0,0,1,.483-.181.632.632,0,0,1,.488.181.641.641,0,0,1,.167.452.606.606,0,0,1-.167.435.643.643,0,0,1-.488.175.624.624,0,0,1-.483-.175A.618.618,0,0,1,22.922-2.965ZM31.94,2.569H30.89V-4.393l-2.106.774v-.949l2.993-1.124h.164Zm3.19-.548a.654.654,0,0,1,.161-.452.613.613,0,0,1,.483-.181.632.632,0,0,1,.488.181.641.641,0,0,1,.167.452.606.606,0,0,1-.167.435.643.643,0,0,1-.488.175.624.624,0,0,1-.483-.175A.618.618,0,0,1,35.131,2.021ZM43.2-.938a4.778,4.778,0,0,1-.627,2.727,2.229,2.229,0,0,1-1.959.892,2.245,2.245,0,0,1-1.948-.872A4.535,4.535,0,0,1,38.011-.8V-2.191a4.671,4.671,0,0,1,.627-2.694A2.246,2.246,0,0,1,40.6-5.766a2.267,2.267,0,0,1,1.954.85A4.508,4.508,0,0,1,43.2-2.293ZM42.155-2.366A3.828,3.828,0,0,0,41.783-4.3a1.283,1.283,0,0,0-1.18-.607,1.266,1.266,0,0,0-1.169.6,3.737,3.737,0,0,0-.378,1.858V-.774a3.889,3.889,0,0,0,.387,1.968,1.28,1.28,0,0,0,1.172.635,1.263,1.263,0,0,0,1.149-.6,3.749,3.749,0,0,0,.392-1.886Z" transform="translate(1062.787 1856.651)" fill="#8e8e8f"/>
          <g transform="matrix(1, 0, 0, 1, 811, 1639)" filter="url(#Path_1416)">
            <path id="Path_1416-2" data-name="Path 1416" d="M14.753,0H171.5c8.148,0,14.753,8.289,14.753,18.514S179.652,37.029,171.5,37.029H14.753C6.605,37.029,0,28.739,0,18.514S6.605,0,14.753,0Z" transform="translate(88 308)" fill="#0667eb"/>
          </g>
          <path id="Path_1419" data-name="Path 1419" d="M6.023-2.886H2.1V.321H6.657V1.3H.908V-7.753H6.595v.976H2.1v2.915H6.023Zm4.2-.087L11.71-5.428h1.342L10.852-2.1,13.12,1.3H11.79L10.237-1.221,8.683,1.3H7.347L9.615-2.1l-2.2-3.325h1.33ZM16.843.482A1.656,1.656,0,0,0,17.919.109a1.312,1.312,0,0,0,.51-.932h1.088a2.085,2.085,0,0,1-.4,1.1,2.62,2.62,0,0,1-.979.833,2.825,2.825,0,0,1-1.3.311A2.77,2.77,0,0,1,14.659.5,3.651,3.651,0,0,1,13.848-2V-2.2a4.049,4.049,0,0,1,.36-1.746A2.746,2.746,0,0,1,15.243-5.13a2.94,2.94,0,0,1,1.594-.423,2.7,2.7,0,0,1,1.88.677,2.421,2.421,0,0,1,.8,1.759H18.428a1.585,1.585,0,0,0-.494-1.072,1.537,1.537,0,0,0-1.1-.42,1.609,1.609,0,0,0-1.358.631A2.963,2.963,0,0,0,15-2.153v.218a2.9,2.9,0,0,0,.479,1.79A1.617,1.617,0,0,0,16.843.482Zm5.115-5.1a2.445,2.445,0,0,1,1.989-.938q2.132,0,2.15,2.405V1.3h-1.15v-4.45a1.548,1.548,0,0,0-.333-1.075A1.333,1.333,0,0,0,23.6-4.577a1.659,1.659,0,0,0-.982.3,2.026,2.026,0,0,0-.659.783V1.3h-1.15V-8.25h1.15ZM31.971,1.3a2.415,2.415,0,0,1-.162-.709,2.565,2.565,0,0,1-1.914.833A2.374,2.374,0,0,1,28.264.858a1.82,1.82,0,0,1-.637-1.426,1.9,1.9,0,0,1,.8-1.631,3.765,3.765,0,0,1,2.247-.581h1.119v-.528a1.291,1.291,0,0,0-.36-.96,1.449,1.449,0,0,0-1.063-.357,1.677,1.677,0,0,0-1.032.311.916.916,0,0,0-.416.752H27.763a1.587,1.587,0,0,1,.357-.973,2.439,2.439,0,0,1,.97-.743,3.262,3.262,0,0,1,1.346-.273,2.659,2.659,0,0,1,1.821.581,2.1,2.1,0,0,1,.684,1.6v3.1A3.784,3.784,0,0,0,33.177,1.2v.1ZM30.063.42A2.021,2.021,0,0,0,31.088.14a1.692,1.692,0,0,0,.7-.727v-1.38h-.9q-2.113,0-2.113,1.237a1.047,1.047,0,0,0,.36.845A1.386,1.386,0,0,0,30.063.42ZM35.83-5.428l.037.845a2.451,2.451,0,0,1,2.014-.97q2.132,0,2.15,2.405V1.3h-1.15v-4.45a1.548,1.548,0,0,0-.333-1.075,1.333,1.333,0,0,0-1.016-.348,1.659,1.659,0,0,0-.982.3,2.026,2.026,0,0,0-.659.783V1.3h-1.15V-5.428Zm5.662,3.306a3.952,3.952,0,0,1,.727-2.5,2.326,2.326,0,0,1,1.927-.929,2.313,2.313,0,0,1,1.92.87l.056-.746h1.05V1.135A2.736,2.736,0,0,1,46.4,3.192a2.855,2.855,0,0,1-2.079.752A3.459,3.459,0,0,1,42.9,3.633a2.45,2.45,0,0,1-1.063-.851l.6-.69a2.248,2.248,0,0,0,1.809.914,1.762,1.762,0,0,0,1.308-.472,1.805,1.805,0,0,0,.469-1.33V.625a2.363,2.363,0,0,1-1.883.8A2.3,2.3,0,0,1,42.223.47,4.156,4.156,0,0,1,41.492-2.122Zm1.156.131A3.015,3.015,0,0,0,43.115-.2,1.515,1.515,0,0,0,44.42.445a1.684,1.684,0,0,0,1.6-.988v-3.07a1.7,1.7,0,0,0-1.585-.963,1.528,1.528,0,0,0-1.311.653A3.284,3.284,0,0,0,42.648-1.991ZM51.7,1.421a2.938,2.938,0,0,1-2.225-.9,3.333,3.333,0,0,1-.858-2.4v-.211A4.035,4.035,0,0,1,49-3.878a2.982,2.982,0,0,1,1.069-1.231,2.688,2.688,0,0,1,1.489-.444,2.519,2.519,0,0,1,2.039.864,3.74,3.74,0,0,1,.727,2.474v.479H49.765A2.39,2.39,0,0,0,50.346-.13,1.827,1.827,0,0,0,51.76.482,2,2,0,0,0,52.792.234a2.592,2.592,0,0,0,.74-.659l.7.547A2.824,2.824,0,0,1,51.7,1.421Zm-.143-6.029a1.534,1.534,0,0,0-1.168.507,2.462,2.462,0,0,0-.584,1.42h3.369v-.087A2.19,2.19,0,0,0,52.7-4.126,1.444,1.444,0,0,0,51.555-4.608Z" transform="translate(964.606 1967.979)" fill="#fff"/>
        </g>
      </g>
    </g>
  </g>
</svg>
