<svg xmlns="http://www.w3.org/2000/svg" xmlns:xlink="http://www.w3.org/1999/xlink" width="372.338" height="400.674" viewBox="0 0 372.338 400.674">
  <defs>
    <filter id="Rectangle_791" x="42.664" y="0" width="277" height="387" filterUnits="userSpaceOnUse">
      <feOffset dy="3" input="SourceAlpha"/>
      <feGaussianBlur stdDeviation="3" result="blur"/>
      <feFlood flood-opacity="0.161"/>
      <feComposite operator="in" in2="blur"/>
      <feComposite in="SourceGraphic"/>
    </filter>
    <filter id="Rectangle_792" x="0" y="37" width="363" height="273" filterUnits="userSpaceOnUse">
      <feOffset dy="5" input="SourceAlpha"/>
      <feGaussianBlur stdDeviation="10" result="blur-2"/>
      <feFlood flood-opacity="0.161"/>
      <feComposite operator="in" in2="blur-2"/>
      <feComposite in="SourceGraphic"/>
    </filter>
    <filter id="Path_1420" x="98.997" y="150.72" width="165" height="43.606" filterUnits="userSpaceOnUse">
      <feOffset dy="3" input="SourceAlpha"/>
      <feGaussianBlur stdDeviation="3" result="blur-3"/>
      <feFlood flood-opacity="0.161"/>
      <feComposite operator="in" in2="blur-3"/>
      <feComposite in="SourceGraphic"/>
    </filter>
    <filter id="Path_1416" x="80.5" y="305.5" width="201.253" height="52.029" filterUnits="userSpaceOnUse">
      <feOffset dy="5" input="SourceAlpha"/>
      <feGaussianBlur stdDeviation="2.5" result="blur-4"/>
      <feFlood flood-color="#c9defb"/>
      <feComposite operator="in" in2="blur-4"/>
      <feComposite in="SourceGraphic"/>
    </filter>
  </defs>
  <g id="Group_7455" data-name="Group 7455" transform="translate(-655.336 -4825)">
    <g id="Group_6905" data-name="Group 6905" transform="translate(-155.664 3222)">
      <circle id="Ellipse_54" data-name="Ellipse 54" cx="184.837" cy="184.837" r="184.837" transform="translate(813.664 1634)" fill="#0667eb"/>
      <g id="Group_6904" data-name="Group 6904" transform="translate(0 -36)">
        <g id="Group_6903" data-name="Group 6903">
          <g transform="matrix(1, 0, 0, 1, 811, 1639)" filter="url(#Rectangle_791)">
            <rect id="Rectangle_791-2" data-name="Rectangle 791" width="259" height="369" rx="5" transform="translate(51.66 6)" fill="#fff"/>
          </g>
          <g transform="matrix(1, 0, 0, 1, 811, 1639)" filter="url(#Rectangle_792)">
            <rect id="Rectangle_792-2" data-name="Rectangle 792" width="303" height="213" rx="5" transform="translate(30 62)" fill="#fff"/>
          </g>
          <path id="Rectangle_793" data-name="Rectangle 793" d="M0,0H303V104a5,5,0,0,1-5,5H5a5,5,0,0,1-5-5Z" transform="translate(841 1808)" fill="#f6f6f6"/>
          <path id="Path_1422" data-name="Path 1422" d="M41.608,2.122a.654.654,0,0,1,.161-.452.613.613,0,0,1,.483-.181.632.632,0,0,1,.488.181.641.641,0,0,1,.167.452.606.606,0,0,1-.167.435.643.643,0,0,1-.488.175.624.624,0,0,1-.483-.175.618.618,0,0,1-.158-.431Zm.006-4.986a.654.654,0,0,1,.161-.452.613.613,0,0,1,.483-.181.632.632,0,0,1,.488.181.641.641,0,0,1,.167.452.606.606,0,0,1-.167.435.643.643,0,0,1-.488.175.624.624,0,0,1-.483-.175.618.618,0,0,1-.159-.431ZM59.223,2.673h-1.05V-4.289l-2.106.774v-.949L59.06-5.588h.164ZM67.439-.833a4.778,4.778,0,0,1-.627,2.727,2.229,2.229,0,0,1-1.959.892A2.245,2.245,0,0,1,62.9,1.914a4.535,4.535,0,0,1-.65-2.606V-2.087a4.671,4.671,0,0,1,.627-2.694,2.246,2.246,0,0,1,1.965-.881,2.267,2.267,0,0,1,1.954.85,4.508,4.508,0,0,1,.644,2.623ZM66.394-2.262A3.828,3.828,0,0,0,66.022-4.2a1.283,1.283,0,0,0-1.18-.607,1.266,1.266,0,0,0-1.169.6A3.737,3.737,0,0,0,63.3-2.349v1.68A3.889,3.889,0,0,0,63.681,1.3a1.28,1.28,0,0,0,1.172.635A1.263,1.263,0,0,0,66,1.335a3.748,3.748,0,0,0,.392-1.886Z" transform="translate(869.34 1737)" fill="#8e8e8f"/>
          <path id="Path_1424" data-name="Path 1424" d="M9.951-2.374H3.271V3.089h7.761V4.752H1.238V-10.664h9.688V-9H3.271v4.966h6.68Zm14.463-8.29V-.182a4.917,4.917,0,0,1-1.371,3.568,5.525,5.525,0,0,1-3.69,1.556l-.54.021A5.77,5.77,0,0,1,14.779,3.6,4.885,4.885,0,0,1,13.255-.161v-10.5h2.012V-.225a3.526,3.526,0,0,0,.921,2.6,3.54,3.54,0,0,0,2.626.926,3.564,3.564,0,0,0,2.642-.921,3.519,3.519,0,0,0,.916-2.594v-10.45Zm8.862,9.18H29.655V4.752H27.612V-10.664h5.1a6.04,6.04,0,0,1,4.007,1.186,4.266,4.266,0,0,1,1.4,3.452,4.15,4.15,0,0,1-.778,2.509,4.645,4.645,0,0,1-2.165,1.6L38.8,4.625v.127H36.622ZM29.655-3.147h3.123a3.523,3.523,0,0,0,2.409-.785,2.654,2.654,0,0,0,.9-2.1,2.8,2.8,0,0,0-.852-2.2A3.609,3.609,0,0,0,32.768-9H29.655Z" transform="translate(877.096 1760.664)" fill="#181818"/>
          <path id="Path_1412" data-name="Path 1412" d="M5.8-1.04H.289v-1.7H5.8Zm8.685,6.132h-2.1V-8.832L8.172-7.285v-1.9l5.986-2.247h.328ZM20.866,4a1.308,1.308,0,0,1,.322-.9,1.226,1.226,0,0,1,.966-.361,1.263,1.263,0,0,1,.977.361,1.282,1.282,0,0,1,.333.9,1.212,1.212,0,0,1-.333.87,1.286,1.286,0,0,1-.977.35,1.248,1.248,0,0,1-.966-.35A1.236,1.236,0,0,1,20.866,4ZM33.56,5.1h-2.1V-8.832L27.247-7.285v-1.9l5.986-2.247h.328Zm12.988,0h-2.1V-8.832L40.234-7.285v-1.9L46.22-11.43h.328Z" transform="translate(1059.97 1760.43)" fill="#181818"/>
          <path id="Path_202" data-name="Path 202" d="M0,0H22.8V22.8H0Z" transform="translate(920.901 1746)" fill="none"/>
          <path id="Path_203" data-name="Path 203" d="M7.339,8.59l4.36,4.351L16.06,8.59,17.4,9.929l-5.7,5.7L6,9.929Z" transform="translate(920.601 1745.41)" fill="#8e8e8f"/>
          <path id="Path_1429" data-name="Path 1429" d="M8.584,10.213A3.015,3.015,0,0,1,5.9,8.584H8.58V7.653H5.6a2.927,2.927,0,0,1,0-.931H8.584v-.93H5.9a3.019,3.019,0,0,1,4.649-.9l.824-.824A4.182,4.182,0,0,0,4.638,5.792H3v.931H4.424a3.892,3.892,0,0,0,0,.931H3v.931H4.638a4.182,4.182,0,0,0,6.738,1.722l-.828-.824a2.981,2.981,0,0,1-1.964.73Z" transform="translate(911.897 1728)" fill="#8e8e8f"/>
          <path id="Path_1430" data-name="Path 1430" d="M14.286,17.578a6.1,6.1,0,0,1-5.418-3.292h5.418V12.4H8.248a5.916,5.916,0,0,1,0-1.881h6.038V8.643H8.869a6.1,6.1,0,0,1,9.4-1.815L19.93,5.163A8.452,8.452,0,0,0,6.311,8.643H3v1.881H5.878a7.866,7.866,0,0,0,0,1.881H3v1.881H6.311a8.452,8.452,0,0,0,13.619,3.48L18.256,16.1A6.025,6.025,0,0,1,14.286,17.578Z" transform="translate(1036.734 1746)" fill="#181818"/>
          <path id="Path_1434" data-name="Path 1434" d="M6.812,1.49a2.5,2.5,0,0,1-1.166.9,4.71,4.71,0,0,1-1.742.3A3.378,3.378,0,0,1,2.12,2.21,3.141,3.141,0,0,1,.914.869,4.632,4.632,0,0,1,.477-1.147v-.717a4.324,4.324,0,0,1,.867-2.88A3.02,3.02,0,0,1,3.78-5.766a3.12,3.12,0,0,1,2.072.658,2.866,2.866,0,0,1,.96,1.866H5.728A1.793,1.793,0,0,0,5.1-4.464a1.793,1.793,0,0,0-1.311-.415,1.919,1.919,0,0,0-1.652.766A3.739,3.739,0,0,0,1.566-1.9v.672A3.5,3.5,0,0,0,2.2.979,2.05,2.05,0,0,0,3.91,1.8a3.779,3.779,0,0,0,1.067-.14,1.65,1.65,0,0,0,.757-.46V-.638h-1.9v-.887H6.812ZM8.619,2.569V-5.653h2.688A3.12,3.12,0,0,1,13.32-5.1,1.994,1.994,0,0,1,14-3.462a1.67,1.67,0,0,1-.328,1.019,2.123,2.123,0,0,1-.892.686,1.907,1.907,0,0,1,1.053.709A2.034,2.034,0,0,1,14.215.2,2.2,2.2,0,0,1,13.5,1.937a2.966,2.966,0,0,1-2.027.632ZM9.7-1.276V1.682h1.79a1.724,1.724,0,0,0,1.194-.392A1.378,1.378,0,0,0,13.125.209q0-1.485-1.615-1.485Zm0-.87h1.638A1.717,1.717,0,0,0,12.479-2.5a1.2,1.2,0,0,0,.426-.968,1.175,1.175,0,0,0-.4-.988,1.941,1.941,0,0,0-1.2-.308H9.7Zm7.2,1.5V2.569H15.819V-5.653h3.032a3.046,3.046,0,0,1,2.115.689,2.336,2.336,0,0,1,.765,1.824,2.3,2.3,0,0,1-.748,1.84,3.183,3.183,0,0,1-2.143.65Zm0-.887h1.948a1.948,1.948,0,0,0,1.333-.41,1.5,1.5,0,0,0,.463-1.185A1.549,1.549,0,0,0,20.181-4.3a1.825,1.825,0,0,0-1.271-.458H16.9Zm6.014,3.557a.654.654,0,0,1,.161-.452.613.613,0,0,1,.483-.181.632.632,0,0,1,.488.181.641.641,0,0,1,.167.452.606.606,0,0,1-.167.435.643.643,0,0,1-.488.175.624.624,0,0,1-.483-.175.618.618,0,0,1-.158-.438Zm.006-4.986a.654.654,0,0,1,.161-.452.613.613,0,0,1,.483-.181.632.632,0,0,1,.488.181.641.641,0,0,1,.167.452.606.606,0,0,1-.167.435.643.643,0,0,1-.488.175.624.624,0,0,1-.483-.175.618.618,0,0,1-.159-.438Zm9.02,5.531H30.89V-4.393l-2.106.774v-.949l2.993-1.124h.164Zm3.19-.548a.654.654,0,0,1,.161-.452.613.613,0,0,1,.483-.181.632.632,0,0,1,.488.181.641.641,0,0,1,.167.452.606.606,0,0,1-.167.435.643.643,0,0,1-.488.175.624.624,0,0,1-.483-.175.618.618,0,0,1-.16-.435ZM43.2-.938a4.778,4.778,0,0,1-.627,2.727,2.229,2.229,0,0,1-1.959.892,2.245,2.245,0,0,1-1.948-.872A4.535,4.535,0,0,1,38.011-.8V-2.191a4.671,4.671,0,0,1,.627-2.694A2.246,2.246,0,0,1,40.6-5.766a2.267,2.267,0,0,1,1.954.85A4.508,4.508,0,0,1,43.2-2.293ZM42.155-2.366A3.828,3.828,0,0,0,41.783-4.3a1.283,1.283,0,0,0-1.18-.607,1.266,1.266,0,0,0-1.169.6,3.737,3.737,0,0,0-.378,1.858V-.774a3.889,3.889,0,0,0,.387,1.968,1.28,1.28,0,0,0,1.172.635,1.263,1.263,0,0,0,1.149-.6,3.749,3.749,0,0,0,.392-1.886Z" transform="translate(1063.363 1736.766)" fill="#8e8e8f"/>
          <g transform="matrix(1, 0, 0, 1, 811, 1639)" filter="url(#Path_1420)">
            <path id="Path_1420-2" data-name="Path 1420" d="M12.8,0H134.194a12.8,12.8,0,1,1,0,25.606H12.8A12.8,12.8,0,1,1,12.8,0Z" transform="translate(108 156.72)" fill="#fff"/>
          </g>
          <path id="Path_259" data-name="Path 259" d="M0,0H25.791V25.791H0Z" transform="translate(919 1795.578)" fill="none"/>
          <path id="Path_260" data-name="Path 260" d="M14.251,2A12.251,12.251,0,1,0,26.5,14.25,12.251,12.251,0,0,0,14.251,2ZM7.513,10.576,11.8,6.288l4.288,4.288H13.026v4.9h-2.45v-4.9Zm13.476,7.35L16.7,22.214l-4.288-4.288h3.063v-4.9h2.45v4.9Z" transform="translate(917.645 1794.223)" fill="#0667eb"/>
          <path id="Path_1359" data-name="Path 1359" d="M0,0H15.475V15.475H0Z" transform="translate(953.146 1800.014)" fill="none"/>
          <path id="Path_1360" data-name="Path 1360" d="M11.027,6,12.5,7.477,9.357,10.623,6.778,8.044,2,12.828l.909.909L6.778,9.869l2.579,2.579,4.062-4.056L14.9,9.869V6Z" transform="translate(958.554 1798.549)" fill="#0667eb"/>
          <path id="Path_1428" data-name="Path 1428" d="M8.413,9.992a2.923,2.923,0,0,1-2.6-1.579h2.6v-.9h-2.9a2.837,2.837,0,0,1,0-.9h2.9v-.9h-2.6a2.926,2.926,0,0,1,4.506-.871l.8-.8A4.054,4.054,0,0,0,4.588,5.707H3v.9H4.38a3.773,3.773,0,0,0,0,.9H3v.9H4.588a4.054,4.054,0,0,0,6.532,1.669l-.8-.8A2.89,2.89,0,0,1,8.413,9.992Z" transform="translate(974.526 1801.549)" fill="#0667eb"/>
          <path id="Path_1431" data-name="Path 1431" d="M3.859-.171h-.98v-6.5L.913-5.947v-.885L3.706-7.881h.153Zm10.087-4.29h-4.4v-.848h4.4Zm0,2.187h-4.4v-.843h4.4Zm7.91.126a1.1,1.1,0,0,0-.34-.817,3.041,3.041,0,0,0-1.146-.6,3.675,3.675,0,0,1-1.636-.893,1.97,1.97,0,0,1-.514-1.4,2.026,2.026,0,0,1,.5-1.418A2.139,2.139,0,0,1,20.1-7.935V-9.088h.785v1.159a2.031,2.031,0,0,1,1.378.743,2.671,2.671,0,0,1,.493,1.7h-.97a1.836,1.836,0,0,0-.353-1.184,1.16,1.16,0,0,0-.954-.439,1.316,1.316,0,0,0-.959.325,1.208,1.208,0,0,0-.332.905,1.1,1.1,0,0,0,.35.858,3.229,3.229,0,0,0,1.154.581,4.858,4.858,0,0,1,1.254.575,2.018,2.018,0,0,1,.664.73,2.11,2.11,0,0,1,.213.975A1.954,1.954,0,0,1,22.3-.724a2.372,2.372,0,0,1-1.5.643V.925h-.78V-.081a2.273,2.273,0,0,1-1.536-.7,2.356,2.356,0,0,1-.556-1.652H18.9A1.551,1.551,0,0,0,19.285-1.3a1.453,1.453,0,0,0,1.091.4,1.636,1.636,0,0,0,1.086-.332,1.121,1.121,0,0,0,.4-.915ZM29.92-.171h-.98v-6.5l-1.966.722v-.885l2.793-1.049h.153ZM32.9-.682a.611.611,0,0,1,.15-.422.572.572,0,0,1,.451-.169.589.589,0,0,1,.456.169.6.6,0,0,1,.155.422.566.566,0,0,1-.155.406.6.6,0,0,1-.456.163.582.582,0,0,1-.451-.163A.577.577,0,0,1,32.9-.682Zm7.747.511h-5.03v-.7l2.656-2.951a6.311,6.311,0,0,0,.814-1.088,1.816,1.816,0,0,0,.224-.867,1.377,1.377,0,0,0-.364-.986,1.271,1.271,0,0,0-.97-.385,1.506,1.506,0,0,0-1.13.414,1.58,1.58,0,0,0-.4,1.152h-.975a2.263,2.263,0,0,1,.68-1.718,2.53,2.53,0,0,1,1.826-.653,2.431,2.431,0,0,1,1.692.561A1.914,1.914,0,0,1,40.292-5.9a4.389,4.389,0,0,1-1.444,2.7L36.792-.967h3.852Zm5.845-3.273A4.459,4.459,0,0,1,45.9-.9a2.08,2.08,0,0,1-1.829.833A2.1,2.1,0,0,1,42.257-.88a4.232,4.232,0,0,1-.611-2.432v-1.3a4.36,4.36,0,0,1,.585-2.514,2.1,2.1,0,0,1,1.834-.822,2.116,2.116,0,0,1,1.823.793,4.207,4.207,0,0,1,.6,2.448Zm-.975-1.333a3.572,3.572,0,0,0-.348-1.8,1.2,1.2,0,0,0-1.1-.567,1.181,1.181,0,0,0-1.091.564,3.488,3.488,0,0,0-.353,1.734v1.56a3.63,3.63,0,0,0,.361,1.837,1.2,1.2,0,0,0,1.094.593,1.179,1.179,0,0,0,1.072-.559,3.5,3.5,0,0,0,.366-1.76Z" transform="translate(986.713 1812.569)" fill="#0667eb"/>
          <path id="Path_1425" data-name="Path 1425" d="M41.611,2.4a.654.654,0,0,1,.161-.452.613.613,0,0,1,.483-.181.632.632,0,0,1,.488.181.641.641,0,0,1,.167.452.606.606,0,0,1-.167.435.643.643,0,0,1-.488.175.624.624,0,0,1-.483-.175A.618.618,0,0,1,41.611,2.4Zm.006-4.986a.654.654,0,0,1,.161-.452.613.613,0,0,1,.483-.181.632.632,0,0,1,.488.181.641.641,0,0,1,.167.452.606.606,0,0,1-.167.435.643.643,0,0,1-.488.175.624.624,0,0,1-.483-.175.618.618,0,0,1-.162-.438ZM51.351.827a1.176,1.176,0,0,0-.364-.875,3.258,3.258,0,0,0-1.228-.644,3.937,3.937,0,0,1-1.753-.957,2.111,2.111,0,0,1-.551-1.5,2.171,2.171,0,0,1,.539-1.519,2.292,2.292,0,0,1,1.482-.706V-6.609h.841v1.242a2.176,2.176,0,0,1,1.477.8,2.861,2.861,0,0,1,.528,1.824H51.283a1.967,1.967,0,0,0-.378-1.269,1.243,1.243,0,0,0-1.022-.47,1.41,1.41,0,0,0-1.028.348,1.3,1.3,0,0,0-.356.97,1.183,1.183,0,0,0,.376.919,3.459,3.459,0,0,0,1.237.622,5.206,5.206,0,0,1,1.344.616,2.162,2.162,0,0,1,.711.782A2.261,2.261,0,0,1,52.4.816a2.093,2.093,0,0,1-.573,1.536,2.541,2.541,0,0,1-1.607.689V4.119h-.836V3.041a2.435,2.435,0,0,1-1.646-.748,2.525,2.525,0,0,1-.6-1.77h1.045A1.662,1.662,0,0,0,48.6,1.731a1.556,1.556,0,0,0,1.169.424A1.753,1.753,0,0,0,50.928,1.8a1.2,1.2,0,0,0,.423-.973Zm5.777,2.118h-1.05V-4.018l-2.106.774v-.949l2.993-1.124h.164ZM65.344-.562a4.778,4.778,0,0,1-.627,2.727,2.229,2.229,0,0,1-1.959.892,2.245,2.245,0,0,1-1.948-.872,4.535,4.535,0,0,1-.655-2.606V-1.815a4.671,4.671,0,0,1,.627-2.694,2.246,2.246,0,0,1,1.965-.881,2.267,2.267,0,0,1,1.954.85,4.508,4.508,0,0,1,.644,2.623ZM64.3-1.99a3.828,3.828,0,0,0-.373-1.934,1.283,1.283,0,0,0-1.18-.607,1.266,1.266,0,0,0-1.169.6A3.737,3.737,0,0,0,61.2-2.069V-.4a3.889,3.889,0,0,0,.387,1.968,1.28,1.28,0,0,0,1.172.635,1.263,1.263,0,0,0,1.149-.6A3.749,3.749,0,0,0,64.3-.279Z" transform="translate(869.34 1857.494)" fill="#8e8e8f"/>
          <path id="Path_1426" data-name="Path 1426" d="M12.185-10.6V-.117a4.917,4.917,0,0,1-1.371,3.568,5.525,5.525,0,0,1-3.69,1.556l-.54.021A5.77,5.77,0,0,1,2.55,3.663,4.885,4.885,0,0,1,1.025-.1V-10.6H3.037V-.159a3.526,3.526,0,0,0,.921,2.6,3.54,3.54,0,0,0,2.626.926,3.564,3.564,0,0,0,2.642-.921,3.519,3.519,0,0,0,.916-2.594V-10.6Zm7.75,8.544A9.559,9.559,0,0,1,16.129-3.9a3.53,3.53,0,0,1-1.191-2.705,3.729,3.729,0,0,1,1.456-3.012,5.786,5.786,0,0,1,3.785-1.191,6.316,6.316,0,0,1,2.832.614A4.657,4.657,0,0,1,24.938-8.5a4.332,4.332,0,0,1,.683,2.361H23.577a2.819,2.819,0,0,0-.889-2.2,3.617,3.617,0,0,0-2.509-.8,3.7,3.7,0,0,0-2.345.663,2.211,2.211,0,0,0-.842,1.84,1.99,1.99,0,0,0,.8,1.6,7.841,7.841,0,0,0,2.721,1.193A12.625,12.625,0,0,1,23.52-2.651a4.563,4.563,0,0,1,1.609,1.519A3.878,3.878,0,0,1,25.652.9a3.6,3.6,0,0,1-1.461,3,6.23,6.23,0,0,1-3.907,1.128A7.246,7.246,0,0,1,17.32,4.42,4.989,4.989,0,0,1,15.2,2.752a4.07,4.07,0,0,1-.746-2.4H16.5A2.655,2.655,0,0,0,17.529,2.56a4.347,4.347,0,0,0,2.758.81,4,4,0,0,0,2.467-.656A2.132,2.132,0,0,0,23.609.921a2.093,2.093,0,0,0-.794-1.752,9.155,9.155,0,0,0-2.88-1.224Zm8.322,6.871V-10.6h4.352a7.005,7.005,0,0,1,3.557.889,6.015,6.015,0,0,1,2.388,2.53,8.236,8.236,0,0,1,.852,3.769v.985A8.265,8.265,0,0,1,38.564,1.4a5.921,5.921,0,0,1-2.4,2.52,7.451,7.451,0,0,1-3.637.9ZM30.29-8.937V3.155h2.139a4.653,4.653,0,0,0,3.658-1.462A6.042,6.042,0,0,0,37.4-2.472v-.9a6.138,6.138,0,0,0-1.233-4.085,4.389,4.389,0,0,0-3.5-1.478Z" transform="translate(877.001 1881.695)" fill="#181818"/>
          <path id="Path_202-2" data-name="Path 202" d="M0,0H22.8V22.8H0Z" transform="translate(916.563 1866.885)" fill="none"/>
          <path id="Path_203-2" data-name="Path 203" d="M7.339,8.59l4.36,4.351L16.06,8.59,17.4,9.929l-5.7,5.7L6,9.929Z" transform="translate(916.263 1866.295)" fill="#8e8e8f"/>
          <path id="Path_1432" data-name="Path 1432" d="M9.284,1.655A2.351,2.351,0,0,0,8.556-.1,6.516,6.516,0,0,0,6.1-1.383,7.874,7.874,0,0,1,2.593-3.3a4.222,4.222,0,0,1-1.1-3A4.341,4.341,0,0,1,2.57-9.334a4.583,4.583,0,0,1,2.965-1.412v-2.473H7.218v2.485a4.352,4.352,0,0,1,2.953,1.592,5.723,5.723,0,0,1,1.056,3.648H9.149a3.934,3.934,0,0,0-.757-2.538,2.486,2.486,0,0,0-2.044-.94,2.821,2.821,0,0,0-2.055.7,2.59,2.59,0,0,0-.711,1.94A2.366,2.366,0,0,0,4.332-4.5,6.919,6.919,0,0,0,6.805-3.253,10.411,10.411,0,0,1,9.493-2.021,4.324,4.324,0,0,1,10.916-.457a4.522,4.522,0,0,1,.457,2.089A4.187,4.187,0,0,1,10.227,4.7,5.083,5.083,0,0,1,7.014,6.082V8.239H5.343V6.082a4.87,4.87,0,0,1-3.292-1.5A5.049,5.049,0,0,1,.859,1.045h2.09a3.323,3.323,0,0,0,.824,2.417,3.113,3.113,0,0,0,2.338.847A3.507,3.507,0,0,0,8.437,3.6a2.4,2.4,0,0,0,.847-1.945ZM20.171-2.93h4.585V-.954H20.171v5.2h-2.1v-5.2H13.486V-2.93h4.585v-4.8h2.1ZM33.949,5.89h-2.1V-8.035L27.636-6.488v-1.9l5.986-2.247h.328Zm6.381-1.1a1.308,1.308,0,0,1,.322-.9,1.226,1.226,0,0,1,.966-.361,1.263,1.263,0,0,1,.977.361,1.282,1.282,0,0,1,.333.9,1.212,1.212,0,0,1-.333.87,1.286,1.286,0,0,1-.977.35,1.248,1.248,0,0,1-.966-.35,1.236,1.236,0,0,1-.322-.866ZM49.2-3.348h1.57A3.45,3.45,0,0,0,53.1-4.127a2.6,2.6,0,0,0,.847-2.044,2.55,2.55,0,0,0-.717-2.166,2.55,2.55,0,0,0-2.163-.725,3,3,0,0,0-2.163.774,2.708,2.708,0,0,0-.807,2.05H46a4.2,4.2,0,0,1,1.429-3.247,5.2,5.2,0,0,1,3.631-1.293,5.143,5.143,0,0,1,3.648,1.231,4.447,4.447,0,0,1,1.321,3.422,3.609,3.609,0,0,1-.695,2.078,4.194,4.194,0,0,1-1.892,1.5,4.041,4.041,0,0,1,2.1,1.423,3.952,3.952,0,0,1,.74,2.428,4.486,4.486,0,0,1-1.446,3.512,5.413,5.413,0,0,1-3.761,1.3A5.556,5.556,0,0,1,47.3,4.862a4.158,4.158,0,0,1-1.451-3.309h2.1A2.688,2.688,0,0,0,48.8,3.631a3.222,3.222,0,0,0,2.27.779,3.161,3.161,0,0,0,2.315-.791,3.047,3.047,0,0,0,.8-2.27,2.765,2.765,0,0,0-.881-2.2,3.838,3.838,0,0,0-2.541-.791H49.2Zm12.988,0h1.57a3.45,3.45,0,0,0,2.326-.779,2.6,2.6,0,0,0,.847-2.044,2.55,2.55,0,0,0-.717-2.166,2.55,2.55,0,0,0-2.163-.725,3,3,0,0,0-2.163.774,2.708,2.708,0,0,0-.807,2.05H58.987a4.2,4.2,0,0,1,1.429-3.247,5.2,5.2,0,0,1,3.631-1.293A5.143,5.143,0,0,1,67.7-9.547a4.447,4.447,0,0,1,1.321,3.422,3.609,3.609,0,0,1-.695,2.078,4.194,4.194,0,0,1-1.892,1.5,4.041,4.041,0,0,1,2.095,1.423,3.952,3.952,0,0,1,.74,2.428,4.486,4.486,0,0,1-1.446,3.512,5.413,5.413,0,0,1-3.761,1.3,5.556,5.556,0,0,1-3.766-1.254A4.158,4.158,0,0,1,58.84,1.553h2.1a2.688,2.688,0,0,0,.847,2.078,3.222,3.222,0,0,0,2.27.779,3.161,3.161,0,0,0,2.315-.791,3.047,3.047,0,0,0,.8-2.27,2.765,2.765,0,0,0-.881-2.2,3.838,3.838,0,0,0-2.541-.791H62.18Z" transform="translate(1037.141 1880.104)" fill="#181818"/>
          <path id="Path_1435" data-name="Path 1435" d="M6.812,1.49a2.5,2.5,0,0,1-1.166.9,4.71,4.71,0,0,1-1.742.3A3.378,3.378,0,0,1,2.12,2.21,3.141,3.141,0,0,1,.914.869,4.632,4.632,0,0,1,.477-1.147v-.717a4.324,4.324,0,0,1,.867-2.88A3.02,3.02,0,0,1,3.78-5.766a3.12,3.12,0,0,1,2.072.658,2.866,2.866,0,0,1,.96,1.866H5.728A1.793,1.793,0,0,0,5.1-4.464a1.793,1.793,0,0,0-1.311-.415,1.919,1.919,0,0,0-1.652.766A3.739,3.739,0,0,0,1.566-1.9v.672A3.5,3.5,0,0,0,2.2.979,2.05,2.05,0,0,0,3.91,1.8a3.779,3.779,0,0,0,1.067-.14,1.65,1.65,0,0,0,.757-.46V-.638h-1.9v-.887H6.812ZM8.619,2.569V-5.653h2.688A3.12,3.12,0,0,1,13.32-5.1,1.994,1.994,0,0,1,14-3.462a1.67,1.67,0,0,1-.328,1.019,2.123,2.123,0,0,1-.892.686,1.907,1.907,0,0,1,1.053.709A2.034,2.034,0,0,1,14.215.2,2.2,2.2,0,0,1,13.5,1.937a2.966,2.966,0,0,1-2.027.632ZM9.7-1.276V1.682h1.79a1.724,1.724,0,0,0,1.194-.392A1.378,1.378,0,0,0,13.125.209q0-1.485-1.615-1.485Zm0-.87h1.638A1.717,1.717,0,0,0,12.479-2.5a1.2,1.2,0,0,0,.426-.968,1.175,1.175,0,0,0-.4-.988,1.941,1.941,0,0,0-1.2-.308H9.7Zm7.2,1.5V2.569H15.819V-5.653h3.032a3.046,3.046,0,0,1,2.115.689,2.336,2.336,0,0,1,.765,1.824,2.3,2.3,0,0,1-.748,1.84,3.183,3.183,0,0,1-2.143.65Zm0-.887h1.948a1.948,1.948,0,0,0,1.333-.41,1.5,1.5,0,0,0,.463-1.185A1.549,1.549,0,0,0,20.181-4.3a1.825,1.825,0,0,0-1.271-.458H16.9Zm6.014,3.557a.654.654,0,0,1,.161-.452.613.613,0,0,1,.483-.181.632.632,0,0,1,.488.181.641.641,0,0,1,.167.452.606.606,0,0,1-.167.435.643.643,0,0,1-.488.175.624.624,0,0,1-.483-.175.618.618,0,0,1-.158-.438Zm.006-4.986a.654.654,0,0,1,.161-.452.613.613,0,0,1,.483-.181.632.632,0,0,1,.488.181.641.641,0,0,1,.167.452.606.606,0,0,1-.167.435.643.643,0,0,1-.488.175.624.624,0,0,1-.483-.175.618.618,0,0,1-.159-.438Zm9.02,5.531H30.89V-4.393l-2.106.774v-.949l2.993-1.124h.164Zm3.19-.548a.654.654,0,0,1,.161-.452.613.613,0,0,1,.483-.181.632.632,0,0,1,.488.181.641.641,0,0,1,.167.452.606.606,0,0,1-.167.435.643.643,0,0,1-.488.175.624.624,0,0,1-.483-.175.618.618,0,0,1-.16-.435ZM43.2-.938a4.778,4.778,0,0,1-.627,2.727,2.229,2.229,0,0,1-1.959.892,2.245,2.245,0,0,1-1.948-.872A4.535,4.535,0,0,1,38.011-.8V-2.191a4.671,4.671,0,0,1,.627-2.694A2.246,2.246,0,0,1,40.6-5.766a2.267,2.267,0,0,1,1.954.85A4.508,4.508,0,0,1,43.2-2.293ZM42.155-2.366A3.828,3.828,0,0,0,41.783-4.3a1.283,1.283,0,0,0-1.18-.607,1.266,1.266,0,0,0-1.169.6,3.737,3.737,0,0,0-.378,1.858V-.774a3.889,3.889,0,0,0,.387,1.968,1.28,1.28,0,0,0,1.172.635,1.263,1.263,0,0,0,1.149-.6,3.749,3.749,0,0,0,.392-1.886Z" transform="translate(1062.787 1856.651)" fill="#8e8e8f"/>
          <g transform="matrix(1, 0, 0, 1, 811, 1639)" filter="url(#Path_1416)">
            <path id="Path_1416-2" data-name="Path 1416" d="M14.753,0H171.5c8.148,0,14.753,8.289,14.753,18.514s-6.6,18.515-14.753,18.515H14.753C6.605,37.029,0,28.739,0,18.514S6.605,0,14.753,0Z" transform="translate(88 308)" fill="#0667eb"/>
          </g>
        </g>
      </g>
    </g>
    <text id="Câmbio" transform="translate(799 4867)" fill="#181818" font-size="22" font-family="Roboto-Medium, Roboto" font-weight="500"><tspan x="0" y="0">Câmbio</tspan></text>
    <text id="Saldo" transform="translate(722.472 4925.415)" fill="#8e8e8f" font-size="12" font-family="Roboto-Regular, Roboto"><tspan x="0" y="0">Saldo</tspan></text>
    <text id="Saldo-2" data-name="Saldo" transform="translate(721.472 5046.775)" fill="#8e8e8f" font-size="12" font-family="Roboto-Regular, Roboto"><tspan x="0" y="0">Saldo</tspan></text>
    <text id="Câmbio-2" data-name="Câmbio" transform="translate(820 5155.325)" fill="#fff" font-size="13" font-family="Roboto-Regular, Roboto"><tspan x="0" y="0">Câmbio</tspan></text>
  </g>
</svg>
