<svg xmlns="http://www.w3.org/2000/svg" width="48" height="48" viewBox="0 0 48 48">
  <g id="Group_4147" data-name="Group 4147" transform="translate(-248 970)">
    <g id="Group_4134" data-name="Group 4134">
      <g id="Group_3977" data-name="Group 3977" transform="translate(248 -970)">
        <g id="Group_3976" data-name="Group 3976">
          <rect id="Rectangle_730" data-name="Rectangle 730" width="48" height="48" fill="none"/>
          <path id="Path_2088" data-name="Path 2088" d="M6,21.95a15.893,15.893,0,0,1,5.24-11.76L16,14.95v-12H4l4.4,4.4A19.952,19.952,0,0,0,20,41.85V37.81A16.009,16.009,0,0,1,6,21.95Zm36,0A20,20,0,0,0,24,2.05V6.09a15.928,15.928,0,0,1,8.76,27.62L28,28.95v12H40l-4.4-4.4A19.866,19.866,0,0,0,42,21.95Z" transform="translate(2 1.95)" fill="#d8dce6"/>
          <path id="Path_2090" data-name="Path 2090" d="M15.439,22.9v2.563H11.857V22.877c-2.294-.483-4.24-1.959-4.387-4.562H10.1c.134,1.409,1.1,2.509,3.555,2.509,2.63,0,3.22-1.315,3.22-2.133,0-1.114-.59-2.16-3.582-2.871-3.327-.8-5.608-2.173-5.608-4.924,0-2.308,1.865-3.81,4.173-4.307V4h3.582V6.616a4.743,4.743,0,0,1,3.824,4.548h-2.63c-.067-1.489-.859-2.509-2.978-2.509-2.012,0-3.22.912-3.22,2.2,0,1.127.872,1.865,3.582,2.563s5.608,1.865,5.608,5.246c-.013,2.455-1.851,3.8-4.186,4.24Z" transform="translate(10.452 10)" fill="#0667eb"/>
        </g>
      </g>
    </g>
  </g>
</svg>
