<svg xmlns="http://www.w3.org/2000/svg" width="18.375" height="18.375" viewBox="0 0 18.375 18.375">
  <path id="Path_1196" data-name="Path 1196" d="M16.406-17.062H1.969A1.97,1.97,0,0,0,0-15.094V-.656A1.97,1.97,0,0,0,1.969,1.313H7.6V-4.935H5.014v-2.94H7.6v-2.241a3.589,3.589,0,0,1,3.842-3.957,15.655,15.655,0,0,1,2.277.2v2.5H12.435a1.47,1.47,0,0,0-1.658,1.589v1.909H13.6l-.451,2.94h-2.37V1.313h5.629A1.97,1.97,0,0,0,18.375-.656V-15.094A1.97,1.97,0,0,0,16.406-17.062Z" transform="translate(0 17.063)" fill="#4267b2"/>
</svg>
