<svg xmlns="http://www.w3.org/2000/svg" width="48" height="52" viewBox="0 0 48 52">
  <g id="Group_4147" data-name="Group 4147" transform="translate(-692 1203)">
    <path id="Path_1367" data-name="Path 1367" d="M0,0H48V48H0Z" transform="translate(692 -1203)" fill="none"/>
    <path id="Path_2104" data-name="Path 2104" d="M0,0H48V48H0Z" transform="translate(692 -1199)" fill="none"/>
    <g id="Group_3994" data-name="Group 3994" transform="translate(695 -1198)">
      <path id="Path_2105" data-name="Path 2105" d="M36.84,21A16.511,16.511,0,0,1,37,23a15.914,15.914,0,0,1-4.2,10.78A3.968,3.968,0,0,0,29,31H27V25a2.006,2.006,0,0,0-2-2H13V19h4a2.006,2.006,0,0,0,2-2V13h4a4.012,4.012,0,0,0,4-4V3.92A20,20,0,1,0,41,23c0-.68-.04-1.34-.1-2ZM19,38.86A15.977,15.977,0,0,1,5,23a16.236,16.236,0,0,1,.42-3.58L15,29v2a4.012,4.012,0,0,0,4,4Z" transform="translate(-1 1.336)" fill="#c9e0ed"/>
      <path id="Path_2106" data-name="Path 2106" d="M20.516,23.97v2.436H17.111V23.945c-2.181-.459-4.03-1.862-4.171-4.336h2.5c.128,1.339,1.046,2.385,3.38,2.385,2.5,0,3.061-1.25,3.061-2.028,0-1.059-.561-2.053-3.405-2.729-3.163-.765-5.331-2.066-5.331-4.681,0-2.194,1.773-3.622,3.966-4.094V6h3.405V8.487a4.509,4.509,0,0,1,3.635,4.324h-2.5c-.064-1.416-.816-2.385-2.831-2.385-1.913,0-3.061.867-3.061,2.092,0,1.071.829,1.773,3.405,2.436S24.5,16.726,24.5,19.94c-.013,2.334-1.76,3.609-3.979,4.03Z" transform="translate(15.768 -6)" fill="#0667eb"/>
    </g>
  </g>
</svg>
