<svg xmlns="http://www.w3.org/2000/svg" xmlns:xlink="http://www.w3.org/1999/xlink" width="425.046" height="373.48" viewBox="0 0 425.046 373.48">
  <defs>
    <radialGradient id="radial-gradient" cx="0.283" cy="0.137" r="0.931" gradientUnits="objectBoundingBox">
      <stop offset="0" stop-color="#fefefe"/>
      <stop offset="0.49" stop-color="#fbfbfb"/>
      <stop offset="0.762" stop-color="#f3f3f3"/>
      <stop offset="0.882" stop-color="#ededed"/>
      <stop offset="1" stop-color="#fff"/>
    </radialGradient>
    <linearGradient id="linear-gradient" x1="5.725" y1="-0.251" x2="5.725" y2="1.45" gradientUnits="objectBoundingBox">
      <stop offset="0" stop-color="#e8e8e8"/>
      <stop offset="0.443" stop-color="#b8b7b7"/>
      <stop offset="1" stop-color="#999696"/>
    </linearGradient>
    <linearGradient id="linear-gradient-2" x1="2023.331" y1="-416.245" x2="2023.331" y2="916.873" xlink:href="#linear-gradient"/>
    <linearGradient id="linear-gradient-3" x1="3.995" y1="-0.597" x2="3.995" y2="6.983" xlink:href="#linear-gradient"/>
    <linearGradient id="linear-gradient-4" x1="2.843" y1="-0.181" x2="2.843" y2="1.207" xlink:href="#linear-gradient"/>
    <linearGradient id="linear-gradient-5" x1="1642.526" y1="-232.531" x2="1642.526" y2="389.476" xlink:href="#linear-gradient"/>
    <linearGradient id="linear-gradient-6" x1="6281.936" y1="-176.825" x2="6281.936" y2="813.732" xlink:href="#linear-gradient"/>
    <linearGradient id="linear-gradient-7" x1="875.65" y1="-212.613" x2="875.65" y2="889.576" xlink:href="#linear-gradient"/>
    <linearGradient id="linear-gradient-8" x1="735.248" y1="-958.465" x2="735.248" y2="6103.611" xlink:href="#linear-gradient"/>
    <linearGradient id="linear-gradient-9" x1="1077.022" y1="-1242.936" x2="1077.022" y2="6760.182" xlink:href="#linear-gradient"/>
    <linearGradient id="linear-gradient-10" x1="788.928" y1="-422" x2="788.928" y2="2720.366" xlink:href="#linear-gradient"/>
    <linearGradient id="linear-gradient-11" x1="4864.129" y1="-2798.088" x2="4864.129" y2="3463.1" xlink:href="#linear-gradient"/>
    <linearGradient id="linear-gradient-12" x1="328.81" y1="-1440.269" x2="328.81" y2="1051.8" xlink:href="#linear-gradient"/>
    <linearGradient id="linear-gradient-13" x1="6216.781" y1="-1065.12" x2="6216.781" y2="291.4" xlink:href="#linear-gradient"/>
    <linearGradient id="linear-gradient-14" x1="5218.5" y1="-2040.844" x2="5218.5" y2="549.248" xlink:href="#linear-gradient"/>
    <linearGradient id="linear-gradient-15" x1="1999.768" y1="-479.505" x2="1999.768" y2="86.233" xlink:href="#linear-gradient"/>
    <linearGradient id="linear-gradient-16" x1="3971.718" y1="-373.878" x2="3971.718" y2="98.515" xlink:href="#linear-gradient"/>
    <linearGradient id="linear-gradient-17" x1="1911.213" y1="-573.973" x2="1911.213" y2="202.669" xlink:href="#linear-gradient"/>
    <linearGradient id="linear-gradient-18" x1="13.751" y1="-4.131" x2="13.751" y2="27.509" xlink:href="#linear-gradient"/>
    <linearGradient id="linear-gradient-19" x1="1039.966" y1="-141.072" x2="1039.966" y2="805.021" xlink:href="#linear-gradient"/>
    <linearGradient id="linear-gradient-20" x1="565.45" y1="-271.757" x2="565.45" y2="1515.479" xlink:href="#linear-gradient"/>
    <linearGradient id="linear-gradient-21" x1="17.962" y1="-11.401" x2="17.962" y2="17.27" xlink:href="#linear-gradient"/>
    <linearGradient id="linear-gradient-22" x1="49.042" y1="-8.219" x2="49.042" y2="5.267" xlink:href="#linear-gradient"/>
    <linearGradient id="linear-gradient-23" x1="73.103" y1="-11.338" x2="73.103" y2="36.794" xlink:href="#linear-gradient"/>
    <linearGradient id="linear-gradient-24" x1="36.538" y1="-11.818" x2="36.538" y2="89.614" xlink:href="#linear-gradient"/>
    <linearGradient id="linear-gradient-25" x1="30.993" y1="-33.125" x2="30.993" y2="43.663" xlink:href="#linear-gradient"/>
    <linearGradient id="linear-gradient-26" x1="101.627" y1="-4.754" x2="101.627" y2="33.265" xlink:href="#linear-gradient"/>
    <linearGradient id="linear-gradient-27" x1="51.411" y1="-12.982" x2="51.411" y2="110.388" xlink:href="#linear-gradient"/>
    <linearGradient id="linear-gradient-28" x1="54.605" y1="-12.878" x2="54.605" y2="109.821" xlink:href="#linear-gradient"/>
    <linearGradient id="linear-gradient-29" x1="107.302" y1="-14.507" x2="107.302" y2="142.696" xlink:href="#linear-gradient"/>
    <linearGradient id="linear-gradient-30" x1="144.947" y1="-10.263" x2="144.947" y2="103.467" xlink:href="#linear-gradient"/>
    <linearGradient id="linear-gradient-31" x1="92.321" y1="-138.469" x2="92.321" y2="29.083" xlink:href="#linear-gradient"/>
    <linearGradient id="linear-gradient-32" x1="87.797" y1="-53.29" x2="87.797" y2="83.177" xlink:href="#linear-gradient"/>
    <linearGradient id="linear-gradient-33" x1="37.466" y1="-8.357" x2="37.466" y2="55.447" xlink:href="#linear-gradient"/>
    <linearGradient id="linear-gradient-34" x1="292.45" y1="-31.692" x2="292.45" y2="170.904" xlink:href="#linear-gradient"/>
    <linearGradient id="linear-gradient-35" x1="107.663" y1="-42.922" x2="107.663" y2="179.601" xlink:href="#linear-gradient"/>
    <linearGradient id="linear-gradient-36" x1="88.612" y1="-96.442" x2="88.612" y2="123.154" xlink:href="#linear-gradient"/>
    <linearGradient id="linear-gradient-37" x1="92.297" y1="-49.881" x2="92.297" y2="138.296" xlink:href="#linear-gradient"/>
    <linearGradient id="linear-gradient-38" x1="165.993" y1="-183.763" x2="165.993" y2="34.566" xlink:href="#linear-gradient"/>
    <linearGradient id="linear-gradient-39" x1="31.333" y1="-4.455" x2="31.333" y2="41.904" xlink:href="#linear-gradient"/>
    <linearGradient id="linear-gradient-40" x1="150.118" y1="-29.27" x2="150.118" y2="234.105" xlink:href="#linear-gradient"/>
    <linearGradient id="linear-gradient-41" x1="149.479" y1="-24.911" x2="149.479" y2="200.79" xlink:href="#linear-gradient"/>
    <linearGradient id="linear-gradient-42" x1="117.215" y1="-125.73" x2="117.215" y2="160.51" xlink:href="#linear-gradient"/>
    <linearGradient id="linear-gradient-43" x1="278.536" y1="-25.981" x2="278.536" y2="93.401" xlink:href="#linear-gradient"/>
    <linearGradient id="linear-gradient-44" x1="38.754" y1="-4.178" x2="38.754" y2="15.385" xlink:href="#linear-gradient"/>
    <linearGradient id="linear-gradient-45" x1="19.892" y1="-8.053" x2="19.892" y2="61.692" xlink:href="#linear-gradient"/>
    <linearGradient id="linear-gradient-46" x1="168.889" y1="-34.396" x2="168.889" y2="317.923" xlink:href="#linear-gradient"/>
    <linearGradient id="linear-gradient-47" x1="215.377" y1="-43.892" x2="215.377" y2="179.933" xlink:href="#linear-gradient"/>
    <linearGradient id="linear-gradient-48" x1="304.437" y1="-57.09" x2="304.437" y2="93.128" xlink:href="#linear-gradient"/>
    <linearGradient id="linear-gradient-49" x1="198.866" y1="-52.817" x2="198.866" y2="374.086" xlink:href="#linear-gradient"/>
    <linearGradient id="linear-gradient-50" x1="271.306" y1="-131.127" x2="271.306" y2="180.422" xlink:href="#linear-gradient"/>
    <linearGradient id="linear-gradient-51" x1="209.264" y1="-51.064" x2="209.264" y2="416.994" xlink:href="#linear-gradient"/>
    <linearGradient id="linear-gradient-52" x1="333.04" y1="-55.859" x2="333.04" y2="225.305" xlink:href="#linear-gradient"/>
    <linearGradient id="linear-gradient-53" x1="565.315" y1="-197.91" x2="565.315" y2="221.606" xlink:href="#linear-gradient"/>
    <linearGradient id="linear-gradient-54" x1="317.717" y1="-119.618" x2="317.717" y2="168.327" xlink:href="#linear-gradient"/>
    <linearGradient id="linear-gradient-55" x1="177.16" y1="-69.191" x2="177.16" y2="771.027" xlink:href="#linear-gradient"/>
    <linearGradient id="linear-gradient-56" x1="602.325" y1="-43.214" x2="602.325" y2="351.516" xlink:href="#linear-gradient"/>
    <linearGradient id="linear-gradient-57" x1="366.266" y1="-83.603" x2="366.266" y2="322.154" xlink:href="#linear-gradient"/>
    <linearGradient id="linear-gradient-58" x1="30.469" y1="-10.076" x2="30.469" y2="48.035" xlink:href="#linear-gradient"/>
    <linearGradient id="linear-gradient-59" x1="742.034" y1="-109.043" x2="742.034" y2="742.309" xlink:href="#linear-gradient"/>
    <linearGradient id="linear-gradient-60" x1="43.716" y1="-10.805" x2="43.716" y2="95.16" xlink:href="#linear-gradient"/>
    <linearGradient id="linear-gradient-61" x1="5030.64" y1="-413.82" x2="5030.64" y2="2088.682" xlink:href="#linear-gradient"/>
    <linearGradient id="linear-gradient-62" x1="3404.727" y1="-127.656" x2="3404.727" y2="715.399" xlink:href="#linear-gradient"/>
    <linearGradient id="linear-gradient-63" x1="1593.759" y1="-196.256" x2="1593.759" y2="451.38" xlink:href="#linear-gradient"/>
    <linearGradient id="linear-gradient-64" x1="11433.602" y1="-439.515" x2="11433.602" y2="1014.391" xlink:href="#linear-gradient"/>
    <linearGradient id="linear-gradient-65" x1="346.866" y1="-107.8" x2="346.866" y2="260.561" xlink:href="#linear-gradient"/>
    <linearGradient id="linear-gradient-66" x1="229.276" y1="-14.131" x2="229.276" y2="32.235" xlink:href="#linear-gradient"/>
    <linearGradient id="linear-gradient-67" x1="154.43" y1="-79.606" x2="154.43" y2="151.503" xlink:href="#linear-gradient"/>
    <linearGradient id="linear-gradient-68" x1="256.632" y1="-63.574" x2="256.632" y2="120.766" xlink:href="#linear-gradient"/>
    <linearGradient id="linear-gradient-69" x1="83924.82" y1="-3909.109" x2="83924.82" y2="3909.221" xlink:href="#linear-gradient"/>
    <linearGradient id="linear-gradient-70" x1="429.035" y1="-109.728" x2="429.035" y2="232.062" xlink:href="#linear-gradient"/>
    <linearGradient id="linear-gradient-71" x1="7548.721" y1="-977.901" x2="7548.721" y2="1859.618" xlink:href="#linear-gradient"/>
    <linearGradient id="linear-gradient-72" x1="2211.171" y1="-236.904" x2="2211.171" y2="521.126" xlink:href="#linear-gradient"/>
  </defs>
  <g id="Group_3919" data-name="Group 3919" transform="translate(8179.046 -5013.499)">
    <g id="Group_3918" data-name="Group 3918">
      <g id="Group_3669" data-name="Group 3669" transform="translate(-8178 5015)">
        <g id="Group_3667" data-name="Group 3667" transform="translate(72.327 37.068)">
          <g id="Group_3642" data-name="Group 3642" transform="translate(0 0)">
            <circle id="Ellipse_152" data-name="Ellipse 152" cx="27.335" cy="27.335" r="27.335" transform="translate(0)" fill="#0667eb"/>
            <path id="Path_36" data-name="Path 36" d="M209.23,266.553a7.021,7.021,0,1,1-.05-7.8l6.627-4.032a14.742,14.742,0,1,0-.133,16.16Z" transform="translate(-174.792 -235.325)" fill="#fff"/>
          </g>
        </g>
        <g id="Group_3660" data-name="Group 3660" transform="translate(56.053 30.739)">
          <circle id="Ellipse_156" data-name="Ellipse 156" cx="154.703" cy="154.703" r="154.703" transform="translate(0)" fill="url(#radial-gradient)"/>
          <g id="Group_3659" data-name="Group 3659" transform="translate(0 0)" opacity="0.5">
            <g id="Group_3658" data-name="Group 3658">
              <path id="Path_1394" data-name="Path 1394" d="M94.579,576.175c.133.452.666.4,1.628.469.178.109.209.339.277.54.042.909.193,1.1.851,1.049a6.147,6.147,0,0,1,2.845.735c1.227.512.189,1.588,1.435,2.113,4.818,2.031,3.555,1,4.33,1.921.143.17.291.465.443.47,1.318.043,2.413,1.459,3.565,1.385a2.66,2.66,0,0,1,1.457.408c.473.762,1.2.841,1.863,1.109a.6.6,0,0,0,.8-.044l.38-.127c.131,0,.185-.083.175-.242.637-.688.038-1.549.61-2.5.458-.568.323-1.2.666-2.317.135-.062.285-.19.256-.352-.232-1.265.524-1.694,1.192-2.206.2-.156.479-.238.491-.6.033-.935-1.072-.32-1.044-1.4,2.064-1.908,1.833-4.924,3.967-5.734.63-.239,1.067-1.189,1.263-2.047.176-.77.62-1.545.348-2.352.445-1.305.826-2.664,1.951-3.472.431-.31.964-.456,1.174-1.154.564-.374.341-1.135.69-1.618l.086-.074c.631-.252.613-.926.771-1.487l.3-.51c0-.067.024-.192.024-.192s-.021.125-.024.192a.693.693,0,0,0,.32-.631c.034-.048.069-.1.1-.143.074.018.123-.023.145-.122a.292.292,0,0,0,.084-.111c.072-.017.1-.067.094-.151l.174-.275a1.664,1.664,0,0,0,.683-1.132,3.467,3.467,0,0,1,.737-.88,1.985,1.985,0,0,1,1.482.262l.023-.119c.161-.072.453-.25.453-.25s-.292.178-.453.25l-.023.119c.609.23.045,1.053.273,1.48h0c-.052.182-.1.366-.155.548a1.011,1.011,0,0,0-.341.856.981.981,0,0,1-.114.241.612.612,0,0,0-.377.585,21.048,21.048,0,0,1-2.066,3.785c-.4.468-.038.885-.091,1.332a1.878,1.878,0,0,1-.911,1.661c-.447.238-.637.7-.956,1.042-.294-.084-.567.257-.59.441-.142,1.127-.938,2.063-.849,3.24a5.2,5.2,0,0,1-2.023,4.817c-1.378,1.036-1.323,3.851-1.7,4.69-.146.42-.09.263-.326.909-.375-.025-.539-.275-.526-.747.007-.26-.016-.548-.265-.608-.265-.064-.314.281-.445.461-.114.159-.216.331-.307.472.076.534.562.333.69.712-.314.842-1.139.7-1.563,1.332a2.236,2.236,0,0,1-.406.374,37.187,37.187,0,0,1-2.909,3.448.619.619,0,0,0-.068.092c-.617.858-.563,1.338.289,2.161-.309.293-.75.438-.763,1.03-1.061,1.352-1.427,2-2.694,1.181-1.472-.951-1.559-.292-2.125-.418-.507-.112-.917-.583-1.377-.743s-.919.115-1.437-.206c-.621-.384-1.361-.129-2.035-.438-.52-.238-1.107-.212-1.488-.876-.187-.325-.483-.2-.721-.069s-.184.368-.114.62c.293,1.041-.318,1.583.255,2.319.365.469.223,1.268.479,1.851a19.818,19.818,0,0,0,1.151,2.234c2.21,3.677,1.606,5.065,6.128,10.257h0a6.441,6.441,0,0,0,2.636,2.306,10.678,10.678,0,0,0,1.606,1.631c5.129,5.5,4.744,6.737,7.214,8.342a5.265,5.265,0,0,0,.308.771,1.09,1.09,0,0,0,.473.6c1.157,3.15,2.959,5.193,2.116,6.047-.63.638-.192,1.851-.345,2.729.878,1.243.412,2.189.5,3.244.12,1.439-1.243.244-.789,2.353.129.6.3,1.209.462,1.813a3.664,3.664,0,0,0,.854.162,3.683,3.683,0,0,1-.854-.161q.121.581.246,1.16h0l.179.74h0a9.07,9.07,0,0,1,.34,2.572c-.04.044-.031.1.027.183q.067.261.134.521a1.115,1.115,0,0,1,.08.218l.1.254a5.261,5.261,0,0,0,1.6,2.181,2.494,2.494,0,0,0,.6.808,2.635,2.635,0,0,0,.957.9.525.525,0,0,0,.175.073,2.14,2.14,0,0,0,.937.811,10.326,10.326,0,0,1,3.779,3.354,3.129,3.129,0,0,0,.627.692,15.089,15.089,0,0,1,2.754,2.837c.225.653-.169.947.028,1.577a1.47,1.47,0,0,0,.078.875c-.241.066-.223.338-.165.659a22.451,22.451,0,0,0,1.092,3.632,3.726,3.726,0,0,0,1.3,1.683c1.643,1.209,2.483,1.61,3.135,2.171.358.309.665.711.586,1.069a2.422,2.422,0,0,0,.368,1.348,13.539,13.539,0,0,0,2.932,4.673c1.51,1.287,2.177,3.141,4.954,5.956,1.338,1.356,2.623,2.821,4.031,3.99a7.95,7.95,0,0,0,.9.709c.913.54,1.819.964,2.735,1.561a5.128,5.128,0,0,0,1.835.6,5.605,5.605,0,0,1,3.155,1.446,1.459,1.459,0,0,0,.688.371,4.788,4.788,0,0,1,2.259,1.209.586.586,0,0,0,.779.129,3,3,0,0,1,1.229-.608c.12-.011.169-.114.179-.254.005-.067-.019-.155-.015-.222a8.137,8.137,0,0,0-.728-3.253,1.9,1.9,0,0,1,.127-1.071,5.094,5.094,0,0,0,.589-2.277,4.189,4.189,0,0,0,.025-1.254c.17-.011.2-.153.136-.376a5.073,5.073,0,0,1,1.026-1.778,1.555,1.555,0,0,0,.477-1.357,12.168,12.168,0,0,0,.035-4.411,1.959,1.959,0,0,1,.013-.826,5.921,5.921,0,0,0-.21-3.181,2.753,2.753,0,0,1,.143-2.284,1.635,1.635,0,0,0,.161-.76c.374-.1.491-.475.578-.895.145-.708.3-1.413.46-2.124a11.483,11.483,0,0,1,1.2-3.092,2.183,2.183,0,0,0,.213-1.656c-.658-3.654-.476-3.707-.738-3.9l-.259-.419c-.072-.37-.084-.739-.337-.941-.583-1.377-1.2-4.826-2.95-5.813a19.165,19.165,0,0,1-.807-1.98,3.706,3.706,0,0,1-.031-2.362c.305-.747.337-1.654.623-2.41.5-1.321-1.04-1.023-.5-3.048a41.388,41.388,0,0,0,1.322-5.369,4.34,4.34,0,0,1,1-2.548c.836-.918,1.311-2.256,2.17-3.182a2.843,2.843,0,0,0,1.016-1.911,2.734,2.734,0,0,0,.471-.889c.552-1.232.562-1.242-.252-2.434-.852-1.249-.233-2.86-1.179-4.973a6.733,6.733,0,0,1-.345-3.552c.234-1.967.865-.969,1.3-1.818.889-1.732,2.549-.277,3.634-.573,1.65.611,1.789.952,2.724-.673.71-1.233,1.073-4.327,3.389-3.671a2.833,2.833,0,0,0,1.523.08,6.091,6.091,0,0,1,3.691,1.288,1.222,1.222,0,0,0,.569.164c.08.12.172.146.277.074l.536.142c.605,1.174,2.049,1.089,3.35,2.03a1.072,1.072,0,0,0,1.155.117c2.992-1.4,5.977-.681,8.906.929a2.129,2.129,0,0,0,2.535-.072c3.986-3.064,4.923-5.216,7.581-6.266.458-.181.85-.611,1.309-.8,1.065-.429.025-.943.275-1.567.593-1.474.853-3.155,2.107-4.213.828-.7,1.885-1.016,2.5-2.128a.407.407,0,0,1,.329-.187c1.121.052,1.432-1.257,2.09-1.978a1.266,1.266,0,0,0,.165-1.037,33.159,33.159,0,0,1-.145-4.88l.153-.545a1,1,0,0,0,.21-.155c.844-1.012.818-1.2-.258-1.918a.3.3,0,0,1-.067-.175.64.64,0,0,0-.316-.612l0-.007c-.251-2.11-.251-3.095-.751-3.591-.019.132-.043.3-.043.3l.042-.3c-.615-1.2.08-2.086-.342-3.991.045-.2.091-.392.137-.588a8.183,8.183,0,0,0,1.126-1.618c.9-1.275-.444-2.275.759-3.639.117-.133-.03-.369-.218-.42q-.023-.662-.045-1.322c.174-.265.135-.439-.131-.516a1.092,1.092,0,0,0-.024.153,1.092,1.092,0,0,1,.024-.153c-.042-.171-.084-.342-.126-.512l-.035-.009s.033.02.046-.072l-.061-.024-.275-.3a.6.6,0,0,0-.468-.573,1.455,1.455,0,0,1-.22-.734.215.215,0,0,0-.112-.274q-.083-.259-.164-.516a1,1,0,0,0-.426-1.038.153.153,0,0,1-.061-.157c.163-.994-.573-.587-.868-1.478a.4.4,0,0,0-.362-.4.224.224,0,0,1-.136-.143c-.039-.319-.179-.5-.444-.522-.406-.817-.275-1.841-.657-2.7-.319-.72-.579-1.383-1.241-1.677a1.289,1.289,0,0,1-.836-.971c-.478-2.775-2.406-2.744-3.36-2.977a8.82,8.82,0,0,0-2.062-1.881c-.812-.473-1.162-1.523-1.666-2.365.221-1.888,1.161-2.824-.437-4.558.064-1.732-.986-2.369-1.891-3.135a.573.573,0,0,0-.22-.09c-3.23-.919-3.509-4.181-3.858-5.022q.1-.6.2-1.206c.8-.572.471-1.7,2.05-2.41l.08,0,.079-.026.722.147c.648.576,1.362.1,2.042-.128.865-.285-.235-2.507,1.336-3.384.416-.232.437-.84.332-1.319a9.383,9.383,0,0,1-.152-8.047c.257-.617.268-.984-.237-1.236a4.278,4.278,0,0,0-3.242-.617c-1.48.4-2.983.139-4.474.876a.173.173,0,0,1-.114.027c-1.309-.5-2.7.375-4.036.422-1.1.039-1.318-.264-1.559-1.6-.477-2.651.563-4.813,1.291-5.33a1.8,1.8,0,0,0,.54-.619c1.217-2.416,3.7-2.507,4.173-2.768a1.588,1.588,0,0,0,.7-1.3c.058-.566-.362-.578-.692-.528-.947.145-1.836-.373-2.846.43-.324.258-.722.037-1.077-.011-1.17-.159.176-1.467-.341-1.94-.3-.273-.635.011-.925.293a2.03,2.03,0,0,1-1.083.5c-1.7.4-.35-.71-2.287-.892-1.8-.169-.358-2.049-1.993-2.191-1.4-.121-2.359-1.1-3.363-1.926a.89.89,0,0,1-.26-.742c.071-1.223-.61-1.557-1.372-1.5-1.373.1-2.563-.349-3.92-.2-.336.037-.712-.086-.562-.528.34-1,.06-1.954.759-2.959.4-.582,1.215-3-.522-2.973-.544.01-1.038,0-1.339-.471-.2-.3-.524-.325-.893.03-.782.751.218,1.121-.581,1.865a1.392,1.392,0,0,0-.59.876h0a2.6,2.6,0,0,1-.587,2.007c-.233-.287.222-.885-.046-1.115s-.633-.039-.929-.1a9.325,9.325,0,0,0-.948-.295c-.412-.044-.426-.464-.024-.893.54-.576.957-1.271,1.468-1.854a7.792,7.792,0,0,0,1.354-2.256c.394-.965.5-1,1.273-1.243a2.357,2.357,0,0,1,2.413.769c1.053.866,3.1.482,4.615-.923.406-.034.668-.283.732-.829a5.685,5.685,0,0,0,1.288-2.229,13.756,13.756,0,0,0,1.037-3.21c.058-.757-.387-1.735-.968-1.722-1.038.023-.858-.626-1.983-.69-1.709-.1-.933-1.533-2.772-.964-.639.2-1.107.125-1.428-.365-.293-.447-.92-.461-1-1.195-.05-.455-1.375.276-1.186-.909a1.144,1.144,0,0,0-.842-1.45,8.332,8.332,0,0,0-2.047-1c-.216-.033-.4-.159-.2-.582.463-1.019,1.857-.358,2.137-.974.163-.358-.311-.364-.56-.385-.108-.009-.272.073-.34.016a4.98,4.98,0,0,0-1.692-.67.949.949,0,0,0-1.129.2c-.491.413-.806.551-.966.117-.073-.2-.4-.135-.579-.232-.506-.27-1.277-.085-1.642-.562-.121-.158-.486.064-.755.157-1.019.349-2.037.714-3.045,1.072-1.258.448-.213-.566-.891-.4a1.438,1.438,0,0,0-.343.1c-2.438,1.239-3.345.011-4.9,1.915a.6.6,0,0,0-.572.233c-.262.27-.44.354-.518.192-.215-.447-.89-.089-1.478.37-1.067.833-2.249,1.223-3.784,2.449l-.145.357.571-.025a1.653,1.653,0,0,1-.806.71,4.932,4.932,0,0,1-1.32.5c-1.088.052-1.816,1.622-3.716,2.422-2.67,1.125-6.373,4.326-9.189,6.154a4.258,4.258,0,0,0-.753.6c-2.281,2.3-.185,2.041.992,1.545a43.641,43.641,0,0,0,5.062-2.663c.727-.432,2.682-1.733,2.5-1.178-.129.393-.614.615-1.08.941a2.007,2.007,0,0,0-1.085,1.4,8.921,8.921,0,0,1-.817,1.32,1.562,1.562,0,0,1-1.02.9,4.575,4.575,0,0,0-.872.662,17.2,17.2,0,0,1-1.654,1.191c-.479.325-1.049.412-.811-.115.313-.7.9-.567,1.535-1.2.183-.182.433-.354.489-.6.092-.393-.688-.088-1.255.389a9.62,9.62,0,0,1-2.969,1.659c-.5.207-.467.034.073-.649.514-.65.509-.7.257-.795-.553-.206-1.474.167-2.063.07-.362-.06-1.113.506-1.794,1.039-.637.5-.82.554-.825.223-.013-.753,1.273-1.267,1.288-1.934.009-.407.352-.931,1.166-1.7-2.363,1.251-2.939,1.487-3.894,2.549-.34.378-.425.58-.152.463a1.836,1.836,0,0,1,1.185-.214,16.544,16.544,0,0,1-2.044,1.63c-.767.417-1.413.71-1.342.077a4.686,4.686,0,0,0-.811.378c.033-.141-.012-.193-.167-.123a8.729,8.729,0,0,1-1.563.391,1.551,1.551,0,0,0-.706.251c-.686.41-1.215.613-1.822.937.077-.289-.152-.1-1.488.754-1.3.837-1.983,1.281-2.491,1.647a164.587,164.587,0,0,0-27.319,66.689c.7-.134.935,1.7,3.219.4a8.627,8.627,0,0,1,1.142-.326.4.4,0,0,0,.258-.25,1.209,1.209,0,0,0,.832-.555.408.408,0,0,1,.141-.1.576.576,0,0,0,.461-.471,3.308,3.308,0,0,1,1.376-.635.587.587,0,0,0,.529-.479.811.811,0,0,0,.463-.823l.191-.447a.722.722,0,0,0,.367-.527q.276-.474.554-.949a.954.954,0,0,0,.576-.789l.2-.388.087-.007.086-.061a1.227,1.227,0,0,1,.07-.122,1.318,1.318,0,0,0-.07.122,2.272,2.272,0,0,1,1.758,1.092c.732,1.176-.332,1.369-2.722,4.583-1.1,1.478-2.6.6-2.789,3.136-1.154.336-2.8,1.425-4.663,1.171h0l-.205-.148c-.03-.394-.216-.593-.534-.632l-.009-.013c.068-.285,0-.445-.238-.453a2.014,2.014,0,0,1-.862-.818,3.245,3.245,0,0,0-.384,1.464,5.926,5.926,0,0,1-.414,1.18C95.024,568.894,94.813,571.306,94.579,576.175Zm50.727-85.288a6.453,6.453,0,0,0-1.365,1.126c-.639.656-1.6.615-.6-.47,1.44-1.571,1.134-2.11,1.765-1.682.164.111.322.013.5-.372.067-.147.082-.279.143-.425.166-.39.694-.75.613-.284A2.855,2.855,0,0,1,145.306,490.887Zm6.01-1.16c-.5.6-1.036,1.165-1.559,1.74-.232.256-.493.456-.634.352-.6-.441-1.511.959-1.538-.163a1.168,1.168,0,0,1,.431-.854,20.76,20.76,0,0,1,2.574-1.992C151.41,488.5,152.282,488.583,151.316,489.727Zm26.053,5.043c-.084.4-.425.434-.6.7h0l-.367,0c-.157-.468-.532-.514-.971-.44.093.392.639.5.639.5s-.546-.106-.639-.5l-.4.064a.946.946,0,0,0-.631-.489c-.262-.106-.515-.011-.708.441a4.042,4.042,0,0,1-.645.9c-.4.514-.732.633-1.133.479-.775-.3-1.78-.031-2.517-.395-.05-.025-.2.122-.3.19a1.469,1.469,0,0,0,.114.253,1.469,1.469,0,0,1-.114-.253l-.539.063c-.062-.975-.816-.418-1.367-.309.159.335.766.383.766.383s-.607-.048-.766-.382l-.551.1h0c-1.3.131-1.537,1.75-2.449.9-.168-.157-.305-.323-.6-.232a1.588,1.588,0,0,0,.04.21s-.143-.712-.62-.787a.945.945,0,0,1-.675-.571,3.656,3.656,0,0,0-.289.541,3.7,3.7,0,0,1,.288-.541l.251-.991c.463-.413.578-.75.258-.987l-.006.016a.636.636,0,0,0,.019-.218c-.319.13-.438-.291-.438-.291s.12.421.439.291c-.021-.892-.082-1.646-1.111-1.379a5.613,5.613,0,0,0-2.2,1.421c-1.409,1.265-1.592-.622-.35-1.709,1.428-1.251,1.015.075,2.7-.54.358-.131.7-.738.428-.814-.539-.153-.622-1.052-1.527-.593-.168.086-.328-.03-.461-.1a2.845,2.845,0,0,0-2.205.029c-.8.265-1.575.432-2.38.743a4.926,4.926,0,0,1-2.577.331c-.663-.1.512-1.41,1.975-1.645,4.075-.655,5.828-.169,8.785-2.6,1.339-1.1-.317-.7,1.357-3.565.461-.789.523-1.163.079-1.371-.485-.227-.843-.668-1.381-.732a6.806,6.806,0,0,1-2.589-1.3c-.232-.128-.1-.486.277-.793a9.767,9.767,0,0,1,3.012-1.351,1.742,1.742,0,0,1,1.739.284c.2.115.346.345.1.848a.768.768,0,0,0,.044.9c.243.528.829.487,1.366.52,4.641.284,3.312,4.57,1.16,5.115-.676.171-1.078.955-1.567,1.532a.531.531,0,0,0-.091.64,1.164,1.164,0,0,0,.548.591,3.059,3.059,0,0,0,1.554.361c.465-.058.715.169.558.844-.385,1.656.484,1.292-.242,2.207-.459.579-.514,1.2-.072,1.22.6.029,1.064.382,1.8.157,2.2-.674.64,1.265,2.309.858a2.907,2.907,0,0,0,1.339-.4c.412-.311.533-.116.516.253C175.7,494.858,177.234,494.289,177.369,494.77Zm-31.293,32.156a1.1,1.1,0,0,0,.174.033,1.17,1.17,0,0,1-.174-.033C145.834,526.716,145.824,526.706,146.076,526.926Zm.517.046-.289,0Zm.551-.041-.507.037Zm17.17-29.227s-.532-.295-.615-.546C163.818,497.459,164.314,497.7,164.314,497.7Zm-33.953,43.16a3.958,3.958,0,0,0,.423-2.043c-.09-.788.184-1.089.91-1.284.9-.242,1.264-.652,1.877-.035.823.828,2.265.6,3.484-.5a3.752,3.752,0,0,1,1.967-.892c.309-.058.441.147.591.4a1.338,1.338,0,0,0,2.114.03,4.63,4.63,0,0,1,3.581-1.443,2.336,2.336,0,0,1,.507-1.807c.591-.828.463-.952,1.182-1.154.211-.058.422-.031.633-.22a.6.6,0,0,0,.206-.476c-.011-.305-.151-.232-.364-.222-1.2.054-1.219-.005-.546-1.617.22-.043.151.155.117.319-.116.567.091.682.507.427.31-.19.508-.292.414-.872a3.539,3.539,0,0,1,.1-2.507l.01,0c.317-.149.635-.305.953-.445.85-.375,1.506.2,2.4-.25.3-.152.329.332.368.658.063.528.382.624.838.424.372-.163.737-.6.876-.24.09.236-.092.5-.242.744-1.173,1.891-1.322,2.295-1.758,2.4-.721.178-1.117.838-1.448,1.53.368.721,1.012.757,1.777.418-.019.356-.374.752-.173.829.607.231.372.943.317,1.515.741.171,1.44-.71,2.14-.6.242.038.388-.325.429-.6a2.022,2.022,0,0,1,.67-1.318.9.9,0,0,0,.333-.587,5.263,5.263,0,0,1,1.843-3.086c.672-.706,1.126-1.569,1.758-2.268a1.282,1.282,0,0,0,.335-.9c-.277-2.942,1.96-3.773,2.657-4.238a19.358,19.358,0,0,1,2.1-1.377,8.8,8.8,0,0,0,4.54-4.617c.493-.2.761.394,1.247.131.524-.282.487-1.089.94-1.476.066-.056.131-.115.2-.174q-.189-.313,0,0c.606.069,1.012,0,1.192.4a3.056,3.056,0,0,1-.934,2.857c-1.312,1.008-1.824,1.175-2.177,2.271a4.127,4.127,0,0,1-1.39,1.855c-.229.2-.506.3-.649.647a9.665,9.665,0,0,1-1.1.316c-1.293.218-.5,1.057-1.616,1.473a22.182,22.182,0,0,0-2.554,1.562,3.089,3.089,0,0,0-1.058,1.008c-.473.713.08,1.16.452.68a4.774,4.774,0,0,1,1.2-.915c.7-.516,1.036-.327,1.268.317h0a3.213,3.213,0,0,1-.868,1.392c-.456.471-.552,1.038-.193,1.239.762.425.785,2.018,2.017,1.745.637-.141.8.135.7.933-.044.352-.256.733-.038,1.024.392.838.542.881,1.365.138a27.556,27.556,0,0,1,2.751-1.691,5.047,5.047,0,0,0,.629-.39c.293-.283.275-.777-.041-.841a2.081,2.081,0,0,0-1.774.3l-.433.082a20.338,20.338,0,0,0-2.5-.371c-1.7-.382-.611-3.365.659-3.818a2.868,2.868,0,0,0,.8-.671c1.069-.982,2.095-2.121,3.384-2.424a3.571,3.571,0,0,0,1.557-1.108c2.166-2.216,3.2-2.446,3.827-4.392a2.015,2.015,0,0,1,1.087-1.3c.254-.128.5-.327.749-.473,1.726-1,1.675.732,2.8.835,1.573.144,1.587,1.718,3.235.885a12.393,12.393,0,0,1,2.465-.8c1.374-.376,1.985.4,1.64,2.072-.177.86-.06,1.178.524,1.474a1.787,1.787,0,0,0,.971.135.915.915,0,0,0,.832.667c1.66.135,2.247,1.814,3.1,3.141a1.375,1.375,0,0,1-.165,1.559c-.144.212-.447.32-.366.753a3.879,3.879,0,0,1,1.305,1.749c-.171.383.032.449.243.51h0l.664.158a.846.846,0,0,1,.241-.036.846.846,0,0,0-.241.036.5.5,0,0,0,.5.291h0a2.384,2.384,0,0,1,.591.868h0c.1.426.342.584.71.494h0a1.977,1.977,0,0,0,1.329.08c1.742-.577,5.455.218,3.342,2.6-.212.238-.443.45-.664.674-4.079-.362-5.112,1-5.9-.14-.7-1.007-2.128-.91-2.6-1.316a3.866,3.866,0,0,0-3.048-.959c-1.6.172-3.559-1.278-5.788.074a1.047,1.047,0,0,1-1.089.059c-2.1-1.028-4.791.745-6.269-.437-.519-.415-1.176-.373-1.733.443-.286.42-.536.59-.872.34-.175-.13-.4-.243-.576.112-.159.314.017.5.136.706.214.368.586.587.618,1.133l-.151.252a.4.4,0,0,0-.253.3h0c-.5.487-1.1.928-.626,1.977a2.576,2.576,0,0,0,1.423,1.395c.013.691-.325,1.263-.817,1.187-1.28-.2-1.085,1.01-1.593,1.23-1.081.469-2.107,1.52-3.268,1.109-.659-.234-2.659,1.162-3.529,1.328-.341.066-.416.444-.488.759-.624,2.735-3.16,1.318-5.917,3.8-.953.859-1.561.643-2.163-.058-1.281-1.492,1.2-2.379-.605-3.639-1.172-.816-3.916-1.229-4.827.471-.113.211-.273.408-.462.425-.655.06-1.3.625-1.95.569-1.164-.1-.839,1.372-1.668,1.156a4.553,4.553,0,0,0-3.077.74c-1,.512-2.007.633-2.99,1.15a.988.988,0,0,1-.9-.086,2.809,2.809,0,0,0-3.745-.666,8.472,8.472,0,0,1-3.75.789l-.247-.143c0-.163-.06-.216-.2-.126h0a.228.228,0,0,0-.121.047,15.692,15.692,0,0,0-.7-3.956c-.034-.649-.032-1.32-.527-1.61A2.471,2.471,0,0,1,130.36,540.865Zm-6.35-10.139a3.386,3.386,0,0,0,.414-.41c-.564-1.193.039-2.465,1.549-3.441a11.83,11.83,0,0,0,2.7-2.242c.349-.408,1.768-1.126,2.368-1.827-.169-.017-.512-.017-.512-.017a2.364,2.364,0,0,0,2-.958c.154-.163.321-.322.295-.537-.019-.153-.149-.137-.264-.149-1.234-.128-1.243-.563-.169-2.135.323-.473.576-.682.892-.652,2.8.268,3.2.321,2.99.949-.43,1.308-1.764,1.227-2.418,1.539-.177.085-.329.441-.161.547a.393.393,0,0,0,.33.054,4.605,4.605,0,0,1,2.919.362.677.677,0,0,0,.915-.568c.233-1.195,1.209-1.058,1.648-1.794-.083-.48-.779-.176-.793-.783.8-.4,1.665-.2,2.868-1.476.506-.539,1.119-.5,1.37-.057.587,1.04,1.1.7,1.174,1.744.047.672.429.9,1.054.721a3.727,3.727,0,0,1,.127,2.124c-.215.465.134.337.8.368h0a4.291,4.291,0,0,0-.058.7h0a5.169,5.169,0,0,1-1.551,3.453c-3.565,1.045-4.475,1.267-5.119.69-1.266-1.133-3.587-.078-4.616-.232-.238-.035-.466.167-.623.5a.922.922,0,0,1-.2.155,6.857,6.857,0,0,0-2.2,1.307,2.13,2.13,0,0,0-1.2.352,5.816,5.816,0,0,1-2.885,1.02c-.965.078-2.052.579-2.9.314l-.325-.031A3.377,3.377,0,0,1,124.01,530.726Zm-.581.365-.175.034.175-.035a.859.859,0,0,0,.433.552A.856.856,0,0,1,123.43,531.09Zm-9.512.407c-.3.34-.7.571-.9,1.036-.042.033-.083.068-.124.1l-.347.475a2.591,2.591,0,0,1-.448.69l-.36.3c-.345.126-.686.234-1.032.386-.3.13-.52.685-.143.659.287-.02.578-.048.868-.073a2.944,2.944,0,1,1,.064.367c-1.081,2.145.852,1.049-.465,3.543a1.216,1.216,0,0,1-.8.638,4.746,4.746,0,0,0-1.6,1.054c-.971.838-1.976,1.513-2.954,1.308-1.257-.263-1.293-.186-.694-1.9a2.9,2.9,0,0,1,.5-1.094,2.087,2.087,0,0,0,.639-1.476c-.042-.526.591-.9.7-1.375h0c.088-.349.132-.523.222-.871a2.1,2.1,0,0,1,.665-1.391.906.906,0,0,0,.254-.509l.264-.643c.153-.159.118-.207.007-.21h0c-.078-.722-.064-.751.626-1.1,1.633-.832,1.942-1.859,2.8-2.841.2.011.414-.245.621-.366.37-.108.5-.435.624-.764.128-.1.33-.2.372-.3.4-.871,1.227-1.286,1.725-2.049a.419.419,0,0,1,.437-.234c1.627.323,1.678.292.946,1.9-.241.528-.668,1.193-.2,1.417l.015,0-.015,0c-.3,1.15-.663,2.538-.368,1.379l-.341.081A13.356,13.356,0,0,1,113.917,531.5Z" transform="translate(-94.579 -428.845)" fill="url(#linear-gradient)"/>
              <path id="Path_1395" data-name="Path 1395" d="M171.105,555.573s-.229.22-.347.322h0C170.876,555.793,171.105,555.573,171.105,555.573Z" transform="translate(-120.189 -458.566)" fill="url(#linear-gradient-2)"/>
              <path id="Path_1396" data-name="Path 1396" d="M301.68,436.084a19.367,19.367,0,0,1,4.536,1.788,8.678,8.678,0,0,0,3.541.919c1.75.134,5.252,1.306,6.869.911a.923.923,0,0,1,.87.27,5.7,5.7,0,0,0,1.379.636c.332.15.477.589.768.811.146.322.418.394.661.522.021.163.1.188.21.141a.191.191,0,0,0,.145.13,2.5,2.5,0,0,0,1.742,1.342c1.482.385,3.182,1.594,4.7,1.517,1.817-.093,2.514.689,3.886,1.577.161.1.424.232.374.441-.2.832.755,1.335.552,2.186-.049.208.252.42.491.447a.525.525,0,0,0,.424.212c.685,1.359,2.2,1.221,2.061,2.621s.789,1.627,1.4,3.5c.062.189.245.17.384.118a.179.179,0,0,0,.143.115c.032.345-.086.688.1,1.035a1.111,1.111,0,0,0,1.079.633c.992-.007,2.062.135,2.706-.92.2-.335.516-.341.831-.389,2.991-.454,3.261.514,3.99-.4.71-.892,1.819-.806,2.212-2.68.343.076.668.116.712-.411a4.973,4.973,0,0,1,1.539-1.476c.058-.03.162-.053.163-.1.015-1.1,1.051-1.355.989-2.483-.092-1.682,2.378-1.045,1.829-3.621-.139-.648.747-.593-.5-2.842-.983-1.768-1.99-1.43-2.994-1.626a1.468,1.468,0,0,1-1.083-1.771,4.263,4.263,0,0,0,.107-1.049l.94.129c.088.086.25.194.252.254.007.253-.3.37-.04.745a1.241,1.241,0,0,0,.668.441,4.032,4.032,0,0,0,3.2.318c.272-.129.495-.224.419-.688-.069-.421-.1-.866-.572-1.04-.125-.046-.343-.086-.341-.251.01-1.188-.655-.84-1.043-.937-1.1-.273-.658-.135-1.9.009-.424-.219-.6-.481-.24-.793a2.023,2.023,0,0,1,.376-.211.8.8,0,0,0-.611-.36.8.8,0,0,1,.61.359c1.042.735.651-1.431,1.637-.554a2.478,2.478,0,0,0,2.677.536c.416.029.295-.406.287-.755a6.207,6.207,0,0,1,1.125-3.329,2.464,2.464,0,0,1,1.961-1.6c.08-.025.2,0,.237-.072.548-.931,1.739-.564,2.487-1.027.725-.206,2.708.315,3.219.239.863-.129,1.128,1.053,1.859.674.151-.078.331.07.521.169.674.346,1.411.926,1.907.532.1-.076.281.048.444.153a6.592,6.592,0,0,0,3.547,1.037c.534.26.739.052,2.8-.506.116.1.218.078.162-.035a2.275,2.275,0,0,0-1.042-1.149c.32-.181.877.177,1.1-.1l.771.225c.239.15.362.039.533.043s.437.1.3-.262a1.263,1.263,0,0,0-.594-.607,38.85,38.85,0,0,0-3.635-1.934,1.985,1.985,0,0,1-.627-.325c-.927-.86-4.583-1.789-5.64-2.4-.165-.394-.727-.4-.7-.916.022-.409.432-.128.707-.049,1.906.55,2.618.979,2.613.414,0-.228-.207-.311-.339-.46a2.873,2.873,0,0,0-1.344-.8c-1.132-.476-2.311-1.464-3.454-1.936-2.942-1.211-2.913-.062-3.048-1.77a.987.987,0,0,0-.1-.224c-.141-.078-.363-.188-.368-.352-.008-.259.246-.078.465.139.556.136,1.2.778,1.721.751l.621.263a.887.887,0,0,0,.651.282l.424.238c.329.648.709,1.015,1.153.994,1.664.66,3.4,1.833,5.077,2.675a8.82,8.82,0,0,1,1.179.872c.105.161.19.207.254.136l.4.188c1.619,1.5,1.739,1.751,3.117,2.141.786.222,1.68.967,2.465,1.241a.9.9,0,0,1,.559.808c0,.147-.01.281-.019.507a14.815,14.815,0,0,1,2.466,2.026,2.179,2.179,0,0,0,1.107.489c.937.63,1.339.179,2.083,1.383a1.609,1.609,0,0,0,.866.622c.289.244.685.361.73.9-.349-.153-1.363-.884-1.233-.3.05.226.22.319.37.473.56.579.919.451,1.391.734.133.178.339.327.4.524.185.6.175.6.694.882-.037-.327-.461-.478-.569-.839.526.1,1.2.682,1.713.787l.5.286c.028-.765.807-.222,1.371.107.884.514,1.592.639,2.417,1.057.2.1.352.076.583.28,1.527,1.341,2.587.961,4.376,2.165.84.566.955-.145,2.815,1.806l-.174.08h0c-.242-.076-.211.149-.176.381l-.173-.07a1.989,1.989,0,0,0-.428-.432c-.087-.159-.11-.129-.127-.082-.043,0-.077.013-.129-.013-1.145-.564-2.126-.753-3.358-1.425a21.5,21.5,0,0,0-3.58-1.9c-.747-.212-.6-1-4.431-1.428-.158-.018-.291,0-.115.33.141.269.244.6.517.534.076-.019.248.082.343.261a1.928,1.928,0,0,0,1.287,1.059,10.489,10.489,0,0,0,3.081,1.091c.238,0,.716.441,1.064.621.946.491,1.815.795,2.73,1.233,2.365,1.132,3.051,1.6,3.3,1.267.072-.1.307.113.478.235a13.622,13.622,0,0,0,3.494,1.752c.47.176.408-.254.546-.445.046-.063-.119-.315-.285-.5-.538-.588-.537-.752-.191-.665a.545.545,0,0,0,.254-.027,3.383,3.383,0,0,1,1.279.631,2.007,2.007,0,0,1,.925,1.131h0l-.028.139c-.471-.363-.973-.4-.51.473a1.867,1.867,0,0,0,.761.741c.2.127.407.266.513.222a5.391,5.391,0,0,0,1.237.552c.363.543.676.8.766.589.072-.167.229-.186.47-.116.325.094-.113-.675.331-.46.068.033-.181-.31-.342-.442-.441-.362-.8-.583-.958-.445a12.937,12.937,0,0,1-1.431-.87c-.406-.764.272-.323.219-.646l.181.064c.172.165.254.19.248.08.174-.118.731.27.8-.036a8.674,8.674,0,0,0-2.686-1.632q-.1-.1-.123-.062a1.083,1.083,0,0,0-.558-.213c-.468-.427-.708-.441-.912-.412-.59.085-1.34-.811-2.939-1.388-.323-.116-.77-.7-1.055-.783a15.618,15.618,0,0,1-2.269-1.359l-.144.035h0l.143-.036c-.407-.518-.666-.376-1.052-.814-.329-.562.344-.062.054-.556a.912.912,0,0,0-.342-.321c-.7-.479-.7-.485-.81-1.24a9.333,9.333,0,0,0,2.771,1.862c.566.3,3.991,2.416,4.631,1.892.281-.23.74-.115,1.387.238h0c.28-.153.524-.328,1.245.065-.924-.966-1.634-1.5-2.37-2.361a.547.547,0,0,0-.09-.084c-.868-.521-2.114-1.822-2.919-2.152-.524-.215-1.121-.545-1.453-.437a2.8,2.8,0,0,1-1.415-.364c-.21-.215-.368-.318-.469-.3-.341-.228-.6-.352-.343.183-.656-.4-.793-.572-.911-1.093.568.339.809.16,1.318.413.348.173-.158-.938.8-.1.348.3.607.449.792.367a9.864,9.864,0,0,0-1.209-.9c-.389-.281-.8-.592-1.156-.813a20.681,20.681,0,0,0-3.305-2.019,2.85,2.85,0,0,1-.913-.65c-2.475-2.424-3.912-1.964-5.666-3.559-4.421-4.019-12.68-7.08-19.31-8.747-1.443-.363-3-.965-4.48-1.3-.11-.026-.256-.093-.318-.043-.785.624-2.585-.625-3.079-.275-.1.074-.11.254.135.424-.088.347-.247.177-1.724-.254h0c-.834-.439-.9-.595-1.324-.561-4.465-1.389-5.819-2.363-6.3-1.6-.05.013-.113.064-.147.033-1.124-1.055-2.211-.36-2.6-.624l-.051.012c-.149-.062-.266-.05-.33.09l-.593,0c-.219-.147-.465-.236-.574-.6q0-.088.058-.1c.427.123.107-.679-.05-.346q-.536-.142-1.071-.281c-.015-.228-.084-.478-.292-.485-.168-.005-.084.24-.02.42-.321-.038-.642-.074-.961-.11-.424-.35-.88-.431-1.3-.962s-.86-.364-1.313.239l-.49-.143c.007-.625-.287-.7-.636-.68-5.579-1.4-3.867-1.019-7.745-1.391a11.918,11.918,0,0,1-1.807-.382,55.615,55.615,0,0,0-14.006-1.3c-.745,0-1.5.086-2.252.141a3.589,3.589,0,0,0-2.817.06,2.554,2.554,0,0,1-.967.125c-.589-.172-1.085.326-1.63.468-.846,1.051-1.912.217-5.9,1.361-.319.137-.145.269-.021.349.3.2.763.074.865.654-.035.032-.175.156-.2.189a1.333,1.333,0,0,0-.08.957.361.361,0,0,0-.171.364l-.273.071-.259-.145c.022-.51-.185-.418-.436-.212a9.044,9.044,0,0,1-.8-.48c-.319-.128.384-.746-.155-.771-.358-.017-.67.121-1.316.633.157.343.548-.028.726.263-.2.35-.45.5-.732.38-.424-.187-.931.015-1.337-.245a.4.4,0,0,0-.441.025c-.547.732-1.049.282-1.564.311a.132.132,0,0,0-.141-.042c-.5-.672-3.352-.125-4.473.043a1.8,1.8,0,0,0-1,.441,4.691,4.691,0,0,0-2.564.82c.437.386.716.153,1.811.293.065.06.119.172.2.173.851.01,1.563.538,2.467.4,1.239-.186.775.783,1.594.59l.395.1c.878-.171.857,1.523,1.921,1.125.394-.147.394.2.449.487.16.836-.407,1.058-.778.718s-.418-.868-1.02-.7a.454.454,0,0,0-.252.711c.889.753,1.668.439,1.735,2.793-.091.018-.907.191-.994.177l0,.071c-.43,1.146.943,1.2.021,2.323a1.259,1.259,0,0,0,1.148-1.211c.414-.356.8.015,1.215-.177.24-.112.434.431.087.625a2,2,0,0,0-.763,1.292l.337-.236h0l-.337.236c-.467.694-.473.7-.017,1.186.092.1.231.154.2.341a.438.438,0,0,1-.378.384,2.568,2.568,0,0,1-1.136.066c-.15-.386.173-.46.249-.67.1-.289.057-.51-.177-.551a2.444,2.444,0,0,0-2.082.52c-.26.209-.172.628.085.587.663-.1.92-.447,1.369.2,1.136,1.642,2.407.189,2.757,1.665.147.622.473.825,1.06.591s1.086.145,1.695.3a1.956,1.956,0,0,0,.507,2.639c-1.257.324-1.433,1.531-1.669,2.677-.042.2.017.448.285.277,1.014-.08,1.425.033,2.182-.046,2.02-.208,1.567-1.282,2.778-1.693.6-.2.768-.08.94.672a2.869,2.869,0,0,1,.193.972C304.962,435.244,303.366,435.914,301.68,436.084Zm-2.825-17.277a2.817,2.817,0,0,1-.281-.335,2.5,2.5,0,0,1,.009-.5,2.5,2.5,0,0,0-.009.5A2.817,2.817,0,0,0,298.856,418.807Zm-.633,1.835Zm.658,5.49c-.054.041-.111.112-.163.115s-.145-.058-.141-.093c.013-.143.11-.189.2-.164C298.822,426,298.847,426.083,298.88,426.132Zm1.83-6.211-.86-.949Zm.151,6.9a1.121,1.121,0,0,0-.107.345h0A1.121,1.121,0,0,1,300.861,426.821Zm1.117-3.513-.048.08.048-.079Zm.027-.014.31-.426Zm1.93,4.453h0c-.027-.018-.084-.068-.084-.068S303.908,427.73,303.935,427.747Zm.53.671c-.01.015-.038.048-.038.048s.028-.033.038-.048Zm97.26,12.621Zm-2.275-.989s.088.16.135.238c.165.1.482.287.482.287s-.317-.185-.482-.287C399.538,440.211,399.451,440.051,399.451,440.051Zm-.617-.811a1.982,1.982,0,0,0,.4.141h0A1.982,1.982,0,0,1,398.833,439.239Zm5.526,5.857s.122.171.167.253h0C404.481,445.267,404.36,445.1,404.36,445.1Zm-9.22-5.482h0c.319.238.947.67.947.67S395.458,439.852,395.139,439.614Zm-1.258-1.08q-.044-.253-.088-.5h0l.109-.181c-.074-.167-.28-.5-.28-.5s.206.333.28.5c.374.255.587.193.9.34s.481.387.374.581l-.567-.167C394.225,438.344,394.306,438.857,393.881,438.534Zm-1.35-3.681c.042.113.106.323.106.323s-.065-.21-.106-.323a5.335,5.335,0,0,1,.6.234A5.335,5.335,0,0,0,392.531,434.853Zm.662-.053a.8.8,0,0,1,1.011.013l.256.21h0c.238.261.45.308.7.629-.071.048.027.222.129.4a2.67,2.67,0,0,1,.366.165,2.886,2.886,0,0,0-.366-.165c-.407-.108-1.073-.649-1.17-.2-.03.139-.449-.132-.761-.637.056-.07.009-.2-.161-.414Q391.719,434.037,393.193,434.8Zm-.971,3.124a.059.059,0,0,0,.052-.006.059.059,0,0,1-.052.006Zm-2.5-3.509c-.232-.287-.714-.816-.714-.816s.483.529.714.816Zm1.084,1.863a1.877,1.877,0,0,0,.387.123h0A1.877,1.877,0,0,1,390.807,436.278Zm-.832-1.166a1.092,1.092,0,0,1,.352.163,2.224,2.224,0,0,0,.334.562,2.224,2.224,0,0,1-.334-.562A1.092,1.092,0,0,0,389.975,435.112Zm-.69-.589s.145.013.183-.045a.366.366,0,0,0,.193,0,.366.366,0,0,1-.193,0C389.43,434.536,389.286,434.524,389.286,434.524Zm.568,1.663Zm-7.794-8.267a7.579,7.579,0,0,1,1.4,1,4.45,4.45,0,0,1,.545.276,4.45,4.45,0,0,0-.545-.276A7.579,7.579,0,0,0,382.059,427.919Zm-11.234,2.148,3.7,1.3Zm-2.738-1.737a1.187,1.187,0,0,1,.147.062Zm-13.629,3.308a2.912,2.912,0,0,1,.216-.7,2.912,2.912,0,0,0-.216.7Zm-.986,1.306c.027-.062.027-.062,0,0Zm-.649.42.01-.01-.01.01ZM349.8,416.72c-.1-.526.07-.625.465-.362a.774.774,0,0,0,.177.472l-.094.192-.548-.3Zm.745,22.035c-.112-.566.232-.331.454-.312C350.925,438.682,350.738,438.724,350.545,438.755Zm-5.468-23.641.434.07Zm5.541,30.341Zm-3.215-4.77.008.013Zm-.785,3.942h0C346.821,444.379,346.807,444.4,346.617,444.627Zm.331-4.542.011.007h0Zm-.2-1.251Zm.094.489a1.865,1.865,0,0,0-.236.094,1.865,1.865,0,0,1,.236-.094Zm-.025,9.266.936-1.016Zm-9.676,8.6c.05-.194.094-.558.094-.558s-.044.364-.093.558Zm-25.255-25.376h0c-.023.153.153.242.153.242S311.863,431.962,311.887,431.809Zm-1.154,1.335a1.484,1.484,0,0,1,.409-.252,1.484,1.484,0,0,0-.409.252Zm-4.938-1.958h0C307.269,432.312,307.185,432.247,305.794,431.187Zm3.861-2.677a1.485,1.485,0,0,0-.117.234,1.186,1.186,0,0,1-.115.095,1.125,1.125,0,0,0,.114-.095A1.53,1.53,0,0,1,309.655,428.51Zm-.377,5.391h0a1.1,1.1,0,0,0,.411.393A.992.992,0,0,1,309.278,433.9Zm-1.389-.684s.831-.132,1.247-.2h0l.941.147h0A6.526,6.526,0,0,0,307.888,433.217Zm-.627-2.78h0a3.529,3.529,0,0,0,.31.19A3.529,3.529,0,0,1,307.262,430.437Zm.369-17.207a1.2,1.2,0,0,0-.305-.029,1.2,1.2,0,0,1,.305.029,10.9,10.9,0,0,0,1.8.341A10.9,10.9,0,0,1,307.631,413.231Zm-.745,19.428s-.671.369-1.028.048a1.176,1.176,0,0,0-.728-.524,1.181,1.181,0,0,1,.728.522C306.214,433.028,306.885,432.659,306.885,432.659Z" transform="translate(-159.781 -409.437)" fill="url(#linear-gradient-3)"/>
              <path id="Path_1397" data-name="Path 1397" d="M341.449,636.715c.205.378.391.745.8.795l.031.036c1.39,2.582,1.015,2.1,1.89,2.385a.609.609,0,0,0,.47.547,1.262,1.262,0,0,0,.52.906.571.571,0,0,0,.411.6l0,.013a2.872,2.872,0,0,0,1.163,2.331h0c.012,1.405,1.452.767,1.4,2.056-.057,1.456.327,2.9-.166,4.357-.581,1.713.79,2.921-.022,4.973-.214.542-.129.993.278,1.215,1.424.777.27,2.984,1.2,3.331l.022.021a1.7,1.7,0,0,0,.856,1.377c.062.574.074,1.211.641,1.448a3.492,3.492,0,0,1,.356,1.725c-.218,1.646,1.35.772,1.691,2.114a.678.678,0,0,0,.818.525,18.769,18.769,0,0,0,2.963-.177,3.13,3.13,0,0,1,1.839,1.3c1.093,1.355.633-.424,3.111,1.556a14.45,14.45,0,0,1,2.094,1.917c1.716,2.031-.907,5.18,1.067,7.282a21.015,21.015,0,0,1,1.6,2.181c.046.821.015,1.693.694,2.059h0c0,.675.281.972.816.936.23.542.692.726,1.094,1a8.318,8.318,0,0,0,.808,2.162c.828,1.363,2.56,4,4.083,3.273.7-.335,1.166.112,1.714.268a3.637,3.637,0,0,1-.087,2.678,1.463,1.463,0,0,0-.089.875,3.682,3.682,0,0,0,1.543,2.466h0l.388.018c.319.933,1,.6,2.477.515.023.32.206.381.447.38.349,0,.68.063,1.034.033.756-.066,1.057.311.988,1.3-.186,2.668,1.672,1.855,3.04,1.532.292.166.613-.253.919-.417.716-.384.73-.387.875.426q-.179.739-.36,1.474c-.523.187-1.029.368-1.44.114-.746-.463-1.631,2.037-.941,1.964.595-.063,1,.3,1.6.171a.537.537,0,0,1,.337.461c0,.062.021.094.068.1-.112.712-.387,1.513-.017,1.944-.082.382.128.364.382.41.222.446.6.214,1.549.19l.081-.025-.082.025c-.017.491-.021.964.431.961-.095,1.122-.648,1.253-1.1,1.7q-.777.211-1.556.417a2.083,2.083,0,0,0-1.2,2.71c.651.659,1.925.016,1.764,1.673-.2,2.058,2.116.645.824,2.809-1.113,1.863-1.748,2.019-2.012,3.171-.307,1.344-1.453,2.166-3.454,3.81-.205.169-.459.294-.5.633-.031.242.133.258.3.209,2.43-.7,3.03.5,3.652-.594l.344-.141c.214.07.312.5.8-.3a20,20,0,0,1,2.227-1.418,4.819,4.819,0,0,0,1.788-1.547,3.936,3.936,0,0,0,2.125-1.769,3.655,3.655,0,0,1,.437-.444,17.572,17.572,0,0,0,3.244-4.206c.215-.341.234-.5.175-.658-.279-.759.781-1.011.906-1.766a9.42,9.42,0,0,1,.987-2.47c.165-.327.261-.613.16-.792.441-1.315.349-1.393-.947-.805l-.02-.048c.092-.206.1-.345-.006-.4q.047-.227.094-.455a2.1,2.1,0,0,0,.252-.311c.757-1.491.762-.2,1.417-.966.256-.3.422-.552.249-.759a2.406,2.406,0,0,1-.327-2.535c.834-2.735-1.4.052-1.446-1.2-.009-.244-.153-.353-.281-.336l.1-.214c.564-.485.4-.882.483-1.3a2.888,2.888,0,0,1,.226-1.125c.117-.213.268-.394.433-.41.2-.02.127.168.019.4a2.538,2.538,0,0,0-.065,1.785c.06.531,1.409-.1,1.311-.652-.222-1.257.224-2.928.355-4.442a2.318,2.318,0,0,0,.066-.556c-.357-1.373.475-3.115,1.2-4.827.19-.445.363-.944.095-1.052-.755-.3-.453-1.5-.639-2.3-.087-.372.025-.9-.292-1.1-.124-.075-.114-.281-.117-.469-.031-1.957-.345-3.832.39-6.194.491-1.134.824-2.206.305-3a1.587,1.587,0,0,1-.08-.542,2.788,2.788,0,0,1-.565.3,2.789,2.789,0,0,0,.564-.3,3.893,3.893,0,0,1,.5-1,.658.658,0,0,0,.156-.7c-.319-.538-.1-1.378-.174-2.062a25.928,25.928,0,0,1,.666-8.658c.05-.254.249-.546.148-.763-.618-1.332-.289-2.5.394-7.227a6.028,6.028,0,0,0,.538-2.21.357.357,0,0,0,.059-.261h0c.222-.227.5-.379.629-.731,1.49-1.346,1.4-2.07,4.239-3.946a1.612,1.612,0,0,0,.965-.712,12.236,12.236,0,0,0,3.105-2.21c.581-.914,1.456-1.45,2-2.415a.425.425,0,0,0,.252-.347.445.445,0,0,0,.07-.139c.1-.156.289-.349.283-.462-.1-1.991,1.247-2.23,4.441-9.095a21.142,21.142,0,0,1,2.421-4.438,2.855,2.855,0,0,0,.469-.861c.748-2.3,3.585-3.214,2.692-3.861.007-.771.524-1.439.64-2.19.4-.583.674-.958.1-1.164l0,0a2.374,2.374,0,0,0-1.539-1.989l-.307-.589c.735-.127,1.109-1.091,1.752-1.43a.181.181,0,0,0,.074-.112,11.987,11.987,0,0,0,0-3.03c-.291-1.108-.913-2.033-.856-3.368a.676.676,0,0,0-.711-.781c-1.9-.141-1.112-3.333-2.394-3.6-.824-.169-.956-1.108-1.333-1.786a.375.375,0,0,1-.041-.26c.686-1.023-.009-2.067.279-3.1.252-.9-.155-1.756.024-2.683.336-1.742,1.638-2.514,2.149-4.781.149-.661.662-.927,1.073-1.279a.419.419,0,0,1,.627.019c1.326,1.361,1.584,1.52,1.217,2.259-.174.35-.295.736.011,1.01.331.3.788.6,1.12.2.421-.513,1.053-.614,1.353-1.292.55-1.248,3.353-.147,3.931-2.643.311-1.342,2.03-1.353,2.785-1.815,1.538-.939-.222-2.124,1.645-3.968a11.428,11.428,0,0,0,1.812-2.458c.514-.129.548-.845.888-1.183a3.778,3.778,0,0,0,2.734-.441c2.694-1.586,3.139-.305,4.837-2.43,5.563-6.958,4.241-.891,8.416-2.72,1.8-.786,3.593-1.535,5.283-2.457a22.678,22.678,0,0,1,4.116-2.146,1.238,1.238,0,0,0,.658-.522c.8-1.208,1.168-.615,2.3-1.952,1.57-1.847-1.195-2.382,1.109-6.458.571-1.01,1.261-1.887,1.881-2.8a2.168,2.168,0,0,1-.248-.493,2.168,2.168,0,0,0,.248.493,1.8,1.8,0,0,0,.867-1.15s.195-.245.19-.245a.242.242,0,0,0,.1-.114c.318-.131.646-.238.949-.394,1.127-.579-.355-1.413.554-2.048.615-.43,1.31-.745,1.441-1.763.055-.426.7-.222.733-.757.77-.3.8-1.305,1.414-1.136.113.031.185-.067.145-.178-.472-1.284.446-1.833.341-2.9v-.03c.394-.858-.018-.5.818-1.2.574.266,1,.01,1.5.041.287,2.333.439,2.645-.645,3.484-.988-.132-1.18.165-.92,1.414-.092.119-.264.21-.266.362-.018,1.666-1.514,2.463-1.666,3.594a4.205,4.205,0,0,1-.716,2.173.272.272,0,0,0-.08.187c.155.88-.072,1.276-.82,1.376-.493.066-.613.858-.815,1.374-.171.439.289.805.611,1.059.355.28.447-.054.547-.337.478-1.355,1.872-1.989,2.534-2.567.947-.827-.888-1.813.558-2.866a3.637,3.637,0,0,1,1.527-.868,2.242,2.242,0,0,0,1.582-1.48c-.048-.058-.1-.157-.145-.171-.418-.118-.84-.169-1.1-.81-.234-.587.076-.807.254-1.116a2.829,2.829,0,0,1,1.142-1.03c.711-.4.167-.645,1.436-4.341a1.382,1.382,0,0,0,.112-.538,167.466,167.466,0,0,0-25.587-57.2c-1.239-.8-2.356-1.794-3.129-1.625.716.794,1.142.854,1.893,1.638a35.775,35.775,0,0,1-5.057-2.955,1.687,1.687,0,0,0-.373-.3l-.358-.24c-.5-.443-.824-.638-.8-.32-.04.073-.191,0-.354-.1-.565-.589-.592-.6-.408-.088l-.285-.137c-.4-.246-.576-.273-.844-.645-.289-.4-.052-.337.033-.4.137-.106-.013-.333-.459-.724a1.555,1.555,0,0,0-.186-.153c-1.221-.694-3.409-2.592-3.241-1.916-.333.047-.86-.155-1.2-.084a1.078,1.078,0,0,1-.591-.163c-1.654-.842-1.182-.06-3.261-1.365-1.758-1.1-3.064-1.172-3.31-1.756a3.648,3.648,0,0,0-1.188-1.357c1.093.143,1.359.288,1.212-.006a.979.979,0,0,0-.33-.385,9.457,9.457,0,0,1-1.677-1.481c-.626-.578-1.288-1.081-1.561-.816-.165.161-.516-.017-1.041-.361.3-.245-.2-.981-.467-1.571a2.472,2.472,0,0,0-.326-.665l-.054-.064a1.531,1.531,0,0,0-.516-.338,4.54,4.54,0,0,0-.878-.949c-.876-.827-.873-.824-1.146-1.658.048-.094.021-.272.159-.263.528.254-.154-.388-.4-.822a4.682,4.682,0,0,0-1.467-1.589,13.8,13.8,0,0,0-3.173-1.656,27.149,27.149,0,0,0-2.624-1.006,5.607,5.607,0,0,0,.853.874,1,1,0,0,0,.424.362l.684.661a.992.992,0,0,0,.4.376,3.828,3.828,0,0,0,1.872,1.16,2.939,2.939,0,0,1,.9.853c.284.471.7.643,1.058,1.152.007.52-1.409-.29-.706,1.164-.776-.16-1.146-.335-.907.241a.213.213,0,0,0-.057.034,2.26,2.26,0,0,0-.224-.077c.354.836-.165.647-.564.554-1.578-.368-.308.6-1.453.137a1.043,1.043,0,0,0-.7-.406c-1.037.065-1.8-.005-.673,1.393.487.607.538.743.191.837-.266.071-.441.3-.838.169a1.268,1.268,0,0,1-.736-.469c-.325-.423-.036-.455-.08-.7a.971.971,0,0,0-.422-.692c-.226-.143-.246.035-.277.179l-.279-.029a8.794,8.794,0,0,1-1.342-1.745q-.371-1.076-.75-2.144a1.782,1.782,0,0,0,.894.226c.99.905,1.527.823,1.935.5.674.2,1.45.524,1.675.062.177-.365.738-.413.156-1.48a2.774,2.774,0,0,0-.717-1.152,12.909,12.909,0,0,0-3.168-3.061c-.748-.856-1.03-.69-2.123-1.227-1.088-.747-2-1.167-2.368-.472q-1.118-.608-2.242-1.209c-1.42-1.007-2.088-.49-2.905-1.074l-.274-.271h0a1.2,1.2,0,0,0-1.261-.372c-1.662-.442-2.613-1.1-3.39-.7a2.564,2.564,0,0,1-.866.074c-.375.052-.366.14.088.8l-.189,0c-.227-.2-.4-.249-.515-.138-.692-.187-.932.494-1.669.244a2.414,2.414,0,0,1-2.263-.081,2.582,2.582,0,0,0-1.413-.1c-.392.3-1.044.163-1.361.619-.135.193-.483-.136-.685-.113-.357.04-.816-.306-1.164-.249l-.046-.027v.05l-.187.167c-.394-.216-.818-.509-.848.106-.016.329-.309.129-.493.143-.461.035-.89.139-.791.893.062.476-.338.4-.422.685.3.6.939.3,1.115,1.047.064.27.013.463-.173.489-.886.122-1.57.734-2.677.406a1.844,1.844,0,0,0-1.851.52,7.058,7.058,0,0,0-2.547.458c-.279-.072-.457-.216-.546.047-.22.054-.48.044-.54.366.015.083.012.206.05.244.785.778,1.344,2.035,2.374,2.323a2.266,2.266,0,0,1,1,.57c.106.537.325.858.755.776a1.06,1.06,0,0,1,.05-.149,1.039,1.039,0,0,0-.05.148c2.6.326,2.374-2.332,4.983-1.2.625,1.774-.923,1.673-.921,2.7l-.965-.349-.094-.054-.048.068c-.012.04-.025.08-.04.118-.116-.054-.14,0-.1.135l-.246.188c-.542-.131-.718.171-.589.835l-.137.268c-.323-.03-.708-.091-.62.331a.655.655,0,0,0,.414.457,1.173,1.173,0,0,1,.7.946c.132.542.226.912-.541.741.778.522,1.065.279,1.316.031.9-.9.527,0,2.876-.787.37.15.773.2.981.848a3.332,3.332,0,0,0-2.124,1.019c-.721-.368-.662.235-.726.963a26.209,26.209,0,0,1,4.2-.161c.165,0,.259-.113.3-.289a.46.46,0,0,0,.162-.022c.307.09.629.18.845.035a1.435,1.435,0,0,1,1.578.163c.246.143.514.226.64.05.331-.466.886-.564,1.306-.866,1.743-1.253,3.764-1.539,6.52.015a3.162,3.162,0,0,0,2.313.289c.3-.052.218-.508-.2-.955a5.12,5.12,0,0,0-2.027-1.582,2.338,2.338,0,0,1-1.844-1.216c-.985-.259-1.9-1.4-2.842-2.015a9.63,9.63,0,0,1-1.429-1.176.948.948,0,0,1-.315-.565c-.088-.8,2.141.382,2.844.821a5.079,5.079,0,0,0,2.1.84,2.11,2.11,0,0,0,1.112.163c.307.009.433-.2.437-.553a1.338,1.338,0,0,0-.595-1.239c-1.352-1.114-.006-.86-.333-1.989-.574-.193-.364-.519.006-.017a1.71,1.71,0,0,1,.38.182c1.711,1.33.415,2.215,1.717,2.823,1,.469.6-.017,1.733-.269.095-.021.18-.073.1-.265-.159-.372-.487-.461-1.31-.972-.457-.283-1.077-.925-1.049-1.243.011-.137.14-.143.264-.038,2.3,1.94,3.215-.284,4.653,2.069a1.142,1.142,0,0,1-.791-.22c-.1-.1-.145-.1-.147-.009l-.021.035a3.5,3.5,0,0,0,.81.842,3.5,3.5,0,0,1-.81-.842c-.407.638-.223,1.087.8,1.861,1.863,1.413-2.248.566,1.709,3.169.653.429,1.259,1.12,1.9,1.555.031-.053.074-.038.115.045.012.025-.006.049-.011.074.125.326-.134.546.277.93a.869.869,0,0,0,.869.277c.169-.051.186-.348.593-.107.114.593-.183.724-.563.648-.884-.175-1.419.321-2.3.184-.414-.064-.53.287-.412.842-.724-.078-1.4-.556-1.425.1a.891.891,0,0,0,.66.771,1.393,1.393,0,0,0,.9.244,4.768,4.768,0,0,0,1.733.032c1.152-.368,1.445,1.045,3.076,1.776l.01.011c.228.376.468.558.719.546.584.218.9.426.8-.072h0c.1-.256.272-.352.672-.126a7.513,7.513,0,0,0,1.134.472c.393.148.438-.193-.1-.788a.481.481,0,0,0-.1-.09,4.912,4.912,0,0,1-1.826-2.5c-.183-.376-.492-.8-.451-1.149a7.364,7.364,0,0,1,1.069.777,1.109,1.109,0,0,1,.479.605,2.5,2.5,0,0,0,.9,1.257,8.476,8.476,0,0,0,3.277,2.252c1.685.511,2.21,2.524,3.127,2.808a10.4,10.4,0,0,1,2.526,1.875c.653.508,1.3,1.181,1.957,1.78h0a7.886,7.886,0,0,0,1.463,1.809c.9.973,2.094,3.529.879,3.179-.87-.251-1.472-.669-1.592.193-.055.395.122,2.064-1.373,1.31-1.774-.894-2.035-.2-2.423-.329-1.608-.538-2.513.205-3.521.846a.473.473,0,0,1-.387.092c-1.681-.479-1.851.883-3.33.133a6.83,6.83,0,0,0-2.278-.645c-1.013-.139-1.128.173-.734,1.531.7,2.414-1.038,1.51-1.642,2.127a.728.728,0,0,0,.539,1.174.685.685,0,0,1,.738.467c.085.239.019.435-.149.419-.51-.047-.678.348-.912.721-.3.488-.889.315-1.437-.374a2.494,2.494,0,0,0-1.038-.959.964.964,0,0,1-.643-1.121,10.059,10.059,0,0,0,.043-2.193c-.02-.706,1.134-1.614-.3-2.2a10.053,10.053,0,0,1-4.973-4.232c-.27-1.26.005-2.906,1.022-2.869a1.055,1.055,0,0,0,.491-.125c1.1-.52.639-.4-1.34-3-.844-1.106.816-1.365-.374-2.786-.321-.383-.042-.609.055-.849.5-1.234-1.273-1.947-2.549-1.932a7.558,7.558,0,0,1-3.822-.836,1.5,1.5,0,0,0-1.22-.163c-.764.3-1.662.392-2.12,1.266-.276.528-1.135.42-2.694.131-.338-.062-.464-.013-.241.523.753,1.809.567,2.741-.6,3.21-.69.278-1.219,1.674-4.036-.593A3.655,3.655,0,0,1,391.689,479a9.158,9.158,0,0,0-1.377-1.89c-.313-.433-.67-.41-.722,0-.147,1.186-1.8,2.16-2.112,3.512-.129.558-.859.447-.9,1.158-.52-.036-.558.461-.611.945l-.181.241c-.4.153-.382.665-.4,1.118a1.585,1.585,0,0,1-.648,1.169c-.792.841-2.007.807-2.874,1.525-.465.385-1.841-.708-2.251.974a1.14,1.14,0,0,1-.943.937c-1.523.287-1.944,1.386-1.272,3.425.166.5.515.951-.106,1.134-.208.061-.146.341-.018.571a5.621,5.621,0,0,0,.872,1.419c.544.536.511.855.017,1.259-.055.045-.157.037-.187.1-1.1,2.193-3.354-.531-3.847,1.154a4.587,4.587,0,0,1-.854,1.928c-.3.333-.15,1.26-.587,1.726-.179.191-.062.629.1.933.719,1.311,1.208,2.063,1.841,1.4.37-.387.979-.271,1.29-.832.374-.676,1.333.5,1.887.7,1.565.571.078-1.664,1.332-1.3,1.046.309,1.985-.084,3,.091a7.108,7.108,0,0,1,1.573.309c.345.139.7.23.865-.2.309-.83-.426-1.266-2.663-4.556a26.052,26.052,0,0,0-2.335-3.314,1.447,1.447,0,0,1-.341-.753,6.7,6.7,0,0,1,4.184,1.94c3.055,2.842,5.913.887,12.227,2.673a2.984,2.984,0,0,1,1.862,1.521c.741,1.336,2.3.346,4.02,3.177-.356.3-.649-.1-.948-.3a12.609,12.609,0,0,0-6.487-2.634,2.759,2.759,0,0,0-.536-.019.847.847,0,0,0-.77.927c.008.556.459.723.791,1.014a3,3,0,0,0,2.331.909c-.678.567-1.6-.056-2.486.056.832,1.081.965,2.037.406,2.89-.463-.205-.372-1.663-1.216-.943a2.136,2.136,0,0,1-2.3.454c-.418-.151-.914-.167-.467.73.272.548-.412.787-.763.366-2.14-2.568-2.191-2.812-2.576-1.622-.424,1.307-.826,1.32.313,1.979A31.676,31.676,0,0,0,392,509.879a3.115,3.115,0,0,0,.781.263c1.364.044,1.9,2.265,3.508,2.342.4.019.835.122.953-.481a1.938,1.938,0,0,0-.621-1.753,5.134,5.134,0,0,1-1.156-1.127,5.2,5.2,0,0,1,3.106,1.069c1.145,1.081,1.266.758,5.506,3.125,1.282.715,2.4,3.737.892,3.97-.252.039-.521.085-.437.519.212,1.094,1.083.078,3.239.895.147.055.383.068.426.165.728,1.654,1.966,1.218,2.937,1.848a1.274,1.274,0,0,1,.724.866,2.5,2.5,0,0,0,.351.923c1.413,1.769,2.073,4.05,3.336,5.895.989,1.444-.088,2.19-.1,2.919a1.407,1.407,0,0,0,.593,1.419c.858.574,1.556,1.614,2.582,1.728a1.492,1.492,0,0,1,.873.741,1.616,1.616,0,0,0,1.886.974,13.211,13.211,0,0,0,3,3.189,5.959,5.959,0,0,1,2.074,2.6,3.82,3.82,0,0,1,.376,2.533,6.471,6.471,0,0,1-.34,1.5,34.434,34.434,0,0,0-1.086,4.051,7.831,7.831,0,0,0,.218,4.758c.015.283.1.5.353.571a.789.789,0,0,0,.115.152.175.175,0,0,0,.113.125l.295.157a1.29,1.29,0,0,0,.953.967,6.861,6.861,0,0,0,2.785.127c.041-.257-.052-.4-.147-.413-1.482-.242-1.555-1.79-1.8-2.91,1.565-3.142,1.9-3.4,1.567-4.78-.349-1.448.436-3.331,1.469-3.677.894-.3,1.64,1.778,2.659.362a2.351,2.351,0,0,1,2.084-.775c.364.254.722.615,1.109.36a9.565,9.565,0,0,1,2.262.49c.637.18.794.425.8,1.239,0,.173-.048.336-.037.509.032.515.336.885.641.659.973-.72,2.64,1.173,3.233-.082a.388.388,0,0,0,.368-.421l.273-.071c.277.279.528.336.741.066l.012.011c.491,0,.649.064.807-.155a5.589,5.589,0,0,1,2.245.24l.5.293c2.271,2.676,2.135,1.265,5.01,4.354a3.261,3.261,0,0,1,.293,1.433,4.56,4.56,0,0,0,.535,3.852,6.413,6.413,0,0,1,.664,2.659c-.192.958.777,2.746-.078,4.2a.5.5,0,0,0-.289.465c.056,1.735-1.019,2.343-1.118,2.87-.387,2.049-1.884,2.5-3.17,3.273-.871.524-2.664-.837-4.444-1.422-2.74-.9-.464-4.092-3.994-5.155a9.978,9.978,0,0,0-3.89-.809c-.386.043-.853-.149-1.037.42-.618,1.913,1.33,1.294,1.29,4.357a8.883,8.883,0,0,0,.459,1.727c.242,1.322.75,2.554.918,3.9a2.869,2.869,0,0,0,.506,1.217c.37.582.151,1.207-.394,1.086-1.255-.282-2.529.206-3.8-.358a5.237,5.237,0,0,0-2.308-.125.543.543,0,0,0-.507.452c-.569.173-.532.264-.66.907-1.865-.076-2.69,1.6-1.612,2.7.293.3.516.667.778.99a19.52,19.52,0,0,0,.14,4.144c.749,3.193-2.054,5.082-2.935,6.148-2.013,2.433-3.9-3-7.072.121-1.21,1.192-1.379,1.825-2.06,1.157-.633-.621-.944-1.677-1.785-2.048-.277-.122-.191-.682-.227-1.062-.358-3.758-3.272-1.035-6.515-5.093-.4-.5-.986-.774-1.48.022-.659.571-.409,1.544-.648,2.3l-.774-.173-.066-.043c-.25-.379-.091-.854-.164-1.275-.116-.676-.72-.6-.8-.107a5.713,5.713,0,0,1-.427,1.207v0a.923.923,0,0,0-.655-.016c-1.231.119-1.476.356-1.693,1.633a1.6,1.6,0,0,1-1.959.591c-3.012-.9-2.868,2.112-4.917.7-.274-.189-.539-.4-.809-.6-.1-1.1-.126-1.156-.787-.737-.587.372-1.255-.042-1.807.455-.532.078-.7.6-.721,1.276l-.291.229c-.54.175-.9-.278-1.3-.582-.06-.468.006-1.059-.565-1.065-.522,0-.639,1.3.242,1.49.076.017.152.031.228.047,0,.167-.007.334-.011.5-1.4.685-2.347,2.125-3.4,3.4-.557-.026-.918.305-1.32.845-1.16,1.555-3.426,5.992-6.166,4.817-1.931-.828-3.452.005-7.569,3.432a3.408,3.408,0,0,0-1.628,3.146,3.066,3.066,0,0,1-.495,1.545c-.278.341-.41.884-.863.984a.744.744,0,0,0-.372.42,3.077,3.077,0,0,0-2.064,2c-.538,1.215-1.157,2.379-1.583,3.663-1.241,1.286-2.246.732-5.129,2.329a5.437,5.437,0,0,1-1.249.633c-1.534.381-.435,2.533-3.03,2.55a1.039,1.039,0,0,0-.239.063,1.45,1.45,0,0,0-1.407.74A2.879,2.879,0,0,0,354.3,621a9.859,9.859,0,0,1-2.574-.037,1.767,1.767,0,0,0-1.426.37c-4.108,2.971-2.3,2.538-5.576,4.86-1.352.958-2.7-.84-3.379,2.033A9.393,9.393,0,0,0,341.449,636.715Zm37.78-142.831a3.136,3.136,0,0,1-.4-.06c-.139-.036-.343-.127-.317-.309.039-.274.26-.167.417-.032A2.4,2.4,0,0,1,379.228,493.884Zm41.092,22.185c.078.814-1.395-.377-3.18-.217a3.035,3.035,0,0,1-2.022-.487l-.582-.865c-.053-.616.206-.872.679-.64a10.95,10.95,0,0,0,2.676.664,6.491,6.491,0,0,1,2.128,1.113A.628.628,0,0,1,420.32,516.069Zm3.041,2.1c.789.029.584.595,1.853,1.14a4.176,4.176,0,0,1,.815.605c.494.4.412.856.04.913-1.21.186-1.764-.654-2.6-.87l-.064.007a1.307,1.307,0,0,0-.8-.392,2.007,2.007,0,0,0,.393.289,2.024,2.024,0,0,1-.394-.289c-.933-.879-2.035-1.085-2.955-2.025-.013.075-.053.222-.053.222,0-.044.039-.148.052-.222C419.852,516.4,421.386,518.1,423.361,518.171Zm4.051-5.353c-1.36.7-1.635.137-1.124,2.356.106.463.04.657-.317.58-1.35-.291-.287,1.577-.973,1.58-.385,0-.929-.435-1.225-1.569a3.529,3.529,0,0,0-.8-1.456l-.9-.674c-.366.134-.678.408-1.151.288a1.66,1.66,0,0,1,.3-2.214c.275-.271.518-.569.949-.543.4.023.544.517.805.806.487.539,1.2.439,1.032-.155-.186-.664.06-.6.38-.552A4.307,4.307,0,0,1,427.413,512.818Zm1.061.425c-.036-.971-.033-.975.663-.838a8.892,8.892,0,0,1,2.493,1.122,3.194,3.194,0,0,1,1.448,2.076c-.181,0-.305.084-.2.357.771,2.056,1.173,2.479,1.27,4.453.051,1.05-.54,1.436-1.262.947a3.707,3.707,0,0,1-1.5-3,4.214,4.214,0,0,0-.945-3.284,1.681,1.681,0,0,0-1.4-1.011h0Zm9.93-.545c-.007.027,0,.076-.022.078-.124.01-.238-.1-.347-.233-.487-.085-1-.254-1.365.025-.211.161-.537.058-.86-.144a18.75,18.75,0,0,1-1.656-1.012,4.751,4.751,0,0,0-1.493-.918c-.058.3.364.726.1.84-.8.341-1.417,1.083-2.753.2-.686-.453-1.544-.963-2.118-.387-.166.166-.386-.151-.485-.433-.27-.764.049-1.214.11-1.792.042-.4.456-.2.746-.163,1.349.176.708-1.33,1.481-1.31a8.041,8.041,0,0,1,4.551,2.064c1.744,1.385,2.906,1.43,3.754,3.01Zm-44.443-38.634s-.808-.013-1.229-.075h0C393.153,474.051,393.961,474.064,393.961,474.064Zm1.592-3.269s-.57.171-.643.573l.378.426h0l-.378-.426a11.321,11.321,0,0,1-1.421.078,11.358,11.358,0,0,0,1.421-.079C394.983,470.967,395.553,470.8,395.553,470.8Zm2.339-3.573c-.009.218-.018.437-.027.656-.439-.076-.913-.328-1.357-.387a1.733,1.733,0,0,1-1.369-.775c.512-.185,1.148.194,1.479-.218.493-.613.613-.506,1.274.724Zm1.119,3.192c.1.426-.2.256-.7.167h0l-.544-.126c-.123-.1-.3-.2-.257-.379C397.691,469.352,398.8,469.491,399.01,470.415Zm7.555-6.426a3.107,3.107,0,0,0-.934-.225c-.066-.715.406-.454.67-.5C406.836,463.178,407.042,464.212,406.565,463.989Zm13.15,10.162a2.113,2.113,0,0,1-.012.289c-.09.453-1.134.151-1.344-.378-.11-.277.316-.491.7-.356A1.36,1.36,0,0,1,419.715,474.151Zm-42.8,222.311.144.588Z" transform="translate(-177.215 -425.433)" fill="url(#linear-gradient-4)"/>
              <path id="Path_1398" data-name="Path 1398" d="M496.165,591.187a.51.51,0,0,1-.162-.21.726.726,0,0,1,.108-.386.725.725,0,0,0-.109.387A.506.506,0,0,0,496.165,591.187Z" transform="translate(-229.532 -470.338)" fill="url(#linear-gradient-5)"/>
              <path id="Path_1399" data-name="Path 1399" d="M411.071,471.638l.061-.333Z" transform="translate(-200.98 -430.236)" fill="url(#linear-gradient-6)"/>
              <path id="Path_1400" data-name="Path 1400" d="M420.949,481.114s.285-.143.423-.22h0C421.234,480.971,420.949,481.114,420.949,481.114Z" transform="translate(-204.301 -433.46)" fill="url(#linear-gradient-7)"/>
              <path id="Path_1401" data-name="Path 1401" d="M441.013,459.779l.467.139Z" transform="translate(-211.046 -426.361)" fill="url(#linear-gradient-8)"/>
              <path id="Path_1402" data-name="Path 1402" d="M445.713,460.688s.2.092.313.155h0C445.915,460.78,445.713,460.688,445.713,460.688Z" transform="translate(-212.626 -426.667)" fill="url(#linear-gradient-9)"/>
              <path id="Path_1403" data-name="Path 1403" d="M451.566,463.491h0C451.034,463.16,450.983,463.128,451.566,463.491Z" transform="translate(-214.453 -427.521)" fill="url(#linear-gradient-10)"/>
              <path id="Path_1404" data-name="Path 1404" d="M512.847,632.671h0l-.051-.061Z" transform="translate(-235.178 -484.465)" fill="url(#linear-gradient-11)"/>
              <path id="Path_1405" data-name="Path 1405" d="M466.15,710.78l-.947-.054Z" transform="translate(-219.178 -510.726)" fill="url(#linear-gradient-12)"/>
              <path id="Path_1406" data-name="Path 1406" d="M426.458,827.226a.487.487,0,0,1-.058-.206.487.487,0,0,0,.058.206Z" transform="translate(-206.133 -549.823)" fill="url(#linear-gradient-13)"/>
              <path id="Path_1407" data-name="Path 1407" d="M426.044,828.5a.9.9,0,0,1-.07-.095h0A.9.9,0,0,0,426.044,828.5Z" transform="translate(-205.99 -550.29)" fill="url(#linear-gradient-14)"/>
              <path id="Path_1408" data-name="Path 1408" d="M408.527,860.469a.655.655,0,0,0-.131.367.655.655,0,0,1,.131-.367C408.606,860.225,408.614,860.2,408.527,860.469Z" transform="translate(-200.08 -561.003)" fill="url(#linear-gradient-15)"/>
              <path id="Path_1409" data-name="Path 1409" d="M413.2,834.414h0a1.239,1.239,0,0,0-.078-.644A1.239,1.239,0,0,1,413.2,834.414Z" transform="translate(-201.671 -552.092)" fill="url(#linear-gradient-16)"/>
              <path id="Path_1410" data-name="Path 1410" d="M394.965,811.219s.008-.158.006-.24h0C394.973,811.061,394.965,811.219,394.965,811.219Z" transform="translate(-195.565 -544.345)" fill="url(#linear-gradient-17)"/>
              <path id="Path_1411" data-name="Path 1411" d="M487.573,485.274c.69-.113,1.45.755,1.616.224-.2-.281-.465-.653-.362-.689.233-.082.109-.526.3-.629a13.559,13.559,0,0,0-1.354-1.6,1.443,1.443,0,0,1-.513-.5.55.55,0,0,1-.076-.06c-.065-.087-.056-.1.021-.043a7.649,7.649,0,0,1,2.7,1.689c.741.815,1.243,1.226,1.288.992.028-.146.121.009.343.221a1.958,1.958,0,0,1,.827,1.629c.181.284.445.709.552.556.075-.108.456.064.005-.564-.072-.1-.084-.164-.017-.132.281.135,1.853.58,2.2,1.233.262.5.552.593.832.849h0c-.245-.4.279-.03.718.176a9.668,9.668,0,0,1,2.341,1.774c-.576-.834-.491-.917.3-.268.235.192.6.548.51.34.129-.082.626.262.9.372a2.348,2.348,0,0,1,.346.18c1.26,1.549,1.877,2.334,3.088,3.924l-.107-.071c.048.04.089.071.133.106.323.424.483.637.8,1.063-.313-.2-.843-.577-1.711-1.162a3.618,3.618,0,0,1-.621-.534l-.242-.172c-.637-.317-1.6-1.065-2.294-1.421q-.332-.189-.666-.376a4.192,4.192,0,0,0,.82.627c1.008.672,3.989,2.6,5.1,3.561l.447.607a.618.618,0,0,1-.082-.013c-.557-.11-.593-.211-3.446-2,.346.6.353.861-.28.469-1.374-.848-2.743-1.642-4.307-2.746l-.256-.153c-.37-.144-.987-.8-1.391-1.006a8.032,8.032,0,0,1-1.576-1.148c-1.79-1.58-2.362-1.068-2.706-1.244-3.645-1.867-3.684-1.857-3.95-2.311s.118-.255.237-.317c.015-.008-.041-.1-.11-.258a3.252,3.252,0,0,0-1.221-.489c-.19.012-.413-.2-.652-.52C485.234,484.34,487.045,485.361,487.573,485.274Z" transform="translate(-226.118 -433.813)" fill="url(#linear-gradient-18)"/>
              <path id="Path_1412" data-name="Path 1412" d="M495.823,490.872h0l.046.035Z" transform="translate(-229.4 -436.712)" fill="url(#linear-gradient-19)"/>
              <path id="Path_1413" data-name="Path 1413" d="M496.7,492h0c.125.121.328.28.328.28S496.826,492.119,496.7,492Z" transform="translate(-229.717 -437.16)" fill="url(#linear-gradient-20)"/>
              <path id="Path_1414" data-name="Path 1414" d="M456.691,615.382a4.26,4.26,0,0,0,1.869.06h0l.662.112c.3.324.587.313.762-.084.862-1.96,3.306-1.685,3.153-3.757l.214-.066c.6.116.964-.327,1.316-.789a1.562,1.562,0,0,1,1.387.751,2.521,2.521,0,0,0,3.305.287c.455-.417.83-.93,1.549-.568.338.171.541-.339.369-.819-.453-1.263-3.275-1.918-4.341-2.026-.629-.064-1.258-.053-1.889-.088a1.281,1.281,0,0,0-.966.161c-1.076.95-2.479.585-3.684,1.049-.054.021-.137-.058-.266-.117.06-.449.4-.424.624-.573a3.192,3.192,0,0,0,1.134-3.445c-.022-.268-.044-.536-.065-.8.317-.344.208-.739-.015-1.149l.272-.318.019-.019a.674.674,0,0,0-.165-.744l-1.566.9a3.589,3.589,0,0,0,.41.7,3.589,3.589,0,0,1-.41-.7l1.566-.9c-.177-1.291-.98-.039-1.869-.146-.321-.039-.766-.179-.779.4-.014.6.453.548.758.686-.009.161-.019.321-.029.481-.687.411-.5,1.186-.569,1.893h0a1.316,1.316,0,0,0-.538,1.065c-.151,1.269-.125,1.172-1.539.433q-.07-.421-.14-.843a3.029,3.029,0,0,1,.659-.113c.4.016.633-.173.706-.658a3.239,3.239,0,0,0,.086-.4c.011-.473.477-.743.293-1.269-.159-.456-.6-.4-.878-.685-1.17-1.176-2.1,1.226-1.05,1.153.181-.013.362-.108.538.252-.07.6-.621.943-.621,1.643-.493.287-.791,1-1.543.749-.385-.129-.491.521-.384.9.08.284.389.136.582,0h0c.951.994.953.99.443,2.361,1.115-.038,2.2-.074,3.417-.113-1.134,3.387-3.437,1.459-3.513,3.243-.761-.055-1.517-.109-2.046.745-.108.173-.346.253-.288.532.1.471.636.382,1.016.375A2.741,2.741,0,0,0,456.691,615.382Zm2.676-8.268.137-1.122Z" transform="translate(-215.285 -474.124)" fill="url(#linear-gradient-21)"/>
              <path id="Path_1415" data-name="Path 1415" d="M120.15,720.944a2.059,2.059,0,0,0,.534,1.076c.4.372.337-.2.63-.076.293.29.205.491.24.712a2.259,2.259,0,0,0,.71,1.665,1.328,1.328,0,0,1,.249.437,63.146,63.146,0,0,0,3.144,5.8c1.016,1.908,2.329,3.793,3.291,5.692a20.2,20.2,0,0,0,1.737,2.652c.327.45.7.886,1.023.744l.214.11.27.215c.394.212,1.45,1.31,2.485.882,1.444-.019-.155-2.674.019-4.072a3.765,3.765,0,0,0-1.227-2.5,25.4,25.4,0,0,1-1.706-2.423,2,2,0,0,1-.38-1.3c.126-1.83-.215-3.012-1.527-5.192-.2-.325-.408-.372-.639-.521-1.557-1.006-3.746-1.94-5.692-4.567a2.2,2.2,0,0,0-1.188-1.72,6.407,6.407,0,0,1-.849-.693,6.131,6.131,0,0,0-.431-1.235c-.388-.684-.8-.85-1.022-.41a2.7,2.7,0,0,0-.074,2.322c-.013.672.218,1.47.139,2.091A.867.867,0,0,0,120.15,720.944Zm3.333,2.9c.09-.075.262-.232.262-.232s-.172.157-.261.233Q123.634,724.324,123.483,723.842Z" transform="translate(-103.036 -512.492)" fill="url(#linear-gradient-22)"/>
              <path id="Path_1416" data-name="Path 1416" d="M269.043,506.414a2.94,2.94,0,0,1-1.553.428c-2.037.254-2.434-1.156-3.62-.83-.97.266-1.352-.356-1.642-1.248a2.541,2.541,0,0,1,.192-1.59c.688-2.189-1.928-1.023-.217-2.981,1.014-1.16,2.108-1.02,3.17-1.164.826-.112,1.6.024,1.622,1.347.015,1.041,2.021-.219,2.217.774a2.164,2.164,0,0,1-.266,1.714c-.219.321-.688.445-.639.97.043.469.4.666.622.98.088.124.231.185.331.3C269.667,505.58,269.6,506.006,269.043,506.414Z" transform="translate(-150.733 -439.546)" fill="url(#linear-gradient-23)"/>
              <path id="Path_1417" data-name="Path 1417" d="M473.047,468.7a3.03,3.03,0,0,0-1.186-.683c-.224-.1-.339-.018-.205.244a12.339,12.339,0,0,0,.5,1.156,1.169,1.169,0,0,0,.54.4,1.687,1.687,0,0,0,.571.635c2.579,1.549,3.03,1.932,2.819,1.387-.131-.34.07-.245.347-.072.364.228.712.43,1.081.67a10.042,10.042,0,0,0,1.918.856c.307.143.508.114.216-.412a2.033,2.033,0,0,0-.759-.576c-.446-.167-1.026-.5-1.278-.373-.1.046-.286-.033-.615-.532a1.59,1.59,0,0,0-.254-.274,19.658,19.658,0,0,0-2.027-1.529c-.416-.179-1.094-.759-1.334-.645C473.347,468.964,473.166,468.81,473.047,468.7Zm2.2,1.529c.151.1.211.027.491.311C475.638,470.582,475.427,470.386,475.243,470.232Zm-.111-.088,0,0a1.2,1.2,0,0,0,.08.1c.108.1.128.139.044.078A1.766,1.766,0,0,1,475.132,470.144Z" transform="translate(-221.328 -429.117)" fill="url(#linear-gradient-24)"/>
              <path id="Path_1418" data-name="Path 1418" d="M447.624,626.309c-.764-.5-1.511-.052-2.251-.325-1.857-.686-1.605,2.386-2.411.637-.2-.425-.372-1.06-.8-.97-1.136.234-2.279-.7-3.414-.054-.838.481-1.583-1.2-.343-1.528,1.353-.357,2.821-2.759,4.912-2.058,2.024.679,1.636-.385,2.784-.182.232.041.487.112.558.439.06.279-.159.384-.3.539-.591.66-.587.668.021,1.636-.343.116-.756-.181-.779.3-.026.546.374.526.684.5a20.26,20.26,0,0,1,2.036-.32c.291-.015.627.236.412.614C448.481,625.968,447.979,626.543,447.624,626.309Z" transform="translate(-209.947 -480.831)" fill="url(#linear-gradient-25)"/>
              <path id="Path_1419" data-name="Path 1419" d="M140.59,499.844c.854-.589,2.181-1.517,3.142-2.3a7.293,7.293,0,0,0,.891-.764,1.919,1.919,0,0,1,.361-.324,22.451,22.451,0,0,0,1.987-1.609,3.84,3.84,0,0,0,.79-.842c.525-.783-1.208.859-.4-.3.291-.419-.053-.145-.295.026a.173.173,0,0,0-.069.013c.089-.147.07-.182-.081-.075l-.209.09c.486-.737.488-.735-.021-.4l-.1.032c.013-.028-.005-.019-.056.025l-.392.261c-.816.289.015-.507-.518-.2-.93,1.118-1.389,1.683-2.293,2.823.077.029.155.061.244.087.3.086-.915,1.3-2.253,2.5C141.021,499.269,140.877,499.46,140.59,499.844Zm5.166-5.372s.1-.074.165-.125a3.053,3.053,0,0,1,.379-.528,3.053,3.053,0,0,0-.379.528C145.859,494.4,145.756,494.471,145.756,494.471Z" transform="translate(-110.047 -437.577)" fill="url(#linear-gradient-26)"/>
              <path id="Path_1420" data-name="Path 1420" d="M494.081,481.505c-.7-.42-1.859-1.4-2.917-2.236a3,3,0,0,1-.447-.435,4.648,4.648,0,0,0-.6-.612,12.088,12.088,0,0,1-1.142-1.187c-.313-.416.24.066.362.1a2.167,2.167,0,0,1,.259.193,9.818,9.818,0,0,1,.854.662c2.865,2.4,2.357,1.928,3.355,3.05C494.381,481.686,494.383,481.687,494.081,481.505Z" transform="translate(-227.139 -432.106)" fill="url(#linear-gradient-27)"/>
              <path id="Path_1421" data-name="Path 1421" d="M463.12,461.42a2.338,2.338,0,0,1-.9-.6,1.454,1.454,0,0,1-.337-.4c-.094-.2.018-.175.146-.107,1.535.816,1.8,1.157,1.58.706-.287-.582-.482-.342-.85-.724a7.088,7.088,0,0,1,2.733,1.109,5.375,5.375,0,0,1,1.217.654,1.775,1.775,0,0,1,.734.894.864.864,0,0,1,.084.073.428.428,0,0,1,.059.088C465.348,463.014,464.335,461.782,463.12,461.42Z" transform="translate(-218.049 -426.525)" fill="url(#linear-gradient-28)"/>
              <path id="Path_1422" data-name="Path 1422" d="M170.609,469.506a23.516,23.516,0,0,1-2.2,1.863c-.252.191-.414.279-.341.109a11.164,11.164,0,0,0-1.136,1.057c-.1.109-.272.242-.169.093.491-.7.08-.166-.829.465-.046.04-.11.1-.134.115-.043.028-.037,0,.1-.131.38-.364.69-.619,1.16-1.13a1.76,1.76,0,0,1,.218-.2c.056.062.671-.508.85-.575a5.8,5.8,0,0,0,1.443-1.146c1.012-.808,1.883-1.41,2.787-2.019a1,1,0,0,1-.083.141c-.1.085-.2.155-.305.249C171.456,468.845,171.1,469.036,170.609,469.506Z" transform="translate(-118.514 -429.129)" fill="url(#linear-gradient-29)"/>
              <path id="Path_1423" data-name="Path 1423" d="M156.216,482.216c.3-.255.621-.524,1.166-1.071.1-.117-.01-.038-.01-.038s.107-.08.01.037c.344-.335.781-.816,1.053-1.042.2-.192.286-.268-.015.046-.085.094-.363.368-.277.289.927-.848,1.264-1.025,2.076-1.715a8.155,8.155,0,0,0,.913-.846c.131-.161-.042-.006-.118.049-.032.023-.077.062-.117.094-.059.032-.169.116-.166.086.007-.091-.273.21-.6.562-.164.147-.189.151-.144.074.149-.256-.078-.1-.556.33-.082.074-.244.228-.245.22a7.782,7.782,0,0,0-.89.765c-.092.077-.189.16-.3.256-.423.442-.633.664-1.051,1.111l.287-.265-.287.265C156.656,481.741,156.509,481.9,156.216,482.216Zm1.233-1.247.569-.517Z" transform="translate(-115.301 -432.421)" fill="url(#linear-gradient-30)"/>
              <path id="Path_1424" data-name="Path 1424" d="M389.564,856.18c.8-.465,1.476-.232,2.107-.641a1.009,1.009,0,0,1,1.407.386c.125.15.413.165.134.625-.678,1.119-.723-.192-1.956.86-.489.418-1.682-.031-2.038-.25-.147-.09-.426-.043-.312-.417C389.033,856.327,389.321,856.321,389.564,856.18Z" transform="translate(-193.519 -559.364)" fill="url(#linear-gradient-31)"/>
              <path id="Path_1425" data-name="Path 1425" d="M461.191,600.054c-.39.831-1.506-.668-.944-1.261,1.035-1.093,3.64-2.106,3.441-.254C463.493,600.354,462.01,598.31,461.191,600.054Z" transform="translate(-217.46 -472.666)" fill="url(#linear-gradient-32)"/>
              <path id="Path_1426" data-name="Path 1426" d="M474.667,474.9a1.29,1.29,0,0,1-.269-.095c-.658-.593-.673-.6-.5-.133a2.092,2.092,0,0,0,.285.772c.481,1,.479,1,1.31,1.486a5.275,5.275,0,0,0,.872.615l.889.7c.733.465,1.316.748,1.638.516.884-.639,2.031.762,2.715.414.179-.253-1.184-1.438-1.351-1.107-.284-.124-1-.272-1.316-.742-.429-.64.886.3.716-.093a1.544,1.544,0,0,0-.406-.442,7.846,7.846,0,0,0-2.13-1.562c-.22-.11-.422-.187-.633-.279-1.064-.878-2-1.52-2.591-1.469-.133.011-.295-.011-.094.347a1.556,1.556,0,0,0,.655.686c-.006-.073-.012-.146-.019-.219a.306.306,0,0,0,.1.015.313.313,0,0,1-.1-.015c.007.072.013.145.019.218C474.639,474.7,474.876,474.91,474.667,474.9Zm.66.267a1.358,1.358,0,0,1,.186.191h0A1.358,1.358,0,0,0,475.327,475.168Z" transform="translate(-222.037 -430.968)" fill="url(#linear-gradient-33)"/>
              <path id="Path_1427" data-name="Path 1427" d="M152.152,496.5c.1.167-.235.7-.786,1.051-.163.1-.313.182-.467.272l-.018.028a3.091,3.091,0,0,1-.636.317c-.209.013-.757.333-.5-.074a4.463,4.463,0,0,1,1.207-1.065C151.353,496.69,152.027,496.289,152.152,496.5Z" transform="translate(-113.102 -438.686)" fill="url(#linear-gradient-34)"/>
              <path id="Path_1428" data-name="Path 1428" d="M456.616,490.829c.22.281.2.456.013.495-.725.145-1.976-.685-2.875-1.957a3.951,3.951,0,0,1,2.223.776A2.892,2.892,0,0,1,456.616,490.829Z" transform="translate(-215.329 -436.301)" fill="url(#linear-gradient-35)"/>
              <path id="Path_1429" data-name="Path 1429" d="M462.085,626.965c.3.03.666.007.771.452.125.525-.232.746-.52.948a2.994,2.994,0,0,1-2.742.169.5.5,0,0,1-.09-.862C460.553,627.26,460.482,626.8,462.085,626.965Z" transform="translate(-217.192 -482.556)" fill="url(#linear-gradient-36)"/>
              <path id="Path_1430" data-name="Path 1430" d="M416.814,519.566c.119-.014.291.114.444.477-.546.115-.975.576-1.472.718-.549.158-2.3.872-2.6.072a.4.4,0,0,1,.169-.515C414.342,519.519,415.634,519.7,416.814,519.566Z" transform="translate(-201.68 -446.461)" fill="url(#linear-gradient-37)"/>
              <path id="Path_1431" data-name="Path 1431" d="M342.915,871.027a3.45,3.45,0,0,1-1.432.807c-.483.168-.765,1.007-1.438.716A2.42,2.42,0,0,1,342.915,871.027Z" transform="translate(-177.102 -564.596)" fill="url(#linear-gradient-38)"/>
              <path id="Path_1432" data-name="Path 1432" d="M227.3,437.568c-.015-.3-.566.3-.51-.107.035-.248.3-.418.411-.644h0c.2-.293.349-.61.109-.591-.944.074-1.263.067-3.562,1.672-1.067.744-.651-.585-1.5.18-.035.106-.094.316-.094.316s.059-.21.093-.315c-.387-.069-.914,1.214-1.267.422l-.135-.149c-.862-.131-2.285,1.07-2.963,1.607.094-.205.055-.275-.063-.264h0c-.343-.07-.41-.526-.9-.368a.76.76,0,0,0-.486.327c-.911.526-1.817,1.046-2.73,1.6-.653.4-.558-.584-1.566.556a1,1,0,0,1-.644.374,33.475,33.475,0,0,0-3.689,1.935,7.369,7.369,0,0,0-.931.743,8.286,8.286,0,0,0,4.953-1.679q.911-.405,1.828-.8c-.183.233-.446.424-.519.714l-.571.554c-.029.068-.054.133-.075.2.794-.368.732-.339,0,0q.032-.1.076-.2c-.23-.012-.577.469-.9.88h0a1.816,1.816,0,0,0-.872.557,7.8,7.8,0,0,0-1.176,1c-.941.513-.662.32-.98.635.053.5.694.068,1.081.04.224.51.866-.359,1.391-.854a4.47,4.47,0,0,0,1.673-.608c.262-.394-.007-.546.362-.918,1.029-1.038.637-.979,1.938-1.551.56-.216.72.234,1.222.132-.08.711.473.585.86.7.16.05.159.355.228.552.166.479.255.524.943-.011a14.174,14.174,0,0,1,2.582-1.729c1.026-.222,1.383-2.032,3.024-2.852a.967.967,0,0,0,.567-.545.184.184,0,0,0,.116-.095l.365-.163A2.692,2.692,0,0,0,227.3,437.568Zm-16.127,7.459Zm6.235-5.133c-.562.471-.611.514,0,0Zm5.095.243h0l0-.015Zm2.558-1.5h0c-.037.01-.112.04-.112.04S225.025,438.647,225.062,438.637Zm.789-1.267-.074.031Zm.653.414-.065.085-.037-.036C226.485,437.725,226.458,437.737,226.5,437.783Z" transform="translate(-132.33 -418.443)" fill="url(#linear-gradient-39)"/>
              <path id="Path_1433" data-name="Path 1433" d="M456.008,457.946c-.325-.219-.63-.834-.363-.757a5.449,5.449,0,0,1,1.394.706,1.827,1.827,0,0,1,.6.78C457.859,459.211,457.472,458.935,456.008,457.946Z" transform="translate(-215.931 -425.488)" fill="url(#linear-gradient-40)"/>
              <path id="Path_1434" data-name="Path 1434" d="M483.812,474.546c-.216.2-1.093-.441-1.887-.965a2.669,2.669,0,0,1,1.32.288,1.313,1.313,0,0,1,.459.378C483.927,474.511,483.848,474.512,483.812,474.546Z" transform="translate(-224.8 -431.001)" fill="url(#linear-gradient-41)"/>
              <path id="Path_1435" data-name="Path 1435" d="M433.319,627.335c-.045.6-.5.5-1.284.548a2.979,2.979,0,0,1-1.42-.188.607.607,0,0,1-.176-.949C430.906,626.283,433.408,626.12,433.319,627.335Z" transform="translate(-207.437 -482.377)" fill="url(#linear-gradient-42)"/>
              <path id="Path_1436" data-name="Path 1436" d="M266.007,491.642c.09-1.619-1.376-.766-1.29-2.083.285-1.477,2.225.656,2.057,1.8C266.64,492.264,265.973,492.243,266.007,491.642Z" transform="translate(-151.776 -436.204)" fill="url(#linear-gradient-43)"/>
              <path id="Path_1437" data-name="Path 1437" d="M257.374,491.488a.887.887,0,0,0-.4,1.107c.162.5-.186.714-.565.78-.133,0-.265,0-.4,0,.165.741,1.154.461,1.035,1.1-.036.2-.155.406-.293.4-.71,0-1.413.9-2.024.506-.4.45.178.891-.356,1.243l-.392.075c-.636,1.285-.964-.345-2.6,1.62a8.671,8.671,0,0,0-.432,1.684l.016.019c2.017-.263,2.578-.5,2.515.329-.04.53-.311.721-.692.7l-.281.332c-.017.641.481.817.643,1.3.181,0,.365-.007.543.009.612.055.332.956-.23.961-.443,0-.915-.261-1.218.412-.26.578.1.686,1.666,2.252.1.1.233.205.143.43-.083.208-.27.3-.384.23a3.114,3.114,0,0,0-2.313-.288.5.5,0,0,1-.455-.234c-.333-.54-.842-.449-1.368-.367s-1.03.076-1.546.193c-1.225.276-2.354-.058-3.593.294-.712.2-1.255-.314-1.8-.671a.357.357,0,0,1-.1-.313c.431-.813.05-1.218-.162-1.749-.431-1.076.459-1.825,1.586-2.08,1.276-.289,1.482-2.935,3.489-3.806,1.325-.575.532-1.86,2.736-3.173,1.276-.76.126-1.112-.357-2.55-.386-1.15.63-.864,2.161-1.178.368-.075.894.129,1.078-.475.239-.783-.457-.473-.831-.861-.473-.145-.388-.742-.447-1.211-.07-.554.522-.927.675-.487.611,1.753,2.681-.183,2.953,1.065h0q.179.384.362.771h0c.25-.024.365.133.382.423l.007.009a3.769,3.769,0,0,0,1.118.146C257.841,490.358,257.833,491.124,257.374,491.488Z" transform="translate(-144.215 -435.792)" fill="url(#linear-gradient-44)"/>
              <path id="Path_1438" data-name="Path 1438" d="M487.781,478.805c2.173,1.806.3-.8,2.213,1,.532.5,1.027.943,1.51,1.344.147.289-.424-.212-.233.119,1.109,1.134,1.668,1.537,2.013,1.521a28.087,28.087,0,0,1,2.648,1.681c-.669-.726-.818-.7-1.351-1.263a8.646,8.646,0,0,1,1.592,1.415,3.529,3.529,0,0,0,.425.388c.2.161.386.315.579.472l.39.291a13.055,13.055,0,0,0,1.1.99,8.967,8.967,0,0,0,.917.951c.264.314.4.471.657.787-.216-.159-.534-.41-.9-.737l-.114-.062c-.035.135-.647-.468-1.386-1.046-.05.025-.39-.284-.437-.25l-.278-.362c.1.061.382.288.382.288s-.278-.227-.382-.288l-.339-.281a1.153,1.153,0,0,0,.312.421c.166.167.268.236.31.236.447.62-.023.279-.39.033a40.487,40.487,0,0,1-3.4-2.59c-3.555-2.981-4.424-2.791-6.654-5.062C485.6,477.412,486.692,477.9,487.781,478.805Z" transform="translate(-226.279 -432.464)" fill="url(#linear-gradient-45)"/>
              <path id="Path_1439" data-name="Path 1439" d="M470.55,462.418q-.639-.33-1.315-.686c-.209-.111-.625-.679-.35-.55a7.972,7.972,0,0,1,1.308.743,1.111,1.111,0,0,1,.326.312C470.623,462.388,470.634,462.462,470.55,462.418Z" transform="translate(-220.385 -426.827)" fill="url(#linear-gradient-46)"/>
              <path id="Path_1440" data-name="Path 1440" d="M449.807,490.2c.1.323-.2.693-.5.611-.486-.137-1.692-1.848-.573-1.571A1.813,1.813,0,0,1,449.807,490.2Z" transform="translate(-213.488 -436.254)" fill="url(#linear-gradient-47)"/>
              <path id="Path_1441" data-name="Path 1441" d="M278.8,587.091a5.079,5.079,0,0,1,1.262,2.686c-1.428.007-1.2-1.65-1.83-2.356a.617.617,0,0,1,.129-.378A.276.276,0,0,1,278.8,587.091Z" transform="translate(-156.317 -469.116)" fill="url(#linear-gradient-48)"/>
              <path id="Path_1442" data-name="Path 1442" d="M485.526,478.406a5.917,5.917,0,0,1-1.438-.928C484.3,477.2,484.646,477.447,485.526,478.406Z" transform="translate(-225.527 -432.275)" fill="url(#linear-gradient-49)"/>
              <path id="Path_1443" data-name="Path 1443" d="M446.252,615.917c-.009-.63.406-.611.716-.7a.4.4,0,0,1,.522.407.941.941,0,0,1-.649.878C446.52,616.588,446.364,616.257,446.252,615.917Z" transform="translate(-212.807 -478.613)" fill="url(#linear-gradient-50)"/>
              <path id="Path_1444" data-name="Path 1444" d="M497.489,484.209a1.413,1.413,0,0,1-.223-.246c-.1-.157.052-.027.244.144a5.478,5.478,0,0,1,1.006.84A3.613,3.613,0,0,1,497.489,484.209Z" transform="translate(-229.946 -434.468)" fill="url(#linear-gradient-51)"/>
              <path id="Path_1445" data-name="Path 1445" d="M414.888,483.827c-.716-.17-.633-1.354,0-1.243C415.725,482.729,415.732,484.028,414.888,483.827Z" transform="translate(-202.093 -434.025)" fill="url(#linear-gradient-52)"/>
              <path id="Path_1446" data-name="Path 1446" d="M100.158,646.328c.307,0,.621-.042.638.349a.367.367,0,0,1-.281.4.677.677,0,0,1-.281.05c-.324-.046-.84.147-.846-.449C99.382,646.174,99.907,646.459,100.158,646.328Z" transform="translate(-96.195 -489.076)" fill="url(#linear-gradient-53)"/>
              <path id="Path_1447" data-name="Path 1447" d="M452.848,613.438a.761.761,0,0,1-.61-.758c.033-.867,1.022-.931,1.034.116C453.275,613.156,453.209,613.5,452.848,613.438Z" transform="translate(-214.82 -477.543)" fill="url(#linear-gradient-54)"/>
              <path id="Path_1448" data-name="Path 1448" d="M314.8,411.757q-1.449.179-2.9.385C312.171,411.56,312.505,411.664,314.8,411.757Z" transform="translate(-167.641 -410.192)" fill="url(#linear-gradient-55)"/>
              <path id="Path_1449" data-name="Path 1449" d="M299.252,427.3a.325.325,0,0,1-.4.264c-.242-.031-.507-.086-.469-.493a.4.4,0,0,1,.384-.354C298.95,426.869,299.341,426.789,299.252,427.3Z" transform="translate(-163.095 -415.245)" fill="url(#linear-gradient-56)"/>
              <path id="Path_1450" data-name="Path 1450" d="M423.629,488.677c.038.221-.1.323-.285.271a.868.868,0,0,1-.689-.617c-.1-.339.124-.335.337-.307C423.254,488.132,423.554,488.236,423.629,488.677Z" transform="translate(-204.866 -435.853)" fill="url(#linear-gradient-57)"/>
              <path id="Path_1451" data-name="Path 1451" d="M291.571,466.328h0c.743,1.272,1.885,1.206,3.1.894a.4.4,0,0,1,.18-.088c1.643.366,1.144-.884,4.664-.977.2-.005.433.069.587-.208a.225.225,0,0,0-.171-.265c-.5-.212-.465-.526-.073-.948.781-.843,1.625-.307,2.657-.775-1.237-.789-2.222-.157-2.166-.859s.873-.377,1.737-.312c.682.052,1.391-.065.968-.67a1.42,1.42,0,0,0-.462-.5c-2.938-1.325-2.255-.709-3.449-.164a.93.93,0,0,0-.848.467c-.483.7-.937.818-1.332.2-.311-.483-.6-.593-1.05-.328-.554.329-.986-.271-1.521-.041l-.4.082a3.272,3.272,0,0,0-1.545-.011c-1.8.5-2.072-1.139-3.249-.258a1.817,1.817,0,0,1-.91.406.581.581,0,0,0-.31.078c-.707.539-1.411,1.1-2.117,1.651l-.027.032c-.587.448-.5,1.033-.137,1.236.615.344,1.163.829,1.81,1.119.171.076.343-.058.488-.235a.57.57,0,0,0,.482-.1l-.056.057a.266.266,0,0,0,.353.134l.068.006c.075.37.353.3.667.246a.379.379,0,0,0-.078-.131.378.378,0,0,1,.078.131c.457.266.626.512,1.17.418C290.991,466.448,290.795,466.52,291.571,466.328Zm-2.252-1.463Zm5.365-.535h0c.021.044.052.141.052.141S294.7,464.374,294.685,464.33Zm-1.9.531a1.433,1.433,0,0,1,.489.831,2.478,2.478,0,0,0,.536-.279,2.5,2.5,0,0,1-.536.279A1.433,1.433,0,0,0,292.781,464.861Zm-.127.671a2.075,2.075,0,0,1,0,.277h0A2.075,2.075,0,0,0,292.654,465.533Z" transform="translate(-158.732 -426.714)" fill="url(#linear-gradient-58)"/>
              <path id="Path_1452" data-name="Path 1452" d="M473.485,472.11c-.184-.25.141-.08.293.155C473.959,472.543,473.67,472.36,473.485,472.11Z" transform="translate(-221.944 -430.465)" fill="url(#linear-gradient-59)"/>
              <path id="Path_1453" data-name="Path 1453" d="M478.5,469.091a24.4,24.4,0,0,0-2.264-1.745c-.321-.219-.581-.347-.87-.513-.623-.214-1.5-1.136-1.914-1.1-.22.019-.759-.4-1.1-.528-.4-.149-.215.364-.469.4-.092.013.266.382.418.483.755.5,1.61,1.152,1.92,1.018.1-.045.3.05.636.4.212.35-.228-.06-.1.194a9.875,9.875,0,0,0,1.5.991c-.3-.455-.547-.5-.706-.7s-.157-.227-.116-.214a2.529,2.529,0,0,1,.574.372,26.693,26.693,0,0,0,2.379,1.563c.318.2-.287-.583-.108-.591C478.632,469.326,478.942,469.6,478.5,469.091Zm-3.64-2.333s.005.035.011.056h0C474.861,466.793,474.855,466.757,474.855,466.757Z" transform="translate(-221.419 -428.176)" fill="url(#linear-gradient-60)"/>
              <path id="Path_1454" data-name="Path 1454" d="M224.569,469.623l.056-.109.07.015C224.623,469.667,224.656,469.642,224.569,469.623Z" transform="translate(-138.28 -429.634)" fill="url(#linear-gradient-61)"/>
              <path id="Path_1455" data-name="Path 1455" d="M188.6,476.422l-.145.357C188.347,476.736,188.418,476.607,188.6,476.422Z" transform="translate(-126.122 -431.956)" fill="url(#linear-gradient-62)"/>
              <path id="Path_1456" data-name="Path 1456" d="M126.544,560.421q-.069.245-.136.491l-.342.081A.9.9,0,0,1,126.544,560.421Z" transform="translate(-105.165 -460.196)" fill="url(#linear-gradient-63)"/>
              <path id="Path_1457" data-name="Path 1457" d="M172.11,550.21a1.262,1.262,0,0,1,0,.239C172.03,550.4,172.037,550.32,172.11,550.21Z" transform="translate(-120.625 -456.763)" fill="url(#linear-gradient-64)"/>
              <path id="Path_1458" data-name="Path 1458" d="M463.923,541.761c.424.228.356.659.426,1.021l-.9-.674C463.528,541.868,463.638,541.607,463.923,541.761Z" transform="translate(-218.587 -453.907)" fill="url(#linear-gradient-65)"/>
              <path id="Path_1459" data-name="Path 1459" d="M217.557,548.014a5.789,5.789,0,0,0-.019-1.964,1.521,1.521,0,0,1,.674-1.522c.457-.155,1.577.439.81,1.913a7.51,7.51,0,0,0-.719,1.539,1.248,1.248,0,0,0,.891.524.35.35,0,0,1,.289.531c-1.042,1.974.121,3.875-1.308,3.821-1.914-.074-1.278-2.029-1.385-2.57A2.539,2.539,0,0,1,217.557,548.014Z" transform="translate(-135.649 -454.845)" fill="url(#linear-gradient-66)"/>
              <path id="Path_1460" data-name="Path 1460" d="M176.374,572.057c-.043.005-.007,0,.028,0,.257-.02.525-.009.522.366-.006.836-1.1.38-1.62.921-.97,1.01-1.8.385-2.685.566-.147.03-.24-.1-.21-.3C172.486,573.069,175.326,572.373,176.374,572.057Z" transform="translate(-120.742 -464.105)" fill="url(#linear-gradient-67)"/>
              <path id="Path_1461" data-name="Path 1461" d="M155.525,576.28c.284.062.185.532-.137.8a1.108,1.108,0,0,1-.914.272c-.852-.129-1.631-.353-1.606-1.632a2.212,2.212,0,0,0,1.407.182C154.8,575.769,155.092,576.185,155.525,576.28Z" transform="translate(-114.175 -465.339)" fill="url(#linear-gradient-68)"/>
              <path id="Path_1462" data-name="Path 1462" d="M154.474,574.145v0l-.009,0Z" transform="translate(-114.712 -464.81)" fill="url(#linear-gradient-69)"/>
              <path id="Path_1463" data-name="Path 1463" d="M234.961,552.945c.091.54-1.454,1.186-1.438.181C233.624,552.338,234.841,552.234,234.961,552.945Z" transform="translate(-141.29 -457.522)" fill="url(#linear-gradient-70)"/>
              <path id="Path_1464" data-name="Path 1464" d="M152.819,575.676h-.009c-.063-.009-.068.028-.064.053l-.011-.025a.124.124,0,0,1-.011-.067C152.781,575.579,152.814,575.594,152.819,575.676Z" transform="translate(-114.126 -465.299)" fill="url(#linear-gradient-71)"/>
              <path id="Path_1465" data-name="Path 1465" d="M121.992,565.795l-.347.475A.714.714,0,0,1,121.992,565.795Z" transform="translate(-103.678 -462.002)" fill="url(#linear-gradient-72)"/>
            </g>
          </g>
        </g>
        <g id="Group_3657" data-name="Group 3657" transform="translate(42.492)">
          <path id="Path_1385" data-name="Path 1385" d="M1010.189,1252.95c34.985-40.775,42.284-64.984-2.779-44.944-45.639,19.922-87.69,43.207-126.961,73.906-70.2,55.021-113.639,100.893-155.686,180.247-33.477,63.48-37.535,105.3,16.8,72.05" transform="translate(-700.059 -1185.608)" fill="none" stroke="#d8dce6" stroke-miterlimit="10" stroke-width="3" stroke-dasharray="10"/>
          <path id="Path_1386" data-name="Path 1386" d="M720.4,1232.947c-19.231-36.955-18.185-48.536,15.059-19.46a730.8,730.8,0,0,1,158.816,162.984c28.263,48.769,53.056,100.9,65.565,165.187,4.054,30.7-2.432,33.015-17.262,13.09" transform="translate(-676.231 -1197.111)" fill="none" stroke="#d8dce6" stroke-miterlimit="10" stroke-width="3" stroke-dasharray="10"/>
        </g>
        <path id="Path_1387" data-name="Path 1387" d="M732.786,1239.867c-67.649,15.754-52.708,36.722-3.592,59.775,59.889,22.472,118.968,26.644,177.7,24.208,56.529-9.383,114.681-22.472,178.509-49.578,45.41-21.43,19.346-29.656-25.022-34.405" transform="translate(-686.648 -1065.141)" fill="none" stroke="#d8dce6" stroke-miterlimit="10" stroke-width="3" stroke-dasharray="10"/>
        <g id="Group_3663" data-name="Group 3663" transform="translate(159.12 175.393)">
          <g id="Group_3642-2" data-name="Group 3642" transform="translate(0 0)">
            <circle id="Ellipse_152-2" data-name="Ellipse 152" cx="64.177" cy="64.177" r="64.177" transform="translate(0)" fill="#0667eb"/>
            <path id="Path_36-2" data-name="Path 36" d="M237.177,291.635a16.484,16.484,0,1,1-.118-18.315l15.558-9.466a34.611,34.611,0,1,0-.312,37.939Z" transform="translate(-156.325 -218.318)" fill="#fff"/>
          </g>
        </g>
        <g id="Group_3664" data-name="Group 3664" transform="translate(88.601 311.007)">
          <g id="Group_3642-3" data-name="Group 3642" transform="translate(0 0)">
            <circle id="Ellipse_152-3" data-name="Ellipse 152" cx="21.893" cy="21.893" r="21.893" transform="translate(0)" fill="#0667eb"/>
            <path id="Path_36-3" data-name="Path 36" d="M205.1,262.848a5.623,5.623,0,1,1-.04-6.248l5.307-3.229a11.807,11.807,0,1,0-.106,12.942Z" transform="translate(-177.521 -237.838)" fill="#fff"/>
          </g>
        </g>
        <g id="Group_3665" data-name="Group 3665" transform="translate(272.131 315.527)">
          <g id="Group_3642-4" data-name="Group 3642" transform="translate(0 0)">
            <circle id="Ellipse_152-4" data-name="Ellipse 152" cx="21.893" cy="21.893" r="21.893" transform="translate(0)" fill="#0667eb"/>
            <path id="Path_36-4" data-name="Path 36" d="M205.1,262.848a5.623,5.623,0,1,1-.04-6.248l5.307-3.229a11.807,11.807,0,1,0-.106,12.942Z" transform="translate(-177.521 -237.838)" fill="#fff"/>
          </g>
        </g>
        <g id="Group_3666" data-name="Group 3666" transform="translate(0 169.969)">
          <g id="Group_3642-5" data-name="Group 3642" transform="translate(0 0)">
            <circle id="Ellipse_152-5" data-name="Ellipse 152" cx="16.333" cy="16.333" r="16.333" transform="translate(0)" fill="#0667eb"/>
            <path id="Path_36-5" data-name="Path 36" d="M200.884,259.063a4.2,4.2,0,1,1-.03-4.661l3.959-2.409a8.808,8.808,0,1,0-.079,9.655Z" transform="translate(-180.308 -240.404)" fill="#fff"/>
          </g>
        </g>
        <g id="Group_3668" data-name="Group 3668" transform="translate(315.527 52.437)">
          <g id="Group_3642-6" data-name="Group 3642" transform="translate(0 0)">
            <circle id="Ellipse_152-6" data-name="Ellipse 152" cx="27.335" cy="27.335" r="27.335" transform="translate(0)" fill="#0667eb"/>
            <path id="Path_36-6" data-name="Path 36" d="M209.23,266.553a7.021,7.021,0,1,1-.05-7.8l6.627-4.032a14.742,14.742,0,1,0-.133,16.16Z" transform="translate(-174.792 -235.325)" fill="#fff"/>
          </g>
        </g>
      </g>
    </g>
  </g>
</svg>
