<svg xmlns="http://www.w3.org/2000/svg" width="48" height="48" viewBox="0 0 48 48">
  <g id="Group_4151" data-name="Group 4151" transform="translate(-830 1470)">
    <g id="Group_4012" data-name="Group 4012" transform="translate(-3110 -1707)">
      <g id="Group_4011" data-name="Group 4011" transform="translate(89.407 -55.626)">
        <g id="Group_4010" data-name="Group 4010">
          <path id="Subtraction_6" data-name="Subtraction 6" d="M20.2,37.074h0l-2.929-2.666-.029-.026C6.861,24.963,0,18.742,0,11.112A10.994,10.994,0,0,1,11.112,0,12.1,12.1,0,0,1,20.2,4.223,12.1,12.1,0,0,1,29.3,0,10.994,10.994,0,0,1,40.407,11.112a12.793,12.793,0,0,1-.411,3.2A11.234,11.234,0,0,0,25.99,31.825c-.9.823-1.812,1.653-2.78,2.532l-.077.07L20.2,37.073Z" transform="translate(3852.593 297.626)" fill="#c9e0ed"/>
          <path id="Path_2111" data-name="Path 2111" d="M11.133,2a9.133,9.133,0,1,0,9.133,9.133A9.136,9.136,0,0,0,11.133,2Z" transform="translate(3875 310)" fill="#0667eb"/>
          <path id="Path_2110" data-name="Path 2110" d="M14.81,14.825v1.3H12.986V14.812a2.542,2.542,0,0,1-2.234-2.323h1.339c.068.717.56,1.277,1.81,1.277,1.339,0,1.64-.669,1.64-1.086,0-.567-.3-1.1-1.824-1.462-1.694-.41-2.855-1.107-2.855-2.507a2.368,2.368,0,0,1,2.125-2.193V5.2H14.81V6.532a2.415,2.415,0,0,1,1.947,2.316H15.418C15.384,8.09,14.981,7.57,13.9,7.57c-1.025,0-1.64.465-1.64,1.12,0,.574.444.95,1.824,1.3s2.855.95,2.855,2.671C16.934,13.917,16,14.6,14.81,14.825Z" transform="translate(3872.527 310.354)" fill="#fff"/>
        </g>
      </g>
      <path id="Path_2114" data-name="Path 2114" d="M0,0H48V48H0Z" transform="translate(3940 237)" fill="none"/>
    </g>
  </g>
</svg>
