<svg xmlns="http://www.w3.org/2000/svg" width="48" height="48" viewBox="0 0 48 48">
  <g id="Group_4148" data-name="Group 4148" transform="translate(-1627 1062)">
    <rect id="Rectangle_733" data-name="Rectangle 733" width="48" height="48" transform="translate(1627 -1062)" fill="none"/>
    <path id="Path_2101" data-name="Path 2101" d="M35,25a13.875,13.875,0,0,1-3.16,8.84l2.84,2.84a17.958,17.958,0,0,0-2-25.36l-2.84,2.84A13.986,13.986,0,0,1,35,25ZM29,9,21,1V7h0A17.986,17.986,0,0,0,7.32,36.68l2.84-2.84A13.875,13.875,0,0,1,7,25,14.015,14.015,0,0,1,21,11h0v6Z" transform="translate(1630 -1061)" fill="#d8dce6"/>
    <path id="Path_2102" data-name="Path 2102" d="M15.439,22.9v2.563H11.857V22.877c-2.294-.483-4.24-1.959-4.387-4.562H10.1c.134,1.409,1.1,2.509,3.555,2.509,2.63,0,3.22-1.315,3.22-2.133,0-1.114-.59-2.16-3.582-2.871-3.327-.8-5.608-2.173-5.608-4.924,0-2.308,1.865-3.81,4.173-4.307V4h3.582V6.616a4.743,4.743,0,0,1,3.824,4.548h-2.63c-.067-1.489-.859-2.509-2.978-2.509-2.012,0-3.22.912-3.22,2.2,0,1.127.872,1.865,3.582,2.563s5.608,1.865,5.608,5.246c-.013,2.455-1.851,3.8-4.186,4.24Z" transform="translate(1637.452 -1046)" fill="#0667eb"/>
  </g>
</svg>
