<svg xmlns="http://www.w3.org/2000/svg" width="90.841" height="90.841" viewBox="0 0 90.841 90.841"><defs><style>.a{fill:rgba(0,0,0,0);}.b{fill:#d8dce6;}.c{fill:#fff;}.d{fill:none;stroke:#0667eb;stroke-width:2px;}.e{fill:#0667eb;}</style></defs><path class="a" d="M0,0H90.841V90.841H0Z" transform="translate(0 0)"/><g transform="translate(11.355 11.355)"><rect class="b" width="68" height="27" rx="2" transform="translate(-0.121 -0.355)"/><rect class="c" width="57" height="11" transform="translate(5.879 7.645)"/><g transform="translate(15.14 11.355)"><path class="c" d="M0,0H37.85V51.609a5.678,5.678,0,0,1-5.678,5.678H5.678A5.678,5.678,0,0,1,0,51.609Z"/><path class="d" d="M2.893,1h30.28a1.893,1.893,0,0,1,1.893,1.893V50.717A3.785,3.785,0,0,1,31.28,54.5H4.785A3.785,3.785,0,0,1,1,50.717V2.893A1.893,1.893,0,0,1,2.893,1Z" transform="translate(0.893 0.893)"/></g><path class="e" d="M11.463,2a9.463,9.463,0,1,0,9.463,9.463A9.463,9.463,0,0,0,11.463,2Zm1.325,15.225v1.807H10.27V17.206a3.52,3.52,0,0,1-3.094-3.217H9.031c.095.994.776,1.77,2.508,1.77,1.855,0,2.271-.927,2.271-1.514,0-.785-.416-1.514-2.527-2.025-2.347-.568-3.955-1.533-3.955-3.473A3.28,3.28,0,0,1,10.27,5.719V3.893h2.517V5.738a3.346,3.346,0,0,1,2.706,3.208H13.639c-.047-1.05-.606-1.77-2.1-1.77-1.419,0-2.271.643-2.271,1.552,0,.795.615,1.315,2.527,1.807s3.955,1.315,3.955,3.7C15.74,15.967,14.443,16.913,12.787,17.225Z" transform="translate(22.603 28.28)"/></g></svg>