<svg xmlns="http://www.w3.org/2000/svg" width="116.706" height="41.796" viewBox="0 0 116.706 41.796">
  <g id="Group_7459" data-name="Group 7459" transform="translate(-439 -7851)">
    <g id="Group_3141" data-name="Group 3141" transform="translate(191.707 -2089)">
      <g id="Group_3140" data-name="Group 3140">
        <path id="Path_174" data-name="Path 174" d="M107.413,0H8.233c-.3,0-.6.007-.9.013A11.973,11.973,0,0,0,5.381.2,6.18,6.18,0,0,0,3.528.855a6.3,6.3,0,0,0-1.58,1.232A6.536,6.536,0,0,0,.8,3.781,7.269,7.269,0,0,0,.19,5.769,14.406,14.406,0,0,0,.015,7.862C.006,8.182,0,8.5,0,8.824V32.977c0,.325.006.64.014.964A14.623,14.623,0,0,0,.19,36.034,7.222,7.222,0,0,0,.8,38.021a6.483,6.483,0,0,0,1.148,1.688,6.2,6.2,0,0,0,1.579,1.232,6.3,6.3,0,0,0,1.854.659,12.469,12.469,0,0,0,1.955.185q.45.01.9.011h100.24c.3,0,.6,0,.9-.011a12.222,12.222,0,0,0,1.951-.185,6.37,6.37,0,0,0,1.861-.659,6.174,6.174,0,0,0,1.577-1.232,6.631,6.631,0,0,0,1.152-1.687,7.235,7.235,0,0,0,.6-1.99,15.24,15.24,0,0,0,.181-2.093v-.964c.008-.38.008-.756.008-1.143V9.964c0-.382,0-.762-.008-1.14V7.862a15.259,15.259,0,0,0-.181-2.093,7.225,7.225,0,0,0-.6-1.988A6.546,6.546,0,0,0,113.181.855,6.254,6.254,0,0,0,111.319.2a11.908,11.908,0,0,0-1.951-.185q-.45-.009-.9-.014Z" transform="translate(247.293 9940)" fill="#a6a6a6"/>
        <path id="Path_175" data-name="Path 175" d="M8,40.623c-.3,0-.587,0-.882-.011a11.631,11.631,0,0,1-1.822-.17,5.473,5.473,0,0,1-1.616-.573,5.33,5.33,0,0,1-1.363-1.062,5.551,5.551,0,0,1-.995-1.46,6.285,6.285,0,0,1-.529-1.731A13.968,13.968,0,0,1,.63,33.657C.619,33.437.611,32.7.611,32.7V8.567s.008-.723.014-.934A13.91,13.91,0,0,1,.787,5.676a6.36,6.36,0,0,1,.529-1.738,5.664,5.664,0,0,1,.991-1.46A5.459,5.459,0,0,1,3.675,1.411,5.362,5.362,0,0,1,5.287.842,11.538,11.538,0,0,1,7.116.671L8,.657H108.226l.89.014a11.474,11.474,0,0,1,1.811.17,5.489,5.489,0,0,1,1.63.573,5.654,5.654,0,0,1,2.355,2.529,6.3,6.3,0,0,1,.524,1.723,14.592,14.592,0,0,1,.169,1.972v.93c.008.392.008.765.008,1.14V31.574c0,.38,0,.751-.008,1.123v.972a14.08,14.08,0,0,1-.167,1.937,6.243,6.243,0,0,1-.525,1.745,5.764,5.764,0,0,1-.991,1.447,5.347,5.347,0,0,1-1.365,1.069,5.428,5.428,0,0,1-1.626.574,11.307,11.307,0,0,1-1.824.17c-.286.008-.585.011-.875.011H8Z" transform="translate(247.533 9940.259)"/>
        <path id="Path_176" data-name="Path 176" d="M15.111,12.667a5.27,5.27,0,0,1,2.3-4.347,4.864,4.864,0,0,0-3.893-2.26c-1.637-.184-3.225,1.052-4.06,1.052-.85,0-2.136-1.034-3.519-1A5.154,5.154,0,0,0,1.576,8.965C-.311,12.472,1.1,17.624,2.9,20.458c.9,1.388,1.96,2.937,3.344,2.883,1.351-.06,1.857-.927,3.49-.927,1.616,0,2.091.927,3.5.892,1.452-.025,2.367-1.393,3.239-2.8a11.857,11.857,0,0,0,1.481-3.238,5.028,5.028,0,0,1-2.848-4.606ZM12.448,4.2A5.352,5.352,0,0,0,13.534.541a4.733,4.733,0,0,0-3.128,1.737A5.076,5.076,0,0,0,9.292,5.8a3.9,3.9,0,0,0,3.156-1.6Z" transform="translate(256.338 9948.541)" fill="#fff"/>
        <path id="Path_177" data-name="Path 177" d="M7.98,10.359H3.363L2.255,13.873H.3l4.372-13H6.7l4.372,13H9.088ZM3.842,8.737H7.5l-1.8-5.7H5.65l-1.807,5.7Zm16.677.4c0,2.947-1.469,4.84-3.685,4.84a2.959,2.959,0,0,1-2.778-1.658h-.042v4.7H12.2V4.392h1.756V5.97h.032A3.092,3.092,0,0,1,16.8,4.294c2.24,0,3.719,1.9,3.719,4.84Zm-1.863,0c0-1.919-.924-3.179-2.334-3.179-1.385,0-2.317,1.287-2.317,3.181,0,1.909.932,3.189,2.317,3.189,1.411,0,2.335-1.258,2.335-3.195Zm11.581,0c0,2.947-1.469,4.84-3.685,4.84a2.96,2.96,0,0,1-2.778-1.658h-.042v4.7H21.921V4.392h1.753V5.97h.033a3.092,3.092,0,0,1,2.812-1.676c2.242,0,3.72,1.9,3.72,4.84Zm-1.863,0c0-1.919-.924-3.179-2.334-3.179-1.385,0-2.316,1.287-2.316,3.181,0,1.909.931,3.189,2.316,3.189,1.411,0,2.335-1.258,2.335-3.195ZM36.66,10.25c.135,1.29,1.3,2.136,2.9,2.136,1.528,0,2.628-.846,2.628-2.009,0-1.009-.663-1.613-2.233-2.027l-1.569-.407c-2.224-.575-3.256-1.693-3.256-3.5C35.13,2.2,36.951.659,39.537.659c2.553,0,4.309,1.541,4.363,3.78H42.075a2.305,2.305,0,0,0-2.569-2.082c-1.46,0-2.459.793-2.459,1.946,0,.92.638,1.46,2.2,1.874l1.333.351c2.486.631,3.518,1.7,3.518,3.6,0,2.433-1.806,3.957-4.676,3.957-2.686,0-4.5-1.488-4.616-3.84H36.66Zm11.348-8.1V4.393h1.68V5.934h-1.68V11.16c0,.812.337,1.191,1.074,1.191a5.318,5.318,0,0,0,.6-.046v1.533a4.692,4.692,0,0,1-1.006.089c-1.788,0-2.486-.72-2.486-2.559V5.934H44.9V4.393h1.283V2.15Zm2.653,6.983c0-2.982,1.636-4.856,4.187-4.856s4.19,1.874,4.19,4.857-1.62,4.857-4.19,4.857-4.187-1.867-4.187-4.857Zm6.529,0c0-2.045-.874-3.252-2.341-3.252S52.507,7.1,52.507,9.134c0,2.054.872,3.252,2.341,3.252s2.342-1.2,2.342-3.252Zm3.341-4.74H62.26V6.008h.04a2.133,2.133,0,0,1,2.123-1.714,2.667,2.667,0,0,1,.621.072V6.188a2.421,2.421,0,0,0-.814-.118,1.771,1.771,0,0,0-1.413.624,2.061,2.061,0,0,0-.476,1.558v5.622H60.533V4.393Zm12.872,6.7a3.585,3.585,0,0,1-3.8,2.9c-2.569,0-4.163-1.847-4.163-4.812s1.6-4.9,4.086-4.9c2.444,0,3.979,1.8,3.979,4.676v.666H67.268v.118a2.579,2.579,0,0,0,.624,1.917,2.209,2.209,0,0,0,1.751.766,1.988,1.988,0,0,0,2.04-1.332ZM67.276,8.261h4.415A2.372,2.372,0,0,0,71.1,6.549a2.055,2.055,0,0,0-1.573-.7,2.167,2.167,0,0,0-1.591.7,2.492,2.492,0,0,0-.658,1.7Z" transform="translate(280.57 9958.01)" fill="#fff"/>
      </g>
    </g>
    <text id="Baixe_na" data-name="Baixe na" transform="translate(473 7866)" fill="#fff" font-size="9" font-family="Roboto-Regular, Roboto"><tspan x="0" y="0">Baixe na</tspan></text>
  </g>
</svg>
