<svg xmlns="http://www.w3.org/2000/svg" width="167.25" height="52.82" viewBox="0 0 167.25 52.82">
  <g id="Group_7440" data-name="Group 7440" transform="translate(-323.86 -7627.001)">
    <g id="App_Store" data-name="App Store" transform="translate(323.86 7627.001)">
      <path id="Path_174" data-name="Path 174" d="M153.93,0H13.326c-.511,0-1.018,0-1.529,0-.427,0-.853.009-1.284.016a19.394,19.394,0,0,0-2.8.234,9.662,9.662,0,0,0-2.656.828A8.968,8.968,0,0,0,2.791,2.637a8.293,8.293,0,0,0-1.645,2.14A8.411,8.411,0,0,0,.272,7.29a16.107,16.107,0,0,0-.25,2.645c-.014.4-.016.81-.022,1.216V41.672c.006.411.008.808.02,1.218a16.349,16.349,0,0,0,.252,2.644,8.356,8.356,0,0,0,.875,2.513,8.231,8.231,0,0,0,1.645,2.133,8.833,8.833,0,0,0,2.262,1.557,9.851,9.851,0,0,0,2.658.833,20.2,20.2,0,0,0,2.8.234c.431.009.857.014,1.284.014l1.529,0h140.6l1.517,0c.423,0,.861-.005,1.286-.014a19.8,19.8,0,0,0,2.8-.234,9.958,9.958,0,0,0,2.668-.833,8.787,8.787,0,0,0,2.26-1.557,8.22,8.22,0,0,0,2.518-4.646,17.039,17.039,0,0,0,.26-2.645c0-.409,0-.808,0-1.218.012-.48.012-.956.012-1.444V12.592c0-.483,0-.963-.012-1.441,0-.4,0-.812,0-1.216a17.063,17.063,0,0,0-.26-2.645,8.354,8.354,0,0,0-.867-2.513,8.8,8.8,0,0,0-3.911-3.7,9.782,9.782,0,0,0-2.668-.828,19.288,19.288,0,0,0-2.8-.234c-.425-.007-.863-.014-1.288-.018Z" transform="translate(0)" fill="#a6a6a6"/>
      <path id="Path_175" data-name="Path 175" d="M11.193,50.852c-.425,0-.841,0-1.264-.014a18.954,18.954,0,0,1-2.612-.213A8.594,8.594,0,0,1,5,49.905a7.592,7.592,0,0,1-1.953-1.334,7.012,7.012,0,0,1-1.426-1.834,7.2,7.2,0,0,1-.759-2.174A15.428,15.428,0,0,1,.631,42.1c-.008-.276-.02-1.2-.02-1.2V10.591s.012-.908.02-1.173A15.364,15.364,0,0,1,.863,6.961a7.28,7.28,0,0,1,.759-2.183,7.15,7.15,0,0,1,1.42-1.834A7.773,7.773,0,0,1,5,1.6,8.422,8.422,0,0,1,7.312.889,18.8,18.8,0,0,1,9.933.674L11.2.657H154.831l1.276.017a18.7,18.7,0,0,1,2.6.213,8.624,8.624,0,0,1,2.336.719,7.578,7.578,0,0,1,3.374,3.176,7.206,7.206,0,0,1,.751,2.164,16.115,16.115,0,0,1,.242,2.476c0,.372,0,.77,0,1.168.012.492.012.96.012,1.432V39.487c0,.477,0,.943-.012,1.411,0,.428,0,.819-.006,1.221a15.556,15.556,0,0,1-.24,2.432,7.14,7.14,0,0,1-.753,2.191,7.286,7.286,0,0,1-1.42,1.818,7.609,7.609,0,0,1-1.957,1.343,8.526,8.526,0,0,1-2.33.721,18.427,18.427,0,0,1-2.614.213c-.409.01-.839.014-1.254.014l-1.515,0-142.128,0Z" transform="translate(0.609 0.655)"/>
      <path id="Path_176" data-name="Path 176" d="M21.361,17.918a7.553,7.553,0,0,1,3.294-6.23A6.971,6.971,0,0,0,19.077,8.45c-2.346-.264-4.622,1.507-5.818,1.507-1.218,0-3.061-1.482-5.044-1.438a7.386,7.386,0,0,0-6.252,4.093c-2.7,5.026-.687,12.409,1.9,16.47,1.3,1.989,2.809,4.209,4.792,4.131,1.937-.086,2.662-1.328,5-1.328,2.316,0,3,1.328,5.018,1.278,2.081-.036,3.392-2,4.642-4.005a16.993,16.993,0,0,0,2.122-4.64,7.206,7.206,0,0,1-4.081-6.6ZM17.544,5.778A7.67,7.67,0,0,0,19.1.541a6.782,6.782,0,0,0-4.482,2.49,7.274,7.274,0,0,0-1.6,5.046,5.587,5.587,0,0,0,4.522-2.3Z" transform="translate(13.257 9.089)" fill="#fff"/>
      <path id="Path_177" data-name="Path 177" d="M9.936,11.077H4.143l-1.39,3.774H.3L5.785.887h2.55L13.82,14.851H11.326ZM4.744,9.335h4.59L7.071,3.209H7.008L4.741,9.335Zm20.925.425c0,3.165-1.842,5.2-4.624,5.2a3.84,3.84,0,0,1-3.486-1.781h-.052v5.043H15.233V4.668h2.2v1.7h.04A4.016,4.016,0,0,1,21,4.563c2.811,0,4.666,2.043,4.666,5.2Zm-2.337,0c0-2.06-1.159-3.415-2.928-3.415-1.738,0-2.907,1.383-2.907,3.416,0,2.05,1.169,3.425,2.907,3.425C22.173,13.187,23.332,11.84,23.332,9.76Zm14.53,0c0,3.165-1.842,5.2-4.624,5.2a3.842,3.842,0,0,1-3.486-1.781H29.7v5.043H27.428V4.668h2.2v1.7h.042a4.016,4.016,0,0,1,3.528-1.8c2.813,0,4.667,2.043,4.667,5.2Zm-2.337,0c0-2.06-1.159-3.415-2.928-3.415-1.738,0-2.905,1.383-2.905,3.416,0,2.05,1.168,3.425,2.905,3.425C34.366,13.187,35.525,11.84,35.525,9.76Zm10.4,1.2c.17,1.386,1.633,2.294,3.633,2.294,1.918,0,3.3-.908,3.3-2.158,0-1.083-.832-1.733-2.8-2.177L48.08,8.482c-2.79-.618-4.085-1.818-4.085-3.763,0-2.409,2.285-4.064,5.529-4.064,3.209,0,5.412,1.655,5.486,4.064h-2.3c-.138-1.395-1.391-2.236-3.223-2.236S46.4,3.335,46.4,4.574c0,.988.8,1.568,2.76,2.013l1.673.377c3.119.678,4.414,1.829,4.414,3.871,0,2.613-2.266,4.25-5.867,4.25-3.37,0-5.646-1.6-5.791-4.124Zm14.238-8.7V4.67h2.108V6.325H60.159v5.613c0,.872.423,1.279,1.348,1.279.252,0,.5-.021.748-.049v1.646a6.851,6.851,0,0,1-1.262.1c-2.243,0-3.119-.774-3.119-2.749V6.325h-1.61V4.67h1.61V2.261Zm3.328,7.5A4.883,4.883,0,0,1,68.74,4.546,4.88,4.88,0,0,1,74,9.762a4.871,4.871,0,0,1-5.257,5.216,4.869,4.869,0,0,1-5.253-5.216Zm8.192,0c0-2.2-1.1-3.492-2.937-3.492S65.8,7.574,65.8,9.762c0,2.206,1.094,3.492,2.937,3.492s2.939-1.287,2.939-3.492ZM75.871,4.67H78.04V6.4h.052a2.62,2.62,0,0,1,2.664-1.841,3.885,3.885,0,0,1,.78.078V6.6a3.512,3.512,0,0,0-1.021-.127,2.4,2.4,0,0,0-1.773.67,2.007,2.007,0,0,0-.6,1.673v6.038H75.872V4.67Zm16.151,7.191c-.306,1.848-2.264,3.117-4.771,3.117-3.223,0-5.223-1.984-5.223-5.168s2.01-5.264,5.127-5.264a4.657,4.657,0,0,1,4.993,5.022v.715H84.323v.127a2.524,2.524,0,0,0,.783,2.059,3,3,0,0,0,2.2.823,2.536,2.536,0,0,0,2.559-1.431ZM84.333,8.824h5.54a2.333,2.333,0,0,0-.745-1.839,2.792,2.792,0,0,0-1.974-.747,2.947,2.947,0,0,0-2,.753,2.476,2.476,0,0,0-.825,1.832Z" transform="translate(48.349 25.313)" fill="#fff"/>
    </g>
    <text id="Baixe_na" data-name="Baixe na" transform="translate(373 7647)" fill="#fff" font-size="14" font-family="Roboto-Regular, Roboto"><tspan x="0" y="0">Baixe na</tspan></text>
  </g>
</svg>
