<svg xmlns="http://www.w3.org/2000/svg" width="116.707" height="41.798" viewBox="0 0 116.707 41.798">
  <g id="Group_3141" data-name="Group 3141" transform="translate(-247.293 -9940)">
    <g id="Group_3140" data-name="Group 3140">
      <path id="Path_174" data-name="Path 174" d="M107.413,0H9.3c-.357,0-.711,0-1.067,0-.3,0-.595.007-.9.013A11.973,11.973,0,0,0,5.381.2,6.18,6.18,0,0,0,3.528.855a6.3,6.3,0,0,0-1.58,1.232A6.536,6.536,0,0,0,.8,3.781a7.269,7.269,0,0,0-.61,1.988A14.406,14.406,0,0,0,.015,7.862C.006,8.182,0,8.5,0,8.824V32.977c0,.325.006.64.014.964a14.623,14.623,0,0,0,.176,2.093A7.222,7.222,0,0,0,.8,38.021a6.483,6.483,0,0,0,1.148,1.688,6.2,6.2,0,0,0,1.579,1.232,6.3,6.3,0,0,0,1.854.659,12.469,12.469,0,0,0,1.955.185c.3.007.6.011.9.011h100.24c.3,0,.6,0,.9-.011a12.222,12.222,0,0,0,1.951-.185,6.37,6.37,0,0,0,1.861-.659,6.174,6.174,0,0,0,1.577-1.232,6.631,6.631,0,0,0,1.152-1.687,7.235,7.235,0,0,0,.6-1.99,15.239,15.239,0,0,0,.181-2.093c0-.324,0-.64,0-.964.008-.38.008-.756.008-1.143V9.964c0-.382,0-.762-.008-1.14,0-.32,0-.642,0-.962a15.26,15.26,0,0,0-.181-2.093,7.225,7.225,0,0,0-.6-1.988A6.546,6.546,0,0,0,113.181.855,6.254,6.254,0,0,0,111.319.2a11.908,11.908,0,0,0-1.951-.185c-.3-.006-.6-.011-.9-.014Z" transform="translate(247.293 9940)" fill="#a6a6a6"/>
      <path id="Path_175" data-name="Path 175" d="M8,40.623c-.3,0-.587,0-.882-.011a11.63,11.63,0,0,1-1.822-.17,5.473,5.473,0,0,1-1.616-.573,5.33,5.33,0,0,1-1.363-1.062,5.551,5.551,0,0,1-.995-1.46,6.285,6.285,0,0,1-.529-1.731,13.968,13.968,0,0,1-.163-1.959C.619,33.437.611,32.7.611,32.7V8.567s.008-.723.014-.934A13.91,13.91,0,0,1,.787,5.676a6.36,6.36,0,0,1,.529-1.738,5.664,5.664,0,0,1,.991-1.46A5.459,5.459,0,0,1,3.675,1.411,5.362,5.362,0,0,1,5.287.842,11.538,11.538,0,0,1,7.116.671L8,.657H108.226l.89.014a11.474,11.474,0,0,1,1.811.17,5.489,5.489,0,0,1,1.63.573,5.654,5.654,0,0,1,2.355,2.529,6.3,6.3,0,0,1,.524,1.723,14.591,14.591,0,0,1,.169,1.972c0,.3,0,.613,0,.93.008.392.008.765.008,1.14V31.574c0,.38,0,.751-.008,1.123,0,.341,0,.652,0,.972a14.081,14.081,0,0,1-.167,1.937,6.243,6.243,0,0,1-.525,1.745,5.764,5.764,0,0,1-.991,1.447,5.347,5.347,0,0,1-1.365,1.069,5.428,5.428,0,0,1-1.626.574,11.307,11.307,0,0,1-1.824.17c-.286.008-.585.011-.875.011l-1.057,0L8,40.623Z" transform="translate(247.533 9940.259)"/>
      <path id="Path_176" data-name="Path 176" d="M15.111,12.667a5.27,5.27,0,0,1,2.3-4.347,4.864,4.864,0,0,0-3.893-2.26c-1.637-.184-3.225,1.052-4.06,1.052-.85,0-2.136-1.034-3.519-1A5.154,5.154,0,0,0,1.576,8.965C-.311,12.472,1.1,17.624,2.9,20.458c.9,1.388,1.96,2.937,3.344,2.883,1.351-.06,1.857-.927,3.49-.927,1.616,0,2.091.927,3.5.892,1.452-.025,2.367-1.393,3.239-2.795a11.857,11.857,0,0,0,1.481-3.238,5.028,5.028,0,0,1-2.848-4.606ZM12.448,4.2A5.352,5.352,0,0,0,13.534.541a4.733,4.733,0,0,0-3.128,1.737A5.076,5.076,0,0,0,9.292,5.8a3.9,3.9,0,0,0,3.156-1.6Z" transform="translate(256.338 9948.541)" fill="#fff"/>
      <path id="Path_177" data-name="Path 177" d="M7.98,10.359H3.363L2.255,13.873H.3l4.372-13H6.7l4.372,13H9.088ZM3.842,8.737H7.5l-1.8-5.7h-.05l-1.807,5.7Zm16.677.4c0,2.947-1.469,4.84-3.685,4.84a2.959,2.959,0,0,1-2.778-1.658h-.042v4.7H12.2V4.392h1.756V5.97h.032A3.092,3.092,0,0,1,16.8,4.294c2.24,0,3.719,1.9,3.719,4.84Zm-1.863,0c0-1.919-.924-3.179-2.334-3.179-1.385,0-2.317,1.287-2.317,3.181,0,1.909.932,3.189,2.317,3.189C17.733,12.324,18.657,11.07,18.657,9.133Zm11.581,0c0,2.947-1.469,4.84-3.685,4.84a2.96,2.96,0,0,1-2.778-1.658h-.042v4.7H21.921V4.392h1.753V5.97h.033a3.092,3.092,0,0,1,2.812-1.676c2.242,0,3.72,1.9,3.72,4.84Zm-1.863,0c0-1.919-.924-3.179-2.334-3.179-1.385,0-2.316,1.287-2.316,3.181,0,1.909.931,3.189,2.316,3.189C27.451,12.324,28.375,11.07,28.375,9.133ZM36.66,10.25c.135,1.29,1.3,2.136,2.9,2.136,1.528,0,2.628-.846,2.628-2.009,0-1.009-.663-1.613-2.233-2.027l-1.569-.407c-2.224-.575-3.256-1.693-3.256-3.5,0-2.243,1.821-3.784,4.407-3.784C42.09.655,43.846,2.2,43.9,4.439H42.075a2.305,2.305,0,0,0-2.569-2.082c-1.46,0-2.459.793-2.459,1.946,0,.92.638,1.46,2.2,1.874l1.333.351c2.486.631,3.518,1.7,3.518,3.6,0,2.433-1.806,3.957-4.676,3.957-2.686,0-4.5-1.488-4.616-3.84H36.66Zm11.348-8.1V4.393h1.68V5.934h-1.68V11.16c0,.812.337,1.191,1.074,1.191a5.318,5.318,0,0,0,.6-.046v1.533a4.692,4.692,0,0,1-1.006.089c-1.788,0-2.486-.72-2.486-2.559V5.934H44.9V4.393h1.283V2.15Zm2.653,6.983c0-2.982,1.636-4.856,4.187-4.856s4.19,1.874,4.19,4.857-1.62,4.857-4.19,4.857-4.187-1.867-4.187-4.857Zm6.529,0c0-2.045-.874-3.252-2.341-3.252S52.507,7.1,52.507,9.134c0,2.054.872,3.252,2.341,3.252s2.342-1.2,2.342-3.252Zm3.341-4.74H62.26V6.008H62.3a2.133,2.133,0,0,1,2.123-1.714,2.667,2.667,0,0,1,.621.072V6.188a2.421,2.421,0,0,0-.814-.118,1.771,1.771,0,0,0-1.413.624,2.061,2.061,0,0,0-.476,1.558v5.622H60.533V4.393Zm12.872,6.7a3.585,3.585,0,0,1-3.8,2.9c-2.569,0-4.163-1.847-4.163-4.812s1.6-4.9,4.086-4.9c2.444,0,3.979,1.8,3.979,4.676v.666H67.268v.118a2.579,2.579,0,0,0,.624,1.917,2.209,2.209,0,0,0,1.751.766,1.988,1.988,0,0,0,2.04-1.332ZM67.276,8.261h4.415A2.372,2.372,0,0,0,71.1,6.549a2.055,2.055,0,0,0-1.573-.7,2.167,2.167,0,0,0-1.591.7,2.492,2.492,0,0,0-.658,1.705Z" transform="translate(280.57 9958.01)" fill="#fff"/>
      <path id="Path_178" data-name="Path 178" d="M2.571.637a2.476,2.476,0,0,1,2.054.855A2.9,2.9,0,0,1,5.31,3.74c0,2-1.006,3.143-2.739,3.143H.47V.637ZM1.373,6h1.1a1.768,1.768,0,0,0,1.457-.634,2.06,2.06,0,0,0,.461-1.613,2.062,2.062,0,0,0-.468-1.6,1.775,1.775,0,0,0-1.45-.633h-1.1V6ZM6.33,4.525a2.288,2.288,0,0,1,.975-2.111,1.96,1.96,0,0,1,2.193,0,2.291,2.291,0,0,1,.975,2.111A2.29,2.29,0,0,1,9.5,6.638a1.959,1.959,0,0,1-2.2,0A2.29,2.29,0,0,1,6.33,4.525Zm3.252,0C9.582,3.5,9.154,2.9,8.4,2.9s-1.177.6-1.177,1.62S7.65,6.148,8.4,6.148s1.179-.6,1.179-1.623Zm6.4,2.359h-.9l-.907-3.472H14.1l-.9,3.472h-.892L11.1,2.169h.879l.786,3.6h.065l.9-3.6h.83l.9,3.6h.068l.783-3.6h.867ZM18.2,2.17h.836v.748H19.1a1.306,1.306,0,0,1,1.31-.84,1.379,1.379,0,0,1,1.154.485,1.606,1.606,0,0,1,.366,1.268V6.883h-.867V4.065c0-.757-.307-1.134-.947-1.134a.977.977,0,0,0-.78.339,1.134,1.134,0,0,0-.268.857V6.885H18.2V2.167ZM23.314.328h.867V6.883h-.867Zm2.07,4.2a2.288,2.288,0,0,1,.975-2.111,1.962,1.962,0,0,1,2.194,0,2.29,2.29,0,0,1,.974,2.111,2.29,2.29,0,0,1-.974,2.114,1.959,1.959,0,0,1-2.2,0,2.29,2.29,0,0,1-.974-2.114Zm3.252,0c0-1.023-.428-1.62-1.179-1.62s-1.177.6-1.177,1.62.424,1.623,1.177,1.623,1.179-.6,1.179-1.623Zm1.8,1.025c0-.848.589-1.338,1.634-1.407l1.19-.074V3.662c0-.5-.307-.779-.9-.779-.483,0-.818.191-.914.524h-.84A1.613,1.613,0,0,1,32.4,2.078a1.51,1.51,0,0,1,1.722,1.584V6.883h-.835V6.222h-.068a1.452,1.452,0,0,1-1.319.74A1.267,1.267,0,0,1,30.881,6.6a1.474,1.474,0,0,1-.44-1.055Zm2.824-.4V4.753l-1.073.074c-.6.043-.878.265-.878.68s.341.672.814.672a.99.99,0,0,0,.772-.256,1.145,1.145,0,0,0,.365-.775Zm2-.623c0-1.491.713-2.434,1.822-2.434a1.434,1.434,0,0,1,1.347.828H38.5V.328h.867V6.883h-.83V6.141h-.068a1.5,1.5,0,0,1-1.379.822c-1.117,0-1.822-.943-1.822-2.438Zm.894,0c0,1,.439,1.6,1.175,1.6s1.181-.612,1.181-1.6-.457-1.6-1.181-1.6-1.175.606-1.175,1.6Zm6.792,0a2.288,2.288,0,0,1,.975-2.111,1.96,1.96,0,0,1,2.193,0,2.29,2.29,0,0,1,.974,2.111,2.292,2.292,0,0,1-.973,2.114,1.962,1.962,0,0,1-2.2,0A2.292,2.292,0,0,1,42.952,4.525Zm3.25,0c0-1.023-.428-1.62-1.177-1.62s-1.177.6-1.177,1.62.424,1.623,1.177,1.623S46.2,5.55,46.2,4.525ZM48.258,2.17h.833v.748h.065a1.307,1.307,0,0,1,1.31-.84,1.379,1.379,0,0,1,1.154.485,1.607,1.607,0,0,1,.368,1.268V6.883h-.867V4.065c0-.757-.307-1.134-.947-1.134a.973.973,0,0,0-.78.339,1.129,1.129,0,0,0-.269.857V6.885h-.867V2.167ZM56.883,1v1.2h.953v.783h-.952V5.4c0,.495.189.711.62.711a2.632,2.632,0,0,0,.332-.021v.775a2.687,2.687,0,0,1-.472.047c-.964,0-1.347-.364-1.347-1.273V2.975h-.7V2.191h.7V1h.868ZM59.019.328h.86v2.6h.068a1.343,1.343,0,0,1,1.339-.844,1.4,1.4,0,0,1,1.142.5A1.628,1.628,0,0,1,62.8,3.84V6.883h-.868V4.069c0-.752-.326-1.134-.939-1.134a.99.99,0,0,0-.812.32,1.149,1.149,0,0,0-.293.875V6.883h-.868V.328Zm8.833,5.283a1.791,1.791,0,0,1-1.9,1.364,1.934,1.934,0,0,1-1.54-.713,2.252,2.252,0,0,1-.489-1.721,2.289,2.289,0,0,1,.488-1.728,1.968,1.968,0,0,1,1.537-.736c1.222,0,1.959.9,1.959,2.377v.325H64.8v.052a1.3,1.3,0,0,0,.307.954,1.125,1.125,0,0,0,.864.4,1.033,1.033,0,0,0,1.044-.571h.835ZM64.8,4.093h2.218a1.2,1.2,0,0,0-.288-.869,1.029,1.029,0,0,0-.794-.354,1.093,1.093,0,0,0-.808.354,1.256,1.256,0,0,0-.327.868Z" transform="translate(281.613 9948.484)" fill="#fff"/>
    </g>
  </g>
</svg>
