<svg xmlns="http://www.w3.org/2000/svg" width="18.375" height="18.375" viewBox="0 0 18.375 18.375">
  <path id="Path_1198" data-name="Path 1198" d="M17.063-17.062H1.308A1.318,1.318,0,0,0,0-15.738V-.012A1.318,1.318,0,0,0,1.308,1.313H17.063A1.322,1.322,0,0,0,18.375-.012V-15.738A1.322,1.322,0,0,0,17.063-17.062ZM5.554-1.312H2.83v-8.769H5.558v8.769ZM4.192-11.279a1.58,1.58,0,0,1-1.579-1.579,1.58,1.58,0,0,1,1.579-1.579,1.582,1.582,0,0,1,1.579,1.579A1.577,1.577,0,0,1,4.192-11.279Zm11.57,9.967H13.039V-5.578c0-1.017-.021-2.326-1.415-2.326C10.2-7.9,9.987-6.8,9.987-5.652v4.339H7.264v-8.769H9.877v1.2h.037a2.868,2.868,0,0,1,2.58-1.415c2.756,0,3.269,1.817,3.269,4.179Z" transform="translate(0 17.063)" fill="#0077b5"/>
</svg>
