<svg xmlns="http://www.w3.org/2000/svg" width="136.143" height="34.853" viewBox="0 0 136.143 34.853">
  <path id="forbes" d="M123.576,34.829a27.3,27.3,0,0,1-5.442-1.175l-.452-.191-.061-2.2c-.034-1.212-.073-2.833-.087-3.6l-.025-1.4.271-.128a2.117,2.117,0,0,1,.667-.146l.4-.018.339.82c1.318,3.2,2.864,4.924,4.885,5.449a6.547,6.547,0,0,0,2.786,0,3.415,3.415,0,0,0,2.482-3.378c.009-1.93-1.067-2.857-5.132-4.422-2.518-.97-3.4-1.469-4.443-2.524a6.061,6.061,0,0,1-1.772-4.239,7.051,7.051,0,0,1,2.1-5.587,9.475,9.475,0,0,1,6.28-2.677,20.5,20.5,0,0,1,8.03,1.094l.353.147.063,1.965c.034,1.08.07,2.529.08,3.219l.016,1.254-.474.173c-.749.274-.8.24-1.215-.848-1.168-3.051-2.526-4.5-4.64-4.936a3.2,3.2,0,0,0-3.149.845,3.046,3.046,0,0,0-.906,2.174,2.652,2.652,0,0,0,.77,2.3c.794.856,2.1,1.6,4.688,2.663,3.174,1.307,4.689,2.417,5.512,4.04a6.335,6.335,0,0,1,.633,3.515,5.946,5.946,0,0,1-.361,2.281c-.915,2.661-2.98,4.413-6.17,5.234a10.4,10.4,0,0,1-3.383.316C124.981,34.859,123.792,34.852,123.576,34.829Zm-42.185-.276a12,12,0,0,0,7-3.231c2.67-2.58,3.955-6.221,3.782-10.709a12.116,12.116,0,0,0-1.444-5.692,9.083,9.083,0,0,0-6.123-4.84,10.8,10.8,0,0,0-6.26.781,5.95,5.95,0,0,1-.994.392c-.126,0-.14-.714-.108-5.627L77.284,0l-.393.078c-.216.043-2.418.447-4.895.9s-4.6.844-4.717.871c-.179.041-.211.109-.191.411.021.337.05.367.41.445,1.241.269,1.462.365,1.923.835a4.355,4.355,0,0,1,.988,2.844c.134,1.222.163,22.275.035,25.383l-.075,1.843,1.009.212A31.812,31.812,0,0,0,81.392,34.553Zm26.963,0a11.918,11.918,0,0,0,6.106-2.934c.879-.82,1.171-1.217,1.049-1.424-.326-.554-.313-.553-1.146-.048a6.935,6.935,0,0,1-3.55,1.182,8.939,8.939,0,0,1-5.051-.9,7.95,7.95,0,0,1-2.879-2.8,12.072,12.072,0,0,1-1.434-5.4c-.057-.928-.045-1.16.066-1.229.075-.047,3.339-.086,7.306-.086l7.17,0v-.279a22.606,22.606,0,0,0-.4-3.234c-.762-3.6-2.772-6.16-5.64-7.191a10.146,10.146,0,0,0-3.643-.583,11.043,11.043,0,0,0-8.254,3.267,12.5,12.5,0,0,0-3.32,6.429,11.427,11.427,0,0,0-.216,2.991,11.423,11.423,0,0,0,.211,2.963c1.141,5.06,4.519,8.392,9.371,9.246A14.8,14.8,0,0,0,108.354,34.55Zm-69.392-.126A11.406,11.406,0,0,0,43.321,32.5c3.01-2.216,4.66-5.614,4.812-9.913.15-4.238-1.147-7.85-3.654-10.179a11.02,11.02,0,0,0-7.915-2.8,11.556,11.556,0,0,0-8.522,3.234,12.782,12.782,0,0,0-3.566,9.33c0,3.93,1.115,7.1,3.276,9.325a9.628,9.628,0,0,0,4.016,2.544,15.642,15.642,0,0,0,2.594.593c.135.025,1.037.029,2.006.01A12.429,12.429,0,0,0,38.963,34.424ZM20.04,23.17l-.227-.917a4.778,4.778,0,0,0-2.26-3.4,14.331,14.331,0,0,0-3.867-.387l-1.052-.031v2.177c0,2.373.132,5.583.3,7.326.237,2.429.866,3.771,2,4.257a8.812,8.812,0,0,0,1.518.335,9.212,9.212,0,0,1,1.3.253c.239.122.253,1.38.017,1.469-.185.07-17.458.065-17.634-.005-.081-.032-.122-.273-.122-.718,0-.8-.052-.764,1.517-1.05A2.848,2.848,0,0,0,3.69,31.349c1.03-1.331,1.253-3.895,1.255-14.45,0-9.913-.192-12-1.257-13.53a3.374,3.374,0,0,0-2.6-1.206L.057,2.041.028,1.25,0,.459.322.4C.5.372,6.721.359,14.148.374L27.652.4l.063.386c.035.212.092,2.389.127,4.838l.064,4.452-.7.208c-1.048.314-1.042.318-1.513-.912-1.158-3.021-2.486-4.761-4.3-5.64-1.253-.607-1.833-.68-5.372-.68h-3.08l-.053.507c-.1.949-.257,7.06-.256,9.937v2.87l.905-.005c.5,0,1.48-.039,2.182-.08a4.419,4.419,0,0,0,1.811-.319c1.085-.5,1.823-1.585,2.276-3.359l.233-.916,1.6-.056V23.226ZM48.378,34.231c-.089-.056-.118-.278-.1-.747l.03-.667.343-.072c.188-.04.593-.118.9-.174a2.136,2.136,0,0,0,1.8-1.674c.25-.809.36-3.4.365-8.6.007-6.357-.127-7.858-.779-8.709-.353-.461-.608-.592-1.465-.754-.423-.08-.869-.166-.99-.191-.2-.04-.221-.1-.221-.576s.03-.543.221-.62c.293-.119,9.989-2.029,10.3-2.029h.242l-.047,1.423c-.026.783-.068,1.922-.093,2.533l-.045,1.109.351-.624a8.716,8.716,0,0,1,4.062-4,5.573,5.573,0,0,1,2.672-.54c1.349,0,2.7.434,2.7.868,0,.292-2.376,6.481-2.507,6.531a3.979,3.979,0,0,1-1.031-.389,6.912,6.912,0,0,0-2.989-.737,4.759,4.759,0,0,0-3.045.989c-.224.237-.225.252-.281,3.8-.055,3.51.064,7.792.264,9.514.171,1.467.566,2.189,1.383,2.526a14.831,14.831,0,0,0,2.559.346,1.852,1.852,0,0,1,.049.748l-.028.748-7.243.023C51.807,34.3,48.519,34.275,48.378,34.231Zm-11-1.32a3.961,3.961,0,0,0,2-1.853c.941-1.774,1.362-4.4,1.372-8.564.013-5.221-.817-8.543-2.57-10.283a2.684,2.684,0,0,0-2.2-.956c-2.088,0-3.414,2.152-3.938,6.384a47.662,47.662,0,0,0,0,8.28C32.787,31.183,34.7,33.694,37.377,32.911Zm42.408-.047a3.644,3.644,0,0,0,1.856-.937c1.486-1.317,2.6-4.037,3.043-7.407a28.033,28.033,0,0,0-.044-5.645c-.537-3.1-1.69-5.134-3.372-5.954a2.659,2.659,0,0,0-1.633-.364,5.527,5.527,0,0,0-1.534.188l-.648.188L77.4,16.46c-.061,4.517.088,15.825.213,16.15.08.207.168.251.564.281A4.745,4.745,0,0,0,79.785,32.864Zm27.29-13.855,1.7-.059-.061-1.192c-.216-4.2-1.26-6.5-2.953-6.5-1.84,0-3.31,2.334-3.922,6.219a11.723,11.723,0,0,0-.138,1.259l0,.39,1.835-.029C104.546,19.081,106.138,19.042,107.075,19.01Z" fill="#d8dce6" fill-rule="evenodd"/>
</svg>
