<svg id="reuters" xmlns="http://www.w3.org/2000/svg" width="130.844" height="30.185" viewBox="0 0 130.844 30.185">
  <path id="Path_1048" data-name="Path 1048" d="M109.027,20.991c0,1.6.058,1.648,1.513,1.648h4.855a.382.382,0,0,1,.378.381v1.224c0,.269-.094.366-.378.4a25.737,25.737,0,0,1-4.143.267c-3.188,0-4.872.021-4.872-3.923V14.932c0-3.946,1.684-3.925,4.872-3.925a26.163,26.163,0,0,1,4.143.267c.284.039.378.134.378.4V12.9a.386.386,0,0,1-.378.385H110.54c-1.455,0-1.513.042-1.513,1.645v1.754h6.134a.382.382,0,0,1,.381.382v1.381a.381.381,0,0,1-.381.382h-6.134Zm28.342,3.932a20.855,20.855,0,0,1-4.331-.5.412.412,0,0,1-.363-.382V22.66a.366.366,0,0,1,.363-.364h.039a34.982,34.982,0,0,0,4.335.345c1.7,0,2.224-.609,2.224-1.72,0-1.436-3.43-2.231-5.106-2.92a3.431,3.431,0,0,1-2.258-3.349c0-2.107,1.7-3.638,5.259-3.638a18.689,18.689,0,0,1,4.152.505.384.384,0,0,1,.342.361V13.3a.325.325,0,0,1-.325.343h-.037a41.359,41.359,0,0,0-4.242-.345c-1.421,0-2.485.5-2.485,1.357,0,.63.722,1.211,1.573,1.546s1.968.769,3.244,1.282c1.611.653,2.66,1.6,2.66,3.438C142.409,22.855,141.2,24.922,137.368,24.922Zm-10.189-9.584c0-1.436-1.113-2.048-3.034-2.048-.4,0-2.143.039-2.49.074v4.152c.31.019,2.169.058,2.49.058,1.976,0,3.034-.381,3.034-2.065Zm2.876,9.424h-2.342c-.21,0-.286-.193-.381-.384l-2.762-4.641h-.428c-.5,0-2.045-.055-2.49-.078v4.718a.367.367,0,0,1-.362.384h-1.914a.385.385,0,0,1-.384-.384V11.832c0-.385.227-.518.611-.576a39.5,39.5,0,0,1,4.537-.248c2.955,0,5.678,1.054,5.678,4.328v.173a3.684,3.684,0,0,1-2.587,3.747l3.012,5.123a.252.252,0,0,1,.039.155A.208.208,0,0,1,130.055,24.762ZM104.03,13.382h-3.824v11a.389.389,0,0,1-.389.384H97.922a.385.385,0,0,1-.384-.384v-11H93.711a.35.35,0,0,1-.382-.342V11.528a.368.368,0,0,1,.382-.364H104.03a.368.368,0,0,1,.381.364V13.04A.35.35,0,0,1,104.03,13.382ZM85.682,24.914c-3.081,0-5.74-1.339-5.74-5.421V11.528a.37.37,0,0,1,.386-.364h1.893a.367.367,0,0,1,.384.364v7.965c0,2.184,1.01,3.219,3.077,3.219s3.08-1.035,3.08-3.219V11.528a.368.368,0,0,1,.383-.364h1.9a.368.368,0,0,1,.386.364v7.965C91.429,23.575,88.77,24.914,85.682,24.914Zm-15.35-3.923c0,1.6.062,1.648,1.511,1.648h4.851a.383.383,0,0,1,.384.381v1.224c0,.269-.1.366-.384.4a25.642,25.642,0,0,1-4.141.267c-3.18,0-4.868.021-4.868-3.923V14.932c0-3.946,1.687-3.925,4.868-3.925a26.065,26.065,0,0,1,4.141.267c.289.039.384.134.384.4V12.9a.387.387,0,0,1-.384.385H71.843c-1.449,0-1.511.042-1.511,1.645v1.754h6.133a.387.387,0,0,1,.384.382v1.381a.385.385,0,0,1-.384.382H70.332Zm-8.215-5.653c0-1.436-1.115-2.048-3.031-2.048-.405,0-2.149.039-2.491.074v4.152c.3.019,2.161.058,2.491.058,1.971,0,3.031-.381,3.031-2.065Zm2.875,9.424H62.652c-.209,0-.287-.193-.381-.384L59.51,19.738h-.421c-.5,0-2.05-.055-2.491-.078v4.718a.371.371,0,0,1-.366.384H54.315a.384.384,0,0,1-.381-.384V11.832c0-.385.227-.518.613-.576a39.525,39.525,0,0,1,4.542-.248c2.95,0,5.676,1.054,5.676,4.328v.173a3.681,3.681,0,0,1-2.587,3.747l3.007,5.123a.254.254,0,0,1,.039.155A.213.213,0,0,1,64.993,24.762Z" transform="translate(-11.567 -2.912)" fill="#d8dce6"/>
  <path id="Path_1049" data-name="Path 1049" d="M18.693,13.364a.551.551,0,1,0,.266-.07A.58.58,0,0,0,18.693,13.364Zm1.5.024a.489.489,0,1,0,.238-.062A.471.471,0,0,0,20.189,13.389Zm-2.916.4a.631.631,0,1,0,.3-.076A.628.628,0,0,0,17.273,13.787Zm4.352.068a.441.441,0,0,0-.178.591.43.43,0,0,0,.585.172.424.424,0,0,0,.177-.584.434.434,0,0,0-.383-.228A.44.44,0,0,0,21.625,13.855Zm-5.479.882a.556.556,0,1,0,.754.228.561.561,0,0,0-.493-.295A.522.522,0,0,0,16.147,14.738Zm6.714.006a.373.373,0,0,0-.156.5.374.374,0,1,0,.658-.355.377.377,0,0,0-.327-.2A.383.383,0,0,0,22.86,14.744Zm.913,1.216a.316.316,0,0,0-.12.423.307.307,0,0,0,.541-.291.317.317,0,0,0-.421-.131ZM15.344,16a.494.494,0,1,0,.467.871.494.494,0,0,0,.2-.672.5.5,0,0,0-.669-.2Zm8.892,1.291a.367.367,0,0,0-.151.5.372.372,0,0,0,.5.154.382.382,0,0,0,.157-.509.373.373,0,0,0-.327-.194A.382.382,0,0,0,24.237,17.29Zm-9.286.17a.434.434,0,1,0,.209-.053A.4.4,0,0,0,14.95,17.46ZM24.24,18.7a.433.433,0,1,0,.413.761.433.433,0,0,0,.172-.586.432.432,0,0,0-.585-.175Zm-9.226.274a.374.374,0,0,0-.148.505.372.372,0,0,0,.653-.355.377.377,0,0,0-.506-.151Zm8.777,1.074a.494.494,0,1,0,.235-.06A.492.492,0,0,0,23.791,20.047Zm-8.258.363a.31.31,0,0,0-.125.423.31.31,0,1,0,.543-.3.318.318,0,0,0-.276-.162A.323.323,0,0,0,15.532,20.41Zm7.4.789a.556.556,0,1,0,.754.225.561.561,0,0,0-.491-.293A.552.552,0,0,0,22.929,21.2Zm-6.537.322a.369.369,0,0,0-.151.5.364.364,0,0,0,.5.147.366.366,0,0,0-.175-.69A.362.362,0,0,0,16.391,21.521Zm5.333.5a.625.625,0,0,0-.253.853.639.639,0,0,0,.857.256.632.632,0,0,0-.3-1.187A.582.582,0,0,0,21.724,22.024ZM17.57,22.3a.426.426,0,0,0-.175.586.431.431,0,0,0,.585.178.434.434,0,0,0-.207-.816A.386.386,0,0,0,17.57,22.3Zm2.807.277a.557.557,0,1,0,.757.227.559.559,0,0,0-.491-.291A.538.538,0,0,0,20.377,22.575Zm-1.436.086a.5.5,0,0,0,.473.873.494.494,0,0,0-.237-.929A.514.514,0,0,0,18.941,22.661Z" transform="translate(-3.722 -3.37)" fill="#d8dce6"/>
  <path id="Path_1050" data-name="Path 1050" d="M18.5,11.356a.707.707,0,1,0,.88-.479.738.738,0,0,0-.2-.029A.713.713,0,0,0,18.5,11.356Zm1.895.228a.812.812,0,1,0,1.007-.552A.8.8,0,0,0,21.173,11,.815.815,0,0,0,20.4,11.584Zm-3.8.165a.63.63,0,1,0,.783-.424.593.593,0,0,0-.175-.024A.632.632,0,0,0,16.6,11.749Zm5.714.729a.707.707,0,1,0,.88-.483.707.707,0,0,0-.88.483Zm-7.348.274a.495.495,0,1,0,.614-.335.526.526,0,0,0-.139-.019A.491.491,0,0,0,14.965,12.751Zm8.883,1.124a.628.628,0,1,0,.78-.424.606.606,0,0,0-.177-.026A.638.638,0,0,0,23.848,13.875Zm-10.176.361a.4.4,0,0,0,.272.494.4.4,0,1,0,.227-.766.425.425,0,0,0-.109-.015A.4.4,0,0,0,13.672,14.236Zm11.269,1.44a.5.5,0,1,0,.616-.332.484.484,0,0,0-.143-.021A.494.494,0,0,0,24.94,15.676Zm-12.029.4a.3.3,0,1,0,.368-.2.311.311,0,0,0-.084-.011A.292.292,0,0,0,12.911,16.079Zm12.492,1.6a.4.4,0,0,0,.272.5.4.4,0,1,0,.225-.768.446.446,0,0,0-.112-.016A.4.4,0,0,0,25.4,17.679Zm-12.852.363a.4.4,0,1,0,.5-.272.443.443,0,0,0-.112-.016A.412.412,0,0,0,12.552,18.041ZM25.24,19.7a.3.3,0,0,0,.2.371.3.3,0,0,0,.169-.575.28.28,0,0,0-.081-.011A.3.3,0,0,0,25.24,19.7Zm-12.4.293a.493.493,0,1,0,.947.277.486.486,0,0,0-.334-.609.505.505,0,0,0-.146-.021A.482.482,0,0,0,12.839,19.991Zm11.445,1.493a.4.4,0,0,0,.77.227.406.406,0,0,0-.272-.5.446.446,0,0,0-.112-.016A.406.406,0,0,0,24.284,21.484Zm-10.614.232a.63.63,0,0,0,1.208.356.636.636,0,0,0-.43-.784.614.614,0,0,0-.177-.026A.63.63,0,0,0,13.67,21.715Zm9.14,1.2a.5.5,0,0,0,.339.614.494.494,0,0,0,.279-.947.482.482,0,0,0-.143-.021A.5.5,0,0,0,22.81,22.915Zm-7.753.16a.7.7,0,0,0,.478.874.706.706,0,1,0,.4-1.355.725.725,0,0,0-.2-.029A.705.705,0,0,0,15.058,23.076Zm1.715.826a.812.812,0,1,0,1.007-.551.857.857,0,0,0-.229-.032A.81.81,0,0,0,16.772,23.9Zm4.145-.06a.629.629,0,1,0,.781-.423.575.575,0,0,0-.178-.028A.629.629,0,0,0,20.917,23.841Zm-2.05.351a.707.707,0,1,0,.878-.479.729.729,0,0,0-.2-.029A.707.707,0,0,0,18.867,24.193Z" transform="translate(-3.283 -2.88)" fill="#d8dce6"/>
  <path id="Path_1051" data-name="Path 1051" d="M19.263,8.389a.812.812,0,1,0,.588-.251A.812.812,0,0,0,19.263,8.389Zm-2.553.2a.637.637,0,1,0,.464-.2A.645.645,0,0,0,16.71,8.587Zm5.054.483a.9.9,0,1,0,.656-.285A.894.894,0,0,0,21.764,9.07Zm-7.49.5A.513.513,0,1,0,15,9.55a.522.522,0,0,0-.353-.139A.514.514,0,0,0,14.273,9.572Zm9.607.915a1.042,1.042,0,0,0,1.514,1.431,1.043,1.043,0,0,0-.755-1.76A1.035,1.035,0,0,0,23.88,10.486ZM12.25,11.3a.383.383,0,1,0,.541-.016.4.4,0,0,0-.266-.1A.37.37,0,0,0,12.25,11.3Zm13.368,1.4a.908.908,0,1,0,.663-.285A.9.9,0,0,0,25.618,12.7Zm-14.974.724a.511.511,0,0,0,.023.725.512.512,0,1,0,.7-.743.516.516,0,0,0-.726.018Zm15.948,1.865a.808.808,0,1,0,.587-.253A.8.8,0,0,0,26.592,15.286Zm-16.786.625a.634.634,0,0,0,.926.868.634.634,0,1,0-.926-.868ZM26.8,18.079a.639.639,0,1,0,.465-.2A.649.649,0,0,0,26.8,18.079Zm-17.036.389a.808.808,0,1,0,.59-.254A.807.807,0,0,0,9.761,18.468Zm16.376,2.265a.514.514,0,1,0,.729-.023.53.53,0,0,0-.353-.139A.513.513,0,0,0,26.137,20.733Zm-15.544.188a.9.9,0,1,0,.661-.285A.9.9,0,0,0,10.592,20.921Zm1.541,2.022a1.043,1.043,0,1,0,.759-.327A1.027,1.027,0,0,0,12.134,22.943Zm12.586.092a.382.382,0,1,0,.558.521A.382.382,0,0,0,25,22.914h0A.374.374,0,0,0,24.72,23.036ZM14.445,24.55a.908.908,0,1,0,.663-.287A.9.9,0,0,0,14.445,24.55Zm8.062.034a.512.512,0,1,0,.373-.162A.518.518,0,0,0,22.508,24.584Zm-5.417.779a.81.81,0,1,0,.59-.253A.818.818,0,0,0,17.091,25.362Zm2.8.04a.639.639,0,1,0,.465-.2A.635.635,0,0,0,19.895,25.4Z" transform="translate(-2.684 -2.338)" fill="#d8dce6"/>
  <path id="Path_1052" data-name="Path 1052" d="M19.159,4.89a.69.69,0,1,0,.136-.015A1.054,1.054,0,0,0,19.159,4.89Zm-2.89.191a.541.541,0,1,0,.079-.006A.45.45,0,0,0,16.268,5.081Zm5.675.4a.854.854,0,1,0,.209-.024A.792.792,0,0,0,21.943,5.48Zm-8.631.478a.51.51,0,1,0,.2-.04A.5.5,0,0,0,13.312,5.957Zm11.1.771a1.049,1.049,0,1,0,.316-.049A1.079,1.079,0,0,0,24.412,6.728ZM10.644,7.5a.549.549,0,1,0,.34-.117A.556.556,0,0,0,10.644,7.5Zm15.8,1.189a1.163,1.163,0,1,0,.4-.071A1.136,1.136,0,0,0,26.44,8.692Zm-17.916.78a.7.7,0,1,0,.4-.128A.7.7,0,0,0,8.524,9.473Zm19.328,1.679a1.26,1.26,0,1,0,.5-.1A1.259,1.259,0,0,0,27.852,11.152ZM7.039,11.9a.845.845,0,1,0,.452-.131A.86.86,0,0,0,7.039,11.9Zm21.6,2.205a1.164,1.164,0,1,0,.512-.12A1.158,1.158,0,0,0,28.641,14.1Zm-22.386.449a1.051,1.051,0,1,0,.515-.136A1.033,1.033,0,0,0,6.255,14.552ZM28.68,17.17a1.05,1.05,0,1,0,.515-.136A1.067,1.067,0,0,0,28.68,17.17Zm-22.385.2a1.161,1.161,0,1,0,.52-.121A1.157,1.157,0,0,0,6.3,17.373Zm.823,2.712a1.265,1.265,0,1,0,.5-.1A1.21,1.21,0,0,0,7.118,20.085Zm20.906.144a.846.846,0,1,0,.449-.13A.815.815,0,0,0,28.025,20.229Zm-19.3,2.456a1.161,1.161,0,1,0,.4-.073A1.175,1.175,0,0,0,8.722,22.686Zm17.916.261a.7.7,0,1,0,.4-.128A.684.684,0,0,0,26.637,22.946ZM10.928,24.82a1.052,1.052,0,1,0,.314-.049A1.047,1.047,0,0,0,10.928,24.82Zm13.719.377a.545.545,0,1,0,.339-.118A.557.557,0,0,0,24.647,25.2ZM13.605,26.442a.849.849,0,1,0,.211-.026A.79.79,0,0,0,13.605,26.442Zm8.648.227a.506.506,0,1,0,.668.262.51.51,0,0,0-.467-.306A.538.538,0,0,0,22.253,26.669Zm-5.719.63a.694.694,0,1,0,.138-.015A.678.678,0,0,0,16.534,27.3Zm3.005.1a.541.541,0,1,0,.078-.006A.431.431,0,0,0,19.539,27.4Z" transform="translate(-1.905 -1.685)" fill="#d8dce6"/>
  <path id="Path_1053" data-name="Path 1053" d="M16.4,1.535a.65.65,0,1,0,.648-.648A.649.649,0,0,0,16.4,1.535Zm3.718.311a.694.694,0,1,0,.671-.517A.7.7,0,0,0,20.115,1.846Zm-6.991-.491a.691.691,0,1,0,.183-.026A.725.725,0,0,0,13.124,1.355ZM23.4,3.28a.893.893,0,1,0,1.06-.683.942.942,0,0,0-.19-.019A.886.886,0,0,0,23.4,3.28ZM9.629,2.6a.893.893,0,1,0,.188-.019A.834.834,0,0,0,9.629,2.6ZM26.2,5.6a1.082,1.082,0,1,0,1.238-.9,1.247,1.247,0,0,0-.172-.013A1.079,1.079,0,0,0,26.2,5.6ZM6.653,4.7a1.076,1.076,0,1,0,.173-.015A1.253,1.253,0,0,0,6.653,4.7ZM28.226,8.616a1.349,1.349,0,1,0,1.483-1.2,1.425,1.425,0,0,0-.143-.006A1.349,1.349,0,0,0,28.226,8.616ZM4.384,7.416a1.359,1.359,0,1,0,.144-.006A1.064,1.064,0,0,0,4.384,7.416ZM29.532,12.16A1.488,1.488,0,1,0,31.1,10.755c-.028,0-.055,0-.081,0A1.482,1.482,0,0,0,29.532,12.16ZM3,10.757a1.5,1.5,0,1,0,.081,0A.685.685,0,0,0,3,10.757Zm26.891,5.22a1.618,1.618,0,1,0,1.619-1.614A1.618,1.618,0,0,0,29.887,15.977Zm-28.919,0A1.618,1.618,0,1,0,2.59,14.364,1.621,1.621,0,0,0,.969,15.979Zm29.967,2.256a1.5,1.5,0,1,0,.079,0C30.988,18.233,30.962,18.233,30.936,18.234ZM1.591,19.64a1.488,1.488,0,1,0,1.566-1.406c-.026,0-.052,0-.078,0A1.488,1.488,0,0,0,1.591,19.64Zm27.836,2.222a1.357,1.357,0,1,0,.143-.006A.843.843,0,0,0,29.427,21.861ZM3.185,23.06a1.348,1.348,0,1,0,1.48-1.2,1.068,1.068,0,0,0-.143-.008A1.35,1.35,0,0,0,3.185,23.06ZM27.1,25.126a1.083,1.083,0,1,0,.169-.013A.852.852,0,0,0,27.1,25.126Zm-21.347.9a1.082,1.082,0,1,0,1.237-.9,1.012,1.012,0,0,0-.17-.013A1.08,1.08,0,0,0,5.755,26.023Zm18.336,1.6a.895.895,0,1,0,.186-.019A.934.934,0,0,0,24.091,27.618ZM8.942,28.3A.892.892,0,1,0,10,27.618a.907.907,0,0,0-.185-.019A.894.894,0,0,0,8.942,28.3Zm11.666.954a.7.7,0,1,0,.18-.024A.64.64,0,0,0,20.608,29.258Zm-7.978.492a.7.7,0,1,0,.854-.494.688.688,0,0,0-.18-.024A.7.7,0,0,0,12.63,29.75Zm3.767.674a.65.65,0,1,0,.648-.649A.648.648,0,0,0,16.4,30.424Z" transform="translate(-0.969 -0.887)" fill="#d8dce6"/>
</svg>
