<svg xmlns="http://www.w3.org/2000/svg" width="133.419" height="20.947" viewBox="0 0 133.419 20.947">
  <path id="the_telegraph" d="M17.219,19.437c2.395-.223,4.789-1,4.789-3.454V8.072l-1.14-1.114L19.614,8.072v5.905l1.026.891-2.281,2.006h-.114L15.965,14.98l.57-.557V2.389A1.576,1.576,0,0,0,15.281.941V.718A2.321,2.321,0,0,1,16.307.5a1.839,1.839,0,0,1,1.711,1h.114A2.4,2.4,0,0,1,20.07.5a1.477,1.477,0,0,1,.684.111V.83a1.7,1.7,0,0,0-1.026,1.783V7.626l3.079-2.786h.228c.228.223,1.482,1.337,1.824,1.56.114.111.228.111.456.111A1.647,1.647,0,0,0,26,6.289v.334a1.518,1.518,0,0,0-.57,1.114v6.8c0,3.008-3.421,4.9-7.982,5.237v-.334ZM16.079.83a1.679,1.679,0,0,1,.912,1.448V14.646l-.456.446,1.939,1.56.57-.446L17.561,14.98l.228-.223V2.389A1.9,1.9,0,0,0,16.079.83Zm5.36,17.828a2.982,2.982,0,0,0,1.824-2.563V7.626L21.894,6.178l-.684.557,1.14,1.226v8.022A3.5,3.5,0,0,1,21.438,18.657Zm5.7-11.031a34.415,34.415,0,0,0,4.675-2.786h.228c.912.891,2.167,2.34,3.307,3.343v.223l-5.017,3.12v2.006a16.938,16.938,0,0,0,2.851,1.337l2.053-1.894.228.223-3.991,3.788h-.228c-1.368-.557-3.079-1.337-4.219-1.894a12.764,12.764,0,0,0,.228-2.674V7.626Zm4.675,8.579c-1.368-.557-2.509-1.114-3.649-1.671a8.391,8.391,0,0,0,.114-2.117V7.4l-.8.446v4.568a12.012,12.012,0,0,1-.114,2.451,42.377,42.377,0,0,0,3.877,1.783Zm-1.482-5.014,2.281-1.449c-.8-.891-1.6-1.783-2.281-2.451Zm.684-4.9-.57.446c.684.78,1.6,1.783,2.509,2.786l.684-.446C32.614,8.072,31.7,7.069,31.017,6.289Zm93.849,13.148c2.4-.223,4.79-1,4.79-3.454V8.072l-1.141-1.114-1.254,1.114v5.905l1.026.891-2.281,2.006h-.228L123.5,14.98l.571-.557V2.389A1.576,1.576,0,0,0,122.815.941V.718A2.316,2.316,0,0,1,123.84.5a1.838,1.838,0,0,1,1.711,1h.114A2.4,2.4,0,0,1,127.6.5a1.477,1.477,0,0,1,.684.111V.83a1.7,1.7,0,0,0-1.026,1.783V7.626l2.965-2.786h.228c.228.223,1.482,1.337,1.824,1.56.114.111.228.111.456.111a1.647,1.647,0,0,0,.684-.223v.446a1.517,1.517,0,0,0-.571,1.114v6.685c0,3.008-3.421,4.9-7.982,5.237ZM123.726.83a1.753,1.753,0,0,1,.913,1.448V14.534l-.457.446,1.939,1.56.57-.446-1.482-1.226.228-.223V2.389A1.9,1.9,0,0,0,123.726.83Zm5.246,17.716a2.983,2.983,0,0,0,1.824-2.563V7.626l-1.369-1.448-.571.557L130,7.961v8.022A2.849,2.849,0,0,1,128.972,18.546ZM56.675,7.626A34.415,34.415,0,0,0,61.35,4.841h.228c.912.891,2.167,2.34,3.193,3.231v.223l-4.9,3.12V13.42a22.658,22.658,0,0,0,2.851,1.337l2.053-1.894.228.223-3.991,3.788H60.78c-1.368-.557-3.079-1.337-4.219-1.894a12.77,12.77,0,0,0,.228-2.674V7.626Zm4.561,8.579c-1.368-.557-2.509-1.114-3.649-1.671a8.391,8.391,0,0,0,.114-2.117V7.4l-.684.334v4.568a12.012,12.012,0,0,1-.114,2.451A42.378,42.378,0,0,0,60.78,16.54ZM59.868,11.08l2.281-1.448c-.8-.891-1.6-1.783-2.281-2.451Zm.684-4.791-.684.446c.684.78,1.6,1.783,2.509,2.786l.684-.446C62.148,8.072,61.236,7.069,60.552,6.289Zm8.781-4.234v11.7a1.33,1.33,0,0,0,.912,1.114l.684-.668.228.223-2.509,2.563H68.42a2.893,2.893,0,0,1-2.281-2.563V3.5l-.684-.669-.8.78-.228-.223L67.28.5h.228ZM68.99,16.094a2.067,2.067,0,0,1-1.824-2.006V3.058l-1.026-1-.57.557.912.78V14.423a2.409,2.409,0,0,0,1.939,2.228ZM72.3,7.626a34.416,34.416,0,0,0,4.675-2.786H77.2c.912.891,2.167,2.34,3.193,3.231v.223l-4.9,3.12V13.42a16.936,16.936,0,0,0,2.851,1.337l2.053-1.894.228.223-3.991,3.788H76.4c-1.368-.557-3.079-1.337-4.219-1.894a12.771,12.771,0,0,0,.228-2.674V7.626Zm4.561,8.579c-1.368-.557-2.509-1.114-3.649-1.671a8.391,8.391,0,0,0,.114-2.117V7.4l-.684.334v4.568a12.013,12.013,0,0,1-.114,2.451A42.378,42.378,0,0,0,76.4,16.54ZM75.49,11.08l2.281-1.448c-.8-.891-1.6-1.783-2.281-2.451Zm.684-4.791-.57.446c.684.78,1.6,1.783,2.509,2.786l.57-.446C77.771,8.072,76.859,7.069,76.174,6.289Zm20.3,1.783v5.683a1.08,1.08,0,0,0,.912,1l.684-.669.228.223-2.509,2.563h-.115a2.778,2.778,0,0,1-2.28-2.563V7.849l-.684-.669-.8.669-.228-.223,2.851-2.786h.228l1.824,1.783v1l2.28-2.674H99.1a12.932,12.932,0,0,0,1.824,1.56L98.981,8.741c-.57-.446-1.254-1.114-1.71-1.448Zm-.228,8.022a2.067,2.067,0,0,1-1.824-2.006V7.4l-.913-1-.57.557.8.78v6.574a2.41,2.41,0,0,0,1.938,2.228ZM97.5,7.069a14.818,14.818,0,0,0,1.369,1.226l.456-.557c-.456-.334-1.14-1-1.482-1.226Zm6.386,9.917L101.148,15.2V11.638c.683-.446,2.167-1.449,2.85-1.894a7.008,7.008,0,0,1-2.623-2.006V7.515a17.855,17.855,0,0,0,3.764-2.674h.228s3.421,1.56,3.535,1.671a.879.879,0,0,0,.456.111,1.643,1.643,0,0,0,.684-.223v.334a1.494,1.494,0,0,0-.57,1v5.905a1.2,1.2,0,0,0,1.026,1.114l.684-.669.228.223L108.9,16.874h-.114a3.031,3.031,0,0,1-2.281-2.34l-2.394,2.34h-.228Zm.571-.891-2.281-1.448V11.3l-.684.446V14.98L104,16.54Zm1.938-5.794V8.518l-3.307-1.671c-.228.223-1.14.669-1.369.891A10.786,10.786,0,0,0,106.393,10.3Zm2.965,5.794c-.912-.334-1.824-.891-1.824-2.117V7.849l-3.421-1.671c-.115.111-.457.334-.571.446l3.307,1.671v6.017a2.974,2.974,0,0,0,1.939,2.34ZM106.393,14.2V10.635a16.879,16.879,0,0,1-2.167-.78v4.457l1.255.78Zm-24.745.891V7.626l4.105-2.786h.228c.8.334,3.421,1.448,3.65,1.56.114,0,.228.111.456.111a2.958,2.958,0,0,0,.8-.223v.446a1.8,1.8,0,0,0-.571,1v6.351a3.841,3.841,0,0,0,.913,2.9v.223c-.913.891-2.965,3.008-3.877,4.011h-.114a9.17,9.17,0,0,0-3.535-.891,4.278,4.278,0,0,0-2.623.78L80.85,21c.684-1.56,2.166-3.231,4.106-3.231a9.045,9.045,0,0,1,4.1,1.226,7.369,7.369,0,0,1-1.711-4.345l-2.394,2.228h-.228Zm1.939,4.345a2.848,2.848,0,0,0-2.167,1v.111a3.907,3.907,0,0,1,2.167-.446,8.662,8.662,0,0,1,3.535.78l.456-.557A10.491,10.491,0,0,0,83.587,19.437Zm.912-2.786.571-.446-2.395-1.671V7.4l-.684.446V14.98ZM88.148,7.4,84.727,6.066v.669L87.35,7.849v6.685a6.9,6.9,0,0,0,1.711,4.234l.571-.557a5.86,5.86,0,0,1-1.483-3.788Zm-1.026,6.8V8.072l-2.281-1v7.02l1.482.891Zm29.193-6.574,2.965-2.786h.228a22.823,22.823,0,0,0,1.824,1.56.426.426,0,0,0,.342.111,1.644,1.644,0,0,0,.684-.223v.446a1.769,1.769,0,0,0-.57,1.114V14.98a6.984,6.984,0,0,0-3.421,2.229h-.114l-1.938-.446v1.56l1.026.891-2.394,2.006h-.115l-2.28-1.894.571-.668V15.983a2.736,2.736,0,0,1-.913-.223v-.334c.228-.111,1.026-.78,1.026-1.337V7.961l-.684-.669-.8.78-.228-.223,2.851-2.786h.228l1.825,1.783v.78ZM113.464,18.88l-.457.446,1.824,1.56.571-.446-1.482-1.226.228-.223V7.4l-1.026-1-.457.446.8.78Zm5.131-4.345V8.072l-1.14-1.114L116.2,8.072v5.905C116.771,14.2,118.367,14.423,118.6,14.534Zm-.342,2.34a2.44,2.44,0,0,1,.456-.557l-2.509-.446v.668Zm-.571-10.028,1.255,1.226v6.462l.684-.334V7.626l-1.369-1.337ZM.912,10.412c0-2.9,2.167-4.791,4.219-5.683l.114.223a4.369,4.369,0,0,0-1.14,3.343,6.089,6.089,0,0,0,1.368,4.234A2.3,2.3,0,0,0,5.93,11.3v-2.9L9.579,5.844l.114.223a2.442,2.442,0,0,0-.456,1.448V9.409c0,1.337-2.167,2.786-3.535,3.231a4.888,4.888,0,0,0,3.535,1.226,5.679,5.679,0,0,0,1.368-.111V5.621a15.457,15.457,0,0,1-3.421-.669,12.645,12.645,0,0,0-3.193-.669c-1.482,0-3.307.446-3.307,2.563v.669l-.342.111A6.053,6.053,0,0,1,0,5.732,4.771,4.771,0,0,1,5.017.941a13.2,13.2,0,0,1,3.649.669,12.405,12.405,0,0,0,3.421.669A.83.83,0,0,0,13,1.387.782.782,0,0,0,12.316.5V.272c1.368.223,2.737,1,2.737,2.674.114,1.671-1.368,2.674-3.877,2.674h-.228v8.245a4.93,4.93,0,0,0,3.535-2.34l.228.111c-.912,2.786-3.079,5.46-6.842,5.46S.912,14.869.912,10.412ZM11.175,4.618c-2.737,0-5.246-1.337-7.184-1.337A3.234,3.234,0,0,0,.684,5.286H.8c.57-1,1.939-1.337,3.193-1.337,2.053,0,4.447,1.337,7.184,1.337,2.167,0,3.535-.78,3.649-2.451H14.71C14.482,4.172,13.342,4.618,11.175,4.618ZM3.307,6.289a5.714,5.714,0,0,0-1.939,4.123c0,4.234,2.851,6.351,6.614,6.351a6.835,6.835,0,0,0,4.789-2.117l-.114-.111a6.955,6.955,0,0,1-4.789,1.56c-2.965,0-5.816-1.783-5.816-5.683A7.707,7.707,0,0,1,3.307,6.289ZM6.956,11.08V7.961l-.684.557v2.9c0,.334-.114.557-.114.78h.114A1.691,1.691,0,0,0,6.956,11.08Zm34.552-.668c0-2.9,2.167-4.791,4.219-5.683l.114.223a4.318,4.318,0,0,0-1.254,3.343,6.089,6.089,0,0,0,1.368,4.234,2.3,2.3,0,0,0,.456-1.226v-2.9l3.763-2.674.114.223a2.319,2.319,0,0,0-.456,1.56V9.409c0,1.337-2.167,2.786-3.535,3.231a4.888,4.888,0,0,0,3.535,1.226,5.68,5.68,0,0,0,1.368-.111V5.621a15.457,15.457,0,0,1-3.421-.669,12.645,12.645,0,0,0-3.193-.669c-1.482,0-3.307.446-3.307,2.563v.669l-.228.111a6.053,6.053,0,0,1-.342-1.894A4.771,4.771,0,0,1,45.727.941a13.2,13.2,0,0,1,3.649.669,12.405,12.405,0,0,0,3.421.669.83.83,0,0,0,.912-.891A.782.782,0,0,0,53.026.5V.272c1.368.223,2.737,1,2.737,2.674,0,2.006-1.482,2.9-3.991,2.9h-.228v8.245a4.929,4.929,0,0,0,3.535-2.34l.228.111c-.912,2.786-3.079,5.46-6.842,5.46C44.7,17.1,41.508,14.869,41.508,10.412ZM51.771,4.618c-2.737,0-5.246-1.337-7.184-1.337A3.425,3.425,0,0,0,41.28,5.286h.114c.57-1,1.939-1.337,3.193-1.337,2.053,0,4.447,1.337,7.184,1.337,2.167,0,3.535-.78,3.649-2.451h-.114C54.964,4.172,53.938,4.618,51.771,4.618ZM43.9,6.289a5.714,5.714,0,0,0-1.939,4.123c0,4.234,2.851,6.351,6.614,6.351a6.835,6.835,0,0,0,4.789-2.117l-.114-.111a6.955,6.955,0,0,1-4.789,1.56c-2.965,0-5.816-1.783-5.816-5.683A7.707,7.707,0,0,1,43.9,6.289Zm3.649,4.791V7.961l-.684.446v2.9c0,.334-.114.557-.114.78h.114A1.28,1.28,0,0,0,47.552,11.08Z" transform="translate(0 -0.272)" fill="#d8dce6"/>
</svg>
