<svg xmlns="http://www.w3.org/2000/svg" width="81.448" height="43.322" viewBox="0 0 81.448 43.322">
  <path id="wsj" d="M13.917.219v.87l.808.186c1.242.311,1.429,1.056,1.926,3.417l1.293,6.637-3.6,19.386L9.431,6.357c-.56-2.673-.746-4.66,1.243-5.1l.932-.186V.219H0v.87L1.181,1.4c1.181.311,1.677.869,2.485,4.536l7.89,37.342h2.036L18.874,15.07l5.854,28.209h1.616L33.925,7.091c.87-4.161,1.243-5.345,2.736-5.727l1.18-.312V.219H29.315v.87l1.3.248c1.864.373,2.3,1.553,1.428,6.338L27.4,30.715,22.691,6.357c-.509-2.423-.808-4.66,1.243-5.033L25.3,1.075V.2ZM69.205.336v.87l1.553.373c1.366.311,1.926.808,1.926,2.548V34.263c0,3.355,0,7.767-3.481,7.767-1.988,0-3.538-1.74-3.416-2.921.123-1.926,3.479-1.8,3.665-4.908A2.861,2.861,0,0,0,66.9,30.844c-1.926-.248-4.286,1.367-4.35,4.6-.061,4.161,2.672,7.951,7.33,7.951,5.154,0,8.527-3.477,8.527-10.126V4.188c0-1.74.435-2.3,1.677-2.609l1.358-.387V.322ZM48.27.071c-5.281,0-8.263,4.412-8.263,10.19,0,10.75,13.856,14.913,13.856,24.606,0,4.6-1.927,7.144-4.709,7.144-4.161,0-7.146-5.031-7.89-13.047h-.932V43.132h.746C41.7,41.1,42.508,40.9,43.191,40.9c1.181,0,2.422,2.482,6.026,2.482,5.53,0,9.132-4.783,9.135-11.372C58.352,19.082,44.5,15.913,44.5,6.655c0-2.113.621-5.218,3.729-5.218,4.475,0,6.4,5.9,7.146,13.048H56.3V.321h-.746c-.31,1.367-.869,1.988-1.677,1.988-1.429,0-2.163-2.236-5.592-2.236Zm10,12.185v.153l.029-.018-.015-.127Z" transform="translate(0 -0.071)" fill="#d8dce6"/>
</svg>
