<svg id="ap" xmlns="http://www.w3.org/2000/svg" width="54.282" height="47.986" viewBox="0 0 54.282 47.986">
  <path id="Path_1046" data-name="Path 1046" d="M.277,45.64v6.542H54.559V45.64Z" transform="translate(-0.277 -4.195)" fill="#d8dce6"/>
  <path id="Path_1047" data-name="Path 1047" d="M30.722.1v27.41h6.572V5.632h2.641c3.071,0,4.822,1.459,4.822,4.115,0,2.6-1.751,4.115-4.822,4.115h-.43v5.528h.706c7.094,0,11.24-3.562,11.24-9.643C51.452,3.559,47.291.1,40.212.1Zm-17.6,0L3.988,27.514h6.618l6.2-19.379,3.117,9.689H15.9l-1.612,5.528h7.4l1.336,4.161h6.8L20.7.1Z" transform="translate(-0.611 -0.104)" fill="#d8dce6"/>
</svg>
