<svg xmlns="http://www.w3.org/2000/svg" xmlns:xlink="http://www.w3.org/1999/xlink" width="355" height="472" viewBox="0 0 355 472">
  <defs>
    <filter id="Path_1472" x="102" y="213" width="171.606" height="183.816" filterUnits="userSpaceOnUse">
      <feOffset dx="10" dy="10" input="SourceAlpha"/>
      <feGaussianBlur stdDeviation="3" result="blur"/>
      <feFlood flood-opacity="0.161"/>
      <feComposite operator="in" in2="blur"/>
      <feComposite in="SourceGraphic"/>
    </filter>
  </defs>
  <g id="Group_3874" data-name="Group 3874" transform="translate(-878 -1649.07)">
    <g id="Group_3671" data-name="Group 3671" transform="translate(878 1649)">
      <g id="Rectangle_678" data-name="Rectangle 678" transform="translate(62 0.07)" fill="#fff" stroke="#e4e4e4" stroke-width="10">
        <rect width="231" height="277" rx="115.5" stroke="none"/>
        <rect x="5" y="5" width="221" height="267" rx="110.5" fill="none"/>
      </g>
      <g id="Ellipse_157" data-name="Ellipse 157" transform="translate(0 117.07)" fill="#fff" stroke="#e4e4e4" stroke-width="10">
        <circle cx="177.5" cy="177.5" r="177.5" stroke="none"/>
        <circle cx="177.5" cy="177.5" r="172.5" fill="none"/>
      </g>
      <circle id="Ellipse_150" data-name="Ellipse 150" cx="150.784" cy="150.784" r="150.784" transform="translate(27.086 144.459)" fill="#0559cb"/>
      <circle id="Ellipse_151" data-name="Ellipse 151" cx="134.131" cy="134.131" r="134.131" transform="translate(44 162.07)" fill="#0667eb"/>
      <g transform="matrix(1, 0, 0, 1, 0, 0.07)" filter="url(#Path_1472)">
        <path id="Path_1472-2" data-name="Path 1472" d="M304.355,351.925a39.232,39.232,0,1,1-.282-43.589L341.1,285.808a82.909,82.909,0,0,0-69.693-37.864c-45.79,0-82.914,36.892-82.914,82.4s37.124,82.411,82.914,82.411a82.953,82.953,0,0,0,68.95-36.659Z" transform="translate(-86.5 -34.94)" fill="#fff"/>
      </g>
    </g>
  </g>
</svg>
