<svg xmlns="http://www.w3.org/2000/svg" width="190.9px" height="36.5" viewBox="0 0 497.468 96.645">
  <path id="Union_2" data-name="Union 2" d="M1125.283,10749.217a34.093,34.093,0,1,1,34.093,34.428A34.261,34.261,0,0,1,1125.283,10749.217Zm17.893,0a16.2,16.2,0,1,0,16.2-16.358A16.3,16.3,0,0,0,1143.177,10749.215Zm-65.494,34.43v-31.038a37.356,37.356,0,0,1,37.178-37.544c.75,0,1.494.028,2.234.074v19.8a17.564,17.564,0,0,0-2.234-.158,17.767,17.767,0,0,0-17.658,17.831v31.038Zm-82.662-34.428a34.094,34.094,0,1,1,68.185,0,34.7,34.7,0,0,1-1.569,10.334h-11.015v.027h-34.034a16.061,16.061,0,0,0,21.611,3.173l14.557,11.235a33.778,33.778,0,0,1-23.642,9.658A34.264,34.264,0,0,1,995.021,10749.217Zm19.16-6.34h29.863a16.135,16.135,0,0,0-29.863,0Zm-49.715,40.768v-35.589a13.7,13.7,0,1,0-27.39,0v35.589H920.645v-30.032h.034v-61.136l16.131-5.477v34.295a29.57,29.57,0,0,1,13.96-3.5,30.11,30.11,0,0,1,29.962,30.258v35.587Zm-145.121,0v-4.585a33.516,33.516,0,0,1-16.469,4.311,34.292,34.292,0,0,1,0-68.581,33.528,33.528,0,0,1,16.469,4.312v-4.312h18.572v68.855Zm-32.532-34.565a16.065,16.065,0,1,0,16.063-16.222A16.16,16.16,0,0,0,786.813,10749.079Zm-90.814.066a34.079,34.079,0,0,1,62.872-18.643l-15.255,9.429a16.432,16.432,0,1,0,.116,18.248l14.832,10.117A34.091,34.091,0,0,1,696,10749.146Zm158.977,33.646v-16.427h26.117c3.14,0,5.8-1.949,5.8-4.259,0-1.83-1.68-3.42-3.936-4v-.021l-.286-.046a6.719,6.719,0,0,0-.851-.129c-1.1-.17-2.944-.439-5.318-.749-3.824-.5-8.956-1.187-14.4-5.363a19.946,19.946,0,0,1-7.112-15.12c0-11.38,9.9-20.635,22.061-20.635h26.117v16.426H877.046c-3.087,0-5.8,1.967-5.8,4.209,0,1.963,2.089,3.678,4.678,4.081,1.015.167,3.621.587,5.473.771a1.332,1.332,0,0,0,.2,0c.808.094,1.67.188,2.649.286a28.683,28.683,0,0,1,6.972,1.949,22.37,22.37,0,0,1,3.288,1.966c.027.02.056.041.083.063a3.274,3.274,0,0,0,.35.259,20.159,20.159,0,0,1,8.211,16.062c0,11.406-9.9,20.686-22.061,20.686Z" transform="translate(-695.999 -10687)" fill="#0667eb"/>
</svg>
