<svg xmlns="http://www.w3.org/2000/svg" width="34.159" height="40" viewBox="0 0 34.159 40">
  <g id="Group_4131" data-name="Group 4131" transform="translate(1478 -4166.94)">
    <g id="Group_3924" data-name="Group 3924" transform="translate(-1478 4166.94)">
      <g id="Group_3923" data-name="Group 3923" transform="translate(0 0)">
        <path id="Path_1960" data-name="Path 1960" d="M0,0,2.392,1.247l.145,4.517H0Z" transform="translate(0 13.335)" fill="#0667eb"/>
        <path id="Path_2076" data-name="Path 2076" d="M2.367,0h28.24A1.691,1.691,0,0,1,32.3,1.691V8.217L2.367,4.735A2.367,2.367,0,0,1,2.367,0Z" transform="translate(0 11.084)" fill="#c9e0ed"/>
        <g id="Group_3910" data-name="Group 3910" transform="translate(6.273 6.449)">
          <path id="Path_2075" data-name="Path 2075" d="M6.913,0a6.913,6.913,0,1,0,6.913,6.913A6.913,6.913,0,0,0,6.913,0Z" fill="#fff"/>
          <path id="Path_1188" data-name="Path 1188" d="M6.913,0a6.913,6.913,0,1,0,6.913,6.913A6.913,6.913,0,0,0,6.913,0Zm0,13.2A6.284,6.284,0,1,1,13.2,6.913,6.284,6.284,0,0,1,6.913,13.2ZM8.17,6.866a2.03,2.03,0,0,0-.525-.292,5.5,5.5,0,0,0-.55-.2v-1.5a.559.559,0,0,1,.484.192.867.867,0,0,1,.182.556H8.55a1.458,1.458,0,0,0-.119-.613,1.225,1.225,0,0,0-.314-.434,1.37,1.37,0,0,0-.481-.258,1.612,1.612,0,0,0-.528-.085V3.771H6.68v.468a1.552,1.552,0,0,0-.534.091,1.571,1.571,0,0,0-.5.267,1.257,1.257,0,0,0-.346.43,1.345,1.345,0,0,0-.129.6,1.4,1.4,0,0,0,.138.657,1.329,1.329,0,0,0,.349.437,2.036,2.036,0,0,0,.506.286,4.628,4.628,0,0,0,.506.189V8.918a.723.723,0,0,1-.628-.286,1.159,1.159,0,0,1-.2-.742H5.065a1.822,1.822,0,0,0,.113.7,1.42,1.42,0,0,0,.346.518,1.518,1.518,0,0,0,.531.314,1.76,1.76,0,0,0,.628.123v.506H7.1v-.5a1.848,1.848,0,0,0,.581-.132A1.527,1.527,0,0,0,8.2,9.112a1.373,1.373,0,0,0,.349-.49,1.738,1.738,0,0,0,.129-.694,1.383,1.383,0,0,0-.138-.647,1.348,1.348,0,0,0-.368-.415ZM6.68,6.284A1.659,1.659,0,0,1,6.451,6.2.914.914,0,0,1,6.2,6.058a.713.713,0,0,1-.176-.207.578.578,0,0,1-.069-.292.644.644,0,0,1,.2-.531.745.745,0,0,1,.518-.16Zm.968,2.4A.886.886,0,0,1,7.1,8.9V7.258a2.391,2.391,0,0,1,.251.1,1.068,1.068,0,0,1,.273.151.66.66,0,0,1,.267.562.76.76,0,0,1-.239.619Z" fill="#3f4556"/>
        </g>
        <g id="Group_3910-2" data-name="Group 3910" transform="translate(15.683 0)">
          <path id="Path_2075-2" data-name="Path 2075" d="M2.76,0A2.76,2.76,0,1,0,5.52,2.76,2.76,2.76,0,0,0,2.76,0Z" transform="translate(0 0)" fill="#fff"/>
          <path id="Path_1188-2" data-name="Path 1188" d="M2.76,0A2.76,2.76,0,1,0,5.52,2.76,2.76,2.76,0,0,0,2.76,0Zm0,5.269A2.509,2.509,0,1,1,5.269,2.76,2.509,2.509,0,0,1,2.76,5.269Z" transform="translate(0 0)" fill="#3f4556"/>
          <path id="_-euro-symbol_90430_1_" data-name="-euro-symbol_90430 (1)" d="M4.549,5a.836.836,0,0,1-.743-.452h.743V4.291H3.72a.812.812,0,0,1,0-.258h.829V3.774H3.805a.837.837,0,0,1,1.289-.249L5.323,3.3a1.16,1.16,0,0,0-1.869.478H3v.258h.395a1.079,1.079,0,0,0,0,.258H3v.258h.454a1.16,1.16,0,0,0,1.869.478L5.094,4.8A.827.827,0,0,1,4.549,5Z" transform="translate(-1.456 -1.481)" fill="#3f4556"/>
        </g>
        <path id="Path_2075-3" data-name="Path 2075" d="M3.892,0A3.892,3.892,0,1,0,7.785,3.892,3.892,3.892,0,0,0,3.892,0Z" transform="translate(20.701 3.764)" fill="#fff"/>
        <path id="Path_1188-3" data-name="Path 1188" d="M3.892,0A3.892,3.892,0,1,0,7.785,3.892,3.892,3.892,0,0,0,3.892,0Zm0,7.431A3.538,3.538,0,1,1,7.431,3.892,3.538,3.538,0,0,1,3.892,7.431Z" transform="translate(20.701 3.764)" fill="#3f4556"/>
        <g id="Group_3910-3" data-name="Group 3910" transform="translate(21.015 12.232)">
          <path id="Path_2075-4" data-name="Path 2075" d="M2.486,0A2.486,2.486,0,1,0,4.971,2.486,2.486,2.486,0,0,0,2.486,0Z" transform="translate(0 0)" fill="#fff"/>
          <path id="Path_1188-4" data-name="Path 1188" d="M2.486,0A2.486,2.486,0,1,0,4.971,2.486,2.486,2.486,0,0,0,2.486,0Zm0,4.745a2.26,2.26,0,1,1,2.26-2.26,2.26,2.26,0,0,1-2.26,2.26Zm.452-2.277a.73.73,0,0,0-.189-.105,1.976,1.976,0,0,0-.2-.071v-.54a.2.2,0,0,1,.174.069.312.312,0,0,1,.066.2h.284a.524.524,0,0,0-.043-.22.441.441,0,0,0-.113-.156.493.493,0,0,0-.173-.093.58.58,0,0,0-.19-.031V1.356H2.4v.168a.558.558,0,0,0-.192.033.565.565,0,0,0-.181.1.452.452,0,0,0-.124.155.484.484,0,0,0-.046.216.5.5,0,0,0,.05.236.478.478,0,0,0,.125.157.732.732,0,0,0,.182.1,1.664,1.664,0,0,0,.182.068v.619a.26.26,0,0,1-.226-.1A.417.417,0,0,1,2.1,2.837H1.821a.655.655,0,0,0,.041.253.511.511,0,0,0,.124.186.546.546,0,0,0,.191.113.633.633,0,0,0,.226.044v.182h.149V3.437a.664.664,0,0,0,.209-.047.549.549,0,0,0,.186-.113A.494.494,0,0,0,3.073,3.1a.625.625,0,0,0,.046-.25.5.5,0,0,0-.05-.233A.485.485,0,0,0,2.938,2.469ZM2.4,2.26a.6.6,0,0,1-.082-.032.329.329,0,0,1-.089-.05A.256.256,0,0,1,2.167,2.1.208.208,0,0,1,2.142,2a.232.232,0,0,1,.073-.191A.268.268,0,0,1,2.4,1.75Zm.348.862a.319.319,0,0,1-.2.08V2.61a.86.86,0,0,1,.09.036.384.384,0,0,1,.1.054.237.237,0,0,1,.1.2.273.273,0,0,1-.086.223Z" transform="translate(0 0)" fill="#3f4556"/>
        </g>
        <rect id="Rectangle_711" data-name="Rectangle 711" width="34.159" height="24.351" rx="1" transform="translate(0 15.649)" fill="#0667eb"/>
        <path id="Rectangle_713" data-name="Rectangle 713" d="M3.8,0h9.554a0,0,0,0,1,0,0V7.61a0,0,0,0,1,0,0H3.8A3.8,3.8,0,0,1,0,3.8v0A3.8,3.8,0,0,1,3.8,0Z" transform="translate(20.8 24.105)" fill="#c9e0ed"/>
        <circle id="Ellipse_190" data-name="Ellipse 190" cx="2.114" cy="2.114" r="2.114" transform="translate(22.491 25.796)" fill="#3f4556"/>
        <path id="Path_2077" data-name="Path 2077" d="M24.13,3.23a1.8,1.8,0,0,0,.436-.418.831.831,0,0,0,.165-.5.62.62,0,0,0-.031-.18c-.013-.043-.034-.1-.065-.177h-.529V1.71h.376a.89.89,0,0,1-.08-.15,2.358,2.358,0,0,1-.107-.236,1.1,1.1,0,0,1-.041-.162,1.115,1.115,0,0,1-.017-.2.911.911,0,0,1,.3-.669,1.2,1.2,0,0,1,.871-.3,1.057,1.057,0,0,1,.808.292,1.189,1.189,0,0,1,.281.826H26.06a.8.8,0,0,0-.169-.55.657.657,0,0,0-.514-.188.68.68,0,0,0-.507.176A.588.588,0,0,0,24.7.984a.672.672,0,0,0,.054.256q.054.132.228.47h.786v.249h-.678c.016.073.028.131.035.172a.773.773,0,0,1,.011.13.9.9,0,0,1-.144.473,1.756,1.756,0,0,1-.45.463,2.046,2.046,0,0,1,.326-.133,1.073,1.073,0,0,1,.314-.049,1.68,1.68,0,0,1,.456.085,1.731,1.731,0,0,0,.372.085.484.484,0,0,0,.206-.043,1.254,1.254,0,0,0,.175-.11l.2.323a1.388,1.388,0,0,1-.239.161.85.85,0,0,1-.371.084,1.834,1.834,0,0,1-.483-.11,1.856,1.856,0,0,0-.535-.11.953.953,0,0,0-.345.062,1.765,1.765,0,0,0-.246.129Z" transform="translate(-0.869 5.649)" fill="#3f4556"/>
      </g>
    </g>
  </g>
</svg>
