<svg xmlns="http://www.w3.org/2000/svg" width="485.178" height="453.625" viewBox="0 0 485.178 453.625">
  <g id="Image" transform="translate(-716.411 -1591)">
    <path id="Path_339" data-name="Path 339" d="M697.569,201.4h-2.489V133.14a39.508,39.508,0,0,0-39.51-39.508H510.946a39.508,39.508,0,0,0-39.509,39.51V507.634a39.508,39.508,0,0,0,39.508,39.508H655.571a39.508,39.508,0,0,0,39.508-39.508V249.993h2.489Z" transform="translate(389.92 1497.368)" fill="#3f3d56"/>
    <path id="Path_340" data-name="Path 340" d="M691.042,133.249V504.357c0,16.161-13.406,29.268-29.949,29.276h-147.6c-16.554,0-29.971-13.109-29.974-29.28v-371.1c0-16.171,13.423-29.277,29.972-29.275h17.9a13.652,13.652,0,0,0,1.372,13.01,14.341,14.341,0,0,0,11.808,6.158h84.146a14.341,14.341,0,0,0,11.808-6.158,13.652,13.652,0,0,0,1.372-13.01h19.178c16.538,0,29.951,13.1,29.96,29.265Z" transform="translate(385.479 1498.929)" fill="#fff"/>
    <path id="Path_409" data-name="Path 409" d="M597.977,715.9h7.947l3.78-30.65H597.976Z" transform="translate(220.889 1321.023)" fill="#feb8b8"/>
    <path id="Path_410" data-name="Path 410" d="M741.694,815.614h25.622v-.324a9.973,9.973,0,0,0-9.972-9.973H741.693Z" transform="translate(75.146 1229.011)" fill="#2f2e41"/>
    <path id="Path_411" data-name="Path 411" d="M735.922,708.5l7.737,1.821,10.706-28.97-11.416-2.688Z" transform="translate(-15.772 1323.215)" fill="#feb8b8"/>
    <path id="Path_412" data-name="Path 412" d="M892.787,806.943l24.94,5.871.074-.315a9.974,9.974,0,0,0-7.421-12h0l-15.233-3.587Z" transform="translate(-176.375 1231.81)" fill="#2f2e41"/>
    <path id="Path_413" data-name="Path 413" d="M856.024,588.52c-.015-1.6-.488-39.293-10.821-53.545l-.153-.211-36.009,4.968.805,7.912c-1.584,1.54-14.042,14.559-17.64,45.387l-38.223,102.65,17.768,1.615,52.6-112.057,27.834,121.8H869.8Z" transform="translate(-35.535 1319.125)" fill="#2f2e41"/>
    <path id="Path_414" data-name="Path 414" d="M836.806,505.851l-3.52-18.48c.689-.887,3.742-5.146,3.063-10.14-.444-3.258-2.388-6.114-5.781-8.493l-9.125-21.288-.123-.072c-.615-.362-15.141-8.762-23.061-.837-.2.153-19.7,15.634-11.869,36.511l9.666,29Z" transform="translate(-22.919 1349.64)" fill="#ccc"/>
    <path id="Path_415" data-name="Path 415" d="M779.527,561.553a6.535,6.535,0,0,1-5.519-8.363l-18.841-13.574,11.279-4.29,16.163,13.548a6.572,6.572,0,0,1-3.081,12.68Z" transform="translate(46.606 1318.938)" fill="#feb8b8"/>
    <path id="Path_416" data-name="Path 416" d="M820.8,509.265,792.036,486.6l8.551-29.217a10.5,10.5,0,0,0-1.06-8.308,9.71,9.71,0,0,0-6.366-4.594c-4.924-1.042-9.394,1.715-13.283,8.2l-.03.059c-.643,1.573-15.628,38.616-4.187,46.538,11.193,7.749,37.147,19.029,37.408,19.143l.3.131Z" transform="translate(1.869 1349.267)" fill="#ccc"/>
    <ellipse id="Ellipse_66" data-name="Ellipse 66" cx="17.425" cy="17.425" rx="17.425" ry="17.425" transform="translate(767.016 1753.627)" fill="#feb8b8"/>
    <ellipse id="Ellipse_67" data-name="Ellipse 67" cx="15.415" cy="15.415" rx="15.415" ry="15.415" transform="translate(741.708 1734)" fill="#2f2e41"/>
    <path id="Path_417" data-name="Path 417" d="M860.812,390.055a15.417,15.417,0,0,0,23.8-8.094,15.417,15.417,0,1,1-30.071-6.322,15.411,15.411,0,0,0,6.27,14.416Z" transform="translate(-116.985 1372.126)" fill="#2f2e41"/>
    <path id="Path_418" data-name="Path 418" d="M841.123,391.185c-2.691-4.818-3.721-6.828-7.191-9.763-3.069-2.591-6.843-3.352-9.887-.9A18.337,18.337,0,1,0,834.92,395.2C837.567,394.832,838.477,391.559,841.123,391.185Z" transform="translate(-36.46 1371.011)" fill="#2f2e41"/>
    <path id="Path_39" data-name="Path 39" d="M474.062,583.766h-164.2a3.044,3.044,0,0,1-3.04-3.041v-40.73a3.044,3.044,0,0,1,3.041-3.041h164.2a3.044,3.044,0,0,1,3.041,3.041v40.731a3.045,3.045,0,0,1-3.041,3.041Zm-164.2-45.6a1.826,1.826,0,0,0-1.825,1.825v40.731a1.826,1.826,0,0,0,1.825,1.825h164.2a1.826,1.826,0,0,0,1.825-1.825V539.995a1.826,1.826,0,0,0-1.825-1.825Z" transform="translate(581.179 1257.046)" fill="#e6e6e6"/>
    <path id="Path_40" data-name="Path 40" d="M396.977,562.313a2.129,2.129,0,1,0,0,4.257H497.321a2.129,2.129,0,1,0,.069-4.257H396.977Z" transform="translate(546.438 1246.18)" fill="#e6e6e6"/>
    <path id="Path_41" data-name="Path 41" d="M396.977,584.061a2.129,2.129,0,1,0,0,4.257H497.321a2.129,2.129,0,1,0,.069-4.257H396.977Z" transform="translate(546.438 1237.203)" fill="#e6e6e6"/>
    <path id="Path_42" data-name="Path 42" d="M474.062,699.756h-164.2a3.044,3.044,0,0,1-3.04-3.041v-40.73a3.045,3.045,0,0,1,3.041-3.041h164.2a3.045,3.045,0,0,1,3.041,3.041v40.731a3.045,3.045,0,0,1-3.041,3.04Zm-164.2-45.6a1.826,1.826,0,0,0-1.825,1.825v40.731a1.826,1.826,0,0,0,1.825,1.825h164.2a1.826,1.826,0,0,0,1.825-1.825V655.984a1.826,1.826,0,0,0-1.825-1.825Z" transform="translate(581.179 1208.056)" fill="#e6e6e6"/>
    <path id="Path_43" data-name="Path 43" d="M396.977,678.3a2.129,2.129,0,0,0,0,4.257H497.321a2.129,2.129,0,1,0,.069-4.257H396.977Z" transform="translate(546.438 1198.304)" fill="#e6e6e6"/>
    <path id="Path_44" data-name="Path 44" d="M396.977,700.051a2.129,2.129,0,0,0,0,4.257H497.321a2.129,2.129,0,0,0,.069-4.257H396.977Z" transform="translate(546.438 1189.327)" fill="#e6e6e6"/>
    <path id="Path_39-2" data-name="Path 39" d="M474.062,583.766h-164.2a3.044,3.044,0,0,1-3.04-3.041v-40.73a3.044,3.044,0,0,1,3.041-3.041h164.2a3.044,3.044,0,0,1,3.041,3.041v40.731a3.045,3.045,0,0,1-3.041,3.041Zm-164.2-45.6a1.826,1.826,0,0,0-1.825,1.825v40.731a1.826,1.826,0,0,0,1.825,1.825h164.2a1.826,1.826,0,0,0,1.825-1.825V539.995a1.826,1.826,0,0,0-1.825-1.825Z" transform="translate(581.179 1393.046)" fill="#e6e6e6"/>
    <path id="Path_40-2" data-name="Path 40" d="M396.977,562.313a2.129,2.129,0,1,0,0,4.257H497.321a2.129,2.129,0,1,0,.069-4.257H396.977Z" transform="translate(546.438 1382.406)" fill="#e6e6e6"/>
    <path id="Path_41-2" data-name="Path 41" d="M396.977,584.061a2.129,2.129,0,1,0,0,4.257H497.321a2.129,2.129,0,1,0,.069-4.257H396.977Z" transform="translate(546.438 1373.429)" fill="#e6e6e6"/>
    <g id="Group_4277" data-name="Group 4277" transform="translate(-2.715 -18.771)">
      <g id="Group_4276" data-name="Group 4276" transform="translate(901.715 1818.803)">
        <g id="Group_4275" data-name="Group 4275">
          <path id="Path_45" data-name="Path 45" d="M363.005,306.894a15.458,15.458,0,0,1-15.464-15.451v-.014c0-.032,0-.066,0-.1a15.464,15.464,0,1,1,15.463,15.563h0Zm0-30.6a15.171,15.171,0,0,0-15.137,15.05c0,.035,0,.062,0,.089a15.14,15.14,0,1,0,15.14-15.139Z" transform="translate(-347.541 -275.965)" fill="#e6e6e6"/>
          <ellipse id="Ellipse_7" data-name="Ellipse 7" cx="3.319" cy="3.319" rx="3.319" ry="3.319" transform="translate(5.382 8.694)" fill="#3f3d56"/>
          <path id="Path_63" data-name="Path 63" d="M387.528,338.652H371.245a.336.336,0,0,1-.061,0l7.7-13.339a.539.539,0,0,1,.939,0l5.168,8.951.247.428Z" transform="translate(-368.419 -316.411)" fill="#e6e6e6"/>
          <path id="Path_65" data-name="Path 65" d="M457.328,359.728H443.245l2.729-3.964.2-.286,3.556-5.166a.72.72,0,0,1,1.069-.064.63.63,0,0,1,.051.064Z" transform="translate(-429.153 -337.486)" fill="#e6e6e6"/>
          <g id="Ellipse_79" data-name="Ellipse 79" transform="translate(18.044 19.743)" fill="#0667eb" stroke="#fff" stroke-width="0.5">
            <circle cx="7.164" cy="7.164" r="7.164" stroke="none"/>
            <circle cx="7.164" cy="7.164" r="6.914" fill="none"/>
          </g>
          <path id="Path_191" data-name="Path 191" d="M11.581,7.42H5.815L8.463,4.689,7.79,4,4,7.908l3.79,3.908.668-.689L5.815,8.4h5.766Z" transform="translate(17.299 18.775)" fill="#fff"/>
        </g>
      </g>
    </g>
    <g id="Group_4283" data-name="Group 4283" transform="translate(-2.715 -18.015)">
      <g id="Group_4282" data-name="Group 4282" transform="translate(901.715 1954.015)">
        <g id="Group_4281" data-name="Group 4281">
          <path id="Path_45-2" data-name="Path 45" d="M363.017,306.918a15.47,15.47,0,0,1-15.476-15.463v-.014c0-.032,0-.067,0-.1a15.476,15.476,0,1,1,15.475,15.575h0Zm0-30.627a15.183,15.183,0,0,0-15.148,15.062c0,.035,0,.062,0,.089a15.152,15.152,0,1,0,15.152-15.15Z" transform="translate(-347.541 -275.965)" fill="#e6e6e6"/>
          <ellipse id="Ellipse_7-2" data-name="Ellipse 7" cx="3.322" cy="3.322" rx="3.322" ry="3.322" transform="translate(5.386 8.701)" fill="#3f3d56"/>
          <path id="Path_63-2" data-name="Path 63" d="M387.541,338.663h-16.3a.337.337,0,0,1-.061,0l7.707-13.349a.539.539,0,0,1,.939,0L385,334.267l.248.429Z" transform="translate(-368.416 -316.404)" fill="#6c63ff"/>
          <path id="Path_65-2" data-name="Path 65" d="M457.339,359.735H443.245l2.731-3.967.2-.286,3.559-5.17a.72.72,0,0,1,1.07-.064.637.637,0,0,1,.051.064Z" transform="translate(-429.142 -337.476)" fill="#6c63ff"/>
          <g id="Ellipse_79-2" data-name="Ellipse 79" transform="translate(18.125 19.725)" fill="#0667eb" stroke="#fff" stroke-width="0.5">
            <circle cx="7.173" cy="7.173" r="7.173" stroke="none"/>
            <circle cx="7.173" cy="7.173" r="6.923" fill="none"/>
          </g>
          <path id="Path_191-2" data-name="Path 191" d="M11.586,7.319H5.816l2.65-2.651L7.793,4,4,7.793l3.793,3.793.669-.669L5.816,8.267h5.77Z" transform="translate(17.505 19.104)" fill="#fff"/>
        </g>
      </g>
    </g>
    <g id="Group_4280" data-name="Group 4280" transform="translate(-2.715 -17.157)">
      <g id="Group_4279" data-name="Group 4279" transform="translate(901.715 1885.157)">
        <g id="Group_4278" data-name="Group 4278">
          <path id="Path_45-3" data-name="Path 45" d="M362.957,306.8a15.41,15.41,0,0,1-15.416-15.4v-.014c0-.032,0-.066,0-.1A15.415,15.415,0,1,1,362.957,306.8h0Zm0-30.508a15.124,15.124,0,0,0-15.089,15c0,.034,0,.062,0,.088a15.093,15.093,0,1,0,15.092-15.091Z" transform="translate(-347.541 -275.965)" fill="#e6e6e6"/>
          <ellipse id="Ellipse_7-3" data-name="Ellipse 7" cx="3.309" cy="3.309" rx="3.309" ry="3.309" transform="translate(5.365 8.667)" fill="#3f3d56"/>
          <path id="Path_63-3" data-name="Path 63" d="M387.477,338.609H371.245a.337.337,0,0,1-.061,0l7.677-13.3a.537.537,0,0,1,.936,0l5.152,8.923.247.427Z" transform="translate(-368.427 -316.438)" fill="#6c63ff"/>
          <path id="Path_65-3" data-name="Path 65" d="M457.284,359.7H443.245l2.72-3.952.2-.285,3.545-5.15a.717.717,0,0,1,1.065-.064.636.636,0,0,1,.051.064Z" transform="translate(-429.197 -337.525)" fill="#6c63ff"/>
          <g id="Ellipse_79-3" data-name="Ellipse 79" transform="translate(18.055 19.788)" fill="#0667eb" stroke="#fff" stroke-width="0.5">
            <circle cx="7.141" cy="7.141" r="7.141" stroke="none"/>
            <circle cx="7.141" cy="7.141" r="6.891" fill="none"/>
          </g>
          <path id="Path_191-3" data-name="Path 191" d="M4,7.306H9.748l-2.64-2.64L7.778,4l3.778,3.778L7.778,11.557l-.666-.666,2.635-2.64H4Z" transform="translate(17.417 19.15)" fill="#fff"/>
        </g>
      </g>
    </g>
    <circle id="Ellipse_243" data-name="Ellipse 243" cx="63.199" cy="63.199" r="63.199" transform="translate(910.411 1656)" fill="#e6e6e6"/>
    <circle id="Ellipse_244" data-name="Ellipse 244" cx="52.666" cy="52.666" r="52.666" transform="translate(920.945 1666.533)" fill="#6c63ff"/>
    <rect id="Rectangle_754" data-name="Rectangle 754" width="14.369" height="36.37" rx="3" transform="translate(938.415 1721.157) rotate(-45)" fill="#f8f8f8"/>
    <rect id="Rectangle_755" data-name="Rectangle 755" width="14.449" height="61.936" rx="3" transform="translate(964.133 1746.875) rotate(-135)" fill="#f8f8f8"/>
    <g id="Group_4232" data-name="Group 4232" transform="translate(1047.594 1711)">
      <path id="Path_2306" data-name="Path 2306" d="M765.808,640.265H755.593l-4.86-39.4H765.81Z" transform="translate(-686.343 -316.881)" fill="#ffb8b8"/>
      <path id="Path_2307" data-name="Path 2307" d="M946.225,763.845H913.285v-.417a12.821,12.821,0,0,1,12.821-12.821h20.119Z" transform="translate(-864.154 -430.559)" fill="#2f2e41"/>
      <path id="Path_2308" data-name="Path 2308" d="M815.808,640.265H805.593l-4.86-39.4H815.81Z" transform="translate(-694.68 -316.881)" fill="#ffb8b8"/>
      <path id="Path_2309" data-name="Path 2309" d="M996.229,763.845H963.289v-.417a12.821,12.821,0,0,1,12.821-12.821h20.119Z" transform="translate(-872.492 -430.559)" fill="#2f2e41"/>
      <path id="Path_2310" data-name="Path 2310" d="M984.8,703.8l-9.461-2.878a3.744,3.744,0,0,1-2.638-3.194l-8.821-83.6a.4.4,0,0,0-.4-.373.391.391,0,0,0-.425.341L948.28,695.095a3.75,3.75,0,0,1-4.445,3l-12.092-2.49a3.763,3.763,0,0,1-2.984-3.926l8.987-132.749,60.943-6.576-9.056,148.093A3.747,3.747,0,0,1,984.8,703.8Z" transform="translate(-866.733 -397.502)" fill="#2f2e41"/>
      <circle id="Ellipse_241" data-name="Ellipse 241" cx="20.466" cy="20.466" r="20.466" transform="translate(97.542 4.892)" fill="#ffb8b8"/>
      <path id="Path_2311" data-name="Path 2311" d="M939.433,539.209l13.214-83.2a31.545,31.545,0,0,1,40-25.331h0a31.45,31.45,0,0,1,22.166,36.049l-13.825,74.3Z" transform="translate(-868.514 -377.003)" fill="#6c63ff"/>
      <path id="Path_2312" data-name="Path 2312" d="M1000.1,571.2a8.379,8.379,0,0,0,1.456-12.766l13.662-26.457-15.386,1.642-10.615,24.872A8.425,8.425,0,0,0,1000.1,571.2Z" transform="translate(-876.443 -394.104)" fill="#ffb8b8"/>
      <path id="Path_2313" data-name="Path 2313" d="M1004.549,539.288a3.755,3.755,0,0,1-2.022-.959L997.3,533.5a3.762,3.762,0,0,1-.91-4.211l10.447-24.763-1.482-48.929a12.079,12.079,0,1,1,23.937,3.265l2.534,30.758a38.642,38.642,0,0,1-7.448,26.162l-16.292,22.025a3.754,3.754,0,0,1-2.662,1.5A3.709,3.709,0,0,1,1004.549,539.288Z" transform="translate(-877.962 -379.627)" fill="#6c63ff"/>
      <path id="Path_2314" data-name="Path 2314" d="M854.475,381.562a8.379,8.379,0,0,0,11.188,6.318l19.037,22.9,4.487-14.809L870.421,376.5a8.424,8.424,0,0,0-15.946,5.067Z" transform="translate(-854.323 -367.355)" fill="#ffb8b8"/>
      <path id="Path_2315" data-name="Path 2315" d="M872.294,394.006a3.754,3.754,0,0,1,1.671-1.488l6.486-2.93a3.762,3.762,0,0,1,4.233.8l18.73,19.275,45.635,17.712a12.079,12.079,0,1,1-12.34,20.77L907.4,438.49a38.641,38.641,0,0,1-21.188-17.058l-13.93-23.59a3.754,3.754,0,0,1-.346-3.038,3.709,3.709,0,0,1,.36-.8Z" transform="translate(-857.23 -370.308)" fill="#6c63ff"/>
      <path id="Path_2316" data-name="Path 2316" d="M831.764,375.652l-.833,26.664L815.58,428.99,828.4,399.265Z" transform="translate(-697.156 -279.33)" opacity="0.1"/>
      <path id="Path_2317" data-name="Path 2317" d="M988.292,395.719a5.352,5.352,0,0,1-5.858-3.918,8.136,8.136,0,0,0-5.792-6.061c-3.754-.858-8.343.909-11.094-1.935a5.531,5.531,0,0,1-1.313-4.868c.507-2.764,2.484-4.852,4.636-6.522a28.383,28.383,0,0,1,15.72-5.875,56.4,56.4,0,0,1,8.85.44,39.17,39.17,0,0,1,9.052,1.654,21.312,21.312,0,0,1,13.334,15.565,24.6,24.6,0,0,1-5.047,20.107,26.415,26.415,0,0,1-10.133,7.715,3.953,3.953,0,0,1-3,.152c-2.464-.98-2.062-4.032-.938-6.068,1.2-2.179,3.052-4.288,2.086-6.94a5.251,5.251,0,0,0-2.606-2.8c-2.45-1.249-5.19-.954-7.823-.65Z" transform="translate(-872.629 -366.516)" fill="#2f2e41"/>
    </g>
  </g>
</svg>
