<svg xmlns="http://www.w3.org/2000/svg" width="144" height="144" viewBox="0 0 144 144">
  <g id="Group_4172" data-name="Group 4172" transform="translate(-629 -1701)">
    <g id="Rectangle_589" data-name="Rectangle 589" transform="translate(629 1701)" fill="#fff" stroke="#f4f4f4" stroke-width="2">
      <rect width="144" height="144" rx="15" stroke="none"/>
      <rect x="1" y="1" width="142" height="142" rx="14" fill="none"/>
    </g>
    <g id="Group_4035" data-name="Group 4035" transform="translate(-170 801)">
      <g id="Group_4034" data-name="Group 4034" transform="translate(833 934)">
        <g id="Group_4020" data-name="Group 4020">
          <g id="Group_4019" data-name="Group 4019">
            <path id="Path_1188" data-name="Path 1188" d="M38.29,0A38.29,38.29,0,1,0,76.58,38.29,38.29,38.29,0,0,0,38.29,0Z" fill="#c9e0ed"/>
            <path id="Path_2115" data-name="Path 2115" d="M34.312,29.883a11.243,11.243,0,0,0-2.907-1.619,30.443,30.443,0,0,0-3.046-1.1V18.849a3.1,3.1,0,0,1,2.68,1.062,4.8,4.8,0,0,1,1.009,3.081h4.369a8.076,8.076,0,0,0-.661-3.394,6.788,6.788,0,0,0-1.74-2.4,7.588,7.588,0,0,0-2.663-1.427,8.929,8.929,0,0,0-2.924-.47V12.74H26.062v2.593a8.6,8.6,0,0,0-2.959.5,8.7,8.7,0,0,0-2.785,1.479A6.962,6.962,0,0,0,18.4,19.7a7.449,7.449,0,0,0-.714,3.324,7.745,7.745,0,0,0,.766,3.638,7.362,7.362,0,0,0,1.932,2.419,11.278,11.278,0,0,0,2.8,1.584,25.635,25.635,0,0,0,2.8,1.044v9.538a4,4,0,0,1-3.481-1.584A6.422,6.422,0,0,1,21.4,35.557H17.116a10.1,10.1,0,0,0,.627,3.9,7.867,7.867,0,0,0,1.915,2.872,8.406,8.406,0,0,0,2.941,1.74,9.746,9.746,0,0,0,3.481.679v2.8h2.3V44.8a10.234,10.234,0,0,0,3.22-.731,8.459,8.459,0,0,0,2.872-1.74A7.606,7.606,0,0,0,36.4,39.612a9.625,9.625,0,0,0,.714-3.846,7.658,7.658,0,0,0-.766-3.585A7.467,7.467,0,0,0,34.312,29.883Zm-8.25-3.22a9.19,9.19,0,0,1-1.271-.487,5.065,5.065,0,0,1-1.375-.766,3.951,3.951,0,0,1-.975-1.149,3.2,3.2,0,0,1-.383-1.619A3.568,3.568,0,0,1,23.191,19.7a4.125,4.125,0,0,1,2.872-.888Zm5.361,13.28a4.908,4.908,0,0,1-3.063,1.236v-9.12a13.245,13.245,0,0,1,1.392.557,5.917,5.917,0,0,1,1.514.835,3.655,3.655,0,0,1,1.479,3.115A4.212,4.212,0,0,1,31.423,40Z" transform="translate(10.76 8.572)" fill="#0667eb"/>
          </g>
        </g>
      </g>
    </g>
  </g>
</svg>
