<svg xmlns="http://www.w3.org/2000/svg" width="18.375" height="18.375" viewBox="0 0 18.375 18.375">
  <path id="Path_1197" data-name="Path 1197" d="M16.406-17.062H1.969A1.969,1.969,0,0,0,0-15.094V-.656A1.969,1.969,0,0,0,1.969,1.313H16.406A1.969,1.969,0,0,0,18.375-.656V-15.094A1.969,1.969,0,0,0,16.406-17.062ZM14.4-10.549c.008.115.008.234.008.349A7.6,7.6,0,0,1,6.755-2.547a7.618,7.618,0,0,1-4.13-1.206,5.671,5.671,0,0,0,.648.033A5.393,5.393,0,0,0,6.612-4.869,2.694,2.694,0,0,1,4.1-6.735a2.9,2.9,0,0,0,1.214-.049A2.69,2.69,0,0,1,3.158-9.425v-.033a2.689,2.689,0,0,0,1.214.34,2.683,2.683,0,0,1-1.2-2.237s0,0,0,0a2.656,2.656,0,0,1,.365-1.358A7.638,7.638,0,0,0,9.085-9.9a2.693,2.693,0,0,1,2.625-3.306,2.68,2.68,0,0,1,1.965.849,5.271,5.271,0,0,0,1.706-.648A2.683,2.683,0,0,1,14.2-11.525a5.353,5.353,0,0,0,1.55-.418A5.661,5.661,0,0,1,14.4-10.549Z" transform="translate(0 17.063)" fill="#1da1f2"/>
</svg>
