<svg xmlns="http://www.w3.org/2000/svg" width="152.214" height="152.071" viewBox="0 0 152.214 152.071">
  <g id="Group_3378" data-name="Group 3378" transform="translate(-628.531 -5203.929)">
    <g id="Rectangle_588" data-name="Rectangle 588" transform="translate(628.531 5212)" fill="#fff" stroke="#f4f4f4" stroke-width="2">
      <rect width="144" height="144" rx="15" stroke="none"/>
      <rect x="1" y="1" width="142" height="142" rx="14" fill="none"/>
    </g>
    <g id="Group_3181" data-name="Group 3181" transform="translate(659.531 5229)">
      <g id="Group_3180" data-name="Group 3180">
        <path id="Path_1185" data-name="Path 1185" d="M3924.052,6793.278V6803.7l-4.738,6.74,25.8,7.792-.35-9.56-3.756-4.973v-14.321Z" transform="translate(-3891.626 -6724.058)" fill="#c9e0ed"/>
        <path id="Path_1184" data-name="Path 1184" d="M3923.68,6793.682v1.994s4.051,7.789,16.949,6.293c-.063-9.222,0-9.347,0-9.347l-9.16-2.678Z" transform="translate(-3891.303 -6724.017)" fill="#abc8d8"/>
        <path id="Path_1180" data-name="Path 1180" d="M3893.529,6821.3c28.919-13.881,29.15-14.112,29.15-14.112s9.023,11.337,23.83,0l28.226,14.112S3938.412,6845.126,3893.529,6821.3Z" transform="translate(-3893.529 -6722.745)" fill="#0667eb"/>
        <path id="Path_1182" data-name="Path 1182" d="M3908.909,6765.088s-3,11.665,5.184,15.553c1.7,7.615,11.178,17.417,11.178,17.417s8.1,9.64,16.85-1.215,9.559-15.066,10.288-16.606,6.237-.729,6.885-12.313,0-16.849,0-16.849-6.8-5.67-7.857-5.67-23.978,2.349-26.165,3.159-12.8,8.911-12.96,9.559S3908.909,6765.088,3908.909,6765.088Z" transform="translate(-3891.759 -6727.302)" fill="#c9e0ed"/>
        <path id="Path_1181" data-name="Path 1181" d="M3899.759,6759.277c1.7,2.892,3.97,8.352,9.857,8.352,1.642-.411.411-2.738,4.244-1.1-.637-3.551,0-5.132,0-5.132s23.1.059,26.648-9.359c10.258-3.235,13.708,4.482,13.708,4.482l-.431,10.353s5.512-1.725,5.7,2.35,10.312-26.645-12.225-37.386-34.329,8.214-34.329,8.214S3903.328,6759.019,3899.759,6759.277Z" transform="translate(-3891.995 -6728.545)" fill="#3f4556"/>
        <path id="Path_1183" data-name="Path 1183" d="M3928.935,6770.446s4.626-7.536,9.426,0" transform="translate(-3891.383 -6726.341)" fill="none" stroke="#3f4556" stroke-width="1"/>
        <g id="Ellipse_139" data-name="Ellipse 139" transform="translate(20.909 34.849)" fill="#c9e0ed" stroke="#3f4556" stroke-width="1">
          <circle cx="9.664" cy="9.664" r="9.664" stroke="none"/>
          <circle cx="9.664" cy="9.664" r="9.164" fill="none"/>
        </g>
        <g id="Ellipse_140" data-name="Ellipse 140" transform="translate(44.531 34.849)" fill="#c9e0ed" stroke="#3f4556" stroke-width="1">
          <circle cx="9.664" cy="9.664" r="9.664" stroke="none"/>
          <circle cx="9.664" cy="9.664" r="9.164" fill="none"/>
        </g>
      </g>
    </g>
    <g id="Group_3277" data-name="Group 3277" transform="translate(17.674)">
      <g id="Group_3276" data-name="Group 3276">
        <path id="Path_1199" data-name="Path 1199" d="M0,0H23.143V23.143H0Z" transform="translate(731.857 5212)" fill="none"/>
        <g id="Path_1200" data-name="Path 1200" transform="translate(731.786 5211.929)" fill="#0667eb">
          <path d="M 11.64285659790039 26.28571701049805 C 9.668666839599609 26.28571701049805 7.75058650970459 25.89761734008789 5.941906452178955 25.13218688964844 C 4.198146820068359 24.39422607421875 2.632956504821777 23.33902740478516 1.289816617965698 21.99589729309082 C -0.05331340059638023 20.65275573730469 -1.108513355255127 19.08756637573242 -1.846473455429077 17.34380722045898 C -2.611903429031372 15.53512668609619 -3.000003337860107 13.61704635620117 -3.000003337860107 11.64285659790039 C -3.000003337860107 9.668666839599609 -2.611903429031372 7.75058650970459 -1.846473455429077 5.941906452178955 C -1.108513355255127 4.198146820068359 -0.05331340059638023 2.632956504821777 1.289816617965698 1.289816617965698 C 2.632956504821777 -0.05331340059638023 4.198146820068359 -1.108513355255127 5.941906452178955 -1.846473455429077 C 7.75058650970459 -2.611903429031372 9.668666839599609 -3.000003337860107 11.64285659790039 -3.000003337860107 C 13.61704635620117 -3.000003337860107 15.53512668609619 -2.611903429031372 17.34380722045898 -1.846473455429077 C 19.08756637573242 -1.108513355255127 20.65275573730469 -0.05331340059638023 21.99589729309082 1.289816617965698 C 23.33902740478516 2.632956504821777 24.39422607421875 4.198146820068359 25.13218688964844 5.941906452178955 C 25.89761734008789 7.75058650970459 26.28571701049805 9.668666839599609 26.28571701049805 11.64285659790039 C 26.28571701049805 13.61704635620117 25.89761734008789 15.53512668609619 25.13218688964844 17.34380722045898 C 24.39422607421875 19.08756637573242 23.33902740478516 20.65275573730469 21.99589729309082 21.99589729309082 C 20.65275573730469 23.33902740478516 19.08756637573242 24.39422607421875 17.34380722045898 25.13218688964844 C 15.53512668609619 25.89761734008789 13.61704635620117 26.28571701049805 11.64285659790039 26.28571701049805 Z" stroke="none"/>
          <path d="M 11.64285659790039 1.999994277954102 C 6.31999397277832 1.999994277954102 1.999994277954102 6.31999397277832 1.999994277954102 11.64285659790039 C 1.999994277954102 16.96571922302246 6.31999397277832 21.28570556640625 11.64285659790039 21.28570556640625 C 16.96571922302246 21.28570556640625 21.28570556640625 16.96571922302246 21.28570556640625 11.64285659790039 C 21.28570556640625 6.31999397277832 16.96571922302246 1.999994277954102 11.64285659790039 1.999994277954102 M 11.64285659790039 -8.000005722045898 C 22.47395706176758 -8.000005722045898 31.28570556640625 0.8117446899414063 31.28570556640625 11.64285659790039 C 31.28570556640625 22.47395706176758 22.47395706176758 31.28570556640625 11.64285659790039 31.28570556640625 C 0.8117446899414063 31.28570556640625 -8.000005722045898 22.47395706176758 -8.000005722045898 11.64285659790039 C -8.000005722045898 0.8117446899414063 0.8117446899414063 -8.000005722045898 11.64285659790039 -8.000005722045898 Z" stroke="none" fill="#fff"/>
        </g>
        <path id="Path_1201" data-name="Path 1201" d="M11.321,18.918,6.5,14.1l1.36-1.36,3.462,3.452L18.64,8.87,20,10.239Z" transform="translate(730.179 5209.475)" fill="#fff"/>
      </g>
    </g>
  </g>
</svg>
