<svg xmlns="http://www.w3.org/2000/svg" xmlns:xlink="http://www.w3.org/1999/xlink" width="520.48" height="522.219" viewBox="0 0 520.48 522.219">
  <defs>
    <filter id="Path_36" x="234.524" y="17.595" width="58.22" height="61.438" filterUnits="userSpaceOnUse">
      <feOffset dx="3" dy="3" input="SourceAlpha"/>
      <feGaussianBlur stdDeviation="3" result="blur"/>
      <feFlood flood-opacity="0.302"/>
      <feComposite operator="in" in2="blur"/>
      <feComposite in="SourceGraphic"/>
    </filter>
  </defs>
  <g id="Group_3428" data-name="Group 3428" transform="translate(-755 -167)">
    <g id="Group_3427" data-name="Group 3427" transform="translate(755 167)">
      <g id="Group_3426" data-name="Group 3426" transform="translate(396.295 255.898)">
        <path id="Path_1353" data-name="Path 1353" d="M882.367,630.886c0-34.293,27.8-115.668,62.093-115.668s62.092,81.375,62.092,115.668a62.093,62.093,0,1,1-124.185,0Z" transform="translate(-882.367 -515.218)" fill="#f2f2f2"/>
        <path id="Path_1354" data-name="Path 1354" d="M938.62,777.6a1.106,1.106,0,0,1-1.106-1.106V553.535a1.106,1.106,0,1,1,2.212,0V776.493a1.106,1.106,0,0,1-1.106,1.106Z" transform="translate(-876.528 -511.278)" fill="#3f3d56"/>
        <path id="Path_1355" data-name="Path 1355" d="M938.62,646.218a1.106,1.106,0,0,1-.8-1.869l31.565-33.123a1.106,1.106,0,0,1,1.6,1.526L939.42,645.875a1.1,1.1,0,0,1-.8.343Z" transform="translate(-876.528 -505.089)" fill="#3f3d56"/>
        <path id="Path_1356" data-name="Path 1356" d="M941.231,594.937a1.1,1.1,0,0,1-.746-.29l-27.278-24.94a1.106,1.106,0,0,1,1.493-1.632l27.278,24.94a1.106,1.106,0,0,1-.746,1.922Z" transform="translate(-879.14 -509.652)" fill="#3f3d56"/>
      </g>
      <path id="Rectangle_653" data-name="Rectangle 653" d="M16,0H136a16,16,0,0,1,16,16V123a0,0,0,0,1,0,0H0a0,0,0,0,1,0,0V16A16,16,0,0,1,16,0Z" transform="translate(0 399)" fill="#6c63ff"/>
      <g id="Group_3423" data-name="Group 3423" transform="translate(25.435 287.53)">
        <g id="Group_3422" data-name="Group 3422" transform="translate(0 0)">
          <circle id="Ellipse_142" data-name="Ellipse 142" cx="17.191" cy="17.191" r="17.191" transform="translate(58.32 4.319)" fill="#2f2e41"/>
          <path id="Path_1227" data-name="Path 1227" d="M828.61,620.055h-6.8l-3.235-26.223h10.034Z" transform="translate(-797.109 -463.562)" fill="#ffb8b8"/>
          <path id="Path_1228" data-name="Path 1228" d="M809.021,637.617h13.112v8.255H800.766A8.255,8.255,0,0,1,809.021,637.617Z" transform="translate(-789.174 -483.066)" fill="#2f2e41"/>
          <path id="Path_1229" data-name="Path 1229" d="M812.321,611.766l-6.486-2.036,4.765-25.989,9.573,3Z" transform="translate(-791.433 -459.067)" fill="#ffb8b8"/>
          <path id="Path_1230" data-name="Path 1230" d="M8.255,0H21.366V8.255H0A8.255,8.255,0,0,1,8.255,0Z" transform="translate(2.472 144.885) rotate(17.423)" fill="#2f2e41"/>
          <path id="Path_1231" data-name="Path 1231" d="M986.982,649.7a21,21,0,0,0-.843-3.893l-1.27-1.6-3.305-4.148-.144.005c-.244.011-1.259.067-2.828.189h-.017c-.97.078-2.157.178-3.5.3-.355.039-.727.072-1.109.111v5.789h6.932a1.389,1.389,0,0,1,1.375,1.209c.006.061.011.117.011.178a1.387,1.387,0,0,1-1.386,1.386h-40.26a15.737,15.737,0,0,0-1.475,1.109,8.254,8.254,0,0,0-2.911,4.359c-2.351,10.337-6.638,29.612-7.9,35.274a2.516,2.516,0,0,0,.749,2.373,2.462,2.462,0,0,0,.815.5l5,1.874a2.661,2.661,0,0,0,.638.15c.028,0,.05.005.078.005a1.431,1.431,0,0,0,.155.006,2.513,2.513,0,0,0,2.335-1.608l3.948-10.359,6.083-15.971,2.407-6.316c2.789.654,26.191,5.834,34.027-2.512a8.9,8.9,0,0,0,1.8-2.834A11.536,11.536,0,0,0,986.982,649.7Z" transform="translate(-912.68 -552.647)" fill="#2f2e41"/>
          <path id="Path_1232" data-name="Path 1232" d="M999.561,654.323c-.122-.494-.26-1-.421-1.519l-4.575-5.745-.144.006c-.289.017-1.658.089-3.76.261-2.384.2-5.717.521-9.46,1.026-.111.011-.227.028-.338.044-.366.05-.738.1-1.109.155v1.026h6.932a1.389,1.389,0,0,1,1.375,1.209c.005.061.011.117.011.177a1.387,1.387,0,0,1-1.386,1.386h-24.5c-1.07.349-2.1.715-3.089,1.109-5.179,2.052-9.056,4.741-9.849,8.24-.266,1.176-.56,2.468-.871,3.843-1.153,5.113-2.556,11.374-3.826,17.063v.006c-.261,1.176-.521,2.318-.771,3.427-1.059,4.769-1.958,8.812-2.435,10.936-.011.061-.022.116-.033.177v.011a2.588,2.588,0,0,0,.155,1.27l.005.006v.006a2.457,2.457,0,0,0,.721.993,2.551,2.551,0,0,0,.715.416l5,1.874a2.541,2.541,0,0,0,.871.161,2.458,2.458,0,0,0,1.192-.305,2.5,2.5,0,0,0,1.142-1.3l10.769-28.259,1.669-4.386c2.789.654,26.191,5.828,34.027-2.512a9.366,9.366,0,0,0,2.484-6.139A16.464,16.464,0,0,0,999.561,654.323Z" transform="translate(-918.472 -555.765)" fill="#2f2e41"/>
          <path id="Path_1233" data-name="Path 1233" d="M1022.992,568.3c-.089-.105-.183-.211-.283-.311a13.571,13.571,0,0,0-11.629-4.1,44.006,44.006,0,0,0-5.5,1.081,13.854,13.854,0,0,0-6.2,3.477,13.539,13.539,0,0,0-4.109,10.093c.022.76.028,1.536.017,2.324,0,.366-.006.738-.011,1.109h5.468a2.942,2.942,0,0,1,.7.083,3.056,3.056,0,0,1,2.346,2.967v25.8c.371.105.743.211,1.109.322.116.039.227.072.338.105.128.039.255.078.377.116q1.688.524,3.3,1.109h1.808a1.389,1.389,0,0,1,1.375,1.209c.377.15.743.3,1.1.449,1.281.532,2.5,1.065,3.61,1.581,1.5.688,2.839,1.342,3.96,1.913a2.544,2.544,0,0,0,1.137.277,2.442,2.442,0,0,0,1.442-.477,3.034,3.034,0,0,0,.25-.205,2.5,2.5,0,0,0,.76-2.207,71.05,71.05,0,0,1-.5-13.143c.155-3.688.488-7.47.921-11.124.233-1.98.493-3.921.765-5.789.261-1.786.538-3.5.81-5.119A13.646,13.646,0,0,0,1022.992,568.3Z" transform="translate(-942.518 -518.665)" fill="#6c63ff"/>
          <path id="Path_1234" data-name="Path 1234" d="M994.091,572.336a6.563,6.563,0,0,0-.876-.3,6.377,6.377,0,0,0-7.509,3.621l-3.81,8.795-.477,1.109h13.159a2.946,2.946,0,0,1,.7.083l.444-1.026,1.686-3.893A6.383,6.383,0,0,0,994.091,572.336Z" transform="translate(-936.348 -522.246)" fill="#6c63ff"/>
          <circle id="Ellipse_148" data-name="Ellipse 148" cx="13.62" cy="13.62" r="13.62" transform="translate(55.954 13.657)" fill="#ffb8b8"/>
          <path id="Path_1235" data-name="Path 1235" d="M1032.4,601.916l-7.775.211-.566,5.462-.128,1.264-12.178,5.468-1.109.5v9.721l1.109-.316,3.5-1h.017l15.438-4.4.177-.05a6.033,6.033,0,0,0,4.359-5.74l.039-6.449.033-4.752Z" transform="translate(-949.368 -535.622)" fill="#ffb8b8"/>
          <path id="Path_1236" data-name="Path 1236" d="M1044.2,577.688a6.378,6.378,0,1,0-12.732.782l.848,13.841a2.488,2.488,0,0,0,1.015,1.852,2.46,2.46,0,0,0,1.63.482l5.945-.366,1.8-.111a2.432,2.432,0,0,0,1.719-.837,1.734,1.734,0,0,0,.133-.166,2.477,2.477,0,0,0,.488-1.641Z" transform="translate(-958.638 -522.197)" fill="#6c63ff"/>
          <path id="Path_1237" data-name="Path 1237" d="M967.038,625.1h-.715v-.072c-.366.05-.738.1-1.109.155v1.026h5.124Q968.723,625.625,967.038,625.1Zm0,0h-.715v-.072c-.366.05-.738.1-1.109.155v1.026h5.124Q968.723,625.625,967.038,625.1Zm5.107,0h-5.823V598.757a4.165,4.165,0,0,0-3.011-3.993,3.91,3.91,0,0,0-1.148-.166H912.809a4.164,4.164,0,0,0-4.159,4.159V625.93a4.161,4.161,0,0,0,4.159,4.159h59.336a2.5,2.5,0,0,0,2.479-2.224,2.15,2.15,0,0,0,.017-.272A2.5,2.5,0,0,0,972.145,625.1Zm1.386,2.5a1.387,1.387,0,0,1-1.386,1.386H912.809a3.052,3.052,0,0,1-3.05-3.05V598.757a3.052,3.052,0,0,1,3.05-3.05h49.354a2.957,2.957,0,0,1,.7.083,3.056,3.056,0,0,1,2.346,2.967v27.45h6.932a1.389,1.389,0,0,1,1.375,1.209C973.526,627.477,973.531,627.532,973.531,627.593Zm-6.494-2.5h-.715v-.072c-.366.05-.738.1-1.109.155v1.026h5.124Q968.723,625.625,967.038,625.1Z" transform="translate(-903.932 -532.396)" fill="#3f3d56"/>
          <circle id="Ellipse_149" data-name="Ellipse 149" cx="3.327" cy="3.327" r="3.327" transform="translate(30.225 76.62)" fill="#6c63ff"/>
          <path id="Path_1252" data-name="Path 1252" d="M1020.725,526.037c-1.161.625-2.607,1.241-3.713.487-1.08-.736-1.156-2.375-.784-3.649a16.836,16.836,0,0,0,1.136-3.8,5.51,5.51,0,0,0-2.768-4.678,14.962,14.962,0,0,0-5.254-1.7l-9.939-1.9c-2.46-.469-5.124-1.056-6.766-3.036-2.375-2.866-1.345-7.645,1.469-9.965s6.78-2.58,10.322-1.8a54.118,54.118,0,0,0,5.859,1.357c3.927.413,8.079-1.141,11.723.475,3.172,1.407,5.093,4.979,5.541,8.529s-.334,7.118-1.209,10.563a19.065,19.065,0,0,1-2.24,5.874,6.432,6.432,0,0,1-5.023,3.149Z" transform="translate(-940.756 -488.299)" fill="#2f2e41"/>
          <circle id="Ellipse_151" data-name="Ellipse 151" cx="11.091" cy="11.091" r="11.091" transform="translate(77.401)" fill="#2f2e41"/>
        </g>
      </g>
      <path id="Rectangle_652" data-name="Rectangle 652" d="M16,0H136a16,16,0,0,1,16,16V123a0,0,0,0,1,0,0H0a0,0,0,0,1,0,0V16A16,16,0,0,1,16,0Z" transform="translate(297 399)" fill="#6c63ff"/>
      <g id="Group_3425" data-name="Group 3425" transform="translate(330.659 297.923)">
        <g id="Group_3423-2" data-name="Group 3423" transform="translate(0 0)">
          <g id="Group_3422-2" data-name="Group 3422" transform="translate(0)">
            <circle id="Ellipse_166" data-name="Ellipse 166" cx="15.34" cy="15.34" r="15.34" transform="translate(31.702)" fill="#2f2e41"/>
            <path id="Path_1329" data-name="Path 1329" d="M173.1,369.834l-.406-6.953L199.317,358l.6,10.263Z" transform="translate(-140.629 -256.019)" fill="#ffb8b8"/>
            <path id="Path_1330" data-name="Path 1330" d="M8.458,0H21.891V8.458H0A8.458,8.458,0,0,1,8.458,0Z" transform="translate(33.262 93.335) rotate(86.655)" fill="#2f2e41"/>
            <path id="Path_1331" data-name="Path 1331" d="M173.051,365.747l-4.423,5.381-22.86-14.5,6.527-7.942Z" transform="translate(-129.002 -251.996)" fill="#ffb8b8"/>
            <path id="Path_1332" data-name="Path 1332" d="M8.458,0H21.891V8.458H0A8.458,8.458,0,0,1,8.458,0Z" transform="matrix(0.635, -0.773, 0.773, 0.635, 29.56, 128.244)" fill="#2f2e41"/>
            <path id="Path_1333" data-name="Path 1333" d="M441.552,576.461,438.53,590.71a2.273,2.273,0,0,0,2.187,2.744l29.713.479a2.273,2.273,0,0,0,2.275-2.667l-2.6-14.728a2.273,2.273,0,0,0-2.238-1.878H443.775A2.273,2.273,0,0,0,441.552,576.461Z" transform="translate(-410.231 -487.733)" fill="#2f2e41"/>
            <path id="Path_1334" data-name="Path 1334" d="M425.007,578.033s-28.976-18.181-34.657-8.522c-2.841,4.829-1.42,9.516.71,13a19.674,19.674,0,0,0,8.183,7.324l23.492,11.5,8.522-9.09-5.682-5.113Z" transform="translate(-388.759 -484.288)" fill="#2f2e41"/>
            <path id="Path_1335" data-name="Path 1335" d="M472.513,579.5s37.5-10.795,30.112,9.659-35.225,12.5-35.225,12.5l-2.841-8.522,9.659-6.818Z" transform="translate(-421.493 -488.593)" fill="#2f2e41"/>
            <circle id="Ellipse_167" data-name="Ellipse 167" cx="13.954" cy="13.954" r="13.954" transform="translate(33.281 4.888)" fill="#ffb8b8"/>
            <path id="Path_1336" data-name="Path 1336" d="M453.832,542.97a74.986,74.986,0,0,1-17.191-2.265l-.166-.045-7.787-35.819a13.2,13.2,0,0,1,8.484-15.308,45.712,45.712,0,0,1,29.146-.582h0a13.334,13.334,0,0,1,8.883,15.775l-8.7,35.9-.122.058C462.767,542.4,458.247,542.97,453.832,542.97Z" transform="translate(-405.866 -449.811)" fill="#ccc"/>
            <path id="Path_1337" data-name="Path 1337" d="M454.506,578.116a5.713,5.713,0,0,1,8.224-3.018l15.332-13.309,1.387,10.459-14.773,11.035a5.744,5.744,0,0,1-10.171-5.167Z" transform="translate(-416.999 -482.175)" fill="#ffb8b8"/>
            <path id="Path_1338" data-name="Path 1338" d="M477.153,550.6a2.571,2.571,0,0,1-.737-.108,2.53,2.53,0,0,1-1.683-1.6l-1.851-5.243a2.541,2.541,0,0,1,.74-2.785l20.89-12.542-8.235-36.737.209-.05c.085-.021,8.522-1.941,11.98,7.278,2.421,6.457,11.381,20.5,10.749,29.985a8.457,8.457,0,0,1-7,7.8L478.7,550.072a2.531,2.531,0,0,1-1.548.531Z" transform="translate(-425.024 -451.759)" fill="#ccc"/>
            <path id="Path_1339" data-name="Path 1339" d="M465.676,575.923a5.713,5.713,0,0,0-8.224-3.018L442.12,559.6l-1.387,10.459L455.5,581.09a5.744,5.744,0,0,0,10.171-5.167Z" transform="translate(-411.204 -481.228)" fill="#ffb8b8"/>
            <path id="Path_1340" data-name="Path 1340" d="M435.919,550.6a2.532,2.532,0,0,1-1.548-.531l-25.219-12.336a8.457,8.457,0,0,1-7-7.8c-.632-9.488,10.032-24.664,12.453-31.121,3.457-9.22,11.895-7.3,11.98-7.278l.209.05-9.939,37.873,22.595,11.405a2.541,2.541,0,0,1,.74,2.785l-1.851,5.243a2.53,2.53,0,0,1-1.683,1.6A2.58,2.58,0,0,1,435.919,550.6Z" transform="translate(-394.531 -451.759)" fill="#ccc"/>
            <path id="Path_1341" data-name="Path 1341" d="M473.1,578.453H422.536a3.982,3.982,0,0,1-3.977-3.977V546.637a3.982,3.982,0,0,1,3.977-3.977H473.1a3.982,3.982,0,0,1,3.977,3.977v27.839A3.982,3.982,0,0,1,473.1,578.453Z" transform="translate(-401.628 -473.914)" fill="#6c63ff"/>
            <circle id="Ellipse_168" data-name="Ellipse 168" cx="3.409" cy="3.409" r="3.409" transform="translate(42.781 83.234)" fill="#fff"/>
            <path id="Path_1342" data-name="Path 1342" d="M446.9,442.15c-.827-2.1.53-4.6,2.543-5.614a8.906,8.906,0,0,1,6.6-.153c1.809.563,3.505,1.435,5.271,2.124a11.8,11.8,0,0,0,5.541.987,5.581,5.581,0,0,0,4.528-3,5.5,5.5,0,0,0-.974-5.516,10.681,10.681,0,0,0-4.893-3.145c-4.152-1.463-8.947-1.505-12.8.621s-6.474,6.653-5.677,10.982" transform="translate(-413.762 -423.875)" fill="#2f2e41"/>
          </g>
        </g>
      </g>
      <path id="Rectangle_651" data-name="Rectangle 651" d="M16,0H153a16,16,0,0,1,16,16V165a0,0,0,0,1,0,0H0a0,0,0,0,1,0,0V16A16,16,0,0,1,16,0Z" transform="translate(140 357)" fill="#f2f2f2"/>
      <g id="Group_3417" data-name="Group 3417" transform="translate(190.212)">
        <g id="Group_3416" data-name="Group 3416" transform="translate(0 0)">
          <g id="Group_3415" data-name="Group 3415" transform="translate(0 0)">
            <path id="Path_1287" data-name="Path 1287" d="M652.609,196.088c-10.812,0-21.583-7.432-30.331-20.926-7.691-11.866-12.469-26.614-12.469-38.49a42.8,42.8,0,1,1,85.6,0c0,11.876-4.778,26.625-12.469,38.49C674.192,188.656,663.421,196.088,652.609,196.088Z" transform="translate(-581.983 -93.871)" fill="#0667eb"/>
            <path id="Path_1288" data-name="Path 1288" d="M692.384,304.942h-8.07a2.518,2.518,0,0,1-2.458-3.064l1.557-7.007h9.871l1.557,7.007a2.517,2.517,0,0,1-2.458,3.064Zm-8.163-9.064-1.382,6.218a1.511,1.511,0,0,0,1.475,1.838h8.07a1.511,1.511,0,0,0,1.475-1.838l-1.382-6.218Z" transform="translate(-617.722 -193.662)" fill="#3f3d56"/>
            <path id="Path_1289" data-name="Path 1289" d="M641.338,118.643a29.426,29.426,0,0,0-13.291,18.081,28.3,28.3,0,0,0-.818,6.411.756.756,0,0,0,1.511,0,27.888,27.888,0,0,1,8.47-19.44,26.5,26.5,0,0,1,4.891-3.747.756.756,0,0,0-.762-1.3Z" transform="translate(-590.632 -106.124)" fill="#fff"/>
            <path id="Path_1290" data-name="Path 1290" d="M632.336,297.051c9.125-.467,19.509-.716,26.621,6.015a14.241,14.241,0,0,1,4.725,10.706c-.123,4.5-2.411,8.717-5.248,12.1-6.106,7.279-15.06,11.83-23.648,15.5-9.127,3.9-18.635,6.943-27.4,11.648-7.7,4.131-14.876,9.706-19.528,17.217A31.462,31.462,0,0,0,583.4,382.2a33.932,33.932,0,0,0,.636,12.776,41.156,41.156,0,0,0,13.811,21.764,60.91,60.91,0,0,0,23.573,11.75c10.132,2.689,20.689,3.3,31.129,3.358,10.782.063,21.573-.465,32.347.14,2.621.147,5.237.364,7.845.666.964.112.956-1.4,0-1.511-10.764-1.247-21.612-.961-32.424-.839-10.6.12-21.29.083-31.758-1.789a66.715,66.715,0,0,1-25.53-9.767,41.709,41.709,0,0,1-16.333-20.162c-2.954-8.166-2.923-17.2,1.032-25.031s10.869-13.767,18.376-18.094c8.663-4.993,18.2-8.118,27.405-11.925,8.692-3.6,17.583-7.884,24.26-14.682a26,26,0,0,0,6.875-11.291,15.273,15.273,0,0,0-1.714-12.035,20.431,20.431,0,0,0-8.986-7.576,35.219,35.219,0,0,0-14.17-2.622c-2.48-.025-4.958.088-7.434.214-.967.049-.973,1.56,0,1.511Z" transform="translate(-568.705 -193.886)" fill="#3f3d56"/>
            <path id="Path_1291" data-name="Path 1291" d="M382.076,668.718l-6.054,1.205-7.531-22.778,8.936-1.779Z" transform="translate(-364.898 -320.405)" fill="#ffb8b8"/>
            <path id="Path_1292" data-name="Path 1292" d="M574.6,788.924l-19.521,3.887-.049-.247a7.747,7.747,0,0,1,6.085-9.111h0l11.923-2.374Z" transform="translate(-554.714 -435.049)" fill="#2f2e41"/>
            <path id="Path_1293" data-name="Path 1293" d="M497.38,675.146h-6.173l-6.965-23.811h9.111Z" transform="translate(-422.365 -323.369)" fill="#ffb8b8"/>
            <path id="Path_1294" data-name="Path 1294" d="M687.025,796.491h-19.9v-.252a7.747,7.747,0,0,1,7.748-7.747h12.158Z" transform="translate(-610.436 -438.729)" fill="#2f2e41"/>
            <path id="Path_1295" data-name="Path 1295" d="M649.893,602.389a5.409,5.409,0,0,0-1.654-8.128l-12.333-47.7L625.18,551.39l15.5,45.369a5.439,5.439,0,0,0,9.218,5.63Z" transform="translate(-589.614 -318.618)" fill="#ffb8b8"/>
            <path id="Path_1296" data-name="Path 1296" d="M636.33,542.938l-11.922,2.815a2.425,2.425,0,0,1-2.974-2.155L620.4,531.43a6.736,6.736,0,0,1,13.12-3.058l4.507,11.308a2.425,2.425,0,0,1-1.7,3.258Z" transform="translate(-587.153 -307.002)" fill="#6c63ff"/>
            <path id="Path_1297" data-name="Path 1297" d="M563.055,682.533a2.256,2.256,0,0,1-2.212-1.8L554.836,651.9a14.065,14.065,0,0,1,2.054-10.606l18.923-28.385V591.634l21.968-4.95.095.077c11.4,9.305,10.74,20.777,10.67,21.664l21.589,70.106a2.266,2.266,0,0,1-2.165,2.933h-6.483a2.255,2.255,0,0,1-2.1-1.425l-23.269-55.577L568.729,647a1.764,1.764,0,0,0-.637,1.5l2.525,30.99a2.254,2.254,0,0,1-2.008,2.436l-5.3.589A2.387,2.387,0,0,1,563.055,682.533Z" transform="translate(-554.547 -338.538)" fill="#2f2e41"/>
            <circle id="Ellipse_159" data-name="Ellipse 159" cx="12.367" cy="12.367" r="12.367" transform="translate(24.222 183.704)" fill="#ffb8b8"/>
            <path id="Path_1298" data-name="Path 1298" d="M593.637,558.862a2.276,2.276,0,0,1-2.1-1.406c-4.143-10.171-4.074-23.018-2.257-30.65a14.189,14.189,0,0,1,14.582-10.862h0a14.211,14.211,0,0,1,13.3,16.26c-.968,6.563-1.362,15.807-1.486,19.476a2.272,2.272,0,0,1-1.709,2.115l-19.776,5a2.247,2.247,0,0,1-.553.069Z" transform="translate(-571.201 -303.406)" fill="#6c63ff"/>
            <path id="Path_1299" data-name="Path 1299" d="M579.08,444.558a5.3,5.3,0,0,1-.794.256l-8.709,23.4,3.859,4.681-6.3,6.747-7.636-7.623a4.028,4.028,0,0,1-.687-4.785l13.643-24.92a5.286,5.286,0,1,1,6.629,2.24Z" transform="translate(-556.417 -262.933)" fill="#ffb8b8"/>
            <path id="Path_1300" data-name="Path 1300" d="M570.981,511.944l6.946-10.09a2.425,2.425,0,0,1,3.651-.4l8.936,8.325a6.736,6.736,0,1,1-7.672,11.074L571.911,515.5a2.425,2.425,0,0,1-.93-3.553Z" transform="translate(-562.494 -295.901)" fill="#6c63ff"/>
            <path id="Path_1301" data-name="Path 1301" d="M616.247,482.837c-.891-.988-.37-2.686.454-3.74s1.938-1.95,2.263-3.288c.554-2.277-1.512-4.354-3.572-5.09s-4.369-.793-6.184-2.083c-2.75-1.956-3.377-6.415-1.8-9.545a10,10,0,0,1,8.162-5.195,18.677,18.677,0,0,1,9.538,2.257,21.221,21.221,0,0,1,7.741,5.9,12.62,12.62,0,0,1,2.65,9.6c-.72,4.144-3.967,7.343-7.575,8.9s-7.573,1.768-11.453,1.954Z" transform="translate(-580.369 -272.592)" fill="#2f2e41"/>
            <path id="Path_1302" data-name="Path 1302" d="M651.656,458.505a21.086,21.086,0,0,1,28.745-.864c6.693,5.875,9.245,15.549,16.271,21.022a19.831,19.831,0,0,0,22.51.87c-3.053,3.567-6.16,7.181-10.069,9.782s-8.794,4.1-13.355,2.988c-5.354-1.31-9.25-5.869-12.275-10.476s-5.692-9.654-10.079-12.992a18.867,18.867,0,0,0-11.555-3.817c-2.552.031-5.156.579-7.622-.078s-4.731-3.173-3.91-5.589Z" transform="translate(-602.009 -271.871)" fill="#2f2e41"/>
          </g>
        </g>
        <g transform="matrix(1, 0, 0, 1, -190.21, 0)" filter="url(#Path_36)">
          <path id="Path_36-2" data-name="Path 36" d="M219.03,275.349a10.34,10.34,0,1,1-.074-11.488l9.759-5.937a21.71,21.71,0,1,0-.2,23.8Z" transform="translate(52.03 -224.35)" fill="#fff"/>
        </g>
      </g>
    </g>
  </g>
</svg>
