<svg xmlns="http://www.w3.org/2000/svg" width="444" height="539" viewBox="0 0 444 539">
  <g id="Group_3983" data-name="Group 3983" transform="translate(-139 -627)">
    <rect id="Rectangle_708" data-name="Rectangle 708" width="444" height="539" rx="10" transform="translate(139 627)" fill="#0667eb"/>
    <g id="Group_2915" data-name="Group 2915" transform="translate(217 869)">
      <g id="Group_2914" data-name="Group 2914">
        <path id="Path_36" data-name="Path 36" d="M216.063,272.685A9.335,9.335,0,1,1,216,262.314l8.81-5.36a19.6,19.6,0,1,0-.177,21.484Z" transform="translate(-188.495 -232.226)" fill="#fff"/>
        <path id="Path_37" data-name="Path 37" d="M292.925,248.085v2.451a19.491,19.491,0,1,0,0,34.081v2.606h10.726V248.084H292.925ZM283.414,276.8a9.221,9.221,0,1,1,9.278-9.221A9.259,9.259,0,0,1,283.414,276.8Z" transform="translate(-221.687 -232.288)" fill="#fff"/>
        <path id="Path_38" data-name="Path 38" d="M365.421,258.7h15.084v-9.337H365.421c-7.026,0-12.741,5.262-12.741,11.729a11.267,11.267,0,0,0,4.108,8.594,15.97,15.97,0,0,0,8.317,3.049c1.371.176,2.435.329,3.071.425a4.061,4.061,0,0,1,.491.074l.166.026v.012a2.674,2.674,0,0,1,2.273,2.277c0,1.312-1.533,2.421-3.346,2.421H352.675v9.337h15.084c7.025,0,12.741-5.275,12.741-11.758a11.4,11.4,0,0,0-4.742-9.13,1.694,1.694,0,0,1-.2-.147c-.015-.013-.032-.024-.048-.036a12.944,12.944,0,0,0-1.9-1.117,16.767,16.767,0,0,0-4.028-1.108c-.565-.056-1.062-.109-1.529-.162a.893.893,0,0,1-.115,0c-1.07-.1-2.575-.343-3.161-.439-1.5-.229-2.7-1.2-2.7-2.32C362.075,259.817,363.638,258.7,365.421,258.7Z" transform="translate(-260.859 -232.855)" fill="#fff"/>
        <path id="Path_39" data-name="Path 39" d="M437.892,237.173a17.3,17.3,0,0,0-8.063,1.987V219.666l-9.316,3.113V257.53h-.02V274.6h9.49V254.371a7.909,7.909,0,0,1,15.819,0V274.6H455.2V254.371A17.251,17.251,0,0,0,437.892,237.173Z" transform="translate(-290.751 -219.666)" fill="#fff"/>
        <path id="Path_40" data-name="Path 40" d="M529.418,273.528h6.361A19.707,19.707,0,1,0,517,287.223a19.671,19.671,0,0,0,13.654-5.489l-8.408-6.386a9.379,9.379,0,0,1-12.481-1.8h19.657v-.015ZM517,258.355a9.368,9.368,0,0,1,8.623,5.695H508.371A9.372,9.372,0,0,1,517,258.355Z" transform="translate(-324.605 -232.289)" fill="#fff"/>
        <path id="Path_41" data-name="Path 41" d="M593.946,287.347V269.705a10.179,10.179,0,0,1,10.2-10.136,10.294,10.294,0,0,1,1.291.09V248.406c-.428-.026-.857-.042-1.291-.042A21.4,21.4,0,0,0,582.672,269.7v17.642h11.274Z" transform="translate(-362.233 -232.413)" fill="#fff"/>
        <path id="Path_42" data-name="Path 42" d="M651.521,258.355a9.3,9.3,0,1,1-9.355,9.3,9.338,9.338,0,0,1,9.355-9.3m0-10.27a19.569,19.569,0,1,0,19.689,19.569,19.629,19.629,0,0,0-19.689-19.569Z" transform="translate(-383.901 -232.29)" fill="#fff"/>
      </g>
    </g>
  </g>
</svg>
