<svg xmlns="http://www.w3.org/2000/svg" width="22.4" height="15.75" viewBox="0 0 22.4 15.75">
  <path id="Path_1195" data-name="Path 1195" d="M22.544-13.286a2.815,2.815,0,0,0-1.98-1.993c-1.747-.471-8.752-.471-8.752-.471s-7,0-8.752.471a2.815,2.815,0,0,0-1.98,1.993A29.526,29.526,0,0,0,.612-7.859a29.526,29.526,0,0,0,.468,5.427A2.773,2.773,0,0,0,3.061-.471C4.808,0,11.813,0,11.813,0s7,0,8.752-.471a2.773,2.773,0,0,0,1.98-1.961,29.526,29.526,0,0,0,.468-5.427A29.526,29.526,0,0,0,22.544-13.286ZM9.522-4.529V-11.19l5.855,3.331Z" transform="translate(-0.612 15.75)" fill="#fe0000"/>
</svg>
